<?xml version="1.0" encoding="UTF-8"?><!DOCTYPE svg PUBLIC "-//W3C//DTD SVG 1.1//EN" "http://www.w3.org/Graphics/SVG/1.1/DTD/svg11.dtd"><svg font-family="Consolas, Lucida Console, monospace" font-size="13px" class="wardley jss1" id="svgMap" width="1294" height="748" viewBox="-20 0 1274 688" version="1.1" xmlns="http://www.w3.org/2000/svg" xmlns:xlink="http://www.w3.org/1999/xlink"><defs><linearGradient id="arrowGradient" x1="0%" y1="0%" x2="100%" y2="0%"><stop offset="0%" style="stop-color:#ffffff;stop-opacity:1"></stop><stop offset="40%" style="stop-color:#808080;stop-opacity:1"></stop><stop offset="100%" style="stop-color:#808080;stop-opacity:1"></stop></linearGradient><filter id="ctrlHighlight"><feDropShadow dx="0" dy="0" stdDeviation="3" flood-color="blue"></feDropShadow></filter><linearGradient gradientUnits="objectBoundingBox" id="wardleyGradient" spreadMethod="pad" x1="0%" x2="100%" y1="0%" y2="0%"><stop offset="0%" style="stop-color:rgb(196, 196, 196);stop-opacity:1"></stop><stop offset="0.3" style="stop-color:white;stop-opacity:1"></stop><stop offset="0.7" style="stop-color:white"></stop><stop offset="1" style="stop-color:rgb(196, 196, 196)"></stop></linearGradient><linearGradient spreadMethod="pad" id="accelGradient" x1="0%" y1="64%" x2="76%" y2="0%"><stop offset="0%" style="stop-color:white;stop-opacity:1"></stop><stop offset="100%" style="stop-color:#8c8995;stop-opacity:1"></stop></linearGradient><pattern id="diagonalHatch" patternUnits="userSpaceOnUse" width="4" height="4"><path d="M 3,-1 l 2,2 M 0,0 l 4,4 M -1,3 l 2,2 " stroke="grey" stroke-width="1" opacity=".5"></path></pattern><marker id="arrow" markerWidth="12" markerHeight="12" refX="15" refY="0" viewBox="0 -5 10 10" orient="0"><path d="M0,-5L10,0L0,5" fill="red"></path></marker><marker id="graphArrow" markerWidth="12" markerHeight="12" refX="9" refY="0" viewBox="0 -5 10 10" orient="0"><path d="M0,-5L10,0L0,5" fill="black"></path></marker><marker id="pipelineArrow" markerWidth="5" markerHeight="5" refX="9" refY="0" viewBox="0 -5 10 10" orient="0"><path d="M0,-5L10,0L0,5" fill="black"></path></marker></defs><g id="grid"><rect x="0" width="1254" y="0" height="668" id="fillArea" fill="url(#wardleyGradient)"></rect><g id="valueChain" transform="translate(0,668) rotate(270)" font-family="&quot;Helvetica Neue&quot;,Helvetica,Arial,sans-serif" font-size="13px"><line x1="0" y1="0" x2="668" y2="0" stroke="black" stroke-width="1" stroke-dasharray="2,2"></line><line x1="-2em" y1="219.45000000000002" x2="668" y2="219.45000000000002" stroke="#b8b8b8" stroke-dasharray="2,2"></line><line x1="-2em" y1="501.6" x2="668" y2="501.6" stroke="#b8b8b8" stroke-dasharray="2,2"></line><line x1="-2em" y1="877.8000000000001" x2="668" y2="877.8000000000001" stroke="#b8b8b8" stroke-dasharray="2,2"></line><text fill="black" x="666" y="-0.4em" text-anchor="end" font-weight="bold">Value Chain</text></g><g id="Evolution" font-family="&quot;Helvetica Neue&quot;,Helvetica,Arial,sans-serif" font-size="13px" font-style="italic" transform="translate(0,668)"><line x1="0" y1="0" x2="1252" y2="0" stroke="black" stroke-width="1" marker-end="url(#graphArrow)"></line><text fill="black" x="10" y="-653" text-anchor="start" font-style="normal" font-size="11px" font-weight="bold">Uncharted</text><text fill="black" x="1244" y="-653" text-anchor="end" font-style="normal" font-size="11px" font-weight="bold">Industrialised</text><text fill="black" x="0" y="1em" text-anchor="start">genesis / concept </text><text fill="black" x="0" y="2em" text-anchor="start"></text><text fill="black" x="226.45000000000002" y="1em" text-anchor="start"> custom / emerging </text><text fill="black" x="226.45000000000002" y="2em" text-anchor="start"></text><text fill="black" x="508.6" y="1em" text-anchor="start"> product/ converging </text><text fill="black" x="508.6" y="2em" text-anchor="start"></text><text fill="black" x="884.8000000000001" y="1em" text-anchor="start"> commodity / accepted</text><text fill="black" x="884.8000000000001" y="2em" text-anchor="start"></text><text fill="black" x="1254" y="1.8em" text-anchor="end" font-weight="bold" font-style="normal">Evolution</text></g></g><g id="map"><g id="attitudes"></g><g id="methods"></g><g id="fluids"></g><g id="links"><g id="link_19-21_26"><line x1="940.5" y1="174.32" x2="965.58" y2="287.24" stroke="grey" stroke-width="1"></line></g><g id="link_8-10_19-21"><line x1="815.1" y1="67.43999999999997" x2="940.5" y2="174.32" stroke="grey" stroke-width="1"></line></g><g id="link_8-9_19-20"><line x1="915.42" y1="67.43999999999997" x2="840.1800000000001" y2="174.32" stroke="grey" stroke-width="1"></line></g><text is="custom" font-size="11px" text-anchor="middle" x="877.8" y="115.87999999999998" transform="rotate(305.14428380151384 877.8 120.87999999999998)">needs to</text><g id="link_19-22_8-11"><line x1="677.1600000000001" y1="174.32" x2="764.9399999999999" y2="67.43999999999997" stroke="grey" stroke-width="1"></line></g><g id="link_38-39_26"><line x1="865.2599999999999" y1="608.52" x2="965.58" y2="287.24" stroke="grey" stroke-width="1"></line></g><g id="link_38-39_19-20"><line x1="865.2599999999999" y1="608.52" x2="840.1800000000001" y2="174.32" stroke="grey" stroke-width="1"></line></g><g id="link_29_19-22"><line x1="689.7" y1="280.56" x2="677.1600000000001" y2="174.32" stroke="grey" stroke-width="1"></line></g><g id="link_38-40_30-31"><line x1="714.78" y1="608.52" x2="664.62" y2="294.56" stroke="grey" stroke-width="1"></line></g><text is="custom" font-size="11px" text-anchor="middle" x="689.7" y="446.53999999999996" transform="rotate(80.92281984281777 689.7 451.53999999999996)">understanding of</text><g id="link_19-20_29"><line x1="840.1800000000001" y1="174.32" x2="689.7" y2="280.56" stroke="grey" stroke-width="1"></line></g><text is="custom" font-size="11px" text-anchor="middle" x="764.94" y="222.44" transform="rotate(324.77762371376167 764.94 227.44)">complies with</text><g id="link_8-10_44"><line x1="815.1" y1="67.43999999999997" x2="752.4" y2="126.91999999999996" stroke="grey" stroke-width="1"></line></g><text is="custom" font-size="11px" text-anchor="middle" x="783.75" y="92.17999999999996" transform="rotate(316.50965554076384 783.75 97.17999999999996)">employs</text><g id="link_46_30-32"><line x1="802.5600000000001" y1="367.40000000000003" x2="865.2599999999999" y2="294.56" stroke="grey" stroke-width="1"></line></g><g id="link_46_26"><line x1="802.5600000000001" y1="367.40000000000003" x2="965.58" y2="287.24" stroke="grey" stroke-width="1"></line></g><g id="link_46_19-20"><line x1="802.5600000000001" y1="367.40000000000003" x2="840.1800000000001" y2="174.32" stroke="grey" stroke-width="1"></line></g><g id="link_47-49_38-39"><line x1="865.2599999999999" y1="381.40000000000003" x2="865.2599999999999" y2="608.52" stroke="grey" stroke-width="1"></line></g><g id="link_44_47-50"><line x1="752.4" y1="126.91999999999996" x2="514.14" y2="381.40000000000003" stroke="grey" stroke-width="1"></line></g><g id="link_46_54"><line x1="802.5600000000001" y1="367.40000000000003" x2="777.48" y2="460.91999999999996" stroke="grey" stroke-width="1"></line></g><g id="link_55-56_37"><line x1="815.1" y1="474.91999999999996" x2="840.1800000000001" y2="594.52" stroke="grey" stroke-width="1"></line></g><g id="link_61_55-57"><line x1="739.86" y1="527.72" x2="652.08" y2="474.91999999999996" stroke="grey" stroke-width="1"></line></g><g id="link_44_46"><line x1="752.4" y1="126.91999999999996" x2="802.5600000000001" y2="367.40000000000003" stroke="grey" stroke-width="1"></line></g><text is="custom" font-size="11px" text-anchor="middle" x="777.48" y="242.16" transform="rotate(78.21801104524285 777.48 247.16)">builds</text><g id="link_17_61"><line x1="815.1" y1="160.32" x2="739.86" y2="527.72" stroke="grey" stroke-width="1"></line></g></g><g id="evolvingEndLinks"></g><g id="bothEvolving"></g><g id="anchorLinks"></g><g id="anchorNonEvolvedLinks"></g><g id="evolvingToNoneEvolvingEndLinks"></g><g id="evolvedLinks">;</g><g id="anchors"></g><g id="accelerators"></g><g id="pipelines"><g id="pipeline_box_8" transform="translate(754.9399999999999,55.439999999999976)"><line x1="0" y1="0" x2="170.48000000000002" y2="0" stroke-width="1" stroke="black"></line><line x1="170.48000000000002" y1="0" x2="170.48000000000002" y2="22" stroke-width="1" stroke="black"></line><line x1="170.48000000000002" y1="22" x2="0" y2="22" stroke-width="1" stroke="black"></line><line x1="0" y1="22" x2="0" y2="0" stroke-width="1" stroke="black"></line></g><g is="custom" class="draggable" id="movable_pipeline_8_0" transform="translate(915.42,67.43999999999997)" style="cursor: grab;"><rect x="-15" y="-15" rx="30" ry="30" width="30" height="30" fill-opacity="0"></rect><circle id="pipeline_circle_8_0" cx="0" cy="0" stroke-width="1" r="5" stroke="black" fill="white"></circle></g><g transform="translate(915.42,55.439999999999976)"><g class="draggable" id="movable_rm_element_text_8-9" transform="translate(15,11)" style="cursor: grab;"><text is="custom" id="element_text_8-9" data-testid="element_text_8-9" font-weight="14px" font-size="13px" class="label" transform="" fill="black">public</text></g></g><g is="custom" class="draggable" id="movable_pipeline_8_1" transform="translate(815.1,67.43999999999997)" style="cursor: grab;"><rect x="-15" y="-15" rx="30" ry="30" width="30" height="30" fill-opacity="0"></rect><circle id="pipeline_circle_8_1" cx="0" cy="0" stroke-width="1" r="5" stroke="black" fill="white"></circle></g><g transform="translate(815.1,55.439999999999976)"><g class="draggable" id="movable_rm_element_text_8-10" transform="translate(-38,-6)" style="cursor: grab;"><text is="custom" id="element_text_8-10" data-testid="element_text_8-10" font-weight="14px" font-size="13px" class="label" transform="" fill="black">business</text></g></g><g is="custom" class="draggable" id="movable_pipeline_8_2" transform="translate(764.9399999999999,67.43999999999997)" style="cursor: grab;"><rect x="-15" y="-15" rx="30" ry="30" width="30" height="30" fill-opacity="0"></rect><circle id="pipeline_circle_8_2" cx="0" cy="0" stroke-width="1" r="5" stroke="black" fill="white"></circle></g><g transform="translate(764.9399999999999,55.439999999999976)"><g class="draggable" id="movable_rm_element_text_8-11" transform="translate(-62,12)" style="cursor: grab;"><text is="custom" id="element_text_8-11" data-testid="element_text_8-11" font-weight="14px" font-size="13px" class="label" transform="" fill="black">society</text></g></g><g id="pipeline_box_19" transform="translate(667.1600000000001,162.32)"><line x1="0" y1="0" x2="283.3399999999999" y2="0" stroke-width="1" stroke="black"></line><line x1="283.3399999999999" y1="0" x2="283.3399999999999" y2="22" stroke-width="1" stroke="black"></line><line x1="283.3399999999999" y1="22" x2="0" y2="22" stroke-width="1" stroke="black"></line><line x1="0" y1="22" x2="0" y2="0" stroke-width="1" stroke="black"></line></g><g is="custom" class="draggable" id="movable_pipeline_19_0" transform="translate(840.1800000000001,174.32)" style="cursor: grab;"><rect x="-15" y="-15" rx="30" ry="30" width="30" height="30" fill-opacity="0"></rect><circle id="pipeline_circle_19_0" cx="0" cy="0" stroke-width="1" r="5" stroke="black" fill="white"></circle></g><g transform="translate(840.1800000000001,162.32)"><g class="draggable" id="movable_rm_element_text_19-20" transform="translate(-5,25)" style="cursor: grab;"><text is="custom" id="element_text_19-20" data-testid="element_text_19-20" font-weight="14px" font-size="13px" class="label" transform="translate(30, 10)" fill="black"><tspan x="0" dy="0" text-anchor="middle">solves</tspan><tspan x="0" dy="15" text-anchor="middle">a</tspan><tspan x="0" dy="15" text-anchor="middle">problem</tspan></text></g></g><g is="custom" class="draggable" id="movable_pipeline_19_1" transform="translate(940.5,174.32)" style="cursor: grab;"><rect x="-15" y="-15" rx="30" ry="30" width="30" height="30" fill-opacity="0"></rect><circle id="pipeline_circle_19_1" cx="0" cy="0" stroke-width="1" r="5" stroke="black" fill="white"></circle></g><g transform="translate(940.5,162.32)"><g class="draggable" id="movable_rm_element_text_19-21" transform="translate(8,-21)" style="cursor: grab;"><text is="custom" id="element_text_19-21" data-testid="element_text_19-21" font-weight="14px" font-size="13px" class="label" transform="translate(30, 10)" fill="black"><tspan x="0" dy="0" text-anchor="middle">financial</tspan><tspan x="0" dy="15" text-anchor="middle">return</tspan></text></g></g><g is="custom" class="draggable" id="movable_pipeline_19_2" transform="translate(677.1600000000001,174.32)" style="cursor: grab;"><rect x="-15" y="-15" rx="30" ry="30" width="30" height="30" fill-opacity="0"></rect><circle id="pipeline_circle_19_2" cx="0" cy="0" stroke-width="1" r="5" stroke="black" fill="white"></circle></g><g transform="translate(677.1600000000001,162.32)"><g class="draggable" id="movable_rm_element_text_19-22" transform="translate(-82,-12)" style="cursor: grab;"><text is="custom" id="element_text_19-22" data-testid="element_text_19-22" font-weight="14px" font-size="13px" class="label" transform="translate(30, 10)" fill="black"><tspan x="0" dy="0" text-anchor="middle">supports</tspan><tspan x="0" dy="15" text-anchor="middle">a</tspan><tspan x="0" dy="15" text-anchor="middle">belief</tspan></text></g></g><g id="pipeline_box_30" transform="translate(654.62,282.56)"><line x1="0" y1="0" x2="220.63999999999987" y2="0" stroke-width="1" stroke="black"></line><line x1="220.63999999999987" y1="0" x2="220.63999999999987" y2="22" stroke-width="1" stroke="black"></line><line x1="220.63999999999987" y1="22" x2="0" y2="22" stroke-width="1" stroke="black"></line><line x1="0" y1="22" x2="0" y2="0" stroke-width="1" stroke="black"></line></g><g is="custom" class="draggable" id="movable_pipeline_30_0" transform="translate(664.62,294.56)" style="cursor: grab;"><rect x="-15" y="-15" rx="30" ry="30" width="30" height="30" fill-opacity="0"></rect><circle id="pipeline_circle_30_0" cx="0" cy="0" stroke-width="1" r="5" stroke="black" fill="white"></circle></g><g transform="translate(664.62,282.56)"><g class="draggable" id="movable_rm_element_text_30-31" transform="translate(-69,36)" style="cursor: grab;"><text is="custom" id="element_text_30-31" data-testid="element_text_30-31" font-weight="14px" font-size="13px" class="label" transform="" fill="black">sustainability</text></g></g><g is="custom" class="draggable" id="movable_pipeline_30_1" transform="translate(865.2599999999999,294.56)" style="cursor: grab;"><rect x="-15" y="-15" rx="30" ry="30" width="30" height="30" fill-opacity="0"></rect><circle id="pipeline_circle_30_1" cx="0" cy="0" stroke-width="1" r="5" stroke="black" fill="white"></circle></g><g transform="translate(865.2599999999999,282.56)"><g class="draggable" id="movable_rm_element_text_30-32" transform="translate(6,-21)" style="cursor: grab;"><text is="custom" id="element_text_30-32" data-testid="element_text_30-32" font-weight="14px" font-size="13px" class="label" transform="translate(30, 10)" fill="black"><tspan x="0" dy="0" text-anchor="middle">property</tspan><tspan x="0" dy="15" text-anchor="middle">rights</tspan></text></g></g><g id="pipeline_box_38" transform="translate(704.78,596.52)"><line x1="0" y1="0" x2="170.4799999999999" y2="0" stroke-width="1" stroke="black"></line><line x1="170.4799999999999" y1="0" x2="170.4799999999999" y2="22" stroke-width="1" stroke="black"></line><line x1="170.4799999999999" y1="22" x2="0" y2="22" stroke-width="1" stroke="black"></line><line x1="0" y1="22" x2="0" y2="0" stroke-width="1" stroke="black"></line></g><g is="custom" class="draggable" id="movable_pipeline_38_0" transform="translate(865.2599999999999,608.52)" style="cursor: grab;"><rect x="-15" y="-15" rx="30" ry="30" width="30" height="30" fill-opacity="0"></rect><circle id="pipeline_circle_38_0" cx="0" cy="0" stroke-width="1" r="5" stroke="black" fill="white"></circle></g><g transform="translate(865.2599999999999,596.52)"><g class="draggable" id="movable_rm_element_text_38-39" transform="translate(16,17)" style="cursor: grab;"><text is="custom" id="element_text_38-39" data-testid="element_text_38-39" font-weight="14px" font-size="13px" class="label" transform="" fill="black">happy customer</text></g></g><g is="custom" class="draggable" id="movable_pipeline_38_1" transform="translate(714.78,608.52)" style="cursor: grab;"><rect x="-15" y="-15" rx="30" ry="30" width="30" height="30" fill-opacity="0"></rect><circle id="pipeline_circle_38_1" cx="0" cy="0" stroke-width="1" r="5" stroke="black" fill="white"></circle></g><g transform="translate(714.78,596.52)"><g class="draggable" id="movable_rm_element_text_38-40" transform="translate(-99,7)" style="cursor: grab;"><text is="custom" id="element_text_38-40" data-testid="element_text_38-40" font-weight="14px" font-size="13px" class="label" transform="translate(30, 10)" fill="black"><tspan x="0" dy="0" text-anchor="middle">environmental</tspan><tspan x="0" dy="15" text-anchor="middle">impact</tspan></text></g></g><g id="pipeline_box_47" transform="translate(504.14,369.40000000000003)"><line x1="0" y1="0" x2="371.1199999999999" y2="0" stroke-width="1" stroke="black"></line><line x1="371.1199999999999" y1="0" x2="371.1199999999999" y2="22" stroke-width="1" stroke="black"></line><line x1="371.1199999999999" y1="22" x2="0" y2="22" stroke-width="1" stroke="black"></line><line x1="0" y1="22" x2="0" y2="0" stroke-width="1" stroke="black"></line></g><g is="custom" class="draggable" id="movable_pipeline_47_0" transform="translate(702.2400000000001,381.40000000000003)" style="cursor: grab;"><rect x="-15" y="-15" rx="30" ry="30" width="30" height="30" fill-opacity="0"></rect><circle id="pipeline_circle_47_0" cx="0" cy="0" stroke-width="1" r="5" stroke="black" fill="white"></circle></g><g transform="translate(702.2400000000001,369.40000000000003)"><g class="draggable" id="movable_rm_element_text_47-48" transform="translate(-18,35)" style="cursor: grab;"><text is="custom" id="element_text_47-48" data-testid="element_text_47-48" font-weight="14px" font-size="13px" class="label" transform="" fill="black">technical debt</text></g></g><g is="custom" class="draggable" id="movable_pipeline_47_1" transform="translate(865.2599999999999,381.40000000000003)" style="cursor: grab;"><rect x="-15" y="-15" rx="30" ry="30" width="30" height="30" fill-opacity="0"></rect><circle id="pipeline_circle_47_1" cx="0" cy="0" stroke-width="1" r="5" stroke="black" fill="white"></circle></g><g transform="translate(865.2599999999999,369.40000000000003)"><g class="draggable" id="movable_rm_element_text_47-49" transform="translate(-9,-5)" style="cursor: grab;"><text is="custom" id="element_text_47-49" data-testid="element_text_47-49" font-weight="14px" font-size="13px" class="label" transform="" fill="black">usability</text></g></g><g is="custom" class="draggable" id="movable_pipeline_47_2" transform="translate(514.14,381.40000000000003)" style="cursor: grab;"><rect x="-15" y="-15" rx="30" ry="30" width="30" height="30" fill-opacity="0"></rect><circle id="pipeline_circle_47_2" cx="0" cy="0" stroke-width="1" r="5" stroke="black" fill="white"></circle></g><g transform="translate(514.14,369.40000000000003)"><g class="draggable" id="movable_rm_element_text_47-50" transform="translate(-76,37)" style="cursor: grab;"><text is="custom" id="element_text_47-50" data-testid="element_text_47-50" font-weight="14px" font-size="13px" class="label" transform="" fill="black">habitability</text></g></g><g id="pipeline_box_55" transform="translate(642.08,462.91999999999996)"><line x1="0" y1="0" x2="183.01999999999998" y2="0" stroke-width="1" stroke="black"></line><line x1="183.01999999999998" y1="0" x2="183.01999999999998" y2="22" stroke-width="1" stroke="black"></line><line x1="183.01999999999998" y1="22" x2="0" y2="22" stroke-width="1" stroke="black"></line><line x1="0" y1="22" x2="0" y2="0" stroke-width="1" stroke="black"></line></g><g is="custom" class="draggable" id="movable_pipeline_55_0" transform="translate(815.1,474.91999999999996)" style="cursor: grab;"><rect x="-15" y="-15" rx="30" ry="30" width="30" height="30" fill-opacity="0"></rect><circle id="pipeline_circle_55_0" cx="0" cy="0" stroke-width="1" r="5" stroke="black" fill="white"></circle></g><g transform="translate(815.1,462.91999999999996)"><g class="draggable" id="movable_rm_element_text_55-56" transform="translate(6,33)" style="cursor: grab;"><text is="custom" id="element_text_55-56" data-testid="element_text_55-56" font-weight="14px" font-size="13px" class="label" transform="" fill="black">review</text></g></g><g is="custom" class="draggable" id="movable_pipeline_55_1" transform="translate(652.08,474.91999999999996)" style="cursor: grab;"><rect x="-15" y="-15" rx="30" ry="30" width="30" height="30" fill-opacity="0"></rect><circle id="pipeline_circle_55_1" cx="0" cy="0" stroke-width="1" r="5" stroke="black" fill="white"></circle></g><g transform="translate(652.08,462.91999999999996)"><g class="draggable" id="movable_rm_element_text_55-57" transform="translate(-47,13)" style="cursor: grab;"><text is="custom" id="element_text_55-57" data-testid="element_text_55-57" font-weight="14px" font-size="13px" class="label" transform="" fill="black">demo</text></g></g><g id="pipeline_box_62" transform="translate(617,529.72)"><line x1="0" y1="0" x2="183.01999999999998" y2="0" stroke-width="1" stroke="black"></line><line x1="183.01999999999998" y1="0" x2="183.01999999999998" y2="22" stroke-width="1" stroke="black"></line><line x1="183.01999999999998" y1="22" x2="0" y2="22" stroke-width="1" stroke="black"></line><line x1="0" y1="22" x2="0" y2="0" stroke-width="1" stroke="black"></line></g><g is="custom" class="draggable" id="movable_pipeline_62_0" transform="translate(790.02,541.72)" style="cursor: grab;"><rect x="-15" y="-15" rx="30" ry="30" width="30" height="30" fill-opacity="0"></rect><circle id="pipeline_circle_62_0" cx="0" cy="0" stroke-width="1" r="5" stroke="black" fill="white"></circle></g><g transform="translate(790.02,529.72)"><g class="draggable" id="movable_rm_element_text_62-63" transform="translate(-19,-6)" style="cursor: grab;"><text is="custom" id="element_text_62-63" data-testid="element_text_62-63" font-weight="14px" font-size="13px" class="label" transform="" fill="black">context</text></g></g><g is="custom" class="draggable" id="movable_pipeline_62_1" transform="translate(677.1600000000001,541.72)" style="cursor: grab;"><rect x="-15" y="-15" rx="30" ry="30" width="30" height="30" fill-opacity="0"></rect><circle id="pipeline_circle_62_1" cx="0" cy="0" stroke-width="1" r="5" stroke="black" fill="white"></circle></g><g transform="translate(677.1600000000001,529.72)"><g class="draggable" id="movable_rm_element_text_62-64" transform="translate(-30,38)" style="cursor: grab;"><text is="custom" id="element_text_62-64" data-testid="element_text_62-64" font-weight="14px" font-size="13px" class="label" transform="" fill="black">conflict</text></g></g><g is="custom" class="draggable" id="movable_pipeline_62_2" transform="translate(627,541.72)" style="cursor: grab;"><rect x="-15" y="-15" rx="30" ry="30" width="30" height="30" fill-opacity="0"></rect><circle id="pipeline_circle_62_2" cx="0" cy="0" stroke-width="1" r="5" stroke="black" fill="white"></circle></g><g transform="translate(627,529.72)"><g class="draggable" id="movable_rm_element_text_62-65" transform="translate(-88,13)" style="cursor: grab;"><text is="custom" id="element_text_62-65" data-testid="element_text_62-65" font-weight="14px" font-size="13px" class="label" transform="" fill="black">resolution</text></g></g></g><g id="elements"><g is="custom" class="draggable" id="movable_element_7" transform="translate(865.2599999999999,53.439999999999976)" style="cursor: grab;"><rect x="-15" y="-15" rx="30" ry="30" width="30" height="30" fill-opacity="0"></rect><circle id="element_circle_7" stroke-width="1" r="5" stroke="black" fill="white"></circle><rect id="element_square_7" x="-5" y="-5" fill="white" stroke="black" width="10" height="10" stroke-width="2"></rect></g><g transform="translate(865.2599999999999,53.439999999999976)"><g class="draggable" id="movable_rm_element_text_7" transform="translate(5,-10)" style="cursor: grab;"><text is="custom" id="element_text_7" data-testid="element_text_7" font-weight="14px" font-size="13px" class="label" transform="" fill="black">USERS</text></g></g><g is="custom" class="draggable" id="movable_element_17" transform="translate(815.1,160.32)" style="cursor: grab;"><rect x="-15" y="-15" rx="30" ry="30" width="30" height="30" fill-opacity="0"></rect><circle id="element_circle_17" stroke-width="1" r="5" stroke="black" fill="white"></circle><rect id="element_square_17" x="-5" y="-5" fill="white" stroke="black" width="10" height="10" stroke-width="2"></rect></g><g transform="translate(815.1,160.32)"><g class="draggable" id="movable_rm_element_text_17" transform="translate(-15,-11)" style="cursor: grab;"><text is="custom" id="element_text_17" data-testid="element_text_17" font-weight="14px" font-size="13px" class="label" transform="" fill="black">VALUE</text></g></g><g is="custom" class="draggable" id="movable_element_26" transform="translate(965.58,287.24)" style="cursor: grab;"><rect x="-15" y="-15" rx="30" ry="30" width="30" height="30" fill-opacity="0"></rect><circle id="element_circle_26" stroke-width="1" r="5" stroke="black" fill="white"></circle></g><g transform="translate(965.58,287.24)"><g class="draggable" id="movable_rm_element_text_26" transform="translate(5,-10)" style="cursor: grab;"><text is="custom" id="element_text_26" data-testid="element_text_26" font-weight="14px" font-size="13px" class="label" transform="" fill="black">payment</text></g></g><g is="custom" class="draggable" id="movable_element_29" transform="translate(689.7,280.56)" style="cursor: grab;"><rect x="-15" y="-15" rx="30" ry="30" width="30" height="30" fill-opacity="0"></rect><circle id="element_circle_29" stroke-width="1" r="5" stroke="black" fill="white"></circle><rect id="element_square_29" x="-5" y="-5" fill="white" stroke="black" width="10" height="10" stroke-width="2"></rect></g><g transform="translate(689.7,280.56)"><g class="draggable" id="movable_rm_element_text_29" transform="translate(-56,-10)" style="cursor: grab;"><text is="custom" id="element_text_29" data-testid="element_text_29" font-weight="14px" font-size="13px" class="label" transform="" fill="black">BELIEFS</text></g></g><g is="custom" class="draggable" id="movable_element_37" transform="translate(840.1800000000001,594.52)" style="cursor: grab;"><rect x="-15" y="-15" rx="30" ry="30" width="30" height="30" fill-opacity="0"></rect><circle id="element_circle_37" stroke-width="1" r="5" stroke="black" fill="white"></circle><rect id="element_square_37" x="-5" y="-5" fill="white" stroke="black" width="10" height="10" stroke-width="2"></rect></g><g transform="translate(840.1800000000001,594.52)"><g class="draggable" id="movable_rm_element_text_37" transform="translate(-70,-4)" style="cursor: grab;"><text is="custom" id="element_text_37" data-testid="element_text_37" font-weight="14px" font-size="13px" class="label" transform="" fill="black">MEASURES</text></g></g><g is="custom" class="draggable" id="movable_element_44" transform="translate(752.4,126.91999999999996)" style="cursor: grab;"><rect x="-15" y="-15" rx="30" ry="30" width="30" height="30" fill-opacity="0"></rect><circle id="element_circle_44" stroke-width="1" r="5" stroke="black" fill="white"></circle></g><g transform="translate(752.4,126.91999999999996)"><g class="draggable" id="movable_rm_element_text_44" transform="translate(7,6)" style="cursor: grab;"><text is="custom" id="element_text_44" data-testid="element_text_44" font-weight="14px" font-size="13px" class="label" transform="" fill="black">developers</text></g></g><g is="custom" class="draggable" id="movable_element_46" transform="translate(802.5600000000001,367.40000000000003)" style="cursor: grab;"><rect x="-15" y="-15" rx="30" ry="30" width="30" height="30" fill-opacity="0"></rect><circle id="element_circle_46" stroke-width="1" r="5" stroke="black" fill="white"></circle><rect id="element_square_46" x="-5" y="-5" fill="white" stroke="black" width="10" height="10" stroke-width="2"></rect></g><g transform="translate(802.5600000000001,367.40000000000003)"><g class="draggable" id="movable_rm_element_text_46" transform="translate(-58,-5)" style="cursor: grab;"><text is="custom" id="element_text_46" data-testid="element_text_46" font-weight="14px" font-size="13px" class="label" transform="" fill="black">PRODUCT</text></g></g><g is="custom" class="draggable" id="movable_element_54" transform="translate(777.48,460.91999999999996)" style="cursor: grab;"><rect x="-15" y="-15" rx="30" ry="30" width="30" height="30" fill-opacity="0"></rect><circle id="element_circle_54" stroke-width="1" r="5" stroke="black" fill="white"></circle><rect id="element_square_54" x="-5" y="-5" fill="white" stroke="black" width="10" height="10" stroke-width="2"></rect></g><g transform="translate(777.48,460.91999999999996)"><g class="draggable" id="movable_rm_element_text_54" transform="translate(-6,-16)" style="cursor: grab;"><text is="custom" id="element_text_54" data-testid="element_text_54" font-weight="14px" font-size="13px" class="label" transform="" fill="black">FEEDBACK</text></g></g><g is="custom" class="draggable" id="movable_element_61" transform="translate(739.86,527.72)" style="cursor: grab;"><rect x="-15" y="-15" rx="30" ry="30" width="30" height="30" fill-opacity="0"></rect><circle id="element_circle_61" stroke-width="1" r="5" stroke="black" fill="white"></circle><rect id="element_square_61" x="-5" y="-5" fill="white" stroke="black" width="10" height="10" stroke-width="2"></rect></g><g transform="translate(739.86,527.72)"><g class="draggable" id="movable_rm_element_text_61" transform="translate(-19,-14)" style="cursor: grab;"><text is="custom" id="element_text_61" data-testid="element_text_61" font-weight="14px" font-size="13px" class="label" transform="" fill="black">SCENARIO</text></g></g></g><g id="notes"></g><g id="annotations"></g></g></svg>