<?xml version="1.0" encoding="UTF-8"?><!DOCTYPE svg PUBLIC "-//W3C//DTD SVG 1.1//EN" "http://www.w3.org/Graphics/SVG/1.1/DTD/svg11.dtd"><svg font-family="Consolas, Lucida Console, monospace" font-size="13px" class="wardley" id="svgMap" width="1381" height="798" viewBox="-20 0 1361 738" version="1.1" xmlns="http://www.w3.org/2000/svg" xmlns:xlink="http://www.w3.org/1999/xlink"><defs><filter id="ctrlHighlight"><feDropShadow dx="0" dy="0" stdDeviation="3" flood-color="blue"></feDropShadow></filter><linearGradient gradientUnits="objectBoundingBox" id="wardleyGradient" spreadMethod="pad" x1="0%" x2="100%" y1="0%" y2="0%"><stop offset="0%" style="stop-color:rgb(196, 196, 196);stop-opacity:1"></stop><stop offset="0.3" style="stop-color:white;stop-opacity:1"></stop><stop offset="0.7" style="stop-color:white"></stop><stop offset="1" style="stop-color:rgb(196, 196, 196)"></stop></linearGradient><linearGradient spreadMethod="pad" id="accelGradient" x1="0%" y1="64%" x2="76%" y2="0%"><stop offset="0%" style="stop-color:white;stop-opacity:1"></stop><stop offset="100%" style="stop-color:#8c8995;stop-opacity:1"></stop></linearGradient><pattern id="diagonalHatch" patternUnits="userSpaceOnUse" width="4" height="4"><path d="M 3,-1 l 2,2 M 0,0 l 4,4 M -1,3 l 2,2 " stroke="grey" stroke-width="1" opacity=".5"></path></pattern><marker id="arrow" markerWidth="12" markerHeight="12" refX="15" refY="0" viewBox="0 -5 10 10" orient="0"><path d="M0,-5L10,0L0,5" fill="red"></path></marker><marker id="graphArrow" markerWidth="12" markerHeight="12" refX="9" refY="0" viewBox="0 -5 10 10" orient="0"><path d="M0,-5L10,0L0,5" fill="black"></path></marker><marker id="pipelineArrow" markerWidth="5" markerHeight="5" refX="9" refY="0" viewBox="0 -5 10 10" orient="0"><path d="M0,-5L10,0L0,5" fill="black"></path></marker></defs><g id="grid"><rect x="0" width="1341" y="0" height="718" id="fillArea" fill="url(#wardleyGradient)"></rect><g id="valueChain" transform="translate(0,718) rotate(270)" font-family="&quot;Helvetica Neue&quot;,Helvetica,Arial,sans-serif" font-size="13px"><line x1="0" y1="0" x2="718" y2="0" stroke="black" stroke-width="1" stroke-dasharray="2,2"></line><line x1="-2em" y1="234.67499999999998" x2="718" y2="234.67499999999998" stroke="#b8b8b8" stroke-dasharray="2,2"></line><line x1="-2em" y1="536.4" x2="718" y2="536.4" stroke="#b8b8b8" stroke-dasharray="2,2"></line><line x1="-2em" y1="938.6999999999999" x2="718" y2="938.6999999999999" stroke="#b8b8b8" stroke-dasharray="2,2"></line><text fill="black" x="716" y="-0.4em" text-anchor="end" font-weight="bold">Value Chain</text></g><g id="Evolution" font-family="&quot;Helvetica Neue&quot;,Helvetica,Arial,sans-serif" font-size="13px" font-style="italic" transform="translate(0,718)"><line x1="0" y1="0" x2="1339" y2="0" stroke="black" stroke-width="1" marker-end="url(#graphArrow)"></line><text fill="black" x="10" y="-703" text-anchor="start" font-style="normal" font-size="11px" font-weight="bold">Uncharted</text><text fill="black" x="1331" y="-703" text-anchor="end" font-style="normal" font-size="11px" font-weight="bold">Industrialised</text><text fill="black" x="0" y="1em" text-anchor="start">genesis / concept </text><text fill="black" x="0" y="2em" text-anchor="start"></text><text fill="black" x="241.67499999999998" y="1em" text-anchor="start"> custom / emerging </text><text fill="black" x="241.67499999999998" y="2em" text-anchor="start"></text><text fill="black" x="543.4" y="1em" text-anchor="start"> PRODUCT/ converging </text><text fill="black" x="543.4" y="2em" text-anchor="start"></text><text fill="black" x="945.6999999999999" y="1em" text-anchor="start"> commodity / accepted</text><text fill="black" x="945.6999999999999" y="2em" text-anchor="start"></text><text fill="black" x="1341" y="1.8em" text-anchor="end" font-weight="bold" font-style="normal">Evolution</text></g></g><g id="map"><g id="attitudes"></g><g id="methods"></g><g id="fluids"></g><g id="links"><g id="link_48_19"><line x1="442.53000000000003" y1="136.41999999999996" x2="254.79" y2="193.86" stroke="grey" stroke-width="1"></line></g><g id="link_52_56"><line x1="402.3" y1="495.41999999999996" x2="375.48" y2="236.93999999999997" stroke="grey" stroke-width="1"></line></g><g id="link_56_46"><line x1="375.48" y1="236.93999999999997" x2="831.42" y2="402.08000000000004" stroke="grey" stroke-width="1"></line></g><g id="link_17_46"><line x1="295.02" y1="351.82" x2="831.42" y2="402.08000000000004" stroke="grey" stroke-width="1"></line></g><g id="link_52_78"><line x1="402.3" y1="495.41999999999996" x2="549.81" y2="574.4" stroke="grey" stroke-width="1"></line></g><g id="link_78_49"><line x1="549.81" y1="574.4" x2="576.63" y2="646.2" stroke="grey" stroke-width="1"></line></g><g id="link_27_48"><line x1="871.65" y1="35.900000000000034" x2="442.53000000000003" y2="136.41999999999996" stroke="grey" stroke-width="1"></line></g><g id="link_27_66"><line x1="871.65" y1="35.900000000000034" x2="938.6999999999999" y2="157.95999999999998" stroke="grey" stroke-width="1"></line></g><g id="link_34_45"><line x1="643.68" y1="57.43999999999997" x2="710.73" y2="201.04000000000002" stroke="grey" stroke-width="1"></line></g><g id="link_26_33"><line x1="750.96" y1="50.25999999999996" x2="737.5500000000001" y2="93.34" stroke="grey" stroke-width="1"></line></g><g id="link_33_29"><line x1="737.5500000000001" y1="93.34" x2="630.27" y2="251.29999999999998" stroke="grey" stroke-width="1"></line></g><g id="link_66_46"><line x1="938.6999999999999" y1="157.95999999999998" x2="831.42" y2="402.08000000000004" stroke="grey" stroke-width="1"></line></g><g id="link_46_67"><line x1="831.42" y1="402.08000000000004" x2="858.24" y2="481.05999999999995" stroke="grey" stroke-width="1"></line></g><g id="link_46_75"><line x1="831.42" y1="402.08000000000004" x2="804.6" y2="567.22" stroke="grey" stroke-width="1"></line></g><g id="link_29_61"><line x1="630.27" y1="251.29999999999998" x2="938.6999999999999" y2="351.82" stroke="grey" stroke-width="1"></line></g><g id="link_72_67"><line x1="885.0600000000001" y1="531.32" x2="858.24" y2="481.05999999999995" stroke="grey" stroke-width="1"></line></g><g id="link_74_56"><line x1="590.04" y1="459.52" x2="375.48" y2="236.93999999999997" stroke="grey" stroke-width="1"></line></g><g id="link_61_49"><line x1="938.6999999999999" y1="351.82" x2="576.63" y2="646.2" stroke="grey" stroke-width="1"></line></g><g id="link_37_46"><line x1="844.83" y1="301.56" x2="831.42" y2="402.08000000000004" stroke="grey" stroke-width="1"></line></g><g id="link_48_56"><line x1="442.53000000000003" y1="136.41999999999996" x2="375.48" y2="236.93999999999997" stroke="grey" stroke-width="1"></line></g><g id="link_56_17"><line x1="375.48" y1="236.93999999999997" x2="295.02" y2="351.82" stroke="grey" stroke-width="1"></line></g><g id="link_81_49"><line x1="885.0600000000001" y1="703.64" x2="576.63" y2="646.2" stroke="grey" stroke-width="1"></line></g><g id="link_27_82"><line x1="871.65" y1="35.900000000000034" x2="965.52" y2="64.61999999999998" stroke="grey" stroke-width="1"></line></g><g id="link_45_46"><line x1="710.73" y1="201.04000000000002" x2="831.42" y2="402.08000000000004" stroke="grey" stroke-width="1"></line></g><g id="link_27_44"><line x1="871.65" y1="35.900000000000034" x2="563.22" y2="201.04000000000002" stroke="grey" stroke-width="1"></line></g><g id="link_26_87"><line x1="750.96" y1="50.25999999999996" x2="764.3699999999999" y2="172.32" stroke="grey" stroke-width="1"></line></g><g id="link_87_46"><line x1="764.3699999999999" y1="172.32" x2="831.42" y2="402.08000000000004" stroke="grey" stroke-width="1"></line></g><g id="link_90_82"><line x1="1045.98" y1="107.70000000000002" x2="965.52" y2="64.61999999999998" stroke="grey" stroke-width="1"></line></g><g id="link_73_37"><line x1="1045.98" y1="172.32" x2="844.83" y2="301.56" stroke="grey" stroke-width="1"></line></g><g id="link_44_17"><line x1="563.22" y1="201.04000000000002" x2="295.02" y2="351.82" stroke="grey" stroke-width="1"></line></g><g id="link_46_74"><line x1="831.42" y1="402.08000000000004" x2="590.04" y2="459.52" stroke="grey" stroke-width="1"></line></g><g id="link_12_27"><line x1="858.24" y1="93.34" x2="871.65" y2="35.900000000000034" stroke="grey" stroke-width="1"></line></g><g id="link_12_73"><line x1="858.24" y1="93.34" x2="1045.98" y2="172.32" stroke="grey" stroke-width="1"></line></g><g id="link_12_15"><line x1="858.24" y1="93.34" x2="831.42" y2="129.24000000000004" stroke="grey" stroke-width="1"></line></g><g id="link_12_37"><line x1="858.24" y1="93.34" x2="844.83" y2="301.56" stroke="grey" stroke-width="1"></line></g><g id="link_82_12"><line x1="965.52" y1="64.61999999999998" x2="858.24" y2="93.34" stroke="grey" stroke-width="1"></line></g><g id="link_61_37"><line x1="938.6999999999999" y1="351.82" x2="844.83" y2="301.56" stroke="grey" stroke-width="1"></line></g><g id="link_97_61"><line x1="683.91" y1="366.18" x2="938.6999999999999" y2="351.82" stroke="grey" stroke-width="1"></line></g><g id="link_46_84"><line x1="831.42" y1="402.08000000000004" x2="938.6999999999999" y2="437.98" stroke="grey" stroke-width="1"></line></g><g id="link_42_17"><line x1="549.81" y1="315.91999999999996" x2="295.02" y2="351.82" stroke="grey" stroke-width="1"></line></g><g id="link_73_23"><line x1="1045.98" y1="172.32" x2="818.01" y2="236.93999999999997" stroke="grey" stroke-width="1"></line></g><g id="link_23_37"><line x1="818.01" y1="236.93999999999997" x2="844.83" y2="301.56" stroke="grey" stroke-width="1"></line></g><g id="link_23_61"><line x1="818.01" y1="236.93999999999997" x2="938.6999999999999" y2="351.82" stroke="grey" stroke-width="1"></line></g></g><g id="evolvingEndLinks"></g><g id="bothEvolving"></g><g id="anchorLinks"></g><g id="anchorNonEvolvedLinks"></g><g id="evolvingToNoneEvolvingEndLinks"></g><g id="evolvedLinks">;</g><g id="anchors"></g><g id="pipelines"><g id="pipeline_box_30" transform="translate(496.17,253.29999999999998)"><line x1="0" y1="0" x2="227.97000000000008" y2="0" stroke-width="1" stroke="black"></line><line x1="227.97000000000008" y1="0" x2="227.97000000000008" y2="22" stroke-width="1" stroke="black"></line><line x1="227.97000000000008" y1="22" x2="0" y2="22" stroke-width="1" stroke="black"></line><line x1="0" y1="22" x2="0" y2="0" stroke-width="1" stroke="black"></line></g><g is="custom" class="draggable" id="movable_pipeline_x1_30" transform="translate(496.17,253.29999999999998)"><rect x="-15" y="-15" rx="30" ry="30" width="30" height="30" fill-opacity="0"></rect><circle id="pipeline_circle_x1_30" cx="10" cy="12" stroke-width="1" r="5" stroke="black" fill="white"></circle></g><g is="custom" class="draggable" id="movable_pipeline_x2_30" transform="translate(724.1400000000001,253.29999999999998)"><rect x="-15" y="-15" rx="30" ry="30" width="30" height="30" fill-opacity="0"></rect><circle id="pipeline_circle_x2_30" cx="-10" cy="12" stroke-width="1" r="5" stroke="black" fill="white"></circle></g><g id="pipeline_box_36" transform="translate(241.38,188.68)"><line x1="0" y1="0" x2="482.7600000000001" y2="0" stroke-width="1" stroke="black"></line><line x1="482.7600000000001" y1="0" x2="482.7600000000001" y2="22" stroke-width="1" stroke="black"></line><line x1="482.7600000000001" y1="22" x2="0" y2="22" stroke-width="1" stroke="black"></line><line x1="0" y1="22" x2="0" y2="0" stroke-width="1" stroke="black"></line></g><g is="custom" class="draggable" id="movable_pipeline_x1_36" transform="translate(241.38,188.68)"><rect x="-15" y="-15" rx="30" ry="30" width="30" height="30" fill-opacity="0"></rect><circle id="pipeline_circle_x1_36" cx="10" cy="12" stroke-width="1" r="5" stroke="black" fill="white"></circle></g><g is="custom" class="draggable" id="movable_pipeline_x2_36" transform="translate(724.1400000000001,188.68)"><rect x="-15" y="-15" rx="30" ry="30" width="30" height="30" fill-opacity="0"></rect><circle id="pipeline_circle_x2_36" cx="-10" cy="12" stroke-width="1" r="5" stroke="black" fill="white"></circle></g><g id="pipeline_box_38" transform="translate(536.4,303.56)"><line x1="0" y1="0" x2="482.76" y2="0" stroke-width="1" stroke="black"></line><line x1="482.76" y1="0" x2="482.76" y2="22" stroke-width="1" stroke="black"></line><line x1="482.76" y1="22" x2="0" y2="22" stroke-width="1" stroke="black"></line><line x1="0" y1="22" x2="0" y2="0" stroke-width="1" stroke="black"></line></g><g is="custom" class="draggable" id="movable_pipeline_x1_38" transform="translate(536.4,303.56)"><rect x="-15" y="-15" rx="30" ry="30" width="30" height="30" fill-opacity="0"></rect><circle id="pipeline_circle_x1_38" cx="10" cy="12" stroke-width="1" r="5" stroke="black" fill="white"></circle></g><g is="custom" class="draggable" id="movable_pipeline_x2_38" transform="translate(1019.16,303.56)"><rect x="-15" y="-15" rx="30" ry="30" width="30" height="30" fill-opacity="0"></rect><circle id="pipeline_circle_x2_38" cx="-10" cy="12" stroke-width="1" r="5" stroke="black" fill="white"></circle></g><g id="pipeline_box_68" transform="translate(683.91,483.05999999999995)"><line x1="0" y1="0" x2="254.78999999999996" y2="0" stroke-width="1" stroke="black"></line><line x1="254.78999999999996" y1="0" x2="254.78999999999996" y2="22" stroke-width="1" stroke="black"></line><line x1="254.78999999999996" y1="22" x2="0" y2="22" stroke-width="1" stroke="black"></line><line x1="0" y1="22" x2="0" y2="0" stroke-width="1" stroke="black"></line></g><g is="custom" class="draggable" id="movable_pipeline_x1_68" transform="translate(683.91,483.05999999999995)"><rect x="-15" y="-15" rx="30" ry="30" width="30" height="30" fill-opacity="0"></rect><circle id="pipeline_circle_x1_68" cx="10" cy="12" stroke-width="1" r="5" stroke="black" fill="white"></circle></g><g is="custom" class="draggable" id="movable_pipeline_x2_68" transform="translate(938.6999999999999,483.05999999999995)"><rect x="-15" y="-15" rx="30" ry="30" width="30" height="30" fill-opacity="0"></rect><circle id="pipeline_circle_x2_68" cx="-10" cy="12" stroke-width="1" r="5" stroke="black" fill="white"></circle></g><g id="pipeline_box_76" transform="translate(348.66,569.22)"><line x1="0" y1="0" x2="563.22" y2="0" stroke-width="1" stroke="black"></line><line x1="563.22" y1="0" x2="563.22" y2="22" stroke-width="1" stroke="black"></line><line x1="563.22" y1="22" x2="0" y2="22" stroke-width="1" stroke="black"></line><line x1="0" y1="22" x2="0" y2="0" stroke-width="1" stroke="black"></line></g><g is="custom" class="draggable" id="movable_pipeline_x1_76" transform="translate(348.66,569.22)"><rect x="-15" y="-15" rx="30" ry="30" width="30" height="30" fill-opacity="0"></rect><circle id="pipeline_circle_x1_76" cx="10" cy="12" stroke-width="1" r="5" stroke="black" fill="white"></circle></g><g is="custom" class="draggable" id="movable_pipeline_x2_76" transform="translate(911.8800000000001,569.22)"><rect x="-15" y="-15" rx="30" ry="30" width="30" height="30" fill-opacity="0"></rect><circle id="pipeline_circle_x2_76" cx="-10" cy="12" stroke-width="1" r="5" stroke="black" fill="white"></circle></g></g><g id="elements"><g is="custom" class="draggable" id="movable_element_12" transform="translate(858.24,93.34)"><rect x="-15" y="-15" rx="30" ry="30" width="30" height="30" fill-opacity="0"></rect><circle id="element_circle_12" stroke-width="1" r="5" stroke="black" fill="white"></circle><rect id="element_square_12" x="-5" y="-5" fill="white" stroke="black" width="10" height="10" stroke-width="2"></rect></g><g transform="translate(858.24,93.34)"><g class="draggable" id="movable_element_text_12" transform="translate(-60,3)"><text is="custom" id="element_text_12" data-testid="element_text_12" font-weight="14px" font-size="13px" class="label" transform="" fill="black">PRODUCT</text></g></g><g is="custom" class="draggable" id="movable_element_15" transform="translate(831.42,129.24000000000004)"><rect x="-15" y="-15" rx="30" ry="30" width="30" height="30" fill-opacity="0"></rect><circle id="element_circle_15" stroke-width="1" r="5" stroke="black" fill="white"></circle></g><g transform="translate(831.42,129.24000000000004)"><g class="draggable" id="movable_element_text_15" transform="translate(-58,-6)"><text is="custom" id="element_text_15" data-testid="element_text_15" font-weight="14px" font-size="13px" class="label" transform="translate(30, 10)" fill="black"><tspan x="0" dy="0" text-anchor="middle">sales</tspan><tspan x="0" dy="15" text-anchor="middle">forecasting</tspan></text></g></g><g is="custom" class="draggable" id="movable_element_17" transform="translate(295.02,351.82)"><rect x="-15" y="-15" rx="30" ry="30" width="30" height="30" fill-opacity="0"></rect><circle id="element_circle_17" stroke-width="1" r="5" stroke="black" fill="white"></circle><rect id="element_square_17" x="-5" y="-5" fill="white" stroke="black" width="10" height="10" stroke-width="2"></rect></g><g transform="translate(295.02,351.82)"><g class="draggable" id="movable_element_text_17" transform="translate(-35,5)"><text is="custom" id="element_text_17" data-testid="element_text_17" font-weight="14px" font-size="13px" class="label" transform="" fill="black">R&amp;D</text></g></g><g is="custom" class="draggable" id="movable_element_19" transform="translate(254.79,193.86)"><rect x="-15" y="-15" rx="30" ry="30" width="30" height="30" fill-opacity="0"></rect><circle id="element_circle_19" stroke-width="1" r="5" stroke="black" fill="white"></circle></g><g transform="translate(254.79,193.86)"><g class="draggable" id="movable_element_text_19" transform="translate(-83,8)"><text is="custom" id="element_text_19" data-testid="element_text_19" font-weight="14px" font-size="13px" class="label" transform="" fill="black">prototype</text></g></g><g is="custom" class="draggable" id="movable_element_21" transform="translate(455.94000000000005,201.04000000000002)"><rect x="-15" y="-15" rx="30" ry="30" width="30" height="30" fill-opacity="0"></rect><circle id="element_circle_21" stroke-width="1" r="5" stroke="black" fill="white"></circle></g><g transform="translate(455.94000000000005,201.04000000000002)"><g class="draggable" id="movable_element_text_21" transform="translate(-15,-21)"><text is="custom" id="element_text_21" data-testid="element_text_21" font-weight="14px" font-size="13px" class="label" transform="" fill="black">trial</text></g></g><g is="custom" class="draggable" id="movable_element_23" transform="translate(818.01,236.93999999999997)"><rect x="-15" y="-15" rx="30" ry="30" width="30" height="30" fill-opacity="0"></rect><circle id="element_circle_23" stroke-width="1" r="5" stroke="black" fill="white"></circle><rect id="element_square_23" x="-5" y="-5" fill="white" stroke="black" width="10" height="10" stroke-width="2"></rect></g><g transform="translate(818.01,236.93999999999997)"><g class="draggable" id="movable_element_text_23" transform="translate(-60,-10)"><text is="custom" id="element_text_23" data-testid="element_text_23" font-weight="14px" font-size="13px" class="label" transform="" fill="black">EQUIPMENT</text></g></g><g is="custom" class="draggable" id="movable_element_26" transform="translate(750.96,50.25999999999996)"><rect x="-15" y="-15" rx="30" ry="30" width="30" height="30" fill-opacity="0"></rect><circle id="element_circle_26" stroke-width="1" r="5" stroke="black" fill="white"></circle></g><g transform="translate(750.96,50.25999999999996)"><g class="draggable" id="movable_element_text_26" transform="translate(-29,-15)"><text is="custom" id="element_text_26" data-testid="element_text_26" font-weight="14px" font-size="13px" class="label" transform="" fill="black">government</text></g></g><g is="custom" class="draggable" id="movable_element_27" transform="translate(871.65,35.900000000000034)"><rect x="-15" y="-15" rx="30" ry="30" width="30" height="30" fill-opacity="0"></rect><circle id="element_circle_27" stroke-width="1" r="5" stroke="black" fill="white"></circle></g><g transform="translate(871.65,35.900000000000034)"><g class="draggable" id="movable_element_text_27" transform="translate(9,-6)"><text is="custom" id="element_text_27" data-testid="element_text_27" font-weight="14px" font-size="13px" class="label" transform="" fill="black">manufacturer</text></g></g><g is="custom" class="draggable" id="movable_element_29" transform="translate(630.27,251.29999999999998)"><rect x="-15" y="-15" rx="30" ry="30" width="30" height="30" fill-opacity="0"></rect><circle id="element_circle_29" stroke-width="1" r="5" stroke="black" fill="white"></circle><rect id="element_square_29" x="-5" y="-5" fill="white" stroke="black" width="10" height="10" stroke-width="2"></rect></g><g transform="translate(630.27,251.29999999999998)"><g class="draggable" id="movable_element_text_29" transform="translate(-78,-10)"><text is="custom" id="element_text_29" data-testid="element_text_29" font-weight="14px" font-size="13px" class="label" transform="" fill="black">REGULATION</text></g></g><g is="custom" class="draggable" id="movable_element_31" transform="translate(509.58,265.66)"><rect x="-15" y="-15" rx="30" ry="30" width="30" height="30" fill-opacity="0"></rect><circle id="element_circle_31" stroke-width="1" r="5" stroke="black" fill="white"></circle></g><g transform="translate(509.58,265.66)"><g class="draggable" id="movable_element_text_31" transform="translate(-54,-20)"><text is="custom" id="element_text_31" data-testid="element_text_31" font-weight="14px" font-size="13px" class="label" transform="" fill="black">lobbying</text></g></g><g is="custom" class="draggable" id="movable_element_32" transform="translate(710.73,265.66)"><rect x="-15" y="-15" rx="30" ry="30" width="30" height="30" fill-opacity="0"></rect><circle id="element_circle_32" stroke-width="1" r="5" stroke="black" fill="white"></circle></g><g transform="translate(710.73,265.66)"><g class="draggable" id="movable_element_text_32" transform="translate(-36,-20)"><text is="custom" id="element_text_32" data-testid="element_text_32" font-weight="14px" font-size="13px" class="label" transform="" fill="black">compliance</text></g></g><g is="custom" class="draggable" id="movable_element_33" transform="translate(737.5500000000001,93.34)"><rect x="-15" y="-15" rx="30" ry="30" width="30" height="30" fill-opacity="0"></rect><circle id="element_circle_33" stroke-width="1" r="5" stroke="black" fill="white"></circle></g><g transform="translate(737.5500000000001,93.34)"><g class="draggable" id="movable_element_text_33" transform="translate(-51,4)"><text is="custom" id="element_text_33" data-testid="element_text_33" font-weight="14px" font-size="13px" class="label" transform="" fill="black">safety</text></g></g><g is="custom" class="draggable" id="movable_element_34" transform="translate(643.68,57.43999999999997)"><rect x="-15" y="-15" rx="30" ry="30" width="30" height="30" fill-opacity="0"></rect><circle id="element_circle_34" stroke-width="1" r="5" stroke="black" fill="white"></circle></g><g transform="translate(643.68,57.43999999999997)"><g class="draggable" id="movable_element_text_34" transform="translate(-54,-12)"><text is="custom" id="element_text_34" data-testid="element_text_34" font-weight="14px" font-size="13px" class="label" transform="" fill="black">distributor</text></g></g><g is="custom" class="draggable" id="movable_element_35" transform="translate(657.09,186.68)"><rect x="-15" y="-15" rx="30" ry="30" width="30" height="30" fill-opacity="0"></rect><circle id="element_circle_35" stroke-width="1" r="5" stroke="black" fill="white"></circle><rect id="element_square_35" x="-5" y="-5" fill="white" stroke="black" width="10" height="10" stroke-width="2"></rect></g><g transform="translate(657.09,186.68)"><g class="draggable" id="movable_element_text_35" transform="translate(-21,-5)"><text is="custom" id="element_text_35" data-testid="element_text_35" font-weight="14px" font-size="13px" class="label" transform="" fill="black">IP</text></g></g><g is="custom" class="draggable" id="movable_element_37" transform="translate(844.83,301.56)"><rect x="-15" y="-15" rx="30" ry="30" width="30" height="30" fill-opacity="0"></rect><circle id="element_circle_37" stroke-width="1" r="5" stroke="black" fill="white"></circle><rect id="element_square_37" x="-5" y="-5" fill="white" stroke="black" width="10" height="10" stroke-width="2"></rect></g><g transform="translate(844.83,301.56)"><g class="draggable" id="movable_element_text_37" transform="translate(-73,-8)"><text is="custom" id="element_text_37" data-testid="element_text_37" font-weight="14px" font-size="13px" class="label" transform="" fill="black">MATERIALS</text></g></g><g is="custom" class="draggable" id="movable_element_39" transform="translate(1005.75,308.74)"><rect x="-15" y="-15" rx="30" ry="30" width="30" height="30" fill-opacity="0"></rect><circle id="element_circle_39" stroke-width="1" r="5" stroke="black" fill="white"></circle></g><g transform="translate(1005.75,308.74)"><g class="draggable" id="movable_element_text_39" transform="translate(18,9)"><text is="custom" id="element_text_39" data-testid="element_text_39" font-weight="14px" font-size="13px" class="label" transform="" fill="black">raw</text></g></g><g is="custom" class="draggable" id="movable_element_40" transform="translate(670.5,315.91999999999996)"><rect x="-15" y="-15" rx="30" ry="30" width="30" height="30" fill-opacity="0"></rect><circle id="element_circle_40" stroke-width="1" r="5" stroke="black" fill="white"></circle></g><g transform="translate(670.5,315.91999999999996)"><g class="draggable" id="movable_element_text_40" transform="translate(-32,-20)"><text is="custom" id="element_text_40" data-testid="element_text_40" font-weight="14px" font-size="13px" class="label" transform="" fill="black">branded</text></g></g><g is="custom" class="draggable" id="movable_element_41" transform="translate(925.29,315.91999999999996)"><rect x="-15" y="-15" rx="30" ry="30" width="30" height="30" fill-opacity="0"></rect><circle id="element_circle_41" stroke-width="1" r="5" stroke="black" fill="white"></circle></g><g transform="translate(925.29,315.91999999999996)"><g class="draggable" id="movable_element_text_41" transform="translate(-11,-19)"><text is="custom" id="element_text_41" data-testid="element_text_41" font-weight="14px" font-size="13px" class="label" transform="" fill="black">refined</text></g></g><g is="custom" class="draggable" id="movable_element_42" transform="translate(549.81,315.91999999999996)"><rect x="-15" y="-15" rx="30" ry="30" width="30" height="30" fill-opacity="0"></rect><circle id="element_circle_42" stroke-width="1" r="5" stroke="black" fill="white"></circle></g><g transform="translate(549.81,315.91999999999996)"><g class="draggable" id="movable_element_text_42" transform="translate(-32,29)"><text is="custom" id="element_text_42" data-testid="element_text_42" font-weight="14px" font-size="13px" class="label" transform="" fill="black">novel</text></g></g><g is="custom" class="draggable" id="movable_element_44" transform="translate(563.22,201.04000000000002)"><rect x="-15" y="-15" rx="30" ry="30" width="30" height="30" fill-opacity="0"></rect><circle id="element_circle_44" stroke-width="1" r="5" stroke="black" fill="white"></circle></g><g transform="translate(563.22,201.04000000000002)"><g class="draggable" id="movable_element_text_44" transform="translate(-33,-19)"><text is="custom" id="element_text_44" data-testid="element_text_44" font-weight="14px" font-size="13px" class="label" transform="" fill="black">design</text></g></g><g is="custom" class="draggable" id="movable_element_45" transform="translate(710.73,201.04000000000002)"><rect x="-15" y="-15" rx="30" ry="30" width="30" height="30" fill-opacity="0"></rect><circle id="element_circle_45" stroke-width="1" r="5" stroke="black" fill="white"></circle></g><g transform="translate(710.73,201.04000000000002)"><g class="draggable" id="movable_element_text_45" transform="translate(18,1)"><text is="custom" id="element_text_45" data-testid="element_text_45" font-weight="14px" font-size="13px" class="label" transform="" fill="black">relationships</text></g></g><g is="custom" class="draggable" id="movable_element_46" transform="translate(831.42,402.08000000000004)"><rect x="-15" y="-15" rx="30" ry="30" width="30" height="30" fill-opacity="0"></rect><circle id="element_circle_46" stroke-width="1" r="5" stroke="black" fill="white"></circle><rect id="element_square_46" x="-5" y="-5" fill="white" stroke="black" width="10" height="10" stroke-width="2"></rect></g><g transform="translate(831.42,402.08000000000004)"><g class="draggable" id="movable_element_text_46" transform="translate(9,-4)"><text is="custom" id="element_text_46" data-testid="element_text_46" font-weight="14px" font-size="13px" class="label" transform="" fill="black">SUPPLY CHAIN</text></g></g><g is="custom" class="draggable" id="movable_element_48" transform="translate(442.53000000000003,136.41999999999996)"><rect x="-15" y="-15" rx="30" ry="30" width="30" height="30" fill-opacity="0"></rect><circle id="element_circle_48" stroke-width="1" r="5" stroke="black" fill="white"></circle></g><g transform="translate(442.53000000000003,136.41999999999996)"><g class="draggable" id="movable_element_text_48" transform="translate(-64,1)"><text is="custom" id="element_text_48" data-testid="element_text_48" font-weight="14px" font-size="13px" class="label" transform="" fill="black">agility</text></g></g><g is="custom" class="draggable" id="movable_element_49" transform="translate(576.63,646.2)"><rect x="-15" y="-15" rx="30" ry="30" width="30" height="30" fill-opacity="0"></rect><circle id="element_circle_49" stroke-width="1" r="5" stroke="black" fill="white"></circle><rect id="element_square_49" x="-5" y="-5" fill="white" stroke="black" width="10" height="10" stroke-width="2"></rect></g><g transform="translate(576.63,646.2)"><g class="draggable" id="movable_element_text_49" transform="translate(-64,7)"><text is="custom" id="element_text_49" data-testid="element_text_49" font-weight="14px" font-size="13px" class="label" transform="" fill="black">METRICS</text></g></g><g is="custom" class="draggable" id="movable_element_52" transform="translate(402.3,495.41999999999996)"><rect x="-15" y="-15" rx="30" ry="30" width="30" height="30" fill-opacity="0"></rect><circle id="element_circle_52" stroke-width="1" r="5" stroke="black" fill="white"></circle></g><g transform="translate(402.3,495.41999999999996)"><g class="draggable" id="movable_element_text_52" transform="translate(-89,5)"><text is="custom" id="element_text_52" data-testid="element_text_52" font-weight="14px" font-size="13px" class="label" transform="" fill="black">visibility</text></g></g><g is="custom" class="draggable" id="movable_element_56" transform="translate(375.48,236.93999999999997)"><rect x="-15" y="-15" rx="30" ry="30" width="30" height="30" fill-opacity="0"></rect><circle id="element_circle_56" stroke-width="1" r="5" stroke="black" fill="white"></circle><rect id="element_square_56" x="-5" y="-5" fill="white" stroke="black" width="10" height="10" stroke-width="2"></rect></g><g transform="translate(375.48,236.93999999999997)"><g class="draggable" id="movable_element_text_56" transform="translate(-72,3)"><text is="custom" id="element_text_56" data-testid="element_text_56" font-weight="14px" font-size="13px" class="label" transform="" fill="black">AWARENESS</text></g></g><g is="custom" class="draggable" id="movable_element_61" transform="translate(938.6999999999999,351.82)"><rect x="-15" y="-15" rx="30" ry="30" width="30" height="30" fill-opacity="0"></rect><circle id="element_circle_61" stroke-width="1" r="5" stroke="black" fill="white"></circle></g><g transform="translate(938.6999999999999,351.82)"><g class="draggable" id="movable_element_text_61" transform="translate(10,4)"><text is="custom" id="element_text_61" data-testid="element_text_61" font-weight="14px" font-size="13px" class="label" transform="" fill="black">certification</text></g></g><g is="custom" class="draggable" id="movable_element_63" transform="translate(362.07000000000005,581.58)"><rect x="-15" y="-15" rx="30" ry="30" width="30" height="30" fill-opacity="0"></rect><circle id="element_circle_63" stroke-width="1" r="5" stroke="black" fill="white"></circle></g><g transform="translate(362.07000000000005,581.58)"><g class="draggable" id="movable_element_text_63" transform="translate(-93,0)"><text is="custom" id="element_text_63" data-testid="element_text_63" font-weight="14px" font-size="13px" class="label" transform="" fill="black">automation</text></g></g><g is="custom" class="draggable" id="movable_element_64" transform="translate(898.47,581.58)"><rect x="-15" y="-15" rx="30" ry="30" width="30" height="30" fill-opacity="0"></rect><circle id="element_circle_64" stroke-width="1" r="5" stroke="black" fill="white"></circle></g><g transform="translate(898.47,581.58)"><g class="draggable" id="movable_element_text_64" transform="translate(15,3)"><text is="custom" id="element_text_64" data-testid="element_text_64" font-weight="14px" font-size="13px" class="label" transform="" fill="black">clipboard</text></g></g><g is="custom" class="draggable" id="movable_element_66" transform="translate(938.6999999999999,157.95999999999998)"><rect x="-15" y="-15" rx="30" ry="30" width="30" height="30" fill-opacity="0"></rect><circle id="element_circle_66" stroke-width="1" r="5" stroke="black" fill="white"></circle></g><g transform="translate(938.6999999999999,157.95999999999998)"><g class="draggable" id="movable_element_text_66" transform="translate(-33,21)"><text is="custom" id="element_text_66" data-testid="element_text_66" font-weight="14px" font-size="13px" class="label" transform="" fill="black">reliability</text></g></g><g is="custom" class="draggable" id="movable_element_67" transform="translate(858.24,481.05999999999995)"><rect x="-15" y="-15" rx="30" ry="30" width="30" height="30" fill-opacity="0"></rect><circle id="element_circle_67" stroke-width="1" r="5" stroke="black" fill="white"></circle><rect id="element_square_67" x="-5" y="-5" fill="white" stroke="black" width="10" height="10" stroke-width="2"></rect></g><g transform="translate(858.24,481.05999999999995)"><g class="draggable" id="movable_element_text_67" transform="translate(12,-31)"><text is="custom" id="element_text_67" data-testid="element_text_67" font-weight="14px" font-size="13px" class="label" transform="translate(30, 10)" fill="black"><tspan x="0" dy="0" text-anchor="middle">INVENTORY</tspan><tspan x="0" dy="15" text-anchor="middle">MANAGEMENT</tspan></text></g></g><g is="custom" class="draggable" id="movable_element_70" transform="translate(925.29,495.41999999999996)"><rect x="-15" y="-15" rx="30" ry="30" width="30" height="30" fill-opacity="0"></rect><circle id="element_circle_70" stroke-width="1" r="5" stroke="black" fill="white"></circle></g><g transform="translate(925.29,495.41999999999996)"><g class="draggable" id="movable_element_text_70" transform="translate(12,4)"><text is="custom" id="element_text_70" data-testid="element_text_70" font-weight="14px" font-size="13px" class="label" transform="" fill="black">just in time</text></g></g><g is="custom" class="draggable" id="movable_element_71" transform="translate(697.32,495.41999999999996)"><rect x="-15" y="-15" rx="30" ry="30" width="30" height="30" fill-opacity="0"></rect><circle id="element_circle_71" stroke-width="1" r="5" stroke="black" fill="white"></circle></g><g transform="translate(697.32,495.41999999999996)"><g class="draggable" id="movable_element_text_71" transform="translate(-102,8)"><text is="custom" id="element_text_71" data-testid="element_text_71" font-weight="14px" font-size="13px" class="label" transform="" fill="black">just in case</text></g></g><g is="custom" class="draggable" id="movable_element_72" transform="translate(885.0600000000001,531.32)"><rect x="-15" y="-15" rx="30" ry="30" width="30" height="30" fill-opacity="0"></rect><circle id="element_circle_72" stroke-width="1" r="5" stroke="black" fill="white"></circle></g><g transform="translate(885.0600000000001,531.32)"><g class="draggable" id="movable_element_text_72" transform="translate(12,1)"><text is="custom" id="element_text_72" data-testid="element_text_72" font-weight="14px" font-size="13px" class="label" transform="" fill="black">warehousing</text></g></g><g is="custom" class="draggable" id="movable_element_73" transform="translate(1045.98,172.32)"><rect x="-15" y="-15" rx="30" ry="30" width="30" height="30" fill-opacity="0"></rect><circle id="element_circle_73" stroke-width="1" r="5" stroke="black" fill="white"></circle></g><g transform="translate(1045.98,172.32)"><g class="draggable" id="movable_element_text_73" transform="translate(8,3)"><text is="custom" id="element_text_73" data-testid="element_text_73" font-weight="14px" font-size="13px" class="label" transform="" fill="black">cost</text></g></g><g is="custom" class="draggable" id="movable_element_74" transform="translate(590.04,459.52)"><rect x="-15" y="-15" rx="30" ry="30" width="30" height="30" fill-opacity="0"></rect><circle id="element_circle_74" stroke-width="1" r="5" stroke="black" fill="white"></circle></g><g transform="translate(590.04,459.52)"><g class="draggable" id="movable_element_text_74" transform="translate(-91,6)"><text is="custom" id="element_text_74" data-testid="element_text_74" font-weight="14px" font-size="13px" class="label" transform="" fill="black">forecasting</text></g></g><g is="custom" class="draggable" id="movable_element_75" transform="translate(804.6,567.22)"><rect x="-15" y="-15" rx="30" ry="30" width="30" height="30" fill-opacity="0"></rect><circle id="element_circle_75" stroke-width="1" r="5" stroke="black" fill="white"></circle><rect id="element_square_75" x="-5" y="-5" fill="white" stroke="black" width="10" height="10" stroke-width="2"></rect></g><g transform="translate(804.6,567.22)"><g class="draggable" id="movable_element_text_75" transform="translate(-72,-7)"><text is="custom" id="element_text_75" data-testid="element_text_75" font-weight="14px" font-size="13px" class="label" transform="" fill="black">LOGISTICS</text></g></g><g is="custom" class="draggable" id="movable_element_78" transform="translate(549.81,574.4)"><rect x="-15" y="-15" rx="30" ry="30" width="30" height="30" fill-opacity="0"></rect><circle id="element_circle_78" stroke-width="1" r="5" stroke="black" fill="white"></circle></g><g transform="translate(549.81,574.4)"><g class="draggable" id="movable_element_text_78" transform="translate(-16,-17)"><text is="custom" id="element_text_78" data-testid="element_text_78" font-weight="14px" font-size="13px" class="label" transform="" fill="black">rate of change</text></g></g><g is="custom" class="draggable" id="movable_element_81" transform="translate(885.0600000000001,703.64)"><rect x="-15" y="-15" rx="30" ry="30" width="30" height="30" fill-opacity="0"></rect><circle id="element_circle_81" stroke-width="1" r="5" stroke="black" fill="white"></circle></g><g transform="translate(885.0600000000001,703.64)"><g class="draggable" id="movable_element_text_81" transform="translate(11,1)"><text is="custom" id="element_text_81" data-testid="element_text_81" font-weight="14px" font-size="13px" class="label" transform="" fill="black">data</text></g></g><g is="custom" class="draggable" id="movable_element_82" transform="translate(965.52,64.61999999999998)"><rect x="-15" y="-15" rx="30" ry="30" width="30" height="30" fill-opacity="0"></rect><circle id="element_circle_82" stroke-width="1" r="5" stroke="black" fill="white"></circle></g><g transform="translate(965.52,64.61999999999998)"><g class="draggable" id="movable_element_text_82" transform="translate(8,-3)"><text is="custom" id="element_text_82" data-testid="element_text_82" font-weight="14px" font-size="13px" class="label" transform="" fill="black">ROCE</text></g></g><g is="custom" class="draggable" id="movable_element_84" transform="translate(938.6999999999999,437.98)"><rect x="-15" y="-15" rx="30" ry="30" width="30" height="30" fill-opacity="0"></rect><circle id="element_circle_84" stroke-width="1" r="5" stroke="black" fill="white"></circle><rect id="element_square_84" x="-5" y="-5" fill="white" stroke="black" width="10" height="10" stroke-width="2"></rect></g><g transform="translate(938.6999999999999,437.98)"><g class="draggable" id="movable_element_text_84" transform="translate(13,8)"><text is="custom" id="element_text_84" data-testid="element_text_84" font-weight="14px" font-size="13px" class="label" transform="" fill="black">ENERGY</text></g></g><g is="custom" class="draggable" id="movable_element_87" transform="translate(764.3699999999999,172.32)"><rect x="-15" y="-15" rx="30" ry="30" width="30" height="30" fill-opacity="0"></rect><circle id="element_circle_87" stroke-width="1" r="5" stroke="black" fill="white"></circle><rect id="element_square_87" x="-5" y="-5" fill="white" stroke="black" width="10" height="10" stroke-width="2"></rect></g><g transform="translate(764.3699999999999,172.32)"><g class="draggable" id="movable_element_text_87" transform="translate(8,2)"><text is="custom" id="element_text_87" data-testid="element_text_87" font-weight="14px" font-size="13px" class="label" transform="" fill="black">CNI</text></g></g><g is="custom" class="draggable" id="movable_element_90" transform="translate(1045.98,107.70000000000002)"><rect x="-15" y="-15" rx="30" ry="30" width="30" height="30" fill-opacity="0"></rect><circle id="element_circle_90" stroke-width="1" r="5" stroke="black" fill="white"></circle></g><g transform="translate(1045.98,107.70000000000002)"><g class="draggable" id="movable_element_text_90" transform="translate(10,4)"><text is="custom" id="element_text_90" data-testid="element_text_90" font-weight="14px" font-size="13px" class="label" transform="" fill="black">capital</text></g></g><g is="custom" class="draggable" id="movable_element_97" transform="translate(683.91,366.18)"><rect x="-15" y="-15" rx="30" ry="30" width="30" height="30" fill-opacity="0"></rect><circle id="element_circle_97" stroke-width="1" r="5" stroke="black" fill="white"></circle></g><g transform="translate(683.91,366.18)"><g class="draggable" id="movable_element_text_97" transform="translate(-71,2)"><text is="custom" id="element_text_97" data-testid="element_text_97" font-weight="14px" font-size="13px" class="label" transform="" fill="black">authority</text></g></g></g><g id="notes"></g><g id="annotations"></g></g></svg>