<?xml version="1.0" encoding="UTF-8"?><!DOCTYPE svg PUBLIC "-//W3C//DTD SVG 1.1//EN" "http://www.w3.org/Graphics/SVG/1.1/DTD/svg11.dtd"><svg font-family="Consolas, Lucida Console, monospace" font-size="13px" class="wardley" id="svgMap" width="1381" height="798" viewBox="-20 0 1361 738" version="1.1" xmlns="http://www.w3.org/2000/svg" xmlns:xlink="http://www.w3.org/1999/xlink"><defs><filter id="ctrlHighlight"><feDropShadow dx="0" dy="0" stdDeviation="3" flood-color="blue"></feDropShadow></filter><linearGradient gradientUnits="objectBoundingBox" id="wardleyGradient" spreadMethod="pad" x1="0%" x2="100%" y1="0%" y2="0%"><stop offset="0%" style="stop-color:rgb(196, 196, 196);stop-opacity:1"></stop><stop offset="0.3" style="stop-color:white;stop-opacity:1"></stop><stop offset="0.7" style="stop-color:white"></stop><stop offset="1" style="stop-color:rgb(196, 196, 196)"></stop></linearGradient><linearGradient spreadMethod="pad" id="accelGradient" x1="0%" y1="64%" x2="76%" y2="0%"><stop offset="0%" style="stop-color:white;stop-opacity:1"></stop><stop offset="100%" style="stop-color:#8c8995;stop-opacity:1"></stop></linearGradient><pattern id="diagonalHatch" patternUnits="userSpaceOnUse" width="4" height="4"><path d="M 3,-1 l 2,2 M 0,0 l 4,4 M -1,3 l 2,2 " stroke="grey" stroke-width="1" opacity=".5"></path></pattern><marker id="arrow" markerWidth="12" markerHeight="12" refX="15" refY="0" viewBox="0 -5 10 10" orient="0"><path d="M0,-5L10,0L0,5" fill="red"></path></marker><marker id="graphArrow" markerWidth="12" markerHeight="12" refX="9" refY="0" viewBox="0 -5 10 10" orient="0"><path d="M0,-5L10,0L0,5" fill="black"></path></marker><marker id="pipelineArrow" markerWidth="5" markerHeight="5" refX="9" refY="0" viewBox="0 -5 10 10" orient="0"><path d="M0,-5L10,0L0,5" fill="black"></path></marker></defs><g id="grid"><rect x="0" width="1341" y="0" height="718" id="fillArea" fill="url(#wardleyGradient)"></rect><g id="valueChain" transform="translate(0,718) rotate(270)" font-family="&quot;Helvetica Neue&quot;,Helvetica,Arial,sans-serif" font-size="13px"><line x1="0" y1="0" x2="718" y2="0" stroke="black" stroke-width="1" stroke-dasharray="2,2"></line><line x1="-2em" y1="234.67499999999998" x2="718" y2="234.67499999999998" stroke="#b8b8b8" stroke-dasharray="2,2"></line><line x1="-2em" y1="536.4" x2="718" y2="536.4" stroke="#b8b8b8" stroke-dasharray="2,2"></line><line x1="-2em" y1="938.6999999999999" x2="718" y2="938.6999999999999" stroke="#b8b8b8" stroke-dasharray="2,2"></line><text fill="black" x="716" y="-0.4em" text-anchor="end" font-weight="bold">Value Chain</text></g><g id="Evolution" font-family="&quot;Helvetica Neue&quot;,Helvetica,Arial,sans-serif" font-size="13px" font-style="italic" transform="translate(0,718)"><line x1="0" y1="0" x2="1339" y2="0" stroke="black" stroke-width="1" marker-end="url(#graphArrow)"></line><text fill="black" x="10" y="-703" text-anchor="start" font-style="normal" font-size="11px" font-weight="bold">Uncharted</text><text fill="black" x="1331" y="-703" text-anchor="end" font-style="normal" font-size="11px" font-weight="bold">Industrialised</text><text fill="black" x="0" y="1em" text-anchor="start">genesis / concept </text><text fill="black" x="0" y="2em" text-anchor="start"></text><text fill="black" x="241.67499999999998" y="1em" text-anchor="start"> custom / emerging </text><text fill="black" x="241.67499999999998" y="2em" text-anchor="start"></text><text fill="black" x="543.4" y="1em" text-anchor="start"> product/ converging </text><text fill="black" x="543.4" y="2em" text-anchor="start"></text><text fill="black" x="945.6999999999999" y="1em" text-anchor="start"> commodity / accepted</text><text fill="black" x="945.6999999999999" y="2em" text-anchor="start"></text><text fill="black" x="1341" y="1.8em" text-anchor="end" font-weight="bold" font-style="normal">Evolution</text></g></g><g id="map"><g id="attitudes"></g><g id="methods"></g><g id="fluids"></g><g id="links"><g id="link_13_14"><line x1="925.29" y1="64.61999999999998" x2="858.24" y2="114.88000000000002" stroke="grey" stroke-width="1"></line></g><g id="link_44_35"><line x1="925.29" y1="344.64" x2="925.29" y2="430.8" stroke="grey" stroke-width="1"></line></g><g id="link_35_36"><line x1="925.29" y1="430.8" x2="925.29" y2="509.78" stroke="grey" stroke-width="1"></line></g><g id="link_13_19"><line x1="925.29" y1="64.61999999999998" x2="777.78" y2="258.48" stroke="grey" stroke-width="1"></line></g><g id="link_13_25"><line x1="925.29" y1="64.61999999999998" x2="482.76" y2="71.79999999999998" stroke="grey" stroke-width="1"></line></g><g id="link_25_16"><line x1="482.76" y1="71.79999999999998" x2="482.76" y2="107.70000000000002" stroke="grey" stroke-width="1"></line></g><g id="link_14_26"><line x1="858.24" y1="114.88000000000002" x2="509.58" y2="179.5" stroke="grey" stroke-width="1"></line></g><g id="link_26_16"><line x1="509.58" y1="179.5" x2="482.76" y2="107.70000000000002" stroke="grey" stroke-width="1"></line></g><g id="link_19_26"><line x1="777.78" y1="258.48" x2="509.58" y2="179.5" stroke="grey" stroke-width="1"></line></g><g id="link_26_32"><line x1="509.58" y1="179.5" x2="496.17" y2="301.56" stroke="grey" stroke-width="1"></line></g><g id="link_31_32"><line x1="549.81" y1="287.2" x2="496.17" y2="301.56" stroke="grey" stroke-width="1"></line></g><g id="link_19_60"><line x1="777.78" y1="258.48" x2="750.96" y2="330.28" stroke="grey" stroke-width="1"></line></g><g id="link_19_44"><line x1="777.78" y1="258.48" x2="925.29" y2="344.64" stroke="grey" stroke-width="1"></line></g><g id="link_24_62"><line x1="898.47" y1="129.24000000000004" x2="791.1899999999999" y2="344.64" stroke="grey" stroke-width="1"></line></g><g id="link_23_63"><line x1="737.5500000000001" y1="129.24000000000004" x2="549.81" y2="344.64" stroke="grey" stroke-width="1"></line></g><g id="link_13_55"><line x1="925.29" y1="64.61999999999998" x2="724.1400000000001" y2="86.16" stroke="grey" stroke-width="1"></line></g><g id="link_26_55"><line x1="509.58" y1="179.5" x2="724.1400000000001" y2="86.16" stroke="grey" stroke-width="1"></line></g><g id="link_19_31"><line x1="777.78" y1="258.48" x2="549.81" y2="287.2" stroke="grey" stroke-width="1"></line></g><g id="link_62_64"><line x1="791.1899999999999" y1="344.64" x2="844.83" y2="402.08000000000004" stroke="grey" stroke-width="1"></line></g><g id="link_64_86"><line x1="844.83" y1="402.08000000000004" x2="858.24" y2="459.52" stroke="grey" stroke-width="1"></line></g><g id="link_63_66"><line x1="549.81" y1="344.64" x2="536.4" y2="560.04" stroke="grey" stroke-width="1"></line></g><g id="link_62_74"><line x1="791.1899999999999" y1="344.64" x2="670.5" y2="560.04" stroke="grey" stroke-width="1"></line></g><g id="link_66_50"><line x1="536.4" y1="560.04" x2="375.48" y2="459.52" stroke="grey" stroke-width="1"></line></g><g id="link_24_29"><line x1="898.47" y1="129.24000000000004" x2="791.1899999999999" y2="193.86" stroke="grey" stroke-width="1"></line></g><g id="link_63_50"><line x1="549.81" y1="344.64" x2="375.48" y2="459.52" stroke="grey" stroke-width="1"></line></g><g id="link_68_65"><line x1="777.78" y1="617.48" x2="590.04" y2="545.68" stroke="grey" stroke-width="1"></line></g><g id="link_68_86"><line x1="777.78" y1="617.48" x2="858.24" y2="459.52" stroke="grey" stroke-width="1"></line></g><g id="link_68_69"><line x1="777.78" y1="617.48" x2="898.47" y2="660.5600000000001" stroke="grey" stroke-width="1"></line></g><g id="link_69_67"><line x1="898.47" y1="660.5600000000001" x2="925.29" y2="703.64" stroke="grey" stroke-width="1"></line></g><g id="link_68_72"><line x1="777.78" y1="617.48" x2="657.09" y2="646.2" stroke="grey" stroke-width="1"></line></g><g id="link_26_75"><line x1="509.58" y1="179.5" x2="254.79" y2="560.04" stroke="grey" stroke-width="1"></line></g><g id="link_30_19"><line x1="925.29" y1="301.56" x2="777.78" y2="258.48" stroke="grey" stroke-width="1"></line></g><g id="link_72_49"><line x1="657.09" y1="646.2" x2="469.34999999999997" y2="696.46" stroke="grey" stroke-width="1"></line></g><g id="link_44_33"><line x1="925.29" y1="344.64" x2="898.47" y2="380.54" stroke="grey" stroke-width="1"></line></g><g id="link_18_13"><line x1="952.1099999999999" y1="28.720000000000027" x2="925.29" y2="64.61999999999998" stroke="grey" stroke-width="1"></line></g><g id="link_17_12"><line x1="925.29" y1="0" x2="925.29" y2="21.54000000000002" stroke="grey" stroke-width="1"></line></g><g id="link_12_18"><line x1="925.29" y1="21.54000000000002" x2="952.1099999999999" y2="28.720000000000027" stroke="grey" stroke-width="1"></line></g></g><g id="evolvingEndLinks"></g><g id="bothEvolving"></g><g id="anchorLinks"></g><g id="anchorNonEvolvedLinks"></g><g id="evolvingToNoneEvolvingEndLinks"></g><g id="evolvedLinks">;</g><g id="anchors"></g><g id="pipelines"><g id="pipeline_box_15" transform="translate(724.1400000000001,116.88000000000002)"><line x1="0" y1="0" x2="187.74" y2="0" stroke-width="1" stroke="black"></line><line x1="187.74" y1="0" x2="187.74" y2="22" stroke-width="1" stroke="black"></line><line x1="187.74" y1="22" x2="0" y2="22" stroke-width="1" stroke="black"></line><line x1="0" y1="22" x2="0" y2="0" stroke-width="1" stroke="black"></line></g><g is="custom" class="draggable" id="movable_pipeline_x1_15" transform="translate(724.1400000000001,116.88000000000002)"><rect x="-15" y="-15" rx="30" ry="30" width="30" height="30" fill-opacity="0"></rect><circle id="pipeline_circle_x1_15" cx="10" cy="12" stroke-width="1" r="5" stroke="black" fill="white"></circle></g><g is="custom" class="draggable" id="movable_pipeline_x2_15" transform="translate(911.8800000000001,116.88000000000002)"><rect x="-15" y="-15" rx="30" ry="30" width="30" height="30" fill-opacity="0"></rect><circle id="pipeline_circle_x2_15" cx="-10" cy="12" stroke-width="1" r="5" stroke="black" fill="white"></circle></g><g id="pipeline_box_27" transform="translate(335.25,181.5)"><line x1="0" y1="0" x2="469.35" y2="0" stroke-width="1" stroke="black"></line><line x1="469.35" y1="0" x2="469.35" y2="22" stroke-width="1" stroke="black"></line><line x1="469.35" y1="22" x2="0" y2="22" stroke-width="1" stroke="black"></line><line x1="0" y1="22" x2="0" y2="0" stroke-width="1" stroke="black"></line></g><g is="custom" class="draggable" id="movable_pipeline_x1_27" transform="translate(335.25,181.5)"><rect x="-15" y="-15" rx="30" ry="30" width="30" height="30" fill-opacity="0"></rect><circle id="pipeline_circle_x1_27" cx="10" cy="12" stroke-width="1" r="5" stroke="black" fill="white"></circle></g><g is="custom" class="draggable" id="movable_pipeline_x2_27" transform="translate(804.6,181.5)"><rect x="-15" y="-15" rx="30" ry="30" width="30" height="30" fill-opacity="0"></rect><circle id="pipeline_circle_x2_27" cx="-10" cy="12" stroke-width="1" r="5" stroke="black" fill="white"></circle></g><g id="pipeline_box_47" transform="translate(362.07000000000005,447.16)"><line x1="0" y1="0" x2="509.5799999999999" y2="0" stroke-width="1" stroke="black"></line><line x1="509.5799999999999" y1="0" x2="509.5799999999999" y2="22" stroke-width="1" stroke="black"></line><line x1="509.5799999999999" y1="22" x2="0" y2="22" stroke-width="1" stroke="black"></line><line x1="0" y1="22" x2="0" y2="0" stroke-width="1" stroke="black"></line></g><g is="custom" class="draggable" id="movable_pipeline_x1_47" transform="translate(362.07000000000005,447.16)"><rect x="-15" y="-15" rx="30" ry="30" width="30" height="30" fill-opacity="0"></rect><circle id="pipeline_circle_x1_47" cx="10" cy="12" stroke-width="1" r="5" stroke="black" fill="white"></circle></g><g is="custom" class="draggable" id="movable_pipeline_x2_47" transform="translate(871.65,447.16)"><rect x="-15" y="-15" rx="30" ry="30" width="30" height="30" fill-opacity="0"></rect><circle id="pipeline_circle_x2_47" cx="-10" cy="12" stroke-width="1" r="5" stroke="black" fill="white"></circle></g><g id="pipeline_box_61" transform="translate(536.4,332.28)"><line x1="0" y1="0" x2="268.20000000000005" y2="0" stroke-width="1" stroke="black"></line><line x1="268.20000000000005" y1="0" x2="268.20000000000005" y2="22" stroke-width="1" stroke="black"></line><line x1="268.20000000000005" y1="22" x2="0" y2="22" stroke-width="1" stroke="black"></line><line x1="0" y1="22" x2="0" y2="0" stroke-width="1" stroke="black"></line></g><g is="custom" class="draggable" id="movable_pipeline_x1_61" transform="translate(536.4,332.28)"><rect x="-15" y="-15" rx="30" ry="30" width="30" height="30" fill-opacity="0"></rect><circle id="pipeline_circle_x1_61" cx="10" cy="12" stroke-width="1" r="5" stroke="black" fill="white"></circle></g><g is="custom" class="draggable" id="movable_pipeline_x2_61" transform="translate(804.6,332.28)"><rect x="-15" y="-15" rx="30" ry="30" width="30" height="30" fill-opacity="0"></rect><circle id="pipeline_circle_x2_61" cx="-10" cy="12" stroke-width="1" r="5" stroke="black" fill="white"></circle></g><g id="pipeline_box_71" transform="translate(241.38,547.68)"><line x1="0" y1="0" x2="442.53" y2="0" stroke-width="1" stroke="black"></line><line x1="442.53" y1="0" x2="442.53" y2="22" stroke-width="1" stroke="black"></line><line x1="442.53" y1="22" x2="0" y2="22" stroke-width="1" stroke="black"></line><line x1="0" y1="22" x2="0" y2="0" stroke-width="1" stroke="black"></line></g><g is="custom" class="draggable" id="movable_pipeline_x1_71" transform="translate(241.38,547.68)"><rect x="-15" y="-15" rx="30" ry="30" width="30" height="30" fill-opacity="0"></rect><circle id="pipeline_circle_x1_71" cx="10" cy="12" stroke-width="1" r="5" stroke="black" fill="white"></circle></g><g is="custom" class="draggable" id="movable_pipeline_x2_71" transform="translate(683.91,547.68)"><rect x="-15" y="-15" rx="30" ry="30" width="30" height="30" fill-opacity="0"></rect><circle id="pipeline_circle_x2_71" cx="-10" cy="12" stroke-width="1" r="5" stroke="black" fill="white"></circle></g></g><g id="elements"><g is="custom" class="draggable" id="movable_element_12" transform="translate(925.29,21.54000000000002)"><rect x="-15" y="-15" rx="30" ry="30" width="30" height="30" fill-opacity="0"></rect><circle id="element_circle_12" stroke-width="1" r="5" stroke="black" fill="white"></circle></g><g transform="translate(925.29,21.54000000000002)"><g class="draggable" id="movable_element_text_12" transform="translate(-65,1)"><text is="custom" id="element_text_12" data-testid="element_text_12" font-weight="14px" font-size="13px" class="label" transform="" fill="black">manifest</text></g></g><g is="custom" class="draggable" id="movable_element_13" transform="translate(925.29,64.61999999999998)"><rect x="-15" y="-15" rx="30" ry="30" width="30" height="30" fill-opacity="0"></rect><circle id="element_circle_13" stroke-width="1" r="5" stroke="black" fill="white"></circle></g><g transform="translate(925.29,64.61999999999998)"><g class="draggable" id="movable_element_text_13" transform="translate(-3,-13)"><text is="custom" id="element_text_13" data-testid="element_text_13" font-weight="14px" font-size="13px" class="label" transform="translate(30, 10)" fill="black"><tspan x="0" dy="0" text-anchor="middle">speed</tspan><tspan x="0" dy="15" text-anchor="middle">of</tspan><tspan x="0" dy="15" text-anchor="middle">change</tspan></text></g></g><g is="custom" class="draggable" id="movable_element_14" transform="translate(858.24,114.88000000000002)"><rect x="-15" y="-15" rx="30" ry="30" width="30" height="30" fill-opacity="0"></rect><circle id="element_circle_14" stroke-width="1" r="5" stroke="black" fill="white"></circle><rect id="element_square_14" x="-5" y="-5" fill="white" stroke="black" width="10" height="10" stroke-width="2"></rect></g><g transform="translate(858.24,114.88000000000002)"><g class="draggable" id="movable_element_text_14" transform="translate(-86,-5)"><text is="custom" id="element_text_14" data-testid="element_text_14" font-weight="14px" font-size="13px" class="label" transform="" fill="black">methodology</text></g></g><g is="custom" class="draggable" id="movable_element_16" transform="translate(482.76,107.70000000000002)"><rect x="-15" y="-15" rx="30" ry="30" width="30" height="30" fill-opacity="0"></rect><circle id="element_circle_16" stroke-width="1" r="5" stroke="black" fill="white"></circle></g><g transform="translate(482.76,107.70000000000002)"><g class="draggable" id="movable_element_text_16" transform="translate(-65,-5)"><text is="custom" id="element_text_16" data-testid="element_text_16" font-weight="14px" font-size="13px" class="label" transform="translate(30, 10)" fill="black"><tspan x="0" dy="0" text-anchor="middle">demand</tspan><tspan x="0" dy="15" text-anchor="middle">forecasting</tspan></text></g></g><g is="custom" class="draggable" id="movable_element_17" transform="translate(925.29,0)"><rect x="-15" y="-15" rx="30" ry="30" width="30" height="30" fill-opacity="0"></rect><circle id="element_circle_17" stroke-width="1" r="5" stroke="black" fill="white"></circle></g><g transform="translate(925.29,0)"><g class="draggable" id="movable_element_text_17" transform="translate(-93,-2)"><text is="custom" id="element_text_17" data-testid="element_text_17" font-weight="14px" font-size="13px" class="label" transform="" fill="black">manufacturer</text></g></g><g is="custom" class="draggable" id="movable_element_18" transform="translate(952.1099999999999,28.720000000000027)"><rect x="-15" y="-15" rx="30" ry="30" width="30" height="30" fill-opacity="0"></rect><circle id="element_circle_18" stroke-width="1" r="5" stroke="black" fill="white"></circle></g><g transform="translate(952.1099999999999,28.720000000000027)"><g class="draggable" id="movable_element_text_18" transform="translate(2,-17)"><text is="custom" id="element_text_18" data-testid="element_text_18" font-weight="14px" font-size="13px" class="label" transform="translate(30, 10)" fill="black"><tspan x="0" dy="0" text-anchor="middle">implement</tspan><tspan x="0" dy="15" text-anchor="middle">change</tspan></text></g></g><g is="custom" class="draggable" id="movable_element_19" transform="translate(777.78,258.48)"><rect x="-15" y="-15" rx="30" ry="30" width="30" height="30" fill-opacity="0"></rect><circle id="element_circle_19" stroke-width="1" r="5" stroke="black" fill="white"></circle><rect id="element_square_19" x="-5" y="-5" fill="white" stroke="black" width="10" height="10" stroke-width="2"></rect></g><g transform="translate(777.78,258.48)"><g class="draggable" id="movable_element_text_19" transform="translate(-44,21)"><text is="custom" id="element_text_19" data-testid="element_text_19" font-weight="14px" font-size="13px" class="label" transform="" fill="black">supply chain</text></g></g><g is="custom" class="draggable" id="movable_element_23" transform="translate(737.5500000000001,129.24000000000004)"><rect x="-15" y="-15" rx="30" ry="30" width="30" height="30" fill-opacity="0"></rect><circle id="element_circle_23" stroke-width="1" r="5" stroke="black" fill="white"></circle></g><g transform="translate(737.5500000000001,129.24000000000004)"><g class="draggable" id="movable_element_text_23" transform="translate(-54,0)"><text is="custom" id="element_text_23" data-testid="element_text_23" font-weight="14px" font-size="13px" class="label" transform="" fill="black">agile</text></g></g><g is="custom" class="draggable" id="movable_element_24" transform="translate(898.47,129.24000000000004)"><rect x="-15" y="-15" rx="30" ry="30" width="30" height="30" fill-opacity="0"></rect><circle id="element_circle_24" stroke-width="1" r="5" stroke="black" fill="white"></circle></g><g transform="translate(898.47,129.24000000000004)"><g class="draggable" id="movable_element_text_24" transform="translate(17,-2)"><text is="custom" id="element_text_24" data-testid="element_text_24" font-weight="14px" font-size="13px" class="label" transform="" fill="black">lean</text></g></g><g is="custom" class="draggable" id="movable_element_25" transform="translate(482.76,71.79999999999998)"><rect x="-15" y="-15" rx="30" ry="30" width="30" height="30" fill-opacity="0"></rect><circle id="element_circle_25" stroke-width="1" r="5" stroke="black" fill="white"></circle></g><g transform="translate(482.76,71.79999999999998)"><g class="draggable" id="movable_element_text_25" transform="translate(-74,-19)"><text is="custom" id="element_text_25" data-testid="element_text_25" font-weight="14px" font-size="13px" class="label" transform="translate(30, 10)" fill="black"><tspan x="0" dy="0" text-anchor="middle">scenario</tspan><tspan x="0" dy="15" text-anchor="middle">planning</tspan></text></g></g><g is="custom" class="draggable" id="movable_element_26" transform="translate(509.58,179.5)"><rect x="-15" y="-15" rx="30" ry="30" width="30" height="30" fill-opacity="0"></rect><circle id="element_circle_26" stroke-width="1" r="5" stroke="black" fill="white"></circle><rect id="element_square_26" x="-5" y="-5" fill="white" stroke="black" width="10" height="10" stroke-width="2"></rect></g><g transform="translate(509.58,179.5)"><g class="draggable" id="movable_element_text_26" transform="translate(-17,-51)"><text is="custom" id="element_text_26" data-testid="element_text_26" font-weight="14px" font-size="13px" class="label" transform="translate(30, 10)" fill="black"><tspan x="0" dy="0" text-anchor="middle">value</tspan><tspan x="0" dy="15" text-anchor="middle">chain</tspan><tspan x="0" dy="15" text-anchor="middle">awareness</tspan></text></g></g><g is="custom" class="draggable" id="movable_element_28" transform="translate(348.66,193.86)"><rect x="-15" y="-15" rx="30" ry="30" width="30" height="30" fill-opacity="0"></rect><circle id="element_circle_28" stroke-width="1" r="5" stroke="black" fill="white"></circle></g><g transform="translate(348.66,193.86)"><g class="draggable" id="movable_element_text_28" transform="translate(-72,-4)"><text is="custom" id="element_text_28" data-testid="element_text_28" font-weight="14px" font-size="13px" class="label" transform="translate(30, 10)" fill="black"><tspan x="0" dy="0" text-anchor="middle">wardley</tspan><tspan x="0" dy="15" text-anchor="middle">mapping</tspan></text></g></g><g is="custom" class="draggable" id="movable_element_29" transform="translate(791.1899999999999,193.86)"><rect x="-15" y="-15" rx="30" ry="30" width="30" height="30" fill-opacity="0"></rect><circle id="element_circle_29" stroke-width="1" r="5" stroke="black" fill="white"></circle></g><g transform="translate(791.1899999999999,193.86)"><g class="draggable" id="movable_element_text_29" transform="translate(12,-18)"><text is="custom" id="element_text_29" data-testid="element_text_29" font-weight="14px" font-size="13px" class="label" transform="translate(30, 10)" fill="black"><tspan x="0" dy="0" text-anchor="middle">value</tspan><tspan x="0" dy="15" text-anchor="middle">stream</tspan><tspan x="0" dy="15" text-anchor="middle">mapping</tspan></text></g></g><g is="custom" class="draggable" id="movable_element_30" transform="translate(925.29,301.56)"><rect x="-15" y="-15" rx="30" ry="30" width="30" height="30" fill-opacity="0"></rect><circle id="element_circle_30" stroke-width="1" r="5" stroke="black" fill="white"></circle></g><g transform="translate(925.29,301.56)"><g class="draggable" id="movable_element_text_30" transform="translate(11,4)"><text is="custom" id="element_text_30" data-testid="element_text_30" font-weight="14px" font-size="13px" class="label" transform="" fill="black">Vendor Lists</text></g></g><g is="custom" class="draggable" id="movable_element_31" transform="translate(549.81,287.2)"><rect x="-15" y="-15" rx="30" ry="30" width="30" height="30" fill-opacity="0"></rect><circle id="element_circle_31" stroke-width="1" r="5" stroke="black" fill="white"></circle></g><g transform="translate(549.81,287.2)"><g class="draggable" id="movable_element_text_31" transform="translate(-7,-13)"><text is="custom" id="element_text_31" data-testid="element_text_31" font-weight="14px" font-size="13px" class="label" transform="" fill="black">trust</text></g></g><g is="custom" class="draggable" id="movable_element_32" transform="translate(496.17,301.56)"><rect x="-15" y="-15" rx="30" ry="30" width="30" height="30" fill-opacity="0"></rect><circle id="element_circle_32" stroke-width="1" r="5" stroke="black" fill="white"></circle></g><g transform="translate(496.17,301.56)"><g class="draggable" id="movable_element_text_32" transform="translate(-51,16)"><text is="custom" id="element_text_32" data-testid="element_text_32" font-weight="14px" font-size="13px" class="label" transform="" fill="black">transparancy</text></g></g><g is="custom" class="draggable" id="movable_element_33" transform="translate(898.47,380.54)"><rect x="-15" y="-15" rx="30" ry="30" width="30" height="30" fill-opacity="0"></rect><circle id="element_circle_33" stroke-width="1" r="5" stroke="black" fill="white"></circle></g><g transform="translate(898.47,380.54)"><g class="draggable" id="movable_element_text_33" transform="translate(-14,17)"><text is="custom" id="element_text_33" data-testid="element_text_33" font-weight="14px" font-size="13px" class="label" transform="" fill="black">configuration</text></g></g><g is="custom" class="draggable" id="movable_element_35" transform="translate(925.29,430.8)"><rect x="-15" y="-15" rx="30" ry="30" width="30" height="30" fill-opacity="0"></rect><circle id="element_circle_35" stroke-width="1" r="5" stroke="black" fill="white"></circle></g><g transform="translate(925.29,430.8)"><g class="draggable" id="movable_element_text_35" transform="translate(13,5)"><text is="custom" id="element_text_35" data-testid="element_text_35" font-weight="14px" font-size="13px" class="label" transform="" fill="black">factory</text></g></g><g is="custom" class="draggable" id="movable_element_36" transform="translate(925.29,509.78)"><rect x="-15" y="-15" rx="30" ry="30" width="30" height="30" fill-opacity="0"></rect><circle id="element_circle_36" stroke-width="1" r="5" stroke="black" fill="white"></circle></g><g transform="translate(925.29,509.78)"><g class="draggable" id="movable_element_text_36" transform="translate(14,5)"><text is="custom" id="element_text_36" data-testid="element_text_36" font-weight="14px" font-size="13px" class="label" transform="" fill="black">retooling</text></g></g><g is="custom" class="draggable" id="movable_element_44" transform="translate(925.29,344.64)"><rect x="-15" y="-15" rx="30" ry="30" width="30" height="30" fill-opacity="0"></rect><circle id="element_circle_44" stroke-width="1" r="5" stroke="black" fill="white"></circle></g><g transform="translate(925.29,344.64)"><g class="draggable" id="movable_element_text_44" transform="translate(15,-6)"><text is="custom" id="element_text_44" data-testid="element_text_44" font-weight="14px" font-size="13px" class="label" transform="translate(30, 10)" fill="black"><tspan x="0" dy="0" text-anchor="middle">production</tspan><tspan x="0" dy="15" text-anchor="middle">line</tspan></text></g></g><g is="custom" class="draggable" id="movable_element_46" transform="translate(657.09,445.16)"><rect x="-15" y="-15" rx="30" ry="30" width="30" height="30" fill-opacity="0"></rect><circle id="element_circle_46" stroke-width="1" r="5" stroke="black" fill="white"></circle><rect id="element_square_46" x="-5" y="-5" fill="white" stroke="black" width="10" height="10" stroke-width="2"></rect></g><g transform="translate(657.09,445.16)"><g class="draggable" id="movable_element_text_46" transform="translate(-63,-12)"><text is="custom" id="element_text_46" data-testid="element_text_46" font-weight="14px" font-size="13px" class="label" transform="" fill="black">observability</text></g></g><g is="custom" class="draggable" id="movable_element_49" transform="translate(469.34999999999997,696.46)"><rect x="-15" y="-15" rx="30" ry="30" width="30" height="30" fill-opacity="0"></rect><circle id="element_circle_49" stroke-width="1" r="5" stroke="black" fill="white"></circle></g><g transform="translate(469.34999999999997,696.46)"><g class="draggable" id="movable_element_text_49" transform="translate(-57,-28)"><text is="custom" id="element_text_49" data-testid="element_text_49" font-weight="14px" font-size="13px" class="label" transform="translate(30, 10)" fill="black"><tspan x="0" dy="0" text-anchor="middle">representation</tspan><tspan x="0" dy="15" text-anchor="middle">of</tspan><tspan x="0" dy="15" text-anchor="middle">chain</tspan></text></g></g><g is="custom" class="draggable" id="movable_element_50" transform="translate(375.48,459.52)"><rect x="-15" y="-15" rx="30" ry="30" width="30" height="30" fill-opacity="0"></rect><circle id="element_circle_50" stroke-width="1" r="5" stroke="black" fill="white"></circle></g><g transform="translate(375.48,459.52)"><g class="draggable" id="movable_element_text_50" transform="translate(-23,23)"><text is="custom" id="element_text_50" data-testid="element_text_50" font-weight="14px" font-size="13px" class="label" transform="" fill="black">factory mode</text></g></g><g is="custom" class="draggable" id="movable_element_55" transform="translate(724.1400000000001,86.16)"><rect x="-15" y="-15" rx="30" ry="30" width="30" height="30" fill-opacity="0"></rect><circle id="element_circle_55" stroke-width="1" r="5" stroke="black" fill="white"></circle></g><g transform="translate(724.1400000000001,86.16)"><g class="draggable" id="movable_element_text_55" transform="translate(-96,1)"><text is="custom" id="element_text_55" data-testid="element_text_55" font-weight="14px" font-size="13px" class="label" transform="" fill="black">architecture</text></g></g><g is="custom" class="draggable" id="movable_element_60" transform="translate(750.96,330.28)"><rect x="-15" y="-15" rx="30" ry="30" width="30" height="30" fill-opacity="0"></rect><circle id="element_circle_60" stroke-width="1" r="5" stroke="black" fill="white"></circle><rect id="element_square_60" x="-5" y="-5" fill="white" stroke="black" width="10" height="10" stroke-width="2"></rect></g><g transform="translate(750.96,330.28)"><g class="draggable" id="movable_element_text_60" transform="translate(-97,-3)"><text is="custom" id="element_text_60" data-testid="element_text_60" font-weight="14px" font-size="13px" class="label" transform="" fill="black">optimisation</text></g></g><g is="custom" class="draggable" id="movable_element_62" transform="translate(791.1899999999999,344.64)"><rect x="-15" y="-15" rx="30" ry="30" width="30" height="30" fill-opacity="0"></rect><circle id="element_circle_62" stroke-width="1" r="5" stroke="black" fill="white"></circle></g><g transform="translate(791.1899999999999,344.64)"><g class="draggable" id="movable_element_text_62" transform="translate(16,5)"><text is="custom" id="element_text_62" data-testid="element_text_62" font-weight="14px" font-size="13px" class="label" transform="" fill="black">stocks</text></g></g><g is="custom" class="draggable" id="movable_element_63" transform="translate(549.81,344.64)"><rect x="-15" y="-15" rx="30" ry="30" width="30" height="30" fill-opacity="0"></rect><circle id="element_circle_63" stroke-width="1" r="5" stroke="black" fill="white"></circle></g><g transform="translate(549.81,344.64)"><g class="draggable" id="movable_element_text_63" transform="translate(-46,3)"><text is="custom" id="element_text_63" data-testid="element_text_63" font-weight="14px" font-size="13px" class="label" transform="" fill="black">flow</text></g></g><g is="custom" class="draggable" id="movable_element_64" transform="translate(844.83,402.08000000000004)"><rect x="-15" y="-15" rx="30" ry="30" width="30" height="30" fill-opacity="0"></rect><circle id="element_circle_64" stroke-width="1" r="5" stroke="black" fill="white"></circle></g><g transform="translate(844.83,402.08000000000004)"><g class="draggable" id="movable_element_text_64" transform="translate(-53,-22)"><text is="custom" id="element_text_64" data-testid="element_text_64" font-weight="14px" font-size="13px" class="label" transform="translate(30, 10)" fill="black"><tspan x="0" dy="0" text-anchor="middle">exposure</tspan><tspan x="0" dy="15" text-anchor="middle">of</tspan><tspan x="0" dy="15" text-anchor="middle">bottlenecks</tspan></text></g></g><g is="custom" class="draggable" id="movable_element_65" transform="translate(590.04,545.68)"><rect x="-15" y="-15" rx="30" ry="30" width="30" height="30" fill-opacity="0"></rect><circle id="element_circle_65" stroke-width="1" r="5" stroke="black" fill="white"></circle><rect id="element_square_65" x="-5" y="-5" fill="white" stroke="black" width="10" height="10" stroke-width="2"></rect></g><g transform="translate(590.04,545.68)"><g class="draggable" id="movable_element_text_65" transform="translate(-32,-14)"><text is="custom" id="element_text_65" data-testid="element_text_65" font-weight="14px" font-size="13px" class="label" transform="" fill="black">digital twin</text></g></g><g is="custom" class="draggable" id="movable_element_66" transform="translate(536.4,560.04)"><rect x="-15" y="-15" rx="30" ry="30" width="30" height="30" fill-opacity="0"></rect><circle id="element_circle_66" stroke-width="1" r="5" stroke="black" fill="white"></circle></g><g transform="translate(536.4,560.04)"><g class="draggable" id="movable_element_text_66" transform="translate(-85,26)"><text is="custom" id="element_text_66" data-testid="element_text_66" font-weight="14px" font-size="13px" class="label" transform="" fill="black">RT simulation</text></g></g><g is="custom" class="draggable" id="movable_element_67" transform="translate(925.29,703.64)"><rect x="-15" y="-15" rx="30" ry="30" width="30" height="30" fill-opacity="0"></rect><circle id="element_circle_67" stroke-width="1" r="5" stroke="black" fill="white"></circle></g><g transform="translate(925.29,703.64)"><g class="draggable" id="movable_element_text_67" transform="translate(9,2)"><text is="custom" id="element_text_67" data-testid="element_text_67" font-weight="14px" font-size="13px" class="label" transform="" fill="black">sensors</text></g></g><g is="custom" class="draggable" id="movable_element_68" transform="translate(777.78,617.48)"><rect x="-15" y="-15" rx="30" ry="30" width="30" height="30" fill-opacity="0"></rect><circle id="element_circle_68" stroke-width="1" r="5" stroke="black" fill="white"></circle></g><g transform="translate(777.78,617.48)"><g class="draggable" id="movable_element_text_68" transform="translate(11,-4)"><text is="custom" id="element_text_68" data-testid="element_text_68" font-weight="14px" font-size="13px" class="label" transform="" fill="black">information</text></g></g><g is="custom" class="draggable" id="movable_element_69" transform="translate(898.47,660.5600000000001)"><rect x="-15" y="-15" rx="30" ry="30" width="30" height="30" fill-opacity="0"></rect><circle id="element_circle_69" stroke-width="1" r="5" stroke="black" fill="white"></circle></g><g transform="translate(898.47,660.5600000000001)"><g class="draggable" id="movable_element_text_69" transform="translate(8,0)"><text is="custom" id="element_text_69" data-testid="element_text_69" font-weight="14px" font-size="13px" class="label" transform="" fill="black">raw data</text></g></g><g is="custom" class="draggable" id="movable_element_72" transform="translate(657.09,646.2)"><rect x="-15" y="-15" rx="30" ry="30" width="30" height="30" fill-opacity="0"></rect><circle id="element_circle_72" stroke-width="1" r="5" stroke="black" fill="white"></circle><rect id="element_square_72" x="-5" y="-5" fill="white" stroke="black" width="10" height="10" stroke-width="2"></rect></g><g transform="translate(657.09,646.2)"><g class="draggable" id="movable_element_text_72" transform="translate(-33,-11)"><text is="custom" id="element_text_72" data-testid="element_text_72" font-weight="14px" font-size="13px" class="label" transform="" fill="black">model</text></g></g><g is="custom" class="draggable" id="movable_element_74" transform="translate(670.5,560.04)"><rect x="-15" y="-15" rx="30" ry="30" width="30" height="30" fill-opacity="0"></rect><circle id="element_circle_74" stroke-width="1" r="5" stroke="black" fill="white"></circle></g><g transform="translate(670.5,560.04)"><g class="draggable" id="movable_element_text_74" transform="translate(29,-31)"><text is="custom" id="element_text_74" data-testid="element_text_74" font-weight="14px" font-size="13px" class="label" transform="translate(30, 10)" fill="black"><tspan x="0" dy="0" text-anchor="middle">visualisation</tspan><tspan x="0" dy="15" text-anchor="middle">of</tspan><tspan x="0" dy="15" text-anchor="middle">production</tspan><tspan x="0" dy="15" text-anchor="middle">line</tspan></text></g></g><g is="custom" class="draggable" id="movable_element_75" transform="translate(254.79,560.04)"><rect x="-15" y="-15" rx="30" ry="30" width="30" height="30" fill-opacity="0"></rect><circle id="element_circle_75" stroke-width="1" r="5" stroke="black" fill="white"></circle></g><g transform="translate(254.79,560.04)"><g class="draggable" id="movable_element_text_75" transform="translate(-73,0)"><text is="custom" id="element_text_75" data-testid="element_text_75" font-weight="14px" font-size="13px" class="label" transform="translate(30, 10)" fill="black"><tspan x="0" dy="0" text-anchor="middle">WhatIf</tspan><tspan x="0" dy="15" text-anchor="middle">simulation</tspan></text></g></g><g is="custom" class="draggable" id="movable_element_86" transform="translate(858.24,459.52)"><rect x="-15" y="-15" rx="30" ry="30" width="30" height="30" fill-opacity="0"></rect><circle id="element_circle_86" stroke-width="1" r="5" stroke="black" fill="white"></circle></g><g transform="translate(858.24,459.52)"><g class="draggable" id="movable_element_text_86" transform="translate(14,5)"><text is="custom" id="element_text_86" data-testid="element_text_86" font-weight="14px" font-size="13px" class="label" transform="" fill="black">KPI</text></g></g></g><g id="notes"><g is="custom" class="draggable" id="movable_note_6" transform="translate(992.34,78.97999999999999)"><rect x="-15" y="-15" rx="30" ry="30" width="30" height="30" fill-opacity="0"></rect><text is="custom" id="note_text_6" data-testid="note_text_6" font-weight="bold" font-size="12px" class="label" transform="">+adaptability</text></g><g is="custom" class="draggable" id="movable_note_7" transform="translate(630.27,667.74)"><rect x="-15" y="-15" rx="30" ry="30" width="30" height="30" fill-opacity="0"></rect><text is="custom" id="note_text_7" data-testid="note_text_7" font-weight="bold" font-size="12px" class="label" transform="">ontology</text></g><g is="custom" class="draggable" id="movable_note_87" transform="translate(415.71,667.74)"><rect x="-15" y="-15" rx="30" ry="30" width="30" height="30" fill-opacity="0"></rect><text is="custom" id="note_text_87" data-testid="note_text_87" font-weight="bold" font-size="12px" class="label" transform="">*1 (link)</text></g><g is="custom" class="draggable" id="movable_note_88" transform="translate(522.99,129.24000000000004)"><rect x="-15" y="-15" rx="30" ry="30" width="30" height="30" fill-opacity="0"></rect><text is="custom" id="note_text_88" data-testid="note_text_88" font-weight="bold" font-size="12px" class="label" transform="">*1</text></g></g><g id="annotations"></g></g></svg>