<?xml version="1.0" encoding="UTF-8"?><!DOCTYPE svg PUBLIC "-//W3C//DTD SVG 1.1//EN" "http://www.w3.org/Graphics/SVG/1.1/DTD/svg11.dtd"><svg font-family="Consolas, Lucida Console, monospace" font-size="13px" class="wardley" id="svgMap" width="1381" height="798" viewBox="-20 0 1361 738" version="1.1" xmlns="http://www.w3.org/2000/svg" xmlns:xlink="http://www.w3.org/1999/xlink"><defs><filter id="ctrlHighlight"><feDropShadow dx="0" dy="0" stdDeviation="3" flood-color="blue"></feDropShadow></filter><linearGradient gradientUnits="objectBoundingBox" id="wardleyGradient" spreadMethod="pad" x1="0%" x2="100%" y1="0%" y2="0%"><stop offset="0%" style="stop-color:rgb(196, 196, 196);stop-opacity:1"></stop><stop offset="0.3" style="stop-color:white;stop-opacity:1"></stop><stop offset="0.7" style="stop-color:white"></stop><stop offset="1" style="stop-color:rgb(196, 196, 196)"></stop></linearGradient><linearGradient spreadMethod="pad" id="accelGradient" x1="0%" y1="64%" x2="76%" y2="0%"><stop offset="0%" style="stop-color:white;stop-opacity:1"></stop><stop offset="100%" style="stop-color:#8c8995;stop-opacity:1"></stop></linearGradient><pattern id="diagonalHatch" patternUnits="userSpaceOnUse" width="4" height="4"><path d="M 3,-1 l 2,2 M 0,0 l 4,4 M -1,3 l 2,2 " stroke="grey" stroke-width="1" opacity=".5"></path></pattern><marker id="arrow" markerWidth="12" markerHeight="12" refX="15" refY="0" viewBox="0 -5 10 10" orient="0"><path d="M0,-5L10,0L0,5" fill="red"></path></marker><marker id="graphArrow" markerWidth="12" markerHeight="12" refX="9" refY="0" viewBox="0 -5 10 10" orient="0"><path d="M0,-5L10,0L0,5" fill="black"></path></marker><marker id="pipelineArrow" markerWidth="5" markerHeight="5" refX="9" refY="0" viewBox="0 -5 10 10" orient="0"><path d="M0,-5L10,0L0,5" fill="black"></path></marker></defs><g id="grid"><rect x="0" width="1341" y="0" height="718" id="fillArea" fill="url(#wardleyGradient)"></rect><g id="valueChain" transform="translate(0,718) rotate(270)" font-family="&quot;Helvetica Neue&quot;,Helvetica,Arial,sans-serif" font-size="13px"><line x1="0" y1="0" x2="718" y2="0" stroke="black" stroke-width="1" stroke-dasharray="2,2"></line><line x1="-2em" y1="234.67499999999998" x2="718" y2="234.67499999999998" stroke="#b8b8b8" stroke-dasharray="2,2"></line><line x1="-2em" y1="536.4" x2="718" y2="536.4" stroke="#b8b8b8" stroke-dasharray="2,2"></line><line x1="-2em" y1="938.6999999999999" x2="718" y2="938.6999999999999" stroke="#b8b8b8" stroke-dasharray="2,2"></line><text fill="black" x="716" y="-0.4em" text-anchor="end" font-weight="bold">Value Chain</text></g><g id="Evolution" font-family="&quot;Helvetica Neue&quot;,Helvetica,Arial,sans-serif" font-size="13px" font-style="italic" transform="translate(0,718)"><line x1="0" y1="0" x2="1339" y2="0" stroke="black" stroke-width="1" marker-end="url(#graphArrow)"></line><text fill="black" x="10" y="-703" text-anchor="start" font-style="normal" font-size="11px" font-weight="bold">Uncharted</text><text fill="black" x="1331" y="-703" text-anchor="end" font-style="normal" font-size="11px" font-weight="bold">Industrialised</text><text fill="black" x="0" y="1em" text-anchor="start">genesis / concept </text><text fill="black" x="0" y="2em" text-anchor="start"></text><text fill="black" x="241.67499999999998" y="1em" text-anchor="start"> custom / emerging </text><text fill="black" x="241.67499999999998" y="2em" text-anchor="start"></text><text fill="black" x="543.4" y="1em" text-anchor="start"> product/ converging </text><text fill="black" x="543.4" y="2em" text-anchor="start"></text><text fill="black" x="945.6999999999999" y="1em" text-anchor="start"> commodity / accepted</text><text fill="black" x="945.6999999999999" y="2em" text-anchor="start"></text><text fill="black" x="1341" y="1.8em" text-anchor="end" font-weight="bold" font-style="normal">Evolution</text></g></g><g id="map"><g id="attitudes"></g><g id="methods"></g><g id="fluids"></g><g id="links"><g id="link_39_48"><line x1="670.5" y1="359" x2="804.6" y2="430.8" stroke="grey" stroke-width="1"></line></g><g id="link_39_44"><line x1="670.5" y1="359" x2="496.17" y2="452.34" stroke="grey" stroke-width="1"></line></g><g id="link_17_38"><line x1="616.86" y1="179.5" x2="710.73" y2="136.41999999999996" stroke="grey" stroke-width="1"></line></g><g id="link_38_39"><line x1="710.73" y1="136.41999999999996" x2="670.5" y2="359" stroke="grey" stroke-width="1"></line></g><g id="link_41_45"><line x1="455.94000000000005" y1="157.95999999999998" x2="429.12" y2="323.09999999999997" stroke="grey" stroke-width="1"></line></g><g id="link_43_45"><line x1="281.61" y1="430.8" x2="429.12" y2="323.09999999999997" stroke="grey" stroke-width="1"></line></g><g id="link_48_53"><line x1="804.6" y1="430.8" x2="509.58" y2="595.9399999999999" stroke="grey" stroke-width="1"></line></g><g id="link_48_56"><line x1="804.6" y1="430.8" x2="818.01" y2="617.48" stroke="grey" stroke-width="1"></line></g><g id="link_13_39"><line x1="764.3699999999999" y1="64.61999999999998" x2="670.5" y2="359" stroke="grey" stroke-width="1"></line></g><g id="link_47_48"><line x1="657.09" y1="193.86" x2="804.6" y2="430.8" stroke="grey" stroke-width="1"></line></g><g id="link_48_46"><line x1="804.6" y1="430.8" x2="844.83" y2="136.41999999999996" stroke="grey" stroke-width="1"></line></g><g id="link_44_53"><line x1="496.17" y1="452.34" x2="509.58" y2="595.9399999999999" stroke="grey" stroke-width="1"></line></g><g id="link_28_11"><line x1="603.45" y1="57.43999999999997" x2="777.78" y2="14.360000000000014" stroke="grey" stroke-width="1"></line></g><g id="link_47_28"><line x1="657.09" y1="193.86" x2="603.45" y2="57.43999999999997" stroke="grey" stroke-width="1"></line></g><g id="link_23_31"><line x1="844.83" y1="71.79999999999998" x2="898.47" y2="236.93999999999997" stroke="grey" stroke-width="1"></line></g><g id="link_28_26"><line x1="603.45" y1="57.43999999999997" x2="536.4" y2="93.34" stroke="grey" stroke-width="1"></line></g><g id="link_11_50"><line x1="777.78" y1="14.360000000000014" x2="858.24" y2="445.16" stroke="grey" stroke-width="1"></line></g><g id="link_52_29"><line x1="965.52" y1="445.16" x2="764.3699999999999" y2="552.86" stroke="grey" stroke-width="1"></line></g><g id="link_29_30"><line x1="764.3699999999999" y1="552.86" x2="429.12" y2="696.46" stroke="grey" stroke-width="1"></line></g><g id="link_27_30"><line x1="885.0600000000001" y1="560.04" x2="429.12" y2="696.46" stroke="grey" stroke-width="1"></line></g><g id="link_35_39"><line x1="925.29" y1="129.24000000000004" x2="670.5" y2="359" stroke="grey" stroke-width="1"></line></g><g id="link_35_48"><line x1="925.29" y1="129.24000000000004" x2="804.6" y2="430.8" stroke="grey" stroke-width="1"></line></g><g id="link_36_38"><line x1="938.6999999999999" y1="165.14" x2="710.73" y2="136.41999999999996" stroke="grey" stroke-width="1"></line></g><g id="link_26_53"><line x1="536.4" y1="93.34" x2="509.58" y2="595.9399999999999" stroke="grey" stroke-width="1"></line></g><g id="link_45_53"><line x1="429.12" y1="323.09999999999997" x2="509.58" y2="595.9399999999999" stroke="grey" stroke-width="1"></line></g><g id="link_53_56"><line x1="509.58" y1="595.9399999999999" x2="818.01" y2="617.48" stroke="grey" stroke-width="1"></line></g><g id="link_27_53"><line x1="885.0600000000001" y1="560.04" x2="509.58" y2="595.9399999999999" stroke="grey" stroke-width="1"></line></g><g id="link_53_66"><line x1="509.58" y1="595.9399999999999" x2="348.66" y2="639.02" stroke="grey" stroke-width="1"></line></g><g id="link_11_12"><line x1="777.78" y1="14.360000000000014" x2="885.0600000000001" y2="28.720000000000027" stroke="grey" stroke-width="1"></line></g><g id="link_45_39"><line x1="429.12" y1="323.09999999999997" x2="670.5" y2="359" stroke="grey" stroke-width="1"></line></g><g id="link_23_41"><line x1="844.83" y1="71.79999999999998" x2="455.94000000000005" y2="157.95999999999998" stroke="grey" stroke-width="1"></line></g><g id="link_23_38"><line x1="844.83" y1="71.79999999999998" x2="710.73" y2="136.41999999999996" stroke="grey" stroke-width="1"></line></g><g id="link_46_23"><line x1="844.83" y1="136.41999999999996" x2="844.83" y2="71.79999999999998" stroke="grey" stroke-width="1"></line></g><g id="link_23_35"><line x1="844.83" y1="71.79999999999998" x2="925.29" y2="129.24000000000004" stroke="grey" stroke-width="1"></line></g><g id="link_12_23"><line x1="885.0600000000001" y1="28.720000000000027" x2="844.83" y2="71.79999999999998" stroke="grey" stroke-width="1"></line></g><g id="link_67_29"><line x1="911.8800000000001" y1="445.16" x2="764.3699999999999" y2="552.86" stroke="grey" stroke-width="1"></line></g><g id="link_48_27"><line x1="804.6" y1="430.8" x2="885.0600000000001" y2="560.04" stroke="grey" stroke-width="1"></line></g></g><g id="evolvingEndLinks"><g id="link_56_20"><line x1="818.01" y1="617.48" x2="898.47" y2="674.92" stroke="grey" stroke-width="1"></line></g><g id="link_39_20"><line x1="670.5" y1="359" x2="898.47" y2="674.92" stroke="grey" stroke-width="1"></line></g><g id="link_30_20"><line x1="429.12" y1="696.46" x2="898.47" y2="674.92" stroke="grey" stroke-width="1"></line></g><g id="link_67_20"><line x1="911.8800000000001" y1="445.16" x2="898.47" y2="674.92" stroke="grey" stroke-width="1"></line></g></g><g id="bothEvolving"></g><g id="anchorLinks"></g><g id="anchorNonEvolvedLinks"></g><g id="evolvingToNoneEvolvingEndLinks"><g id="link_34_67"><line x1="911.8800000000001" y1="251.29999999999998" x2="911.8800000000001" y2="445.16" stroke="grey" stroke-width="1"></line></g></g><g id="evolvedLinks"><g><line x1="1072.8" y1="674.92" x2="898.47" y2="674.92" stroke-dasharray="5 5" stroke="red" stroke-width="1" marker-start="url(#arrow)"></line></g><g><line x1="1032.57" y1="251.29999999999998" x2="911.8800000000001" y2="251.29999999999998" stroke-dasharray="5 5" stroke="red" stroke-width="1" marker-start="url(#arrow)"></line></g>;</g><g id="anchors"></g><g id="pipelines"><g id="pipeline_box_18" transform="translate(549.81,181.5)"><line x1="0" y1="0" x2="120.69000000000005" y2="0" stroke-width="1" stroke="black"></line><line x1="120.69000000000005" y1="0" x2="120.69000000000005" y2="22" stroke-width="1" stroke="black"></line><line x1="120.69000000000005" y1="22" x2="0" y2="22" stroke-width="1" stroke="black"></line><line x1="0" y1="22" x2="0" y2="0" stroke-width="1" stroke="black"></line></g><g is="custom" class="draggable" id="movable_pipeline_x1_18" transform="translate(549.81,181.5)"><rect x="-15" y="-15" rx="30" ry="30" width="30" height="30" fill-opacity="0"></rect><circle id="pipeline_circle_x1_18" cx="10" cy="12" stroke-width="1" r="5" stroke="black" fill="white"></circle></g><g is="custom" class="draggable" id="movable_pipeline_x2_18" transform="translate(670.5,181.5)"><rect x="-15" y="-15" rx="30" ry="30" width="30" height="30" fill-opacity="0"></rect><circle id="pipeline_circle_x2_18" cx="-10" cy="12" stroke-width="1" r="5" stroke="black" fill="white"></circle></g><g id="pipeline_box_32" transform="translate(402.3,238.93999999999997)"><line x1="0" y1="0" x2="643.6800000000001" y2="0" stroke-width="1" stroke="black"></line><line x1="643.6800000000001" y1="0" x2="643.6800000000001" y2="22" stroke-width="1" stroke="black"></line><line x1="643.6800000000001" y1="22" x2="0" y2="22" stroke-width="1" stroke="black"></line><line x1="0" y1="22" x2="0" y2="0" stroke-width="1" stroke="black"></line></g><g is="custom" class="draggable" id="movable_pipeline_x1_32" transform="translate(402.3,238.93999999999997)"><rect x="-15" y="-15" rx="30" ry="30" width="30" height="30" fill-opacity="0"></rect><circle id="pipeline_circle_x1_32" cx="10" cy="12" stroke-width="1" r="5" stroke="black" fill="white"></circle></g><g is="custom" class="draggable" id="movable_pipeline_x2_32" transform="translate(1045.98,238.93999999999997)"><rect x="-15" y="-15" rx="30" ry="30" width="30" height="30" fill-opacity="0"></rect><circle id="pipeline_circle_x2_32" cx="-10" cy="12" stroke-width="1" r="5" stroke="black" fill="white"></circle></g><g id="pipeline_box_49" transform="translate(643.68,432.8)"><line x1="0" y1="0" x2="335.25" y2="0" stroke-width="1" stroke="black"></line><line x1="335.25" y1="0" x2="335.25" y2="22" stroke-width="1" stroke="black"></line><line x1="335.25" y1="22" x2="0" y2="22" stroke-width="1" stroke="black"></line><line x1="0" y1="22" x2="0" y2="0" stroke-width="1" stroke="black"></line></g><g is="custom" class="draggable" id="movable_pipeline_x1_49" transform="translate(643.68,432.8)"><rect x="-15" y="-15" rx="30" ry="30" width="30" height="30" fill-opacity="0"></rect><circle id="pipeline_circle_x1_49" cx="10" cy="12" stroke-width="1" r="5" stroke="black" fill="white"></circle></g><g is="custom" class="draggable" id="movable_pipeline_x2_49" transform="translate(978.93,432.8)"><rect x="-15" y="-15" rx="30" ry="30" width="30" height="30" fill-opacity="0"></rect><circle id="pipeline_circle_x2_49" cx="-10" cy="12" stroke-width="1" r="5" stroke="black" fill="white"></circle></g><g id="pipeline_box_57" transform="translate(764.3699999999999,619.48)"><line x1="0" y1="0" x2="174.33000000000004" y2="0" stroke-width="1" stroke="black"></line><line x1="174.33000000000004" y1="0" x2="174.33000000000004" y2="22" stroke-width="1" stroke="black"></line><line x1="174.33000000000004" y1="22" x2="0" y2="22" stroke-width="1" stroke="black"></line><line x1="0" y1="22" x2="0" y2="0" stroke-width="1" stroke="black"></line></g><g is="custom" class="draggable" id="movable_pipeline_x1_57" transform="translate(764.3699999999999,619.48)"><rect x="-15" y="-15" rx="30" ry="30" width="30" height="30" fill-opacity="0"></rect><circle id="pipeline_circle_x1_57" cx="10" cy="12" stroke-width="1" r="5" stroke="black" fill="white"></circle></g><g is="custom" class="draggable" id="movable_pipeline_x2_57" transform="translate(938.6999999999999,619.48)"><rect x="-15" y="-15" rx="30" ry="30" width="30" height="30" fill-opacity="0"></rect><circle id="pipeline_circle_x2_57" cx="-10" cy="12" stroke-width="1" r="5" stroke="black" fill="white"></circle></g><g id="pipeline_box_60" transform="translate(818.01,167.14)"><line x1="0" y1="0" x2="174.33000000000004" y2="0" stroke-width="1" stroke="black"></line><line x1="174.33000000000004" y1="0" x2="174.33000000000004" y2="22" stroke-width="1" stroke="black"></line><line x1="174.33000000000004" y1="22" x2="0" y2="22" stroke-width="1" stroke="black"></line><line x1="0" y1="22" x2="0" y2="0" stroke-width="1" stroke="black"></line></g><g is="custom" class="draggable" id="movable_pipeline_x1_60" transform="translate(818.01,167.14)"><rect x="-15" y="-15" rx="30" ry="30" width="30" height="30" fill-opacity="0"></rect><circle id="pipeline_circle_x1_60" cx="10" cy="12" stroke-width="1" r="5" stroke="black" fill="white"></circle></g><g is="custom" class="draggable" id="movable_pipeline_x2_60" transform="translate(992.34,167.14)"><rect x="-15" y="-15" rx="30" ry="30" width="30" height="30" fill-opacity="0"></rect><circle id="pipeline_circle_x2_60" cx="-10" cy="12" stroke-width="1" r="5" stroke="black" fill="white"></circle></g></g><g id="elements"><g is="custom" class="draggable" id="movable_element_11" transform="translate(777.78,14.360000000000014)"><rect x="-15" y="-15" rx="30" ry="30" width="30" height="30" fill-opacity="0"></rect><circle id="element_circle_11" stroke-width="1" r="5" stroke="black" fill="white"></circle></g><g transform="translate(777.78,14.360000000000014)"><g class="draggable" id="movable_element_text_11" transform="translate(-25,-11)"><text is="custom" id="element_text_11" data-testid="element_text_11" font-weight="14px" font-size="13px" class="label" transform="" fill="black">government</text></g></g><g is="custom" class="draggable" id="movable_element_12" transform="translate(885.0600000000001,28.720000000000027)"><rect x="-15" y="-15" rx="30" ry="30" width="30" height="30" fill-opacity="0"></rect><circle id="element_circle_12" stroke-width="1" r="5" stroke="black" fill="white"></circle></g><g transform="translate(885.0600000000001,28.720000000000027)"><g class="draggable" id="movable_element_text_12" transform="translate(4,-17)"><text is="custom" id="element_text_12" data-testid="element_text_12" font-weight="14px" font-size="13px" class="label" transform="translate(30, 10)" fill="black"><tspan x="0" dy="0" text-anchor="middle">transport</tspan><tspan x="0" dy="15" text-anchor="middle">public</tspan></text></g></g><g is="custom" class="draggable" id="movable_element_13" transform="translate(764.3699999999999,64.61999999999998)"><rect x="-15" y="-15" rx="30" ry="30" width="30" height="30" fill-opacity="0"></rect><circle id="element_circle_13" stroke-width="1" r="5" stroke="black" fill="white"></circle></g><g transform="translate(764.3699999999999,64.61999999999998)"><g class="draggable" id="movable_element_text_13" transform="translate(-71,-14)"><text is="custom" id="element_text_13" data-testid="element_text_13" font-weight="14px" font-size="13px" class="label" transform="translate(30, 10)" fill="black"><tspan x="0" dy="0" text-anchor="middle">transport</tspan><tspan x="0" dy="15" text-anchor="middle">operator</tspan></text></g></g><g is="custom" class="draggable" id="movable_element_17" transform="translate(616.86,179.5)"><rect x="-15" y="-15" rx="30" ry="30" width="30" height="30" fill-opacity="0"></rect><circle id="element_circle_17" stroke-width="1" r="5" stroke="black" fill="white"></circle><rect id="element_square_17" x="-5" y="-5" fill="white" stroke="black" width="10" height="10" stroke-width="2"></rect></g><g transform="translate(616.86,179.5)"><g class="draggable" id="movable_element_text_17" transform="translate(-51,-6)"><text is="custom" id="element_text_17" data-testid="element_text_17" font-weight="14px" font-size="13px" class="label" transform="" fill="black">SHOCKS</text></g></g><g is="custom" class="draggable" id="movable_element_21" transform="translate(978.93,179.5)"><rect x="-15" y="-15" rx="30" ry="30" width="30" height="30" fill-opacity="0"></rect><circle id="element_circle_21" stroke-width="1" r="5" stroke="black" fill="white"></circle></g><g transform="translate(978.93,179.5)"><g class="draggable" id="movable_element_text_21" transform="translate(14,-9)"><text is="custom" id="element_text_21" data-testid="element_text_21" font-weight="14px" font-size="13px" class="label" transform="translate(30, 10)" fill="black"><tspan x="0" dy="0" text-anchor="middle">physical</tspan><tspan x="0" dy="15" text-anchor="middle">safety</tspan></text></g></g><g is="custom" class="draggable" id="movable_element_22" transform="translate(831.42,179.5)"><rect x="-15" y="-15" rx="30" ry="30" width="30" height="30" fill-opacity="0"></rect><circle id="element_circle_22" stroke-width="1" r="5" stroke="black" fill="white"></circle></g><g transform="translate(831.42,179.5)"><g class="draggable" id="movable_element_text_22" transform="translate(-70,-18)"><text is="custom" id="element_text_22" data-testid="element_text_22" font-weight="14px" font-size="13px" class="label" transform="translate(30, 10)" fill="black"><tspan x="0" dy="0" text-anchor="middle">personal</tspan><tspan x="0" dy="15" text-anchor="middle">safety</tspan></text></g></g><g is="custom" class="draggable" id="movable_element_23" transform="translate(844.83,71.79999999999998)"><rect x="-15" y="-15" rx="30" ry="30" width="30" height="30" fill-opacity="0"></rect><circle id="element_circle_23" stroke-width="1" r="5" stroke="black" fill="white"></circle><rect id="element_square_23" x="-5" y="-5" fill="white" stroke="black" width="10" height="10" stroke-width="2"></rect></g><g transform="translate(844.83,71.79999999999998)"><g class="draggable" id="movable_element_text_23" transform="translate(16,1)"><text is="custom" id="element_text_23" data-testid="element_text_23" font-weight="14px" font-size="13px" class="label" transform="" fill="black">A to B</text></g></g><g is="custom" class="draggable" id="movable_element_26" transform="translate(536.4,93.34)"><rect x="-15" y="-15" rx="30" ry="30" width="30" height="30" fill-opacity="0"></rect><circle id="element_circle_26" stroke-width="1" r="5" stroke="black" fill="white"></circle></g><g transform="translate(536.4,93.34)"><g class="draggable" id="movable_element_text_26" transform="translate(-77,-6)"><text is="custom" id="element_text_26" data-testid="element_text_26" font-weight="14px" font-size="13px" class="label" transform="" fill="black">regulation</text></g></g><g is="custom" class="draggable" id="movable_element_27" transform="translate(885.0600000000001,560.04)"><rect x="-15" y="-15" rx="30" ry="30" width="30" height="30" fill-opacity="0"></rect><circle id="element_circle_27" stroke-width="1" r="5" stroke="black" fill="white"></circle></g><g transform="translate(885.0600000000001,560.04)"><g class="draggable" id="movable_element_text_27" transform="translate(8,-3)"><text is="custom" id="element_text_27" data-testid="element_text_27" font-weight="14px" font-size="13px" class="label" transform="translate(30, 10)" fill="black"><tspan x="0" dy="0" text-anchor="middle">public</tspan><tspan x="0" dy="15" text-anchor="middle">infrastructure</tspan></text></g></g><g is="custom" class="draggable" id="movable_element_28" transform="translate(603.45,57.43999999999997)"><rect x="-15" y="-15" rx="30" ry="30" width="30" height="30" fill-opacity="0"></rect><circle id="element_circle_28" stroke-width="1" r="5" stroke="black" fill="white"></circle></g><g transform="translate(603.45,57.43999999999997)"><g class="draggable" id="movable_element_text_28" transform="translate(-94,-10)"><text is="custom" id="element_text_28" data-testid="element_text_28" font-weight="14px" font-size="13px" class="label" transform="" fill="black">sustainability</text></g></g><g is="custom" class="draggable" id="movable_element_29" transform="translate(764.3699999999999,552.86)"><rect x="-15" y="-15" rx="30" ry="30" width="30" height="30" fill-opacity="0"></rect><circle id="element_circle_29" stroke-width="1" r="5" stroke="black" fill="white"></circle></g><g transform="translate(764.3699999999999,552.86)"><g class="draggable" id="movable_element_text_29" transform="translate(-71,-36)"><text is="custom" id="element_text_29" data-testid="element_text_29" font-weight="14px" font-size="13px" class="label" transform="translate(30, 10)" fill="black"><tspan x="0" dy="0" text-anchor="middle">private</tspan><tspan x="0" dy="15" text-anchor="middle">infrastructure</tspan></text></g></g><g is="custom" class="draggable" id="movable_element_30" transform="translate(429.12,696.46)"><rect x="-15" y="-15" rx="30" ry="30" width="30" height="30" fill-opacity="0"></rect><circle id="element_circle_30" stroke-width="1" r="5" stroke="black" fill="white"></circle></g><g transform="translate(429.12,696.46)"><g class="draggable" id="movable_element_text_30" transform="translate(-85,-27)"><text is="custom" id="element_text_30" data-testid="element_text_30" font-weight="14px" font-size="13px" class="label" transform="translate(30, 10)" fill="black"><tspan x="0" dy="0" text-anchor="middle">critical</tspan><tspan x="0" dy="15" text-anchor="middle">national</tspan><tspan x="0" dy="15" text-anchor="middle">infrastructure</tspan></text></g></g><g is="custom" class="draggable" id="movable_element_31" transform="translate(898.47,236.93999999999997)"><rect x="-15" y="-15" rx="30" ry="30" width="30" height="30" fill-opacity="0"></rect><circle id="element_circle_31" stroke-width="1" r="5" stroke="black" fill="white"></circle><rect id="element_square_31" x="-5" y="-5" fill="white" stroke="black" width="10" height="10" stroke-width="2"></rect></g><g transform="translate(898.47,236.93999999999997)"><g class="draggable" id="movable_element_text_31" transform="translate(-44,-7)"><text is="custom" id="element_text_31" data-testid="element_text_31" font-weight="14px" font-size="13px" class="label" transform="" fill="black">SPACE</text></g></g><g is="custom" class="draggable" id="movable_element_33" transform="translate(415.71,251.29999999999998)"><rect x="-15" y="-15" rx="30" ry="30" width="30" height="30" fill-opacity="0"></rect><circle id="element_circle_33" stroke-width="1" r="5" stroke="black" fill="white"></circle></g><g transform="translate(415.71,251.29999999999998)"><g class="draggable" id="movable_element_text_33" transform="translate(-72,3)"><text is="custom" id="element_text_33" data-testid="element_text_33" font-weight="14px" font-size="13px" class="label" transform="" fill="black">physical</text></g></g><g is="custom" class="draggable" id="movable_element_35" transform="translate(925.29,129.24000000000004)"><rect x="-15" y="-15" rx="30" ry="30" width="30" height="30" fill-opacity="0"></rect><circle id="element_circle_35" stroke-width="1" r="5" stroke="black" fill="white"></circle></g><g transform="translate(925.29,129.24000000000004)"><g class="draggable" id="movable_element_text_35" transform="translate(16,-1)"><text is="custom" id="element_text_35" data-testid="element_text_35" font-weight="14px" font-size="13px" class="label" transform="" fill="black">ease of use</text></g></g><g is="custom" class="draggable" id="movable_element_36" transform="translate(938.6999999999999,165.14)"><rect x="-15" y="-15" rx="30" ry="30" width="30" height="30" fill-opacity="0"></rect><circle id="element_circle_36" stroke-width="1" r="5" stroke="black" fill="white"></circle><rect id="element_square_36" x="-5" y="-5" fill="white" stroke="black" width="10" height="10" stroke-width="2"></rect></g><g transform="translate(938.6999999999999,165.14)"><g class="draggable" id="movable_element_text_36" transform="translate(11,-5)"><text is="custom" id="element_text_36" data-testid="element_text_36" font-weight="14px" font-size="13px" class="label" transform="" fill="black">SAFETY</text></g></g><g is="custom" class="draggable" id="movable_element_38" transform="translate(710.73,136.41999999999996)"><rect x="-15" y="-15" rx="30" ry="30" width="30" height="30" fill-opacity="0"></rect><circle id="element_circle_38" stroke-width="1" r="5" stroke="black" fill="white"></circle></g><g transform="translate(710.73,136.41999999999996)"><g class="draggable" id="movable_element_text_38" transform="translate(-57,-8)"><text is="custom" id="element_text_38" data-testid="element_text_38" font-weight="14px" font-size="13px" class="label" transform="" fill="black">awareness</text></g></g><g is="custom" class="draggable" id="movable_element_39" transform="translate(670.5,359)"><rect x="-15" y="-15" rx="30" ry="30" width="30" height="30" fill-opacity="0"></rect><circle id="element_circle_39" stroke-width="1" r="5" stroke="black" fill="white"></circle></g><g transform="translate(670.5,359)"><g class="draggable" id="movable_element_text_39" transform="translate(-70,-39)"><text is="custom" id="element_text_39" data-testid="element_text_39" font-weight="14px" font-size="13px" class="label" transform="translate(30, 10)" fill="black"><tspan x="0" dy="0" text-anchor="middle">transport</tspan><tspan x="0" dy="15" text-anchor="middle">information</tspan></text></g></g><g is="custom" class="draggable" id="movable_element_41" transform="translate(455.94000000000005,157.95999999999998)"><rect x="-15" y="-15" rx="30" ry="30" width="30" height="30" fill-opacity="0"></rect><circle id="element_circle_41" stroke-width="1" r="5" stroke="black" fill="white"></circle></g><g transform="translate(455.94000000000005,157.95999999999998)"><g class="draggable" id="movable_element_text_41" transform="translate(-65,-18)"><text is="custom" id="element_text_41" data-testid="element_text_41" font-weight="14px" font-size="13px" class="label" transform="translate(30, 10)" fill="black"><tspan x="0" dy="0" text-anchor="middle">access</tspan><tspan x="0" dy="15" text-anchor="middle">to</tspan><tspan x="0" dy="15" text-anchor="middle">service</tspan></text></g></g><g is="custom" class="draggable" id="movable_element_43" transform="translate(281.61,430.8)"><rect x="-15" y="-15" rx="30" ry="30" width="30" height="30" fill-opacity="0"></rect><circle id="element_circle_43" stroke-width="1" r="5" stroke="black" fill="white"></circle></g><g transform="translate(281.61,430.8)"><g class="draggable" id="movable_element_text_43" transform="translate(-82,-14)"><text is="custom" id="element_text_43" data-testid="element_text_43" font-weight="14px" font-size="13px" class="label" transform="translate(30, 10)" fill="black"><tspan x="0" dy="0" text-anchor="middle">situational</tspan><tspan x="0" dy="15" text-anchor="middle">services</tspan></text></g></g><g is="custom" class="draggable" id="movable_element_44" transform="translate(496.17,452.34)"><rect x="-15" y="-15" rx="30" ry="30" width="30" height="30" fill-opacity="0"></rect><circle id="element_circle_44" stroke-width="1" r="5" stroke="black" fill="white"></circle></g><g transform="translate(496.17,452.34)"><g class="draggable" id="movable_element_text_44" transform="translate(-79,-13)"><text is="custom" id="element_text_44" data-testid="element_text_44" font-weight="14px" font-size="13px" class="label" transform="translate(30, 10)" fill="black"><tspan x="0" dy="0" text-anchor="middle">transport</tspan><tspan x="0" dy="15" text-anchor="middle">integration</tspan></text></g></g><g is="custom" class="draggable" id="movable_element_45" transform="translate(429.12,323.09999999999997)"><rect x="-15" y="-15" rx="30" ry="30" width="30" height="30" fill-opacity="0"></rect><circle id="element_circle_45" stroke-width="1" r="5" stroke="black" fill="white"></circle></g><g transform="translate(429.12,323.09999999999997)"><g class="draggable" id="movable_element_text_45" transform="translate(-101,4)"><text is="custom" id="element_text_45" data-testid="element_text_45" font-weight="14px" font-size="13px" class="label" transform="" fill="black">mobility hubs</text></g></g><g is="custom" class="draggable" id="movable_element_46" transform="translate(844.83,136.41999999999996)"><rect x="-15" y="-15" rx="30" ry="30" width="30" height="30" fill-opacity="0"></rect><circle id="element_circle_46" stroke-width="1" r="5" stroke="black" fill="white"></circle></g><g transform="translate(844.83,136.41999999999996)"><g class="draggable" id="movable_element_text_46" transform="translate(-39,4)"><text is="custom" id="element_text_46" data-testid="element_text_46" font-weight="14px" font-size="13px" class="label" transform="" fill="black">cost</text></g></g><g is="custom" class="draggable" id="movable_element_47" transform="translate(657.09,193.86)"><rect x="-15" y="-15" rx="30" ry="30" width="30" height="30" fill-opacity="0"></rect><circle id="element_circle_47" stroke-width="1" r="5" stroke="black" fill="white"></circle></g><g transform="translate(657.09,193.86)"><g class="draggable" id="movable_element_text_47" transform="translate(-37,24)"><text is="custom" id="element_text_47" data-testid="element_text_47" font-weight="14px" font-size="13px" class="label" transform="" fill="black">climate</text></g></g><g is="custom" class="draggable" id="movable_element_48" transform="translate(804.6,430.8)"><rect x="-15" y="-15" rx="30" ry="30" width="30" height="30" fill-opacity="0"></rect><circle id="element_circle_48" stroke-width="1" r="5" stroke="black" fill="white"></circle><rect id="element_square_48" x="-5" y="-5" fill="white" stroke="black" width="10" height="10" stroke-width="2"></rect></g><g transform="translate(804.6,430.8)"><g class="draggable" id="movable_element_text_48" transform="translate(-54,-32)"><text is="custom" id="element_text_48" data-testid="element_text_48" font-weight="14px" font-size="13px" class="label" transform="translate(30, 10)" fill="black"><tspan x="0" dy="0" text-anchor="middle">TRANSPORTATION</tspan><tspan x="0" dy="15" text-anchor="middle">MODE</tspan></text></g></g><g is="custom" class="draggable" id="movable_element_50" transform="translate(858.24,445.16)"><rect x="-15" y="-15" rx="30" ry="30" width="30" height="30" fill-opacity="0"></rect><circle id="element_circle_50" stroke-width="1" r="5" stroke="black" fill="white"></circle></g><g transform="translate(858.24,445.16)"><g class="draggable" id="movable_element_text_50" transform="translate(-43,13)"><text is="custom" id="element_text_50" data-testid="element_text_50" font-weight="14px" font-size="13px" class="label" transform="translate(30, 10)" fill="black"><tspan x="0" dy="0" text-anchor="middle">distributed</tspan><tspan x="0" dy="15" text-anchor="middle">public</tspan></text></g></g><g is="custom" class="draggable" id="movable_element_51" transform="translate(657.09,445.16)"><rect x="-15" y="-15" rx="30" ry="30" width="30" height="30" fill-opacity="0"></rect><circle id="element_circle_51" stroke-width="1" r="5" stroke="black" fill="white"></circle></g><g transform="translate(657.09,445.16)"><g class="draggable" id="movable_element_text_51" transform="translate(-66,2)"><text is="custom" id="element_text_51" data-testid="element_text_51" font-weight="14px" font-size="13px" class="label" transform="" fill="black">shared</text></g></g><g is="custom" class="draggable" id="movable_element_52" transform="translate(965.52,445.16)"><rect x="-15" y="-15" rx="30" ry="30" width="30" height="30" fill-opacity="0"></rect><circle id="element_circle_52" stroke-width="1" r="5" stroke="black" fill="white"></circle></g><g transform="translate(965.52,445.16)"><g class="draggable" id="movable_element_text_52" transform="translate(15,4)"><text is="custom" id="element_text_52" data-testid="element_text_52" font-weight="14px" font-size="13px" class="label" transform="" fill="black">private</text></g></g><g is="custom" class="draggable" id="movable_element_53" transform="translate(509.58,595.9399999999999)"><rect x="-15" y="-15" rx="30" ry="30" width="30" height="30" fill-opacity="0"></rect><circle id="element_circle_53" stroke-width="1" r="5" stroke="black" fill="white"></circle></g><g transform="translate(509.58,595.9399999999999)"><g class="draggable" id="movable_element_text_53" transform="translate(-40,-19)"><text is="custom" id="element_text_53" data-testid="element_text_53" font-weight="14px" font-size="13px" class="label" transform="" fill="black">city planning</text></g></g><g is="custom" class="draggable" id="movable_element_56" transform="translate(818.01,617.48)"><rect x="-15" y="-15" rx="30" ry="30" width="30" height="30" fill-opacity="0"></rect><circle id="element_circle_56" stroke-width="1" r="5" stroke="black" fill="white"></circle><rect id="element_square_56" x="-5" y="-5" fill="white" stroke="black" width="10" height="10" stroke-width="2"></rect></g><g transform="translate(818.01,617.48)"><g class="draggable" id="movable_element_text_56" transform="translate(-40,-7)"><text is="custom" id="element_text_56" data-testid="element_text_56" font-weight="14px" font-size="13px" class="label" transform="" fill="black">VEHICLE</text></g></g><g is="custom" class="draggable" id="movable_element_58" transform="translate(777.78,631.84)"><rect x="-15" y="-15" rx="30" ry="30" width="30" height="30" fill-opacity="0"></rect><circle id="element_circle_58" stroke-width="1" r="5" stroke="black" fill="white"></circle></g><g transform="translate(777.78,631.84)"><g class="draggable" id="movable_element_text_58" transform="translate(-27,24)"><text is="custom" id="element_text_58" data-testid="element_text_58" font-weight="14px" font-size="13px" class="label" transform="" fill="black">train</text></g></g><g is="custom" class="draggable" id="movable_element_59" transform="translate(925.29,631.84)"><rect x="-15" y="-15" rx="30" ry="30" width="30" height="30" fill-opacity="0"></rect><circle id="element_circle_59" stroke-width="1" r="5" stroke="black" fill="white"></circle></g><g transform="translate(925.29,631.84)"><g class="draggable" id="movable_element_text_59" transform="translate(16,4)"><text is="custom" id="element_text_59" data-testid="element_text_59" font-weight="14px" font-size="13px" class="label" transform="" fill="black">car</text></g></g><g is="custom" class="draggable" id="movable_element_62" transform="translate(563.22,193.86)"><rect x="-15" y="-15" rx="30" ry="30" width="30" height="30" fill-opacity="0"></rect><circle id="element_circle_62" stroke-width="1" r="5" stroke="black" fill="white"></circle></g><g transform="translate(563.22,193.86)"><g class="draggable" id="movable_element_text_62" transform="translate(-67,23)"><text is="custom" id="element_text_62" data-testid="element_text_62" font-weight="14px" font-size="13px" class="label" transform="" fill="black">cybersecurity</text></g></g><g is="custom" class="draggable" id="movable_element_66" transform="translate(348.66,639.02)"><rect x="-15" y="-15" rx="30" ry="30" width="30" height="30" fill-opacity="0"></rect><circle id="element_circle_66" stroke-width="1" r="5" stroke="black" fill="white"></circle></g><g transform="translate(348.66,639.02)"><g class="draggable" id="movable_element_text_66" transform="translate(-13,-12)"><text is="custom" id="element_text_66" data-testid="element_text_66" font-weight="14px" font-size="13px" class="label" transform="" fill="black">model</text></g></g><g is="custom" class="draggable" id="movable_element_67" transform="translate(911.8800000000001,445.16)"><rect x="-15" y="-15" rx="30" ry="30" width="30" height="30" fill-opacity="0"></rect><circle id="element_circle_67" stroke-width="1" r="5" stroke="black" fill="white"></circle></g><g transform="translate(911.8800000000001,445.16)"><g class="draggable" id="movable_element_text_67" transform="translate(1,-21)"><text is="custom" id="element_text_67" data-testid="element_text_67" font-weight="14px" font-size="13px" class="label" transform="" fill="black">zoom</text></g></g><g is="custom" class="draggable" id="movable_element_20ev" transform="translate(1072.8,674.92)"><rect x="-15" y="-15" rx="30" ry="30" width="30" height="30" fill-opacity="0"></rect><circle id="element_circle_20ev" stroke-width="1" r="5" stroke="red" fill="white"></circle></g><g transform="translate(1072.8,674.92)"><g class="draggable" id="movable_element_text_20ev" transform="translate(5,-10)"><text is="custom" id="element_text_20ev" data-testid="element_text_20ev" font-weight="14px" font-size="13px" class="label" transform="" fill="red">connectivity</text></g></g><g is="custom" class="draggable" id="movable_element_34ev" transform="translate(1032.57,251.29999999999998)"><rect x="-15" y="-15" rx="30" ry="30" width="30" height="30" fill-opacity="0"></rect><circle id="element_circle_34ev" stroke-width="1" r="5" stroke="red" fill="white"></circle></g><g transform="translate(1032.57,251.29999999999998)"><g class="draggable" id="movable_element_text_34ev" transform="translate(-23,24)"><text is="custom" id="element_text_34ev" data-testid="element_text_34ev" font-weight="14px" font-size="13px" class="label" transform="" fill="red">virtual</text></g></g><g is="custom" class="draggable" id="movable_element_20" transform="translate(898.47,674.92)"><rect x="-15" y="-15" rx="30" ry="30" width="30" height="30" fill-opacity="0"></rect><circle id="element_circle_20" stroke-width="1" r="5" stroke="black" fill="white"></circle></g><g transform="translate(898.47,674.92)"><g class="draggable" id="movable_element_text_20" transform="translate(5,-10)"><text is="custom" id="element_text_20" data-testid="element_text_20" font-weight="14px" font-size="13px" class="label" transform="" fill="black">connectivity</text></g></g><g is="custom" class="draggable" id="movable_element_34" transform="translate(911.8800000000001,251.29999999999998)"><rect x="-15" y="-15" rx="30" ry="30" width="30" height="30" fill-opacity="0"></rect><circle id="element_circle_34" stroke-width="1" r="5" stroke="black" fill="white"></circle></g><g transform="translate(911.8800000000001,251.29999999999998)"><g class="draggable" id="movable_element_text_34" transform="translate(6,24)"><text is="custom" id="element_text_34" data-testid="element_text_34" font-weight="14px" font-size="13px" class="label" transform="" fill="black">virtual</text></g></g></g><g id="notes"><g is="custom" class="draggable" id="movable_note_14" transform="translate(281.61,639.02)"><rect x="-15" y="-15" rx="30" ry="30" width="30" height="30" fill-opacity="0"></rect><text is="custom" id="note_text_14" data-testid="note_text_14" font-weight="bold" font-size="12px" class="label" transform="">+open?</text></g></g><g id="annotations"></g></g></svg>