<?xml version="1.0" encoding="UTF-8"?><!DOCTYPE svg PUBLIC "-//W3C//DTD SVG 1.1//EN" "http://www.w3.org/Graphics/SVG/1.1/DTD/svg11.dtd"><svg font-family="Consolas, Lucida Console, monospace" font-size="13px" class="wardley" id="svgMap" width="1381" height="798" viewBox="-20 0 1361 738" version="1.1" xmlns="http://www.w3.org/2000/svg" xmlns:xlink="http://www.w3.org/1999/xlink"><defs><filter id="ctrlHighlight"><feDropShadow dx="0" dy="0" stdDeviation="3" flood-color="blue"></feDropShadow></filter><linearGradient gradientUnits="objectBoundingBox" id="wardleyGradient" spreadMethod="pad" x1="0%" x2="100%" y1="0%" y2="0%"><stop offset="0%" style="stop-color:rgb(196, 196, 196);stop-opacity:1"></stop><stop offset="0.3" style="stop-color:white;stop-opacity:1"></stop><stop offset="0.7" style="stop-color:white"></stop><stop offset="1" style="stop-color:rgb(196, 196, 196)"></stop></linearGradient><linearGradient spreadMethod="pad" id="accelGradient" x1="0%" y1="64%" x2="76%" y2="0%"><stop offset="0%" style="stop-color:white;stop-opacity:1"></stop><stop offset="100%" style="stop-color:#8c8995;stop-opacity:1"></stop></linearGradient><pattern id="diagonalHatch" patternUnits="userSpaceOnUse" width="4" height="4"><path d="M 3,-1 l 2,2 M 0,0 l 4,4 M -1,3 l 2,2 " stroke="grey" stroke-width="1" opacity=".5"></path></pattern><marker id="arrow" markerWidth="12" markerHeight="12" refX="15" refY="0" viewBox="0 -5 10 10" orient="0"><path d="M0,-5L10,0L0,5" fill="red"></path></marker><marker id="graphArrow" markerWidth="12" markerHeight="12" refX="9" refY="0" viewBox="0 -5 10 10" orient="0"><path d="M0,-5L10,0L0,5" fill="black"></path></marker><marker id="pipelineArrow" markerWidth="5" markerHeight="5" refX="9" refY="0" viewBox="0 -5 10 10" orient="0"><path d="M0,-5L10,0L0,5" fill="black"></path></marker></defs><g id="grid"><rect x="0" width="1341" y="0" height="718" id="fillArea" fill="url(#wardleyGradient)"></rect><g id="valueChain" transform="translate(0,718) rotate(270)" font-family="&quot;Helvetica Neue&quot;,Helvetica,Arial,sans-serif" font-size="13px"><line x1="0" y1="0" x2="718" y2="0" stroke="black" stroke-width="1" stroke-dasharray="2,2"></line><line x1="-2em" y1="234.67499999999998" x2="718" y2="234.67499999999998" stroke="#b8b8b8" stroke-dasharray="2,2"></line><line x1="-2em" y1="536.4" x2="718" y2="536.4" stroke="#b8b8b8" stroke-dasharray="2,2"></line><line x1="-2em" y1="938.6999999999999" x2="718" y2="938.6999999999999" stroke="#b8b8b8" stroke-dasharray="2,2"></line><text fill="black" x="716" y="-0.4em" text-anchor="end" font-weight="bold">Value Chain</text></g><g id="Evolution" font-family="&quot;Helvetica Neue&quot;,Helvetica,Arial,sans-serif" font-size="13px" font-style="italic" transform="translate(0,718)"><line x1="0" y1="0" x2="1339" y2="0" stroke="black" stroke-width="1" marker-end="url(#graphArrow)"></line><text fill="black" x="10" y="-703" text-anchor="start" font-style="normal" font-size="11px" font-weight="bold">Uncharted</text><text fill="black" x="1331" y="-703" text-anchor="end" font-style="normal" font-size="11px" font-weight="bold">Industrialised</text><text fill="black" x="0" y="1em" text-anchor="start">genesis / concept </text><text fill="black" x="0" y="2em" text-anchor="start"></text><text fill="black" x="241.67499999999998" y="1em" text-anchor="start"> custom / emerging </text><text fill="black" x="241.67499999999998" y="2em" text-anchor="start"></text><text fill="black" x="543.4" y="1em" text-anchor="start"> product/ converging </text><text fill="black" x="543.4" y="2em" text-anchor="start"></text><text fill="black" x="945.6999999999999" y="1em" text-anchor="start"> commodity / accepted</text><text fill="black" x="945.6999999999999" y="2em" text-anchor="start"></text><text fill="black" x="1341" y="1.8em" text-anchor="end" font-weight="bold" font-style="normal">Evolution</text></g></g><g id="map"><g id="attitudes"></g><g id="methods"></g><g id="fluids"></g><g id="links"><g id="link_80_81"><line x1="791.1899999999999" y1="35.900000000000034" x2="603.45" y2="351.82" stroke="grey" stroke-width="1"></line></g><g id="link_80_79"><line x1="791.1899999999999" y1="35.900000000000034" x2="885.0600000000001" y2="43.08000000000004" stroke="grey" stroke-width="1"></line></g><g id="link_25_29"><line x1="952.1099999999999" y1="157.95999999999998" x2="1019.16" y2="193.86" stroke="grey" stroke-width="1"></line></g><g id="link_25_26"><line x1="952.1099999999999" y1="157.95999999999998" x2="938.6999999999999" y2="93.34" stroke="grey" stroke-width="1"></line></g><g id="link_29_98"><line x1="1019.16" y1="193.86" x2="965.52" y2="272.84" stroke="grey" stroke-width="1"></line></g><g id="link_98_46"><line x1="965.52" y1="272.84" x2="791.1899999999999" y2="574.4" stroke="grey" stroke-width="1"></line></g><g id="link_98_27"><line x1="965.52" y1="272.84" x2="683.91" y2="445.16" stroke="grey" stroke-width="1"></line></g><g id="link_80_101"><line x1="791.1899999999999" y1="35.900000000000034" x2="563.22" y2="71.79999999999998" stroke="grey" stroke-width="1"></line></g><g id="link_104_98"><line x1="576.63" y1="86.16" x2="965.52" y2="272.84" stroke="grey" stroke-width="1"></line></g><g id="link_105_27"><line x1="657.09" y1="86.16" x2="683.91" y2="445.16" stroke="grey" stroke-width="1"></line></g><g id="link_98_52"><line x1="965.52" y1="272.84" x2="844.83" y2="244.11999999999998" stroke="grey" stroke-width="1"></line></g><g id="link_52_38"><line x1="844.83" y1="244.11999999999998" x2="469.34999999999997" y2="193.86" stroke="grey" stroke-width="1"></line></g><g id="link_29_52"><line x1="1019.16" y1="193.86" x2="844.83" y2="244.11999999999998" stroke="grey" stroke-width="1"></line></g><g id="link_100_70"><line x1="1005.75" y1="287.2" x2="791.1899999999999" y2="502.59999999999997" stroke="grey" stroke-width="1"></line></g><g id="link_70_46"><line x1="791.1899999999999" y1="502.59999999999997" x2="791.1899999999999" y2="574.4" stroke="grey" stroke-width="1"></line></g><g id="link_81_98"><line x1="603.45" y1="351.82" x2="965.52" y2="272.84" stroke="grey" stroke-width="1"></line></g><g id="link_35_48"><line x1="804.6" y1="631.84" x2="978.93" y2="689.28" stroke="grey" stroke-width="1"></line></g><g id="link_46_35"><line x1="791.1899999999999" y1="574.4" x2="804.6" y2="631.84" stroke="grey" stroke-width="1"></line></g><g id="link_43_67"><line x1="844.83" y1="588.76" x2="992.34" y2="646.2" stroke="grey" stroke-width="1"></line></g><g id="link_98_57"><line x1="965.52" y1="272.84" x2="871.65" y2="387.72" stroke="grey" stroke-width="1"></line></g><g id="link_57_59"><line x1="871.65" y1="387.72" x2="952.1099999999999" y2="452.34" stroke="grey" stroke-width="1"></line></g><g id="link_73_38"><line x1="509.58" y1="86.16" x2="469.34999999999997" y2="193.86" stroke="grey" stroke-width="1"></line></g><g id="link_25_38"><line x1="952.1099999999999" y1="157.95999999999998" x2="469.34999999999997" y2="193.86" stroke="grey" stroke-width="1"></line></g><g id="link_81_38"><line x1="603.45" y1="351.82" x2="469.34999999999997" y2="193.86" stroke="grey" stroke-width="1"></line></g><g id="link_24_79"><line x1="1019.16" y1="57.43999999999997" x2="885.0600000000001" y2="43.08000000000004" stroke="grey" stroke-width="1"></line></g></g><g id="evolvingEndLinks"></g><g id="bothEvolving"></g><g id="anchorLinks"></g><g id="anchorNonEvolvedLinks"></g><g id="evolvingToNoneEvolvingEndLinks"></g><g id="evolvedLinks"><g><line x1="791.1899999999999" y1="588.76" x2="724.1400000000001" y2="588.76" stroke-dasharray="5 5" stroke="red" stroke-width="1" marker-start="url(#arrow)"></line></g><g><line x1="992.34" y1="516.96" x2="804.6" y2="516.96" stroke-dasharray="5 5" stroke="red" stroke-width="1" marker-start="url(#arrow)"></line></g><g><line x1="683.91" y1="516.96" x2="576.63" y2="516.96" stroke-dasharray="5 5" stroke="red" stroke-width="1" marker-start="url(#arrow)"></line></g><g><line x1="670.5" y1="402.08000000000004" x2="576.63" y2="402.08000000000004" stroke-dasharray="5 5" stroke="red" stroke-width="1" marker-start="url(#arrow)"></line></g>;</g><g id="anchors"></g><g id="pipelines"><g id="pipeline_box_28" transform="translate(563.22,447.16)"><line x1="0" y1="0" x2="187.74" y2="0" stroke-width="1" stroke="black"></line><line x1="187.74" y1="0" x2="187.74" y2="22" stroke-width="1" stroke="black"></line><line x1="187.74" y1="22" x2="0" y2="22" stroke-width="1" stroke="black"></line><line x1="0" y1="22" x2="0" y2="0" stroke-width="1" stroke="black"></line></g><g is="custom" class="draggable" id="movable_pipeline_x1_28" transform="translate(563.22,447.16)"><rect x="-15" y="-15" rx="30" ry="30" width="30" height="30" fill-opacity="0"></rect><circle id="pipeline_circle_x1_28" cx="10" cy="12" stroke-width="1" r="5" stroke="black" fill="white"></circle></g><g is="custom" class="draggable" id="movable_pipeline_x2_28" transform="translate(750.96,447.16)"><rect x="-15" y="-15" rx="30" ry="30" width="30" height="30" fill-opacity="0"></rect><circle id="pipeline_circle_x2_28" cx="-10" cy="12" stroke-width="1" r="5" stroke="black" fill="white"></circle></g><g id="pipeline_box_30" transform="translate(938.6999999999999,195.86)"><line x1="0" y1="0" x2="134.10000000000002" y2="0" stroke-width="1" stroke="black"></line><line x1="134.10000000000002" y1="0" x2="134.10000000000002" y2="22" stroke-width="1" stroke="black"></line><line x1="134.10000000000002" y1="22" x2="0" y2="22" stroke-width="1" stroke="black"></line><line x1="0" y1="22" x2="0" y2="0" stroke-width="1" stroke="black"></line></g><g is="custom" class="draggable" id="movable_pipeline_x1_30" transform="translate(938.6999999999999,195.86)"><rect x="-15" y="-15" rx="30" ry="30" width="30" height="30" fill-opacity="0"></rect><circle id="pipeline_circle_x1_30" cx="10" cy="12" stroke-width="1" r="5" stroke="black" fill="white"></circle></g><g is="custom" class="draggable" id="movable_pipeline_x2_30" transform="translate(1072.8,195.86)"><rect x="-15" y="-15" rx="30" ry="30" width="30" height="30" fill-opacity="0"></rect><circle id="pipeline_circle_x2_30" cx="-10" cy="12" stroke-width="1" r="5" stroke="black" fill="white"></circle></g><g id="pipeline_box_36" transform="translate(563.22,633.84)"><line x1="0" y1="0" x2="442.53" y2="0" stroke-width="1" stroke="black"></line><line x1="442.53" y1="0" x2="442.53" y2="22" stroke-width="1" stroke="black"></line><line x1="442.53" y1="22" x2="0" y2="22" stroke-width="1" stroke="black"></line><line x1="0" y1="22" x2="0" y2="0" stroke-width="1" stroke="black"></line></g><g is="custom" class="draggable" id="movable_pipeline_x1_36" transform="translate(563.22,633.84)"><rect x="-15" y="-15" rx="30" ry="30" width="30" height="30" fill-opacity="0"></rect><circle id="pipeline_circle_x1_36" cx="10" cy="12" stroke-width="1" r="5" stroke="black" fill="white"></circle></g><g is="custom" class="draggable" id="movable_pipeline_x2_36" transform="translate(1005.75,633.84)"><rect x="-15" y="-15" rx="30" ry="30" width="30" height="30" fill-opacity="0"></rect><circle id="pipeline_circle_x2_36" cx="-10" cy="12" stroke-width="1" r="5" stroke="black" fill="white"></circle></g><g id="pipeline_box_47" transform="translate(710.73,576.4)"><line x1="0" y1="0" x2="147.51" y2="0" stroke-width="1" stroke="black"></line><line x1="147.51" y1="0" x2="147.51" y2="22" stroke-width="1" stroke="black"></line><line x1="147.51" y1="22" x2="0" y2="22" stroke-width="1" stroke="black"></line><line x1="0" y1="22" x2="0" y2="0" stroke-width="1" stroke="black"></line></g><g is="custom" class="draggable" id="movable_pipeline_x1_47" transform="translate(710.73,576.4)"><rect x="-15" y="-15" rx="30" ry="30" width="30" height="30" fill-opacity="0"></rect><circle id="pipeline_circle_x1_47" cx="10" cy="12" stroke-width="1" r="5" stroke="black" fill="white"></circle></g><g is="custom" class="draggable" id="movable_pipeline_x2_47" transform="translate(858.24,576.4)"><rect x="-15" y="-15" rx="30" ry="30" width="30" height="30" fill-opacity="0"></rect><circle id="pipeline_circle_x2_47" cx="-10" cy="12" stroke-width="1" r="5" stroke="black" fill="white"></circle></g><g id="pipeline_box_49" transform="translate(938.6999999999999,691.28)"><line x1="0" y1="0" x2="80.46000000000004" y2="0" stroke-width="1" stroke="black"></line><line x1="80.46000000000004" y1="0" x2="80.46000000000004" y2="22" stroke-width="1" stroke="black"></line><line x1="80.46000000000004" y1="22" x2="0" y2="22" stroke-width="1" stroke="black"></line><line x1="0" y1="22" x2="0" y2="0" stroke-width="1" stroke="black"></line></g><g is="custom" class="draggable" id="movable_pipeline_x1_49" transform="translate(938.6999999999999,691.28)"><rect x="-15" y="-15" rx="30" ry="30" width="30" height="30" fill-opacity="0"></rect><circle id="pipeline_circle_x1_49" cx="10" cy="12" stroke-width="1" r="5" stroke="black" fill="white"></circle></g><g is="custom" class="draggable" id="movable_pipeline_x2_49" transform="translate(1019.16,691.28)"><rect x="-15" y="-15" rx="30" ry="30" width="30" height="30" fill-opacity="0"></rect><circle id="pipeline_circle_x2_49" cx="-10" cy="12" stroke-width="1" r="5" stroke="black" fill="white"></circle></g><g id="pipeline_box_58" transform="translate(563.22,389.72)"><line x1="0" y1="0" x2="415.7099999999999" y2="0" stroke-width="1" stroke="black"></line><line x1="415.7099999999999" y1="0" x2="415.7099999999999" y2="22" stroke-width="1" stroke="black"></line><line x1="415.7099999999999" y1="22" x2="0" y2="22" stroke-width="1" stroke="black"></line><line x1="0" y1="22" x2="0" y2="0" stroke-width="1" stroke="black"></line></g><g is="custom" class="draggable" id="movable_pipeline_x1_58" transform="translate(563.22,389.72)"><rect x="-15" y="-15" rx="30" ry="30" width="30" height="30" fill-opacity="0"></rect><circle id="pipeline_circle_x1_58" cx="10" cy="12" stroke-width="1" r="5" stroke="black" fill="white"></circle></g><g is="custom" class="draggable" id="movable_pipeline_x2_58" transform="translate(978.93,389.72)"><rect x="-15" y="-15" rx="30" ry="30" width="30" height="30" fill-opacity="0"></rect><circle id="pipeline_circle_x2_58" cx="-10" cy="12" stroke-width="1" r="5" stroke="black" fill="white"></circle></g><g id="pipeline_box_71" transform="translate(563.22,504.59999999999997)"><line x1="0" y1="0" x2="254.78999999999996" y2="0" stroke-width="1" stroke="black"></line><line x1="254.78999999999996" y1="0" x2="254.78999999999996" y2="22" stroke-width="1" stroke="black"></line><line x1="254.78999999999996" y1="22" x2="0" y2="22" stroke-width="1" stroke="black"></line><line x1="0" y1="22" x2="0" y2="0" stroke-width="1" stroke="black"></line></g><g is="custom" class="draggable" id="movable_pipeline_x1_71" transform="translate(563.22,504.59999999999997)"><rect x="-15" y="-15" rx="30" ry="30" width="30" height="30" fill-opacity="0"></rect><circle id="pipeline_circle_x1_71" cx="10" cy="12" stroke-width="1" r="5" stroke="black" fill="white"></circle></g><g is="custom" class="draggable" id="movable_pipeline_x2_71" transform="translate(818.01,504.59999999999997)"><rect x="-15" y="-15" rx="30" ry="30" width="30" height="30" fill-opacity="0"></rect><circle id="pipeline_circle_x2_71" cx="-10" cy="12" stroke-width="1" r="5" stroke="black" fill="white"></circle></g><g id="pipeline_box_87" transform="translate(831.42,95.34)"><line x1="0" y1="0" x2="147.51" y2="0" stroke-width="1" stroke="black"></line><line x1="147.51" y1="0" x2="147.51" y2="22" stroke-width="1" stroke="black"></line><line x1="147.51" y1="22" x2="0" y2="22" stroke-width="1" stroke="black"></line><line x1="0" y1="22" x2="0" y2="0" stroke-width="1" stroke="black"></line></g><g is="custom" class="draggable" id="movable_pipeline_x1_87" transform="translate(831.42,95.34)"><rect x="-15" y="-15" rx="30" ry="30" width="30" height="30" fill-opacity="0"></rect><circle id="pipeline_circle_x1_87" cx="10" cy="12" stroke-width="1" r="5" stroke="black" fill="white"></circle></g><g is="custom" class="draggable" id="movable_pipeline_x2_87" transform="translate(978.93,95.34)"><rect x="-15" y="-15" rx="30" ry="30" width="30" height="30" fill-opacity="0"></rect><circle id="pipeline_circle_x2_87" cx="-10" cy="12" stroke-width="1" r="5" stroke="black" fill="white"></circle></g><g id="pipeline_box_99" transform="translate(804.6,274.84)"><line x1="0" y1="0" x2="214.55999999999995" y2="0" stroke-width="1" stroke="black"></line><line x1="214.55999999999995" y1="0" x2="214.55999999999995" y2="22" stroke-width="1" stroke="black"></line><line x1="214.55999999999995" y1="22" x2="0" y2="22" stroke-width="1" stroke="black"></line><line x1="0" y1="22" x2="0" y2="0" stroke-width="1" stroke="black"></line></g><g is="custom" class="draggable" id="movable_pipeline_x1_99" transform="translate(804.6,274.84)"><rect x="-15" y="-15" rx="30" ry="30" width="30" height="30" fill-opacity="0"></rect><circle id="pipeline_circle_x1_99" cx="10" cy="12" stroke-width="1" r="5" stroke="black" fill="white"></circle></g><g is="custom" class="draggable" id="movable_pipeline_x2_99" transform="translate(1019.16,274.84)"><rect x="-15" y="-15" rx="30" ry="30" width="30" height="30" fill-opacity="0"></rect><circle id="pipeline_circle_x2_99" cx="-10" cy="12" stroke-width="1" r="5" stroke="black" fill="white"></circle></g><g id="pipeline_box_102" transform="translate(496.17,73.79999999999998)"><line x1="0" y1="0" x2="174.32999999999998" y2="0" stroke-width="1" stroke="black"></line><line x1="174.32999999999998" y1="0" x2="174.32999999999998" y2="22" stroke-width="1" stroke="black"></line><line x1="174.32999999999998" y1="22" x2="0" y2="22" stroke-width="1" stroke="black"></line><line x1="0" y1="22" x2="0" y2="0" stroke-width="1" stroke="black"></line></g><g is="custom" class="draggable" id="movable_pipeline_x1_102" transform="translate(496.17,73.79999999999998)"><rect x="-15" y="-15" rx="30" ry="30" width="30" height="30" fill-opacity="0"></rect><circle id="pipeline_circle_x1_102" cx="10" cy="12" stroke-width="1" r="5" stroke="black" fill="white"></circle></g><g is="custom" class="draggable" id="movable_pipeline_x2_102" transform="translate(670.5,73.79999999999998)"><rect x="-15" y="-15" rx="30" ry="30" width="30" height="30" fill-opacity="0"></rect><circle id="pipeline_circle_x2_102" cx="-10" cy="12" stroke-width="1" r="5" stroke="black" fill="white"></circle></g></g><g id="elements"><g is="custom" class="draggable" id="movable_element_23" transform="translate(871.65,287.2)"><rect x="-15" y="-15" rx="30" ry="30" width="30" height="30" fill-opacity="0"></rect><circle id="element_circle_23" stroke-width="1" r="5" stroke="black" fill="white"></circle></g><g transform="translate(871.65,287.2)"><g class="draggable" id="movable_element_text_23" transform="translate(-37,21)"><text is="custom" id="element_text_23" data-testid="element_text_23" font-weight="14px" font-size="13px" class="label" transform="" fill="black">longhaul</text></g></g><g is="custom" class="draggable" id="movable_element_24" transform="translate(1019.16,57.43999999999997)"><rect x="-15" y="-15" rx="30" ry="30" width="30" height="30" fill-opacity="0"></rect><circle id="element_circle_24" stroke-width="1" r="5" stroke="black" fill="white"></circle></g><g transform="translate(1019.16,57.43999999999997)"><g class="draggable" id="movable_element_text_24" transform="translate(10,2)"><text is="custom" id="element_text_24" data-testid="element_text_24" font-weight="14px" font-size="13px" class="label" transform="" fill="black">Public</text></g></g><g is="custom" class="draggable" id="movable_element_25" transform="translate(952.1099999999999,157.95999999999998)"><rect x="-15" y="-15" rx="30" ry="30" width="30" height="30" fill-opacity="0"></rect><circle id="element_circle_25" stroke-width="1" r="5" stroke="black" fill="white"></circle></g><g transform="translate(952.1099999999999,157.95999999999998)"><g class="draggable" id="movable_element_text_25" transform="translate(11,1)"><text is="custom" id="element_text_25" data-testid="element_text_25" font-weight="14px" font-size="13px" class="label" transform="" fill="black">producer</text></g></g><g is="custom" class="draggable" id="movable_element_26" transform="translate(938.6999999999999,93.34)"><rect x="-15" y="-15" rx="30" ry="30" width="30" height="30" fill-opacity="0"></rect><circle id="element_circle_26" stroke-width="1" r="5" stroke="black" fill="white"></circle><rect id="element_square_26" x="-5" y="-5" fill="white" stroke="black" width="10" height="10" stroke-width="2"></rect></g><g transform="translate(938.6999999999999,93.34)"><g class="draggable" id="movable_element_text_26" transform="translate(-37,-7)"><text is="custom" id="element_text_26" data-testid="element_text_26" font-weight="14px" font-size="13px" class="label" transform="" fill="black">good</text></g></g><g is="custom" class="draggable" id="movable_element_27" transform="translate(683.91,445.16)"><rect x="-15" y="-15" rx="30" ry="30" width="30" height="30" fill-opacity="0"></rect><circle id="element_circle_27" stroke-width="1" r="5" stroke="black" fill="white"></circle><rect id="element_square_27" x="-5" y="-5" fill="white" stroke="black" width="10" height="10" stroke-width="2"></rect></g><g transform="translate(683.91,445.16)"><g class="draggable" id="movable_element_text_27" transform="translate(-61,-9)"><text is="custom" id="element_text_27" data-testid="element_text_27" font-weight="14px" font-size="13px" class="label" transform="" fill="black">topology</text></g></g><g is="custom" class="draggable" id="movable_element_29" transform="translate(1019.16,193.86)"><rect x="-15" y="-15" rx="30" ry="30" width="30" height="30" fill-opacity="0"></rect><circle id="element_circle_29" stroke-width="1" r="5" stroke="black" fill="white"></circle><rect id="element_square_29" x="-5" y="-5" fill="white" stroke="black" width="10" height="10" stroke-width="2"></rect></g><g transform="translate(1019.16,193.86)"><g class="draggable" id="movable_element_text_29" transform="translate(9,-6)"><text is="custom" id="element_text_29" data-testid="element_text_29" font-weight="14px" font-size="13px" class="label" transform="" fill="black">commmerce</text></g></g><g is="custom" class="draggable" id="movable_element_31" transform="translate(952.1099999999999,208.22000000000003)"><rect x="-15" y="-15" rx="30" ry="30" width="30" height="30" fill-opacity="0"></rect><circle id="element_circle_31" stroke-width="1" r="5" stroke="black" fill="white"></circle></g><g transform="translate(952.1099999999999,208.22000000000003)"><g class="draggable" id="movable_element_text_31" transform="translate(-90,0)"><text is="custom" id="element_text_31" data-testid="element_text_31" font-weight="14px" font-size="13px" class="label" transform="" fill="black">e-commerce</text></g></g><g is="custom" class="draggable" id="movable_element_32" transform="translate(818.01,287.2)"><rect x="-15" y="-15" rx="30" ry="30" width="30" height="30" fill-opacity="0"></rect><circle id="element_circle_32" stroke-width="1" r="5" stroke="black" fill="white"></circle></g><g transform="translate(818.01,287.2)"><g class="draggable" id="movable_element_text_32" transform="translate(-89,-9)"><text is="custom" id="element_text_32" data-testid="element_text_32" font-weight="14px" font-size="13px" class="label" transform="" fill="black">last mile</text></g></g><g is="custom" class="draggable" id="movable_element_35" transform="translate(804.6,631.84)"><rect x="-15" y="-15" rx="30" ry="30" width="30" height="30" fill-opacity="0"></rect><circle id="element_circle_35" stroke-width="1" r="5" stroke="black" fill="white"></circle><rect id="element_square_35" x="-5" y="-5" fill="white" stroke="black" width="10" height="10" stroke-width="2"></rect></g><g transform="translate(804.6,631.84)"><g class="draggable" id="movable_element_text_35" transform="translate(7,-4)"><text is="custom" id="element_text_35" data-testid="element_text_35" font-weight="14px" font-size="13px" class="label" transform="" fill="black">vehicle</text></g></g><g is="custom" class="draggable" id="movable_element_38" transform="translate(469.34999999999997,193.86)"><rect x="-15" y="-15" rx="30" ry="30" width="30" height="30" fill-opacity="0"></rect><circle id="element_circle_38" stroke-width="1" r="5" stroke="black" fill="white"></circle></g><g transform="translate(469.34999999999997,193.86)"><g class="draggable" id="movable_element_text_38" transform="translate(-72,-26)"><text is="custom" id="element_text_38" data-testid="element_text_38" font-weight="14px" font-size="13px" class="label" transform="translate(30, 10)" fill="black"><tspan x="0" dy="0" text-anchor="middle">awareness</tspan><tspan x="0" dy="15" text-anchor="middle">of</tspan><tspan x="0" dy="15" text-anchor="middle">supply</tspan><tspan x="0" dy="15" text-anchor="middle">chain</tspan></text></g></g><g is="custom" class="draggable" id="movable_element_39" transform="translate(724.1400000000001,588.76)"><rect x="-15" y="-15" rx="30" ry="30" width="30" height="30" fill-opacity="0"></rect><circle id="element_circle_39" stroke-width="1" r="5" stroke="black" fill="white"></circle></g><g transform="translate(724.1400000000001,588.76)"><g class="draggable" id="movable_element_text_39" transform="translate(-78,-13)"><text is="custom" id="element_text_39" data-testid="element_text_39" font-weight="14px" font-size="13px" class="label" transform="translate(30, 10)" fill="black"><tspan x="0" dy="0" text-anchor="middle">automated</tspan><tspan x="0" dy="15" text-anchor="middle">delivery</tspan></text></g></g><g is="custom" class="draggable" id="movable_element_40" transform="translate(952.1099999999999,703.64)"><rect x="-15" y="-15" rx="30" ry="30" width="30" height="30" fill-opacity="0"></rect><circle id="element_circle_40" stroke-width="1" r="5" stroke="black" fill="white"></circle></g><g transform="translate(952.1099999999999,703.64)"><g class="draggable" id="movable_element_text_40" transform="translate(-72,1)"><text is="custom" id="element_text_40" data-testid="element_text_40" font-weight="14px" font-size="13px" class="label" transform="" fill="black">electric</text></g></g><g is="custom" class="draggable" id="movable_element_41" transform="translate(804.6,516.96)"><rect x="-15" y="-15" rx="30" ry="30" width="30" height="30" fill-opacity="0"></rect><circle id="element_circle_41" stroke-width="1" r="5" stroke="black" fill="white"></circle></g><g transform="translate(804.6,516.96)"><g class="draggable" id="movable_element_text_41" transform="translate(17,15)"><text is="custom" id="element_text_41" data-testid="element_text_41" font-weight="14px" font-size="13px" class="label" transform="" fill="black">warehouse</text></g></g><g is="custom" class="draggable" id="movable_element_42" transform="translate(737.5500000000001,459.52)"><rect x="-15" y="-15" rx="30" ry="30" width="30" height="30" fill-opacity="0"></rect><circle id="element_circle_42" stroke-width="1" r="5" stroke="black" fill="white"></circle></g><g transform="translate(737.5500000000001,459.52)"><g class="draggable" id="movable_element_text_42" transform="translate(22,5)"><text is="custom" id="element_text_42" data-testid="element_text_42" font-weight="14px" font-size="13px" class="label" transform="" fill="black">city</text></g></g><g is="custom" class="draggable" id="movable_element_43" transform="translate(844.83,588.76)"><rect x="-15" y="-15" rx="30" ry="30" width="30" height="30" fill-opacity="0"></rect><circle id="element_circle_43" stroke-width="1" r="5" stroke="black" fill="white"></circle></g><g transform="translate(844.83,588.76)"><g class="draggable" id="movable_element_text_43" transform="translate(18,2)"><text is="custom" id="element_text_43" data-testid="element_text_43" font-weight="14px" font-size="13px" class="label" transform="" fill="black">skills / HGV</text></g></g><g is="custom" class="draggable" id="movable_element_45" transform="translate(1005.75,703.64)"><rect x="-15" y="-15" rx="30" ry="30" width="30" height="30" fill-opacity="0"></rect><circle id="element_circle_45" stroke-width="1" r="5" stroke="black" fill="white"></circle></g><g transform="translate(1005.75,703.64)"><g class="draggable" id="movable_element_text_45" transform="translate(12,4)"><text is="custom" id="element_text_45" data-testid="element_text_45" font-weight="14px" font-size="13px" class="label" transform="" fill="black">fossil</text></g></g><g is="custom" class="draggable" id="movable_element_46" transform="translate(791.1899999999999,574.4)"><rect x="-15" y="-15" rx="30" ry="30" width="30" height="30" fill-opacity="0"></rect><circle id="element_circle_46" stroke-width="1" r="5" stroke="black" fill="white"></circle><rect id="element_square_46" x="-5" y="-5" fill="white" stroke="black" width="10" height="10" stroke-width="2"></rect></g><g transform="translate(791.1899999999999,574.4)"><g class="draggable" id="movable_element_text_46" transform="translate(-64,-7)"><text is="custom" id="element_text_46" data-testid="element_text_46" font-weight="14px" font-size="13px" class="label" transform="" fill="black">delivery</text></g></g><g is="custom" class="draggable" id="movable_element_48" transform="translate(978.93,689.28)"><rect x="-15" y="-15" rx="30" ry="30" width="30" height="30" fill-opacity="0"></rect><circle id="element_circle_48" stroke-width="1" r="5" stroke="black" fill="white"></circle><rect id="element_square_48" x="-5" y="-5" fill="white" stroke="black" width="10" height="10" stroke-width="2"></rect></g><g transform="translate(978.93,689.28)"><g class="draggable" id="movable_element_text_48" transform="translate(5,-9)"><text is="custom" id="element_text_48" data-testid="element_text_48" font-weight="14px" font-size="13px" class="label" transform="" fill="black">power</text></g></g><g is="custom" class="draggable" id="movable_element_52" transform="translate(844.83,244.11999999999998)"><rect x="-15" y="-15" rx="30" ry="30" width="30" height="30" fill-opacity="0"></rect><circle id="element_circle_52" stroke-width="1" r="5" stroke="black" fill="white"></circle></g><g transform="translate(844.83,244.11999999999998)"><g class="draggable" id="movable_element_text_52" transform="translate(-90,9)"><text is="custom" id="element_text_52" data-testid="element_text_52" font-weight="14px" font-size="13px" class="label" transform="" fill="black">supply chain</text></g></g><g is="custom" class="draggable" id="movable_element_57" transform="translate(871.65,387.72)"><rect x="-15" y="-15" rx="30" ry="30" width="30" height="30" fill-opacity="0"></rect><circle id="element_circle_57" stroke-width="1" r="5" stroke="black" fill="white"></circle><rect id="element_square_57" x="-5" y="-5" fill="white" stroke="black" width="10" height="10" stroke-width="2"></rect></g><g transform="translate(871.65,387.72)"><g class="draggable" id="movable_element_text_57" transform="translate(-54,-11)"><text is="custom" id="element_text_57" data-testid="element_text_57" font-weight="14px" font-size="13px" class="label" transform="" fill="black">information</text></g></g><g is="custom" class="draggable" id="movable_element_59" transform="translate(952.1099999999999,452.34)"><rect x="-15" y="-15" rx="30" ry="30" width="30" height="30" fill-opacity="0"></rect><circle id="element_circle_59" stroke-width="1" r="5" stroke="black" fill="white"></circle><rect id="element_square_59" x="-5" y="-5" fill="white" stroke="black" width="10" height="10" stroke-width="2"></rect></g><g transform="translate(952.1099999999999,452.34)"><g class="draggable" id="movable_element_text_59" transform="translate(11,2)"><text is="custom" id="element_text_59" data-testid="element_text_59" font-weight="14px" font-size="13px" class="label" transform="" fill="black">data</text></g></g><g is="custom" class="draggable" id="movable_element_62" transform="translate(965.52,402.08000000000004)"><rect x="-15" y="-15" rx="30" ry="30" width="30" height="30" fill-opacity="0"></rect><circle id="element_circle_62" stroke-width="1" r="5" stroke="black" fill="white"></circle></g><g transform="translate(965.52,402.08000000000004)"><g class="draggable" id="movable_element_text_62" transform="translate(17,5)"><text is="custom" id="element_text_62" data-testid="element_text_62" font-weight="14px" font-size="13px" class="label" transform="" fill="black">traffic</text></g></g><g is="custom" class="draggable" id="movable_element_64" transform="translate(831.42,402.08000000000004)"><rect x="-15" y="-15" rx="30" ry="30" width="30" height="30" fill-opacity="0"></rect><circle id="element_circle_64" stroke-width="1" r="5" stroke="black" fill="white"></circle></g><g transform="translate(831.42,402.08000000000004)"><g class="draggable" id="movable_element_text_64" transform="translate(-45,23)"><text is="custom" id="element_text_64" data-testid="element_text_64" font-weight="14px" font-size="13px" class="label" transform="" fill="black">telematics</text></g></g><g is="custom" class="draggable" id="movable_element_65" transform="translate(925.29,646.2)"><rect x="-15" y="-15" rx="30" ry="30" width="30" height="30" fill-opacity="0"></rect><circle id="element_circle_65" stroke-width="1" r="5" stroke="black" fill="white"></circle></g><g transform="translate(925.29,646.2)"><g class="draggable" id="movable_element_text_65" transform="translate(-4,20)"><text is="custom" id="element_text_65" data-testid="element_text_65" font-weight="14px" font-size="13px" class="label" transform="" fill="black">drones</text></g></g><g is="custom" class="draggable" id="movable_element_66" transform="translate(818.01,646.2)"><rect x="-15" y="-15" rx="30" ry="30" width="30" height="30" fill-opacity="0"></rect><circle id="element_circle_66" stroke-width="1" r="5" stroke="black" fill="white"></circle></g><g transform="translate(818.01,646.2)"><g class="draggable" id="movable_element_text_66" transform="translate(-26,22)"><text is="custom" id="element_text_66" data-testid="element_text_66" font-weight="14px" font-size="13px" class="label" transform="" fill="black">scout</text></g></g><g is="custom" class="draggable" id="movable_element_67" transform="translate(992.34,646.2)"><rect x="-15" y="-15" rx="30" ry="30" width="30" height="30" fill-opacity="0"></rect><circle id="element_circle_67" stroke-width="1" r="5" stroke="black" fill="white"></circle></g><g transform="translate(992.34,646.2)"><g class="draggable" id="movable_element_text_67" transform="translate(18,7)"><text is="custom" id="element_text_67" data-testid="element_text_67" font-weight="14px" font-size="13px" class="label" transform="" fill="black">trucks</text></g></g><g is="custom" class="draggable" id="movable_element_70" transform="translate(791.1899999999999,502.59999999999997)"><rect x="-15" y="-15" rx="30" ry="30" width="30" height="30" fill-opacity="0"></rect><circle id="element_circle_70" stroke-width="1" r="5" stroke="black" fill="white"></circle><rect id="element_square_70" x="-5" y="-5" fill="white" stroke="black" width="10" height="10" stroke-width="2"></rect></g><g transform="translate(791.1899999999999,502.59999999999997)"><g class="draggable" id="movable_element_text_70" transform="translate(-60,-3)"><text is="custom" id="element_text_70" data-testid="element_text_70" font-weight="14px" font-size="13px" class="label" transform="" fill="black">storage</text></g></g><g is="custom" class="draggable" id="movable_element_73" transform="translate(509.58,86.16)"><rect x="-15" y="-15" rx="30" ry="30" width="30" height="30" fill-opacity="0"></rect><circle id="element_circle_73" stroke-width="1" r="5" stroke="black" fill="white"></circle></g><g transform="translate(509.58,86.16)"><g class="draggable" id="movable_element_text_73" transform="translate(-69,4)"><text is="custom" id="element_text_73" data-testid="element_text_73" font-weight="14px" font-size="13px" class="label" transform="" fill="black">economy</text></g></g><g is="custom" class="draggable" id="movable_element_78" transform="translate(576.63,646.2)"><rect x="-15" y="-15" rx="30" ry="30" width="30" height="30" fill-opacity="0"></rect><circle id="element_circle_78" stroke-width="1" r="5" stroke="black" fill="white"></circle></g><g transform="translate(576.63,646.2)"><g class="draggable" id="movable_element_text_78" transform="translate(-93,-1)"><text is="custom" id="element_text_78" data-testid="element_text_78" font-weight="14px" font-size="13px" class="label" transform="" fill="black">autotrucks</text></g></g><g is="custom" class="draggable" id="movable_element_79" transform="translate(885.0600000000001,43.08000000000004)"><rect x="-15" y="-15" rx="30" ry="30" width="30" height="30" fill-opacity="0"></rect><circle id="element_circle_79" stroke-width="1" r="5" stroke="black" fill="white"></circle></g><g transform="translate(885.0600000000001,43.08000000000004)"><g class="draggable" id="movable_element_text_79" transform="translate(2,-8)"><text is="custom" id="element_text_79" data-testid="element_text_79" font-weight="14px" font-size="13px" class="label" transform="" fill="black">society</text></g></g><g is="custom" class="draggable" id="movable_element_80" transform="translate(791.1899999999999,35.900000000000034)"><rect x="-15" y="-15" rx="30" ry="30" width="30" height="30" fill-opacity="0"></rect><circle id="element_circle_80" stroke-width="1" r="5" stroke="black" fill="white"></circle></g><g transform="translate(791.1899999999999,35.900000000000034)"><g class="draggable" id="movable_element_text_80" transform="translate(-38,-13)"><text is="custom" id="element_text_80" data-testid="element_text_80" font-weight="14px" font-size="13px" class="label" transform="" fill="black">government</text></g></g><g is="custom" class="draggable" id="movable_element_81" transform="translate(603.45,351.82)"><rect x="-15" y="-15" rx="30" ry="30" width="30" height="30" fill-opacity="0"></rect><circle id="element_circle_81" stroke-width="1" r="5" stroke="black" fill="white"></circle></g><g transform="translate(603.45,351.82)"><g class="draggable" id="movable_element_text_81" transform="translate(-29,13)"><text is="custom" id="element_text_81" data-testid="element_text_81" font-weight="14px" font-size="13px" class="label" transform="" fill="black">regulation</text></g></g><g is="custom" class="draggable" id="movable_element_82" transform="translate(1059.39,208.22000000000003)"><rect x="-15" y="-15" rx="30" ry="30" width="30" height="30" fill-opacity="0"></rect><circle id="element_circle_82" stroke-width="1" r="5" stroke="black" fill="white"></circle></g><g transform="translate(1059.39,208.22000000000003)"><g class="draggable" id="movable_element_text_82" transform="translate(16,3)"><text is="custom" id="element_text_82" data-testid="element_text_82" font-weight="14px" font-size="13px" class="label" transform="" fill="black">shop</text></g></g><g is="custom" class="draggable" id="movable_element_84" transform="translate(576.63,459.52)"><rect x="-15" y="-15" rx="30" ry="30" width="30" height="30" fill-opacity="0"></rect><circle id="element_circle_84" stroke-width="1" r="5" stroke="black" fill="white"></circle></g><g transform="translate(576.63,459.52)"><g class="draggable" id="movable_element_text_84" transform="translate(-53,1)"><text is="custom" id="element_text_84" data-testid="element_text_84" font-weight="14px" font-size="13px" class="label" transform="" fill="black">rural</text></g></g><g is="custom" class="draggable" id="movable_element_95" transform="translate(965.52,107.70000000000002)"><rect x="-15" y="-15" rx="30" ry="30" width="30" height="30" fill-opacity="0"></rect><circle id="element_circle_95" stroke-width="1" r="5" stroke="black" fill="white"></circle></g><g transform="translate(965.52,107.70000000000002)"><g class="draggable" id="movable_element_text_95" transform="translate(18,5)"><text is="custom" id="element_text_95" data-testid="element_text_95" font-weight="14px" font-size="13px" class="label" transform="" fill="black">mass</text></g></g><g is="custom" class="draggable" id="movable_element_96" transform="translate(844.83,107.70000000000002)"><rect x="-15" y="-15" rx="30" ry="30" width="30" height="30" fill-opacity="0"></rect><circle id="element_circle_96" stroke-width="1" r="5" stroke="black" fill="white"></circle></g><g transform="translate(844.83,107.70000000000002)"><g class="draggable" id="movable_element_text_96" transform="translate(-49,3)"><text is="custom" id="element_text_96" data-testid="element_text_96" font-weight="14px" font-size="13px" class="label" transform="" fill="black">local</text></g></g><g is="custom" class="draggable" id="movable_element_98" transform="translate(965.52,272.84)"><rect x="-15" y="-15" rx="30" ry="30" width="30" height="30" fill-opacity="0"></rect><circle id="element_circle_98" stroke-width="1" r="5" stroke="black" fill="white"></circle><rect id="element_square_98" x="-5" y="-5" fill="white" stroke="black" width="10" height="10" stroke-width="2"></rect></g><g transform="translate(965.52,272.84)"><g class="draggable" id="movable_element_text_98" transform="translate(9,-5)"><text is="custom" id="element_text_98" data-testid="element_text_98" font-weight="14px" font-size="13px" class="label" transform="" fill="black">logistics</text></g></g><g is="custom" class="draggable" id="movable_element_100" transform="translate(1005.75,287.2)"><rect x="-15" y="-15" rx="30" ry="30" width="30" height="30" fill-opacity="0"></rect><circle id="element_circle_100" stroke-width="1" r="5" stroke="black" fill="white"></circle></g><g transform="translate(1005.75,287.2)"><g class="draggable" id="movable_element_text_100" transform="translate(17,5)"><text is="custom" id="element_text_100" data-testid="element_text_100" font-weight="14px" font-size="13px" class="label" transform="" fill="black">logistic_hubs</text></g></g><g is="custom" class="draggable" id="movable_element_101" transform="translate(563.22,71.79999999999998)"><rect x="-15" y="-15" rx="30" ry="30" width="30" height="30" fill-opacity="0"></rect><circle id="element_circle_101" stroke-width="1" r="5" stroke="black" fill="white"></circle><rect id="element_square_101" x="-5" y="-5" fill="white" stroke="black" width="10" height="10" stroke-width="2"></rect></g><g transform="translate(563.22,71.79999999999998)"><g class="draggable" id="movable_element_text_101" transform="translate(-73,-11)"><text is="custom" id="element_text_101" data-testid="element_text_101" font-weight="14px" font-size="13px" class="label" transform="" fill="black">sovereignty</text></g></g><g is="custom" class="draggable" id="movable_element_104" transform="translate(576.63,86.16)"><rect x="-15" y="-15" rx="30" ry="30" width="30" height="30" fill-opacity="0"></rect><circle id="element_circle_104" stroke-width="1" r="5" stroke="black" fill="white"></circle></g><g transform="translate(576.63,86.16)"><g class="draggable" id="movable_element_text_104" transform="translate(-14,25)"><text is="custom" id="element_text_104" data-testid="element_text_104" font-weight="14px" font-size="13px" class="label" transform="" fill="black">CNI</text></g></g><g is="custom" class="draggable" id="movable_element_105" transform="translate(657.09,86.16)"><rect x="-15" y="-15" rx="30" ry="30" width="30" height="30" fill-opacity="0"></rect><circle id="element_circle_105" stroke-width="1" r="5" stroke="black" fill="white"></circle></g><g transform="translate(657.09,86.16)"><g class="draggable" id="movable_element_text_105" transform="translate(14,4)"><text is="custom" id="element_text_105" data-testid="element_text_105" font-weight="14px" font-size="13px" class="label" transform="" fill="black">territorial</text></g></g><g is="custom" class="draggable" id="movable_element_16ev" transform="translate(791.1899999999999,588.76)"><rect x="-15" y="-15" rx="30" ry="30" width="30" height="30" fill-opacity="0"></rect><circle id="element_circle_16ev" stroke-width="1" r="5" stroke="red" fill="white"></circle></g><g transform="translate(791.1899999999999,588.76)"><g class="draggable" id="movable_element_text_16ev" transform="translate(-658,153)"><text is="custom" id="element_text_16ev" data-testid="element_text_16ev" font-weight="14px" font-size="13px" class="label" transform="" fill="red">1</text></g></g><g is="custom" class="draggable" id="movable_element_18ev" transform="translate(992.34,516.96)"><rect x="-15" y="-15" rx="30" ry="30" width="30" height="30" fill-opacity="0"></rect><circle id="element_circle_18ev" stroke-width="1" r="5" stroke="red" fill="white"></circle></g><g transform="translate(992.34,516.96)"><g class="draggable" id="movable_element_text_18ev" transform="translate(-947,221)"><text is="custom" id="element_text_18ev" data-testid="element_text_18ev" font-weight="14px" font-size="13px" class="label" transform="" fill="red">2</text></g></g><g is="custom" class="draggable" id="movable_element_93ev" transform="translate(683.91,516.96)"><rect x="-15" y="-15" rx="30" ry="30" width="30" height="30" fill-opacity="0"></rect><circle id="element_circle_93ev" stroke-width="1" r="5" stroke="red" fill="white"></circle></g><g transform="translate(683.91,516.96)"><g class="draggable" id="movable_element_text_93ev" transform="translate(-542,223)"><text is="custom" id="element_text_93ev" data-testid="element_text_93ev" font-weight="14px" font-size="13px" class="label" transform="" fill="red">3</text></g></g><g is="custom" class="draggable" id="movable_element_106ev" transform="translate(670.5,402.08000000000004)"><rect x="-15" y="-15" rx="30" ry="30" width="30" height="30" fill-opacity="0"></rect><circle id="element_circle_106ev" stroke-width="1" r="5" stroke="red" fill="white"></circle></g><g transform="translate(670.5,402.08000000000004)"><g class="draggable" id="movable_element_text_106ev" transform="translate(2,-35)"><text is="custom" id="element_text_106ev" data-testid="element_text_106ev" font-weight="14px" font-size="13px" class="label" transform="translate(30, 10)" fill="red"><tspan x="0" dy="0" text-anchor="middle">real</tspan><tspan x="0" dy="15" text-anchor="middle">time</tspan><tspan x="0" dy="15" text-anchor="middle">stock</tspan></text></g></g><g is="custom" class="draggable" id="movable_element_16" transform="translate(724.1400000000001,588.76)"><rect x="-15" y="-15" rx="30" ry="30" width="30" height="30" fill-opacity="0"></rect><circle id="element_circle_16" stroke-width="1" r="5" stroke="black" fill="white"></circle></g><g transform="translate(724.1400000000001,588.76)"><g class="draggable" id="movable_element_text_16" transform="translate(-613,155)"><text is="custom" id="element_text_16" data-testid="element_text_16" font-weight="14px" font-size="13px" class="label" transform="" fill="black">1</text></g></g><g is="custom" class="draggable" id="movable_element_18" transform="translate(804.6,516.96)"><rect x="-15" y="-15" rx="30" ry="30" width="30" height="30" fill-opacity="0"></rect><circle id="element_circle_18" stroke-width="1" r="5" stroke="black" fill="white"></circle></g><g transform="translate(804.6,516.96)"><g class="draggable" id="movable_element_text_18" transform="translate(-650,211)"><text is="custom" id="element_text_18" data-testid="element_text_18" font-weight="14px" font-size="13px" class="label" transform="" fill="black">2</text></g></g><g is="custom" class="draggable" id="movable_element_93" transform="translate(576.63,516.96)"><rect x="-15" y="-15" rx="30" ry="30" width="30" height="30" fill-opacity="0"></rect><circle id="element_circle_93" stroke-width="1" r="5" stroke="black" fill="white"></circle></g><g transform="translate(576.63,516.96)"><g class="draggable" id="movable_element_text_93" transform="translate(-489,222)"><text is="custom" id="element_text_93" data-testid="element_text_93" font-weight="14px" font-size="13px" class="label" transform="" fill="black">3</text></g></g><g is="custom" class="draggable" id="movable_element_106" transform="translate(576.63,402.08000000000004)"><rect x="-15" y="-15" rx="30" ry="30" width="30" height="30" fill-opacity="0"></rect><circle id="element_circle_106" stroke-width="1" r="5" stroke="black" fill="white"></circle></g><g transform="translate(576.63,402.08000000000004)"><g class="draggable" id="movable_element_text_106" transform="translate(-67,-20)"><text is="custom" id="element_text_106" data-testid="element_text_106" font-weight="14px" font-size="13px" class="label" transform="translate(30, 10)" fill="black"><tspan x="0" dy="0" text-anchor="middle">real</tspan><tspan x="0" dy="15" text-anchor="middle">time</tspan><tspan x="0" dy="15" text-anchor="middle">stock</tspan></text></g></g></g><g id="notes"><g is="custom" class="draggable" id="movable_note_91" transform="translate(536.4,545.68)"><rect x="-15" y="-15" rx="30" ry="30" width="30" height="30" fill-opacity="0"></rect><text is="custom" id="note_text_91" data-testid="note_text_91" font-weight="bold" font-size="12px" class="label" transform="">kerbside</text></g></g><g id="annotations"></g></g></svg>