<?xml version="1.0" encoding="UTF-8"?><!DOCTYPE svg PUBLIC "-//W3C//DTD SVG 1.1//EN" "http://www.w3.org/Graphics/SVG/1.1/DTD/svg11.dtd"><svg font-family="Consolas, Lucida Console, monospace" font-size="13px" class="wardley" id="svgMap" width="1381" height="798" viewBox="-20 0 1361 738" version="1.1" xmlns="http://www.w3.org/2000/svg" xmlns:xlink="http://www.w3.org/1999/xlink"><defs><filter id="ctrlHighlight"><feDropShadow dx="0" dy="0" stdDeviation="3" flood-color="blue"></feDropShadow></filter><linearGradient gradientUnits="objectBoundingBox" id="wardleyGradient" spreadMethod="pad" x1="0%" x2="100%" y1="0%" y2="0%"><stop offset="0%" style="stop-color:rgb(196, 196, 196);stop-opacity:1"></stop><stop offset="0.3" style="stop-color:white;stop-opacity:1"></stop><stop offset="0.7" style="stop-color:white"></stop><stop offset="1" style="stop-color:rgb(196, 196, 196)"></stop></linearGradient><linearGradient spreadMethod="pad" id="accelGradient" x1="0%" y1="64%" x2="76%" y2="0%"><stop offset="0%" style="stop-color:white;stop-opacity:1"></stop><stop offset="100%" style="stop-color:#8c8995;stop-opacity:1"></stop></linearGradient><pattern id="diagonalHatch" patternUnits="userSpaceOnUse" width="4" height="4"><path d="M 3,-1 l 2,2 M 0,0 l 4,4 M -1,3 l 2,2 " stroke="grey" stroke-width="1" opacity=".5"></path></pattern><marker id="arrow" markerWidth="12" markerHeight="12" refX="15" refY="0" viewBox="0 -5 10 10" orient="0"><path d="M0,-5L10,0L0,5" fill="red"></path></marker><marker id="graphArrow" markerWidth="12" markerHeight="12" refX="9" refY="0" viewBox="0 -5 10 10" orient="0"><path d="M0,-5L10,0L0,5" fill="black"></path></marker><marker id="pipelineArrow" markerWidth="5" markerHeight="5" refX="9" refY="0" viewBox="0 -5 10 10" orient="0"><path d="M0,-5L10,0L0,5" fill="black"></path></marker></defs><g id="grid"><rect x="0" width="1341" y="0" height="718" id="fillArea" fill="url(#wardleyGradient)"></rect><g id="valueChain" transform="translate(0,718) rotate(270)" font-family="&quot;Helvetica Neue&quot;,Helvetica,Arial,sans-serif" font-size="13px"><line x1="0" y1="0" x2="718" y2="0" stroke="black" stroke-width="1" stroke-dasharray="2,2"></line><line x1="-2em" y1="234.67499999999998" x2="718" y2="234.67499999999998" stroke="#b8b8b8" stroke-dasharray="2,2"></line><line x1="-2em" y1="536.4" x2="718" y2="536.4" stroke="#b8b8b8" stroke-dasharray="2,2"></line><line x1="-2em" y1="938.6999999999999" x2="718" y2="938.6999999999999" stroke="#b8b8b8" stroke-dasharray="2,2"></line><text fill="black" x="716" y="-0.4em" text-anchor="end" font-weight="bold">Value Chain</text></g><g id="Evolution" font-family="&quot;Helvetica Neue&quot;,Helvetica,Arial,sans-serif" font-size="13px" font-style="italic" transform="translate(0,718)"><line x1="0" y1="0" x2="1339" y2="0" stroke="black" stroke-width="1" marker-end="url(#graphArrow)"></line><text fill="black" x="10" y="-703" text-anchor="start" font-style="normal" font-size="11px" font-weight="bold">Uncharted</text><text fill="black" x="1331" y="-703" text-anchor="end" font-style="normal" font-size="11px" font-weight="bold">Industrialised</text><text fill="black" x="0" y="1em" text-anchor="start">genesis / concept </text><text fill="black" x="0" y="2em" text-anchor="start"></text><text fill="black" x="241.67499999999998" y="1em" text-anchor="start"> custom / emerging </text><text fill="black" x="241.67499999999998" y="2em" text-anchor="start"></text><text fill="black" x="543.4" y="1em" text-anchor="start"> product/ converging </text><text fill="black" x="543.4" y="2em" text-anchor="start"></text><text fill="black" x="945.6999999999999" y="1em" text-anchor="start"> commodity / accepted</text><text fill="black" x="945.6999999999999" y="2em" text-anchor="start"></text><text fill="black" x="1341" y="1.8em" text-anchor="end" font-weight="bold" font-style="normal">Evolution</text></g></g><g id="map"><g id="attitudes"></g><g id="methods"></g><g id="fluids"></g><g id="links"><g id="link_46_51"><line x1="911.8800000000001" y1="71.79999999999998" x2="885.0600000000001" y2="136.41999999999996" stroke="grey" stroke-width="1"></line></g><g id="link_49_72"><line x1="791.1899999999999" y1="86.16" x2="469.34999999999997" y2="150.77999999999997" stroke="grey" stroke-width="1"></line></g><g id="link_72_43"><line x1="469.34999999999997" y1="150.77999999999997" x2="522.99" y2="244.11999999999998" stroke="grey" stroke-width="1"></line></g><g id="link_15_21"><line x1="898.47" y1="35.900000000000034" x2="804.6" y2="7.180000000000007" stroke="grey" stroke-width="1"></line></g><g id="link_21_46"><line x1="804.6" y1="7.180000000000007" x2="911.8800000000001" y2="71.79999999999998" stroke="grey" stroke-width="1"></line></g><g id="link_16_46"><line x1="710.73" y1="7.180000000000007" x2="911.8800000000001" y2="71.79999999999998" stroke="grey" stroke-width="1"></line></g><g id="link_15_46"><line x1="898.47" y1="35.900000000000034" x2="911.8800000000001" y2="71.79999999999998" stroke="grey" stroke-width="1"></line></g><g id="link_71_43"><line x1="563.22" y1="150.77999999999997" x2="522.99" y2="244.11999999999998" stroke="grey" stroke-width="1"></line></g><g id="link_50_73"><line x1="1019.16" y1="86.16" x2="978.93" y2="150.77999999999997" stroke="grey" stroke-width="1"></line></g><g id="link_50_71"><line x1="1019.16" y1="86.16" x2="563.22" y2="150.77999999999997" stroke="grey" stroke-width="1"></line></g><g id="link_73_29"><line x1="978.93" y1="150.77999999999997" x2="885.0600000000001" y2="193.86" stroke="grey" stroke-width="1"></line></g><g id="link_26_29"><line x1="965.52" y1="280.02" x2="885.0600000000001" y2="193.86" stroke="grey" stroke-width="1"></line></g><g id="link_52_29"><line x1="898.47" y1="337.46" x2="885.0600000000001" y2="193.86" stroke="grey" stroke-width="1"></line></g><g id="link_25_52"><line x1="978.93" y1="359" x2="898.47" y2="337.46" stroke="grey" stroke-width="1"></line></g><g id="link_23_97"><line x1="938.6999999999999" y1="208.22000000000003" x2="965.52" y2="229.75999999999996" stroke="grey" stroke-width="1"></line></g><g id="link_23_103"><line x1="938.6999999999999" y1="208.22000000000003" x2="911.8800000000001" y2="380.54" stroke="grey" stroke-width="1"></line></g><g id="link_103_54"><line x1="911.8800000000001" y1="380.54" x2="911.8800000000001" y2="481.05999999999995" stroke="grey" stroke-width="1"></line></g><g id="link_52_103"><line x1="898.47" y1="337.46" x2="911.8800000000001" y2="380.54" stroke="grey" stroke-width="1"></line></g><g id="link_28_102"><line x1="898.47" y1="394.90000000000003" x2="871.65" y2="416.44000000000005" stroke="grey" stroke-width="1"></line></g><g id="link_101_28"><line x1="898.47" y1="437.98" x2="898.47" y2="394.90000000000003" stroke="grey" stroke-width="1"></line></g><g id="link_52_76"><line x1="898.47" y1="337.46" x2="737.5500000000001" y2="560.04" stroke="grey" stroke-width="1"></line></g><g id="link_29_76"><line x1="885.0600000000001" y1="193.86" x2="737.5500000000001" y2="560.04" stroke="grey" stroke-width="1"></line></g><g id="link_23_59"><line x1="938.6999999999999" y1="208.22000000000003" x2="885.0600000000001" y2="294.38" stroke="grey" stroke-width="1"></line></g><g id="link_59_56"><line x1="885.0600000000001" y1="294.38" x2="509.58" y2="574.4" stroke="grey" stroke-width="1"></line></g><g id="link_23_58"><line x1="938.6999999999999" y1="208.22000000000003" x2="536.4" y2="315.91999999999996" stroke="grey" stroke-width="1"></line></g><g id="link_65_29"><line x1="965.52" y1="251.29999999999998" x2="885.0600000000001" y2="193.86" stroke="grey" stroke-width="1"></line></g><g id="link_29_66"><line x1="885.0600000000001" y1="193.86" x2="804.6" y2="236.93999999999997" stroke="grey" stroke-width="1"></line></g><g id="link_23_87"><line x1="938.6999999999999" y1="208.22000000000003" x2="818.01" y2="639.02" stroke="grey" stroke-width="1"></line></g><g id="link_87_109"><line x1="818.01" y1="639.02" x2="455.94000000000005" y2="682.1" stroke="grey" stroke-width="1"></line></g><g id="link_90_109"><line x1="871.65" y1="703.64" x2="455.94000000000005" y2="682.1" stroke="grey" stroke-width="1"></line></g><g id="link_87_90"><line x1="818.01" y1="639.02" x2="871.65" y2="703.64" stroke="grey" stroke-width="1"></line></g><g id="link_54_179"><line x1="911.8800000000001" y1="481.05999999999995" x2="522.99" y2="646.2" stroke="grey" stroke-width="1"></line></g><g id="link_79_179"><line x1="925.29" y1="574.4" x2="522.99" y2="646.2" stroke="grey" stroke-width="1"></line></g><g id="link_179_179"><line x1="522.99" y1="646.2" x2="522.99" y2="646.2" stroke="grey" stroke-width="1"></line></g></g><g id="evolvingEndLinks"></g><g id="bothEvolving"></g><g id="anchorLinks"></g><g id="anchorNonEvolvedLinks"></g><g id="evolvingToNoneEvolvingEndLinks"></g><g id="evolvedLinks">;</g><g id="anchors"></g><g id="pipelines"><g id="pipeline_box_30" transform="translate(442.53000000000003,195.86)"><line x1="0" y1="0" x2="509.57999999999987" y2="0" stroke-width="1" stroke="black"></line><line x1="509.57999999999987" y1="0" x2="509.57999999999987" y2="22" stroke-width="1" stroke="black"></line><line x1="509.57999999999987" y1="22" x2="0" y2="22" stroke-width="1" stroke="black"></line><line x1="0" y1="22" x2="0" y2="0" stroke-width="1" stroke="black"></line></g><g is="custom" class="draggable" id="movable_pipeline_x1_30" transform="translate(442.53000000000003,195.86)"><rect x="-15" y="-15" rx="30" ry="30" width="30" height="30" fill-opacity="0"></rect><circle id="pipeline_circle_x1_30" cx="10" cy="12" stroke-width="1" r="5" stroke="black" fill="white"></circle></g><g is="custom" class="draggable" id="movable_pipeline_x2_30" transform="translate(952.1099999999999,195.86)"><rect x="-15" y="-15" rx="30" ry="30" width="30" height="30" fill-opacity="0"></rect><circle id="pipeline_circle_x2_30" cx="-10" cy="12" stroke-width="1" r="5" stroke="black" fill="white"></circle></g><g id="pipeline_box_47" transform="translate(616.86,73.79999999999998)"><line x1="0" y1="0" x2="415.7099999999999" y2="0" stroke-width="1" stroke="black"></line><line x1="415.7099999999999" y1="0" x2="415.7099999999999" y2="22" stroke-width="1" stroke="black"></line><line x1="415.7099999999999" y1="22" x2="0" y2="22" stroke-width="1" stroke="black"></line><line x1="0" y1="22" x2="0" y2="0" stroke-width="1" stroke="black"></line></g><g is="custom" class="draggable" id="movable_pipeline_x1_47" transform="translate(616.86,73.79999999999998)"><rect x="-15" y="-15" rx="30" ry="30" width="30" height="30" fill-opacity="0"></rect><circle id="pipeline_circle_x1_47" cx="10" cy="12" stroke-width="1" r="5" stroke="black" fill="white"></circle></g><g is="custom" class="draggable" id="movable_pipeline_x2_47" transform="translate(1032.57,73.79999999999998)"><rect x="-15" y="-15" rx="30" ry="30" width="30" height="30" fill-opacity="0"></rect><circle id="pipeline_circle_x2_47" cx="-10" cy="12" stroke-width="1" r="5" stroke="black" fill="white"></circle></g><g id="pipeline_box_55" transform="translate(885.0600000000001,483.05999999999995)"><line x1="0" y1="0" x2="67.04999999999984" y2="0" stroke-width="1" stroke="black"></line><line x1="67.04999999999984" y1="0" x2="67.04999999999984" y2="22" stroke-width="1" stroke="black"></line><line x1="67.04999999999984" y1="22" x2="0" y2="22" stroke-width="1" stroke="black"></line><line x1="0" y1="22" x2="0" y2="0" stroke-width="1" stroke="black"></line></g><g is="custom" class="draggable" id="movable_pipeline_x1_55" transform="translate(885.0600000000001,483.05999999999995)"><rect x="-15" y="-15" rx="30" ry="30" width="30" height="30" fill-opacity="0"></rect><circle id="pipeline_circle_x1_55" cx="10" cy="12" stroke-width="1" r="5" stroke="black" fill="white"></circle></g><g is="custom" class="draggable" id="movable_pipeline_x2_55" transform="translate(952.1099999999999,483.05999999999995)"><rect x="-15" y="-15" rx="30" ry="30" width="30" height="30" fill-opacity="0"></rect><circle id="pipeline_circle_x2_55" cx="-10" cy="12" stroke-width="1" r="5" stroke="black" fill="white"></circle></g><g id="pipeline_box_60" transform="translate(777.78,296.38)"><line x1="0" y1="0" x2="134.10000000000014" y2="0" stroke-width="1" stroke="black"></line><line x1="134.10000000000014" y1="0" x2="134.10000000000014" y2="22" stroke-width="1" stroke="black"></line><line x1="134.10000000000014" y1="22" x2="0" y2="22" stroke-width="1" stroke="black"></line><line x1="0" y1="22" x2="0" y2="0" stroke-width="1" stroke="black"></line></g><g is="custom" class="draggable" id="movable_pipeline_x1_60" transform="translate(777.78,296.38)"><rect x="-15" y="-15" rx="30" ry="30" width="30" height="30" fill-opacity="0"></rect><circle id="pipeline_circle_x1_60" cx="10" cy="12" stroke-width="1" r="5" stroke="black" fill="white"></circle></g><g is="custom" class="draggable" id="movable_pipeline_x2_60" transform="translate(911.8800000000001,296.38)"><rect x="-15" y="-15" rx="30" ry="30" width="30" height="30" fill-opacity="0"></rect><circle id="pipeline_circle_x2_60" cx="-10" cy="12" stroke-width="1" r="5" stroke="black" fill="white"></circle></g><g id="pipeline_box_67" transform="translate(670.5,238.93999999999997)"><line x1="0" y1="0" x2="187.74" y2="0" stroke-width="1" stroke="black"></line><line x1="187.74" y1="0" x2="187.74" y2="22" stroke-width="1" stroke="black"></line><line x1="187.74" y1="22" x2="0" y2="22" stroke-width="1" stroke="black"></line><line x1="0" y1="22" x2="0" y2="0" stroke-width="1" stroke="black"></line></g><g is="custom" class="draggable" id="movable_pipeline_x1_67" transform="translate(670.5,238.93999999999997)"><rect x="-15" y="-15" rx="30" ry="30" width="30" height="30" fill-opacity="0"></rect><circle id="pipeline_circle_x1_67" cx="10" cy="12" stroke-width="1" r="5" stroke="black" fill="white"></circle></g><g is="custom" class="draggable" id="movable_pipeline_x2_67" transform="translate(858.24,238.93999999999997)"><rect x="-15" y="-15" rx="30" ry="30" width="30" height="30" fill-opacity="0"></rect><circle id="pipeline_circle_x2_67" cx="-10" cy="12" stroke-width="1" r="5" stroke="black" fill="white"></circle></g><g id="pipeline_box_70" transform="translate(455.94000000000005,138.41999999999996)"><line x1="0" y1="0" x2="536.4" y2="0" stroke-width="1" stroke="black"></line><line x1="536.4" y1="0" x2="536.4" y2="22" stroke-width="1" stroke="black"></line><line x1="536.4" y1="22" x2="0" y2="22" stroke-width="1" stroke="black"></line><line x1="0" y1="22" x2="0" y2="0" stroke-width="1" stroke="black"></line></g><g is="custom" class="draggable" id="movable_pipeline_x1_70" transform="translate(455.94000000000005,138.41999999999996)"><rect x="-15" y="-15" rx="30" ry="30" width="30" height="30" fill-opacity="0"></rect><circle id="pipeline_circle_x1_70" cx="10" cy="12" stroke-width="1" r="5" stroke="black" fill="white"></circle></g><g is="custom" class="draggable" id="movable_pipeline_x2_70" transform="translate(992.34,138.41999999999996)"><rect x="-15" y="-15" rx="30" ry="30" width="30" height="30" fill-opacity="0"></rect><circle id="pipeline_circle_x2_70" cx="-10" cy="12" stroke-width="1" r="5" stroke="black" fill="white"></circle></g><g id="pipeline_box_77" transform="translate(496.17,562.04)"><line x1="0" y1="0" x2="442.5299999999999" y2="0" stroke-width="1" stroke="black"></line><line x1="442.5299999999999" y1="0" x2="442.5299999999999" y2="22" stroke-width="1" stroke="black"></line><line x1="442.5299999999999" y1="22" x2="0" y2="22" stroke-width="1" stroke="black"></line><line x1="0" y1="22" x2="0" y2="0" stroke-width="1" stroke="black"></line></g><g is="custom" class="draggable" id="movable_pipeline_x1_77" transform="translate(496.17,562.04)"><rect x="-15" y="-15" rx="30" ry="30" width="30" height="30" fill-opacity="0"></rect><circle id="pipeline_circle_x1_77" cx="10" cy="12" stroke-width="1" r="5" stroke="black" fill="white"></circle></g><g is="custom" class="draggable" id="movable_pipeline_x2_77" transform="translate(938.6999999999999,562.04)"><rect x="-15" y="-15" rx="30" ry="30" width="30" height="30" fill-opacity="0"></rect><circle id="pipeline_circle_x2_77" cx="-10" cy="12" stroke-width="1" r="5" stroke="black" fill="white"></circle></g><g id="pipeline_box_104" transform="translate(885.0600000000001,382.54)"><line x1="0" y1="0" x2="53.63999999999987" y2="0" stroke-width="1" stroke="black"></line><line x1="53.63999999999987" y1="0" x2="53.63999999999987" y2="22" stroke-width="1" stroke="black"></line><line x1="53.63999999999987" y1="22" x2="0" y2="22" stroke-width="1" stroke="black"></line><line x1="0" y1="22" x2="0" y2="0" stroke-width="1" stroke="black"></line></g><g is="custom" class="draggable" id="movable_pipeline_x1_104" transform="translate(885.0600000000001,382.54)"><rect x="-15" y="-15" rx="30" ry="30" width="30" height="30" fill-opacity="0"></rect><circle id="pipeline_circle_x1_104" cx="10" cy="12" stroke-width="1" r="5" stroke="black" fill="white"></circle></g><g is="custom" class="draggable" id="movable_pipeline_x2_104" transform="translate(938.6999999999999,382.54)"><rect x="-15" y="-15" rx="30" ry="30" width="30" height="30" fill-opacity="0"></rect><circle id="pipeline_circle_x2_104" cx="-10" cy="12" stroke-width="1" r="5" stroke="black" fill="white"></circle></g></g><g id="elements"><g is="custom" class="draggable" id="movable_element_15" transform="translate(898.47,35.900000000000034)"><rect x="-15" y="-15" rx="30" ry="30" width="30" height="30" fill-opacity="0"></rect><circle id="element_circle_15" stroke-width="1" r="5" stroke="black" fill="white"></circle></g><g transform="translate(898.47,35.900000000000034)"><g class="draggable" id="movable_element_text_15" transform="translate(5,-10)"><text is="custom" id="element_text_15" data-testid="element_text_15" font-weight="14px" font-size="13px" class="label" transform="" fill="black">consumer</text></g></g><g is="custom" class="draggable" id="movable_element_16" transform="translate(710.73,7.180000000000007)"><rect x="-15" y="-15" rx="30" ry="30" width="30" height="30" fill-opacity="0"></rect><circle id="element_circle_16" stroke-width="1" r="5" stroke="black" fill="white"></circle></g><g transform="translate(710.73,7.180000000000007)"><g class="draggable" id="movable_element_text_16" transform="translate(-55,-10)"><text is="custom" id="element_text_16" data-testid="element_text_16" font-weight="14px" font-size="13px" class="label" transform="" fill="black">corporation</text></g></g><g is="custom" class="draggable" id="movable_element_21" transform="translate(804.6,7.180000000000007)"><rect x="-15" y="-15" rx="30" ry="30" width="30" height="30" fill-opacity="0"></rect><circle id="element_circle_21" stroke-width="1" r="5" stroke="black" fill="white"></circle></g><g transform="translate(804.6,7.180000000000007)"><g class="draggable" id="movable_element_text_21" transform="translate(-14,-15)"><text is="custom" id="element_text_21" data-testid="element_text_21" font-weight="14px" font-size="13px" class="label" transform="" fill="black">government</text></g></g><g is="custom" class="draggable" id="movable_element_23" transform="translate(938.6999999999999,208.22000000000003)"><rect x="-15" y="-15" rx="30" ry="30" width="30" height="30" fill-opacity="0"></rect><circle id="element_circle_23" stroke-width="1" r="5" stroke="black" fill="white"></circle></g><g transform="translate(938.6999999999999,208.22000000000003)"><g class="draggable" id="movable_element_text_23" transform="translate(-2,-18)"><text is="custom" id="element_text_23" data-testid="element_text_23" font-weight="14px" font-size="13px" class="label" transform="" fill="black">LEO microsat</text></g></g><g is="custom" class="draggable" id="movable_element_24" transform="translate(455.94000000000005,208.22000000000003)"><rect x="-15" y="-15" rx="30" ry="30" width="30" height="30" fill-opacity="0"></rect><circle id="element_circle_24" stroke-width="1" r="5" stroke="black" fill="white"></circle></g><g transform="translate(455.94000000000005,208.22000000000003)"><g class="draggable" id="movable_element_text_24" transform="translate(-69,4)"><text is="custom" id="element_text_24" data-testid="element_text_24" font-weight="14px" font-size="13px" class="label" transform="" fill="black">GEO Sat</text></g></g><g is="custom" class="draggable" id="movable_element_25" transform="translate(978.93,359)"><rect x="-15" y="-15" rx="30" ry="30" width="30" height="30" fill-opacity="0"></rect><circle id="element_circle_25" stroke-width="1" r="5" stroke="black" fill="white"></circle></g><g transform="translate(978.93,359)"><g class="draggable" id="movable_element_text_25" transform="translate(10,5)"><text is="custom" id="element_text_25" data-testid="element_text_25" font-weight="14px" font-size="13px" class="label" transform="" fill="black">backhaul</text></g></g><g is="custom" class="draggable" id="movable_element_26" transform="translate(965.52,280.02)"><rect x="-15" y="-15" rx="30" ry="30" width="30" height="30" fill-opacity="0"></rect><circle id="element_circle_26" stroke-width="1" r="5" stroke="black" fill="white"></circle><rect id="element_square_26" x="-5" y="-5" fill="white" stroke="black" width="10" height="10" stroke-width="2"></rect></g><g transform="translate(965.52,280.02)"><g class="draggable" id="movable_element_text_26" transform="translate(13,7)"><text is="custom" id="element_text_26" data-testid="element_text_26" font-weight="14px" font-size="13px" class="label" transform="" fill="black">USER TERMINAL</text></g></g><g is="custom" class="draggable" id="movable_element_28" transform="translate(898.47,394.90000000000003)"><rect x="-15" y="-15" rx="30" ry="30" width="30" height="30" fill-opacity="0"></rect><circle id="element_circle_28" stroke-width="1" r="5" stroke="black" fill="white"></circle></g><g transform="translate(898.47,394.90000000000003)"><g class="draggable" id="movable_element_text_28" transform="translate(-75,-36)"><text is="custom" id="element_text_28" data-testid="element_text_28" font-weight="14px" font-size="13px" class="label" transform="translate(30, 10)" fill="black"><tspan x="0" dy="0" text-anchor="middle">phased</tspan><tspan x="0" dy="15" text-anchor="middle">array</tspan><tspan x="0" dy="15" text-anchor="middle">antennas</tspan></text></g></g><g is="custom" class="draggable" id="movable_element_29" transform="translate(885.0600000000001,193.86)"><rect x="-15" y="-15" rx="30" ry="30" width="30" height="30" fill-opacity="0"></rect><circle id="element_circle_29" stroke-width="1" r="5" stroke="black" fill="white"></circle><rect id="element_square_29" x="-5" y="-5" fill="white" stroke="black" width="10" height="10" stroke-width="2"></rect></g><g transform="translate(885.0600000000001,193.86)"><g class="draggable" id="movable_element_text_29" transform="translate(-72,-11)"><text is="custom" id="element_text_29" data-testid="element_text_29" font-weight="14px" font-size="13px" class="label" transform="" fill="black">SATELLITE</text></g></g><g is="custom" class="draggable" id="movable_element_43" transform="translate(522.99,244.11999999999998)"><rect x="-15" y="-15" rx="30" ry="30" width="30" height="30" fill-opacity="0"></rect><circle id="element_circle_43" stroke-width="1" r="5" stroke="black" fill="white"></circle></g><g transform="translate(522.99,244.11999999999998)"><g class="draggable" id="movable_element_text_43" transform="translate(-74,12)"><text is="custom" id="element_text_43" data-testid="element_text_43" font-weight="14px" font-size="13px" class="label" transform="" fill="black">geography</text></g></g><g is="custom" class="draggable" id="movable_element_46" transform="translate(911.8800000000001,71.79999999999998)"><rect x="-15" y="-15" rx="30" ry="30" width="30" height="30" fill-opacity="0"></rect><circle id="element_circle_46" stroke-width="1" r="5" stroke="black" fill="white"></circle><rect id="element_square_46" x="-5" y="-5" fill="white" stroke="black" width="10" height="10" stroke-width="2"></rect></g><g transform="translate(911.8800000000001,71.79999999999998)"><g class="draggable" id="movable_element_text_46" transform="translate(8,-7)"><text is="custom" id="element_text_46" data-testid="element_text_46" font-weight="14px" font-size="13px" class="label" transform="" fill="black">NETWORK ACCESS</text></g></g><g is="custom" class="draggable" id="movable_element_49" transform="translate(791.1899999999999,86.16)"><rect x="-15" y="-15" rx="30" ry="30" width="30" height="30" fill-opacity="0"></rect><circle id="element_circle_49" stroke-width="1" r="5" stroke="black" fill="white"></circle></g><g transform="translate(791.1899999999999,86.16)"><g class="draggable" id="movable_element_text_49" transform="translate(-57,-42)"><text is="custom" id="element_text_49" data-testid="element_text_49" font-weight="14px" font-size="13px" class="label" transform="translate(30, 10)" fill="black"><tspan x="0" dy="0" text-anchor="middle">physical</tspan><tspan x="0" dy="15" text-anchor="middle">network</tspan></text></g></g><g is="custom" class="draggable" id="movable_element_50" transform="translate(1019.16,86.16)"><rect x="-15" y="-15" rx="30" ry="30" width="30" height="30" fill-opacity="0"></rect><circle id="element_circle_50" stroke-width="1" r="5" stroke="black" fill="white"></circle></g><g transform="translate(1019.16,86.16)"><g class="draggable" id="movable_element_text_50" transform="translate(18,5)"><text is="custom" id="element_text_50" data-testid="element_text_50" font-weight="14px" font-size="13px" class="label" transform="" fill="black">broadcast</text></g></g><g is="custom" class="draggable" id="movable_element_51" transform="translate(885.0600000000001,136.41999999999996)"><rect x="-15" y="-15" rx="30" ry="30" width="30" height="30" fill-opacity="0"></rect><circle id="element_circle_51" stroke-width="1" r="5" stroke="black" fill="white"></circle><rect id="element_square_51" x="-5" y="-5" fill="white" stroke="black" width="10" height="10" stroke-width="2"></rect></g><g transform="translate(885.0600000000001,136.41999999999996)"><g class="draggable" id="movable_element_text_51" transform="translate(11,-5)"><text is="custom" id="element_text_51" data-testid="element_text_51" font-weight="14px" font-size="13px" class="label" transform="" fill="black">TOPOLOGY</text></g></g><g is="custom" class="draggable" id="movable_element_52" transform="translate(898.47,337.46)"><rect x="-15" y="-15" rx="30" ry="30" width="30" height="30" fill-opacity="0"></rect><circle id="element_circle_52" stroke-width="1" r="5" stroke="black" fill="white"></circle></g><g transform="translate(898.47,337.46)"><g class="draggable" id="movable_element_text_52" transform="translate(9,-1)"><text is="custom" id="element_text_52" data-testid="element_text_52" font-weight="14px" font-size="13px" class="label" transform="" fill="black">groundstation</text></g></g><g is="custom" class="draggable" id="movable_element_54" transform="translate(911.8800000000001,481.05999999999995)"><rect x="-15" y="-15" rx="30" ry="30" width="30" height="30" fill-opacity="0"></rect><circle id="element_circle_54" stroke-width="1" r="5" stroke="black" fill="white"></circle><rect id="element_square_54" x="-5" y="-5" fill="white" stroke="black" width="10" height="10" stroke-width="2"></rect></g><g transform="translate(911.8800000000001,481.05999999999995)"><g class="draggable" id="movable_element_text_54" transform="translate(9,-6)"><text is="custom" id="element_text_54" data-testid="element_text_54" font-weight="14px" font-size="13px" class="label" transform="" fill="black">SPECTRUM</text></g></g><g is="custom" class="draggable" id="movable_element_56" transform="translate(509.58,574.4)"><rect x="-15" y="-15" rx="30" ry="30" width="30" height="30" fill-opacity="0"></rect><circle id="element_circle_56" stroke-width="1" r="5" stroke="black" fill="white"></circle></g><g transform="translate(509.58,574.4)"><g class="draggable" id="movable_element_text_56" transform="translate(-84,-12)"><text is="custom" id="element_text_56" data-testid="element_text_56" font-weight="14px" font-size="13px" class="label" transform="translate(30, 10)" fill="black"><tspan x="0" dy="0" text-anchor="middle">fleet</tspan><tspan x="0" dy="15" text-anchor="middle">management</tspan></text></g></g><g is="custom" class="draggable" id="movable_element_58" transform="translate(536.4,315.91999999999996)"><rect x="-15" y="-15" rx="30" ry="30" width="30" height="30" fill-opacity="0"></rect><circle id="element_circle_58" stroke-width="1" r="5" stroke="black" fill="white"></circle></g><g transform="translate(536.4,315.91999999999996)"><g class="draggable" id="movable_element_text_58" transform="translate(-44,12)"><text is="custom" id="element_text_58" data-testid="element_text_58" font-weight="14px" font-size="13px" class="label" transform="translate(30, 10)" fill="black"><tspan x="0" dy="0" text-anchor="middle">Optical</tspan><tspan x="0" dy="15" text-anchor="middle">Sat2Sat</tspan><tspan x="0" dy="15" text-anchor="middle">Coms</tspan></text></g></g><g is="custom" class="draggable" id="movable_element_59" transform="translate(885.0600000000001,294.38)"><rect x="-15" y="-15" rx="30" ry="30" width="30" height="30" fill-opacity="0"></rect><circle id="element_circle_59" stroke-width="1" r="5" stroke="black" fill="white"></circle><rect id="element_square_59" x="-5" y="-5" fill="white" stroke="black" width="10" height="10" stroke-width="2"></rect></g><g transform="translate(885.0600000000001,294.38)"><g class="draggable" id="movable_element_text_59" transform="translate(-80,-3)"><text is="custom" id="element_text_59" data-testid="element_text_59" font-weight="14px" font-size="13px" class="label" transform="" fill="black">PROPULSION</text></g></g><g is="custom" class="draggable" id="movable_element_62" transform="translate(898.47,308.74)"><rect x="-15" y="-15" rx="30" ry="30" width="30" height="30" fill-opacity="0"></rect><circle id="element_circle_62" stroke-width="1" r="5" stroke="black" fill="white"></circle></g><g transform="translate(898.47,308.74)"><g class="draggable" id="movable_element_text_62" transform="translate(18,3)"><text is="custom" id="element_text_62" data-testid="element_text_62" font-weight="14px" font-size="13px" class="label" transform="" fill="black">Krypton</text></g></g><g is="custom" class="draggable" id="movable_element_63" transform="translate(791.1899999999999,308.74)"><rect x="-15" y="-15" rx="30" ry="30" width="30" height="30" fill-opacity="0"></rect><circle id="element_circle_63" stroke-width="1" r="5" stroke="black" fill="white"></circle></g><g transform="translate(791.1899999999999,308.74)"><g class="draggable" id="movable_element_text_63" transform="translate(-52,4)"><text is="custom" id="element_text_63" data-testid="element_text_63" font-weight="14px" font-size="13px" class="label" transform="" fill="black">Xenon</text></g></g><g is="custom" class="draggable" id="movable_element_65" transform="translate(965.52,251.29999999999998)"><rect x="-15" y="-15" rx="30" ry="30" width="30" height="30" fill-opacity="0"></rect><circle id="element_circle_65" stroke-width="1" r="5" stroke="black" fill="white"></circle></g><g transform="translate(965.52,251.29999999999998)"><g class="draggable" id="movable_element_text_65" transform="translate(11,3)"><text is="custom" id="element_text_65" data-testid="element_text_65" font-weight="14px" font-size="13px" class="label" transform="" fill="black">power</text></g></g><g is="custom" class="draggable" id="movable_element_66" transform="translate(804.6,236.93999999999997)"><rect x="-15" y="-15" rx="30" ry="30" width="30" height="30" fill-opacity="0"></rect><circle id="element_circle_66" stroke-width="1" r="5" stroke="black" fill="white"></circle><rect id="element_square_66" x="-5" y="-5" fill="white" stroke="black" width="10" height="10" stroke-width="2"></rect></g><g transform="translate(804.6,236.93999999999997)"><g class="draggable" id="movable_element_text_66" transform="translate(-61,-5)"><text is="custom" id="element_text_66" data-testid="element_text_66" font-weight="14px" font-size="13px" class="label" transform="" fill="black">COOLING</text></g></g><g is="custom" class="draggable" id="movable_element_71" transform="translate(563.22,150.77999999999997)"><rect x="-15" y="-15" rx="30" ry="30" width="30" height="30" fill-opacity="0"></rect><circle id="element_circle_71" stroke-width="1" r="5" stroke="black" fill="white"></circle></g><g transform="translate(563.22,150.77999999999997)"><g class="draggable" id="movable_element_text_71" transform="translate(-22,23)"><text is="custom" id="element_text_71" data-testid="element_text_71" font-weight="14px" font-size="13px" class="label" transform="" fill="black">mobile</text></g></g><g is="custom" class="draggable" id="movable_element_72" transform="translate(469.34999999999997,150.77999999999997)"><rect x="-15" y="-15" rx="30" ry="30" width="30" height="30" fill-opacity="0"></rect><circle id="element_circle_72" stroke-width="1" r="5" stroke="black" fill="white"></circle></g><g transform="translate(469.34999999999997,150.77999999999997)"><g class="draggable" id="movable_element_text_72" transform="translate(-56,3)"><text is="custom" id="element_text_72" data-testid="element_text_72" font-weight="14px" font-size="13px" class="label" transform="" fill="black">fibre</text></g></g><g is="custom" class="draggable" id="movable_element_73" transform="translate(978.93,150.77999999999997)"><rect x="-15" y="-15" rx="30" ry="30" width="30" height="30" fill-opacity="0"></rect><circle id="element_circle_73" stroke-width="1" r="5" stroke="black" fill="white"></circle><rect id="element_square_73" x="-5" y="-5" fill="white" stroke="black" width="10" height="10" stroke-width="2"></rect></g><g transform="translate(978.93,150.77999999999997)"><g class="draggable" id="movable_element_text_73" transform="translate(28,-41)"><text is="custom" id="element_text_73" data-testid="element_text_73" font-weight="14px" font-size="13px" class="label" transform="translate(30, 10)" fill="black"><tspan x="0" dy="0" text-anchor="middle">NTN</tspan><tspan x="0" dy="15" text-anchor="middle">(non</tspan><tspan x="0" dy="15" text-anchor="middle">terrestrial</tspan><tspan x="0" dy="15" text-anchor="middle">Network)</tspan></text></g></g><g is="custom" class="draggable" id="movable_element_76" transform="translate(737.5500000000001,560.04)"><rect x="-15" y="-15" rx="30" ry="30" width="30" height="30" fill-opacity="0"></rect><circle id="element_circle_76" stroke-width="1" r="5" stroke="black" fill="white"></circle><rect id="element_square_76" x="-5" y="-5" fill="white" stroke="black" width="10" height="10" stroke-width="2"></rect></g><g transform="translate(737.5500000000001,560.04)"><g class="draggable" id="movable_element_text_76" transform="translate(13,-27)"><text is="custom" id="element_text_76" data-testid="element_text_76" font-weight="14px" font-size="13px" class="label" transform="translate(30, 10)" fill="black"><tspan x="0" dy="0" text-anchor="middle">CONTROL</tspan><tspan x="0" dy="15" text-anchor="middle">SYSTEMS</tspan></text></g></g><g is="custom" class="draggable" id="movable_element_79" transform="translate(925.29,574.4)"><rect x="-15" y="-15" rx="30" ry="30" width="30" height="30" fill-opacity="0"></rect><circle id="element_circle_79" stroke-width="1" r="5" stroke="black" fill="white"></circle></g><g transform="translate(925.29,574.4)"><g class="draggable" id="movable_element_text_79" transform="translate(19,1)"><text is="custom" id="element_text_79" data-testid="element_text_79" font-weight="14px" font-size="13px" class="label" transform="" fill="black">orbit tracking</text></g></g><g is="custom" class="draggable" id="movable_element_80" transform="translate(616.86,574.4)"><rect x="-15" y="-15" rx="30" ry="30" width="30" height="30" fill-opacity="0"></rect><circle id="element_circle_80" stroke-width="1" r="5" stroke="black" fill="white"></circle></g><g transform="translate(616.86,574.4)"><g class="draggable" id="movable_element_text_80" transform="translate(-34,-43)"><text is="custom" id="element_text_80" data-testid="element_text_80" font-weight="14px" font-size="13px" class="label" transform="translate(30, 10)" fill="black"><tspan x="0" dy="0" text-anchor="middle">debris</tspan><tspan x="0" dy="15" text-anchor="middle">tracking</tspan></text></g></g><g is="custom" class="draggable" id="movable_element_82" transform="translate(683.91,251.29999999999998)"><rect x="-15" y="-15" rx="30" ry="30" width="30" height="30" fill-opacity="0"></rect><circle id="element_circle_82" stroke-width="1" r="5" stroke="black" fill="white"></circle></g><g transform="translate(683.91,251.29999999999998)"><g class="draggable" id="movable_element_text_82" transform="translate(-78,-17)"><text is="custom" id="element_text_82" data-testid="element_text_82" font-weight="14px" font-size="13px" class="label" transform="translate(30, 10)" fill="black"><tspan x="0" dy="0" text-anchor="middle">Thermal</tspan><tspan x="0" dy="15" text-anchor="middle">Electric</tspan></text></g></g><g is="custom" class="draggable" id="movable_element_83" transform="translate(844.83,251.29999999999998)"><rect x="-15" y="-15" rx="30" ry="30" width="30" height="30" fill-opacity="0"></rect><circle id="element_circle_83" stroke-width="1" r="5" stroke="black" fill="white"></circle></g><g transform="translate(844.83,251.29999999999998)"><g class="draggable" id="movable_element_text_83" transform="translate(17,4)"><text is="custom" id="element_text_83" data-testid="element_text_83" font-weight="14px" font-size="13px" class="label" transform="" fill="black">Radiative</text></g></g><g is="custom" class="draggable" id="movable_element_84" transform="translate(818.01,251.29999999999998)"><rect x="-15" y="-15" rx="30" ry="30" width="30" height="30" fill-opacity="0"></rect><circle id="element_circle_84" stroke-width="1" r="5" stroke="black" fill="white"></circle></g><g transform="translate(818.01,251.29999999999998)"><g class="draggable" id="movable_element_text_84" transform="translate(-48,18)"><text is="custom" id="element_text_84" data-testid="element_text_84" font-weight="14px" font-size="13px" class="label" transform="" fill="black">Cryogens</text></g></g><g is="custom" class="draggable" id="movable_element_87" transform="translate(818.01,639.02)"><rect x="-15" y="-15" rx="30" ry="30" width="30" height="30" fill-opacity="0"></rect><circle id="element_circle_87" stroke-width="1" r="5" stroke="black" fill="white"></circle><rect id="element_square_87" x="-5" y="-5" fill="white" stroke="black" width="10" height="10" stroke-width="2"></rect></g><g transform="translate(818.01,639.02)"><g class="draggable" id="movable_element_text_87" transform="translate(14,2)"><text is="custom" id="element_text_87" data-testid="element_text_87" font-weight="14px" font-size="13px" class="label" transform="" fill="black">AUTOMATION</text></g></g><g is="custom" class="draggable" id="movable_element_90" transform="translate(871.65,703.64)"><rect x="-15" y="-15" rx="30" ry="30" width="30" height="30" fill-opacity="0"></rect><circle id="element_circle_90" stroke-width="1" r="5" stroke="black" fill="white"></circle></g><g transform="translate(871.65,703.64)"><g class="draggable" id="movable_element_text_90" transform="translate(11,1)"><text is="custom" id="element_text_90" data-testid="element_text_90" font-weight="14px" font-size="13px" class="label" transform="" fill="black">supply chains</text></g></g><g is="custom" class="draggable" id="movable_element_93" transform="translate(469.34999999999997,150.77999999999997)"><rect x="-15" y="-15" rx="30" ry="30" width="30" height="30" fill-opacity="0"></rect><circle id="element_circle_93" stroke-width="1" r="5" stroke="black" fill="white"></circle></g><g transform="translate(469.34999999999997,150.77999999999997)"><g class="draggable" id="movable_element_text_93" transform="translate(-56,3)"><text is="custom" id="element_text_93" data-testid="element_text_93" font-weight="14px" font-size="13px" class="label" transform="" fill="black">fibre</text></g></g><g is="custom" class="draggable" id="movable_element_97" transform="translate(965.52,229.75999999999996)"><rect x="-15" y="-15" rx="30" ry="30" width="30" height="30" fill-opacity="0"></rect><circle id="element_circle_97" stroke-width="1" r="5" stroke="black" fill="white"></circle></g><g transform="translate(965.52,229.75999999999996)"><g class="draggable" id="movable_element_text_97" transform="translate(6,-7)"><text is="custom" id="element_text_97" data-testid="element_text_97" font-weight="14px" font-size="13px" class="label" transform="" fill="black">launchers</text></g></g><g is="custom" class="draggable" id="movable_element_98" transform="translate(630.27,86.16)"><rect x="-15" y="-15" rx="30" ry="30" width="30" height="30" fill-opacity="0"></rect><circle id="element_circle_98" stroke-width="1" r="5" stroke="black" fill="white"></circle></g><g transform="translate(630.27,86.16)"><g class="draggable" id="movable_element_text_98" transform="translate(-107,0)"><text is="custom" id="element_text_98" data-testid="element_text_98" font-weight="14px" font-size="13px" class="label" transform="" fill="black">mesh network</text></g></g><g is="custom" class="draggable" id="movable_element_101" transform="translate(898.47,437.98)"><rect x="-15" y="-15" rx="30" ry="30" width="30" height="30" fill-opacity="0"></rect><circle id="element_circle_101" stroke-width="1" r="5" stroke="black" fill="white"></circle></g><g transform="translate(898.47,437.98)"><g class="draggable" id="movable_element_text_101" transform="translate(-77,18)"><text is="custom" id="element_text_101" data-testid="element_text_101" font-weight="14px" font-size="13px" class="label" transform="" fill="black">beamforming</text></g></g><g is="custom" class="draggable" id="movable_element_102" transform="translate(871.65,416.44000000000005)"><rect x="-15" y="-15" rx="30" ry="30" width="30" height="30" fill-opacity="0"></rect><circle id="element_circle_102" stroke-width="1" r="5" stroke="black" fill="white"></circle></g><g transform="translate(871.65,416.44000000000005)"><g class="draggable" id="movable_element_text_102" transform="translate(-100,15)"><text is="custom" id="element_text_102" data-testid="element_text_102" font-weight="14px" font-size="13px" class="label" transform="" fill="black">beam_steering</text></g></g><g is="custom" class="draggable" id="movable_element_103" transform="translate(911.8800000000001,380.54)"><rect x="-15" y="-15" rx="30" ry="30" width="30" height="30" fill-opacity="0"></rect><circle id="element_circle_103" stroke-width="1" r="5" stroke="black" fill="white"></circle><rect id="element_square_103" x="-5" y="-5" fill="white" stroke="black" width="10" height="10" stroke-width="2"></rect></g><g transform="translate(911.8800000000001,380.54)"><g class="draggable" id="movable_element_text_103" transform="translate(4,-7)"><text is="custom" id="element_text_103" data-testid="element_text_103" font-weight="14px" font-size="13px" class="label" transform="" fill="black">ANTENNA</text></g></g><g is="custom" class="draggable" id="movable_element_106" transform="translate(938.6999999999999,495.41999999999996)"><rect x="-15" y="-15" rx="30" ry="30" width="30" height="30" fill-opacity="0"></rect><circle id="element_circle_106" stroke-width="1" r="5" stroke="black" fill="white"></circle></g><g transform="translate(938.6999999999999,495.41999999999996)"><g class="draggable" id="movable_element_text_106" transform="translate(16,1)"><text is="custom" id="element_text_106" data-testid="element_text_106" font-weight="14px" font-size="13px" class="label" transform="" fill="black">Ku (12GHz)</text></g></g><g is="custom" class="draggable" id="movable_element_107" transform="translate(911.8800000000001,495.41999999999996)"><rect x="-15" y="-15" rx="30" ry="30" width="30" height="30" fill-opacity="0"></rect><circle id="element_circle_107" stroke-width="1" r="5" stroke="black" fill="white"></circle></g><g transform="translate(911.8800000000001,495.41999999999996)"><g class="draggable" id="movable_element_text_107" transform="translate(-11,22)"><text is="custom" id="element_text_107" data-testid="element_text_107" font-weight="14px" font-size="13px" class="label" transform="" fill="black">Ka (27GHz)</text></g></g><g is="custom" class="draggable" id="movable_element_108" transform="translate(898.47,495.41999999999996)"><rect x="-15" y="-15" rx="30" ry="30" width="30" height="30" fill-opacity="0"></rect><circle id="element_circle_108" stroke-width="1" r="5" stroke="black" fill="white"></circle></g><g transform="translate(898.47,495.41999999999996)"><g class="draggable" id="movable_element_text_108" transform="translate(-81,3)"><text is="custom" id="element_text_108" data-testid="element_text_108" font-weight="14px" font-size="13px" class="label" transform="" fill="black">V (40GHz)</text></g></g><g is="custom" class="draggable" id="movable_element_109" transform="translate(455.94000000000005,682.1)"><rect x="-15" y="-15" rx="30" ry="30" width="30" height="30" fill-opacity="0"></rect><circle id="element_circle_109" stroke-width="1" r="5" stroke="black" fill="white"></circle></g><g transform="translate(455.94000000000005,682.1)"><g class="draggable" id="movable_element_text_109" transform="translate(-66,-14)"><text is="custom" id="element_text_109" data-testid="element_text_109" font-weight="14px" font-size="13px" class="label" transform="translate(30, 10)" fill="black"><tspan x="0" dy="0" text-anchor="middle">supply</tspan><tspan x="0" dy="15" text-anchor="middle">chain</tspan><tspan x="0" dy="15" text-anchor="middle">awareness</tspan></text></g></g><g is="custom" class="draggable" id="movable_element_179" transform="translate(522.99,646.2)"><rect x="-15" y="-15" rx="30" ry="30" width="30" height="30" fill-opacity="0"></rect><circle id="element_circle_179" stroke-width="1" r="5" stroke="black" fill="white"></circle><rect id="element_square_179" x="-5" y="-5" fill="white" stroke="black" width="10" height="10" stroke-width="2"></rect></g><g transform="translate(522.99,646.2)"><g class="draggable" id="movable_element_text_179" transform="translate(-80,-34)"><text is="custom" id="element_text_179" data-testid="element_text_179" font-weight="14px" font-size="13px" class="label" transform="translate(30, 10)" fill="black"><tspan x="0" dy="0" text-anchor="middle">SPACE</tspan><tspan x="0" dy="15" text-anchor="middle">REGULATION</tspan></text></g></g></g><g id="notes"></g><g id="annotations"></g></g></svg>