<?xml version="1.0" encoding="UTF-8"?><!DOCTYPE svg PUBLIC "-//W3C//DTD SVG 1.1//EN" "http://www.w3.org/Graphics/SVG/1.1/DTD/svg11.dtd"><svg font-family="Consolas, Lucida Console, monospace" font-size="13px" class="wardley" id="svgMap" width="1381" height="798" viewBox="-20 0 1361 738" version="1.1" xmlns="http://www.w3.org/2000/svg" xmlns:xlink="http://www.w3.org/1999/xlink"><defs><filter id="ctrlHighlight"><feDropShadow dx="0" dy="0" stdDeviation="3" flood-color="blue"></feDropShadow></filter><linearGradient gradientUnits="objectBoundingBox" id="wardleyGradient" spreadMethod="pad" x1="0%" x2="100%" y1="0%" y2="0%"><stop offset="0%" style="stop-color:rgb(196, 196, 196);stop-opacity:1"></stop><stop offset="0.3" style="stop-color:white;stop-opacity:1"></stop><stop offset="0.7" style="stop-color:white"></stop><stop offset="1" style="stop-color:rgb(196, 196, 196)"></stop></linearGradient><linearGradient spreadMethod="pad" id="accelGradient" x1="0%" y1="64%" x2="76%" y2="0%"><stop offset="0%" style="stop-color:white;stop-opacity:1"></stop><stop offset="100%" style="stop-color:#8c8995;stop-opacity:1"></stop></linearGradient><pattern id="diagonalHatch" patternUnits="userSpaceOnUse" width="4" height="4"><path d="M 3,-1 l 2,2 M 0,0 l 4,4 M -1,3 l 2,2 " stroke="grey" stroke-width="1" opacity=".5"></path></pattern><marker id="arrow" markerWidth="12" markerHeight="12" refX="15" refY="0" viewBox="0 -5 10 10" orient="0"><path d="M0,-5L10,0L0,5" fill="red"></path></marker><marker id="graphArrow" markerWidth="12" markerHeight="12" refX="9" refY="0" viewBox="0 -5 10 10" orient="0"><path d="M0,-5L10,0L0,5" fill="black"></path></marker><marker id="pipelineArrow" markerWidth="5" markerHeight="5" refX="9" refY="0" viewBox="0 -5 10 10" orient="0"><path d="M0,-5L10,0L0,5" fill="black"></path></marker></defs><g id="grid"><rect x="0" width="1341" y="0" height="718" id="fillArea" fill="url(#wardleyGradient)"></rect><g id="valueChain" transform="translate(0,718) rotate(270)" font-family="&quot;Helvetica Neue&quot;,Helvetica,Arial,sans-serif" font-size="13px"><line x1="0" y1="0" x2="718" y2="0" stroke="black" stroke-width="1" stroke-dasharray="2,2"></line><line x1="-2em" y1="234.67499999999998" x2="718" y2="234.67499999999998" stroke="#b8b8b8" stroke-dasharray="2,2"></line><line x1="-2em" y1="536.4" x2="718" y2="536.4" stroke="#b8b8b8" stroke-dasharray="2,2"></line><line x1="-2em" y1="938.6999999999999" x2="718" y2="938.6999999999999" stroke="#b8b8b8" stroke-dasharray="2,2"></line><text fill="black" x="716" y="-0.4em" text-anchor="end" font-weight="bold">Value Chain</text></g><g id="Evolution" font-family="&quot;Helvetica Neue&quot;,Helvetica,Arial,sans-serif" font-size="13px" font-style="italic" transform="translate(0,718)"><line x1="0" y1="0" x2="1339" y2="0" stroke="black" stroke-width="1" marker-end="url(#graphArrow)"></line><text fill="black" x="10" y="-703" text-anchor="start" font-style="normal" font-size="11px" font-weight="bold">Uncharted</text><text fill="black" x="1331" y="-703" text-anchor="end" font-style="normal" font-size="11px" font-weight="bold">Industrialised</text><text fill="black" x="0" y="1em" text-anchor="start">genesis / concept </text><text fill="black" x="0" y="2em" text-anchor="start"></text><text fill="black" x="241.67499999999998" y="1em" text-anchor="start"> custom / emerging </text><text fill="black" x="241.67499999999998" y="2em" text-anchor="start"></text><text fill="black" x="543.4" y="1em" text-anchor="start"> product/ converging </text><text fill="black" x="543.4" y="2em" text-anchor="start"></text><text fill="black" x="945.6999999999999" y="1em" text-anchor="start"> commodity / accepted</text><text fill="black" x="945.6999999999999" y="2em" text-anchor="start"></text><text fill="black" x="1341" y="1.8em" text-anchor="end" font-weight="bold" font-style="normal">Evolution</text></g></g><g id="map"><g id="attitudes"></g><g id="methods"></g><g id="fluids"></g><g id="links"><g id="link_25_28"><line x1="818.01" y1="14.360000000000014" x2="710.73" y2="50.25999999999996" stroke="grey" stroke-width="1"></line></g><g id="link_25_24"><line x1="818.01" y1="14.360000000000014" x2="1032.57" y2="64.61999999999998" stroke="grey" stroke-width="1"></line></g><g id="link_24_37"><line x1="1032.57" y1="64.61999999999998" x2="965.52" y2="122.06000000000003" stroke="grey" stroke-width="1"></line></g><g id="link_26_37"><line x1="1005.75" y1="14.360000000000014" x2="965.52" y2="122.06000000000003" stroke="grey" stroke-width="1"></line></g><g id="link_26_33"><line x1="1005.75" y1="14.360000000000014" x2="911.8800000000001" y2="100.52000000000001" stroke="grey" stroke-width="1"></line></g><g id="link_37_39"><line x1="965.52" y1="122.06000000000003" x2="885.0600000000001" y2="193.86" stroke="grey" stroke-width="1"></line></g><g id="link_39_43"><line x1="885.0600000000001" y1="193.86" x2="898.47" y2="244.11999999999998" stroke="grey" stroke-width="1"></line></g><g id="link_49_83"><line x1="509.58" y1="244.11999999999998" x2="563.22" y2="682.1" stroke="grey" stroke-width="1"></line></g><g id="link_49_33"><line x1="509.58" y1="244.11999999999998" x2="911.8800000000001" y2="100.52000000000001" stroke="grey" stroke-width="1"></line></g><g id="link_49_50"><line x1="509.58" y1="244.11999999999998" x2="429.12" y2="574.4" stroke="grey" stroke-width="1"></line></g><g id="link_79_83"><line x1="509.58" y1="631.84" x2="563.22" y2="682.1" stroke="grey" stroke-width="1"></line></g><g id="link_70_77"><line x1="871.65" y1="524.14" x2="724.1400000000001" y2="617.48" stroke="grey" stroke-width="1"></line></g><g id="link_82_50"><line x1="1019.16" y1="610.3" x2="429.12" y2="574.4" stroke="grey" stroke-width="1"></line></g><g id="link_50_79"><line x1="429.12" y1="574.4" x2="509.58" y2="631.84" stroke="grey" stroke-width="1"></line></g><g id="link_29_49"><line x1="576.63" y1="64.61999999999998" x2="509.58" y2="244.11999999999998" stroke="grey" stroke-width="1"></line></g><g id="link_37_52"><line x1="965.52" y1="122.06000000000003" x2="670.5" y2="258.48" stroke="grey" stroke-width="1"></line></g><g id="link_61_67"><line x1="992.34" y1="351.82" x2="643.68" y2="445.16" stroke="grey" stroke-width="1"></line></g><g id="link_64_70"><line x1="885.0600000000001" y1="430.8" x2="871.65" y2="524.14" stroke="grey" stroke-width="1"></line></g><g id="link_67_79"><line x1="643.68" y1="445.16" x2="509.58" y2="631.84" stroke="grey" stroke-width="1"></line></g><g id="link_74_78"><line x1="1019.16" y1="538.5" x2="938.6999999999999" y2="631.84" stroke="grey" stroke-width="1"></line></g><g id="link_68_78"><line x1="992.34" y1="445.16" x2="938.6999999999999" y2="631.84" stroke="grey" stroke-width="1"></line></g><g id="link_74_68"><line x1="1019.16" y1="538.5" x2="992.34" y2="445.16" stroke="grey" stroke-width="1"></line></g><g id="link_67_73"><line x1="643.68" y1="445.16" x2="1139.85" y2="538.5" stroke="grey" stroke-width="1"></line></g><g id="link_65_71"><line x1="791.1899999999999" y1="445.16" x2="697.32" y2="538.5" stroke="grey" stroke-width="1"></line></g><g id="link_65_61"><line x1="791.1899999999999" y1="445.16" x2="992.34" y2="351.82" stroke="grey" stroke-width="1"></line></g><g id="link_71_50"><line x1="697.32" y1="538.5" x2="429.12" y2="574.4" stroke="grey" stroke-width="1"></line></g><g id="link_71_79"><line x1="697.32" y1="538.5" x2="509.58" y2="631.84" stroke="grey" stroke-width="1"></line></g><g id="link_70_82"><line x1="871.65" y1="524.14" x2="1019.16" y2="610.3" stroke="grey" stroke-width="1"></line></g><g id="link_60_68"><line x1="643.68" y1="351.82" x2="992.34" y2="445.16" stroke="grey" stroke-width="1"></line></g><g id="link_66_79"><line x1="522.99" y1="445.16" x2="509.58" y2="631.84" stroke="grey" stroke-width="1"></line></g><g id="link_55_66"><line x1="603.45" y1="272.84" x2="522.99" y2="445.16" stroke="grey" stroke-width="1"></line></g><g id="link_61_68"><line x1="992.34" y1="351.82" x2="992.34" y2="445.16" stroke="grey" stroke-width="1"></line><line x1="992.34" y1="351.82" x2="992.34" y2="445.16" stroke-width="10" stroke="#99c5ee9e"></line></g><g id="link_55_67"><line x1="603.45" y1="272.84" x2="643.68" y2="445.16" stroke="grey" stroke-width="1"></line></g><g id="link_164_65"><line x1="764.3699999999999" y1="272.84" x2="791.1899999999999" y2="445.16" stroke="grey" stroke-width="1"></line></g><g id="link_164_68"><line x1="764.3699999999999" y1="272.84" x2="992.34" y2="445.16" stroke="grey" stroke-width="1"></line></g><g id="link_66_168"><line x1="522.99" y1="445.16" x2="590.04" y2="538.5" stroke="grey" stroke-width="1"></line></g></g><g id="evolvingEndLinks"></g><g id="bothEvolving"></g><g id="anchorLinks"></g><g id="anchorNonEvolvedLinks"></g><g id="evolvingToNoneEvolvingEndLinks"></g><g id="evolvedLinks">;</g><g id="anchors"></g><g id="pipelines"><g id="pipeline_box_88" transform="translate(590.04,260.48)"><line x1="0" y1="0" x2="187.74" y2="0" stroke-width="1" stroke="black"></line><line x1="187.74" y1="0" x2="187.74" y2="22" stroke-width="1" stroke="black"></line><line x1="187.74" y1="22" x2="0" y2="22" stroke-width="1" stroke="black"></line><line x1="0" y1="22" x2="0" y2="0" stroke-width="1" stroke="black"></line></g><g is="custom" class="draggable" id="movable_pipeline_x1_88" transform="translate(590.04,260.48)"><rect x="-15" y="-15" rx="30" ry="30" width="30" height="30" fill-opacity="0"></rect><circle id="pipeline_circle_x1_88" cx="10" cy="12" stroke-width="1" r="5" stroke="black" fill="white"></circle></g><g is="custom" class="draggable" id="movable_pipeline_x2_88" transform="translate(777.78,260.48)"><rect x="-15" y="-15" rx="30" ry="30" width="30" height="30" fill-opacity="0"></rect><circle id="pipeline_circle_x2_88" cx="-10" cy="12" stroke-width="1" r="5" stroke="black" fill="white"></circle></g><g id="pipeline_box_89" transform="translate(630.27,339.46)"><line x1="0" y1="0" x2="375.48" y2="0" stroke-width="1" stroke="black"></line><line x1="375.48" y1="0" x2="375.48" y2="22" stroke-width="1" stroke="black"></line><line x1="375.48" y1="22" x2="0" y2="22" stroke-width="1" stroke="black"></line><line x1="0" y1="22" x2="0" y2="0" stroke-width="1" stroke="black"></line></g><g is="custom" class="draggable" id="movable_pipeline_x1_89" transform="translate(630.27,339.46)"><rect x="-15" y="-15" rx="30" ry="30" width="30" height="30" fill-opacity="0"></rect><circle id="pipeline_circle_x1_89" cx="10" cy="12" stroke-width="1" r="5" stroke="black" fill="white"></circle></g><g is="custom" class="draggable" id="movable_pipeline_x2_89" transform="translate(1005.75,339.46)"><rect x="-15" y="-15" rx="30" ry="30" width="30" height="30" fill-opacity="0"></rect><circle id="pipeline_circle_x2_89" cx="-10" cy="12" stroke-width="1" r="5" stroke="black" fill="white"></circle></g><g id="pipeline_box_90" transform="translate(496.17,432.8)"><line x1="0" y1="0" x2="509.58" y2="0" stroke-width="1" stroke="black"></line><line x1="509.58" y1="0" x2="509.58" y2="22" stroke-width="1" stroke="black"></line><line x1="509.58" y1="22" x2="0" y2="22" stroke-width="1" stroke="black"></line><line x1="0" y1="22" x2="0" y2="0" stroke-width="1" stroke="black"></line></g><g is="custom" class="draggable" id="movable_pipeline_x1_90" transform="translate(496.17,432.8)"><rect x="-15" y="-15" rx="30" ry="30" width="30" height="30" fill-opacity="0"></rect><circle id="pipeline_circle_x1_90" cx="10" cy="12" stroke-width="1" r="5" stroke="black" fill="white"></circle></g><g is="custom" class="draggable" id="movable_pipeline_x2_90" transform="translate(1005.75,432.8)"><rect x="-15" y="-15" rx="30" ry="30" width="30" height="30" fill-opacity="0"></rect><circle id="pipeline_circle_x2_90" cx="-10" cy="12" stroke-width="1" r="5" stroke="black" fill="white"></circle></g><g id="pipeline_box_91" transform="translate(576.63,526.14)"><line x1="0" y1="0" x2="576.63" y2="0" stroke-width="1" stroke="black"></line><line x1="576.63" y1="0" x2="576.63" y2="22" stroke-width="1" stroke="black"></line><line x1="576.63" y1="22" x2="0" y2="22" stroke-width="1" stroke="black"></line><line x1="0" y1="22" x2="0" y2="0" stroke-width="1" stroke="black"></line></g><g is="custom" class="draggable" id="movable_pipeline_x1_91" transform="translate(576.63,526.14)"><rect x="-15" y="-15" rx="30" ry="30" width="30" height="30" fill-opacity="0"></rect><circle id="pipeline_circle_x1_91" cx="10" cy="12" stroke-width="1" r="5" stroke="black" fill="white"></circle></g><g is="custom" class="draggable" id="movable_pipeline_x2_91" transform="translate(1153.26,526.14)"><rect x="-15" y="-15" rx="30" ry="30" width="30" height="30" fill-opacity="0"></rect><circle id="pipeline_circle_x2_91" cx="-10" cy="12" stroke-width="1" r="5" stroke="black" fill="white"></circle></g><g id="pipeline_box_92" transform="translate(791.1899999999999,246.11999999999998)"><line x1="0" y1="0" x2="187.74" y2="0" stroke-width="1" stroke="black"></line><line x1="187.74" y1="0" x2="187.74" y2="22" stroke-width="1" stroke="black"></line><line x1="187.74" y1="22" x2="0" y2="22" stroke-width="1" stroke="black"></line><line x1="0" y1="22" x2="0" y2="0" stroke-width="1" stroke="black"></line></g><g is="custom" class="draggable" id="movable_pipeline_x1_92" transform="translate(791.1899999999999,246.11999999999998)"><rect x="-15" y="-15" rx="30" ry="30" width="30" height="30" fill-opacity="0"></rect><circle id="pipeline_circle_x1_92" cx="10" cy="12" stroke-width="1" r="5" stroke="black" fill="white"></circle></g><g is="custom" class="draggable" id="movable_pipeline_x2_92" transform="translate(978.93,246.11999999999998)"><rect x="-15" y="-15" rx="30" ry="30" width="30" height="30" fill-opacity="0"></rect><circle id="pipeline_circle_x2_92" cx="-10" cy="12" stroke-width="1" r="5" stroke="black" fill="white"></circle></g><g id="pipeline_box_93" transform="translate(496.17,619.48)"><line x1="0" y1="0" x2="455.9399999999999" y2="0" stroke-width="1" stroke="black"></line><line x1="455.9399999999999" y1="0" x2="455.9399999999999" y2="22" stroke-width="1" stroke="black"></line><line x1="455.9399999999999" y1="22" x2="0" y2="22" stroke-width="1" stroke="black"></line><line x1="0" y1="22" x2="0" y2="0" stroke-width="1" stroke="black"></line></g><g is="custom" class="draggable" id="movable_pipeline_x1_93" transform="translate(496.17,619.48)"><rect x="-15" y="-15" rx="30" ry="30" width="30" height="30" fill-opacity="0"></rect><circle id="pipeline_circle_x1_93" cx="10" cy="12" stroke-width="1" r="5" stroke="black" fill="white"></circle></g><g is="custom" class="draggable" id="movable_pipeline_x2_93" transform="translate(952.1099999999999,619.48)"><rect x="-15" y="-15" rx="30" ry="30" width="30" height="30" fill-opacity="0"></rect><circle id="pipeline_circle_x2_93" cx="-10" cy="12" stroke-width="1" r="5" stroke="black" fill="white"></circle></g><g id="pipeline_box_94" transform="translate(603.45,124.06000000000003)"><line x1="0" y1="0" x2="415.7099999999999" y2="0" stroke-width="1" stroke="black"></line><line x1="415.7099999999999" y1="0" x2="415.7099999999999" y2="22" stroke-width="1" stroke="black"></line><line x1="415.7099999999999" y1="22" x2="0" y2="22" stroke-width="1" stroke="black"></line><line x1="0" y1="22" x2="0" y2="0" stroke-width="1" stroke="black"></line></g><g is="custom" class="draggable" id="movable_pipeline_x1_94" transform="translate(603.45,124.06000000000003)"><rect x="-15" y="-15" rx="30" ry="30" width="30" height="30" fill-opacity="0"></rect><circle id="pipeline_circle_x1_94" cx="10" cy="12" stroke-width="1" r="5" stroke="black" fill="white"></circle></g><g is="custom" class="draggable" id="movable_pipeline_x2_94" transform="translate(1019.16,124.06000000000003)"><rect x="-15" y="-15" rx="30" ry="30" width="30" height="30" fill-opacity="0"></rect><circle id="pipeline_circle_x2_94" cx="-10" cy="12" stroke-width="1" r="5" stroke="black" fill="white"></circle></g><g id="pipeline_box_96" transform="translate(563.22,52.25999999999996)"><line x1="0" y1="0" x2="375.4799999999999" y2="0" stroke-width="1" stroke="black"></line><line x1="375.4799999999999" y1="0" x2="375.4799999999999" y2="22" stroke-width="1" stroke="black"></line><line x1="375.4799999999999" y1="22" x2="0" y2="22" stroke-width="1" stroke="black"></line><line x1="0" y1="22" x2="0" y2="0" stroke-width="1" stroke="black"></line></g><g is="custom" class="draggable" id="movable_pipeline_x1_96" transform="translate(563.22,52.25999999999996)"><rect x="-15" y="-15" rx="30" ry="30" width="30" height="30" fill-opacity="0"></rect><circle id="pipeline_circle_x1_96" cx="10" cy="12" stroke-width="1" r="5" stroke="black" fill="white"></circle></g><g is="custom" class="draggable" id="movable_pipeline_x2_96" transform="translate(938.6999999999999,52.25999999999996)"><rect x="-15" y="-15" rx="30" ry="30" width="30" height="30" fill-opacity="0"></rect><circle id="pipeline_circle_x2_96" cx="-10" cy="12" stroke-width="1" r="5" stroke="black" fill="white"></circle></g></g><g id="elements"><g is="custom" class="draggable" id="movable_element_24" transform="translate(1032.57,64.61999999999998)"><rect x="-15" y="-15" rx="30" ry="30" width="30" height="30" fill-opacity="0"></rect><circle id="element_circle_24" stroke-width="1" r="5" stroke="black" fill="white"></circle></g><g transform="translate(1032.57,64.61999999999998)"><g class="draggable" id="movable_element_text_24" transform="translate(15,2)"><text is="custom" id="element_text_24" data-testid="element_text_24" font-weight="14px" font-size="13px" class="label" transform="" fill="black">public</text></g></g><g is="custom" class="draggable" id="movable_element_25" transform="translate(818.01,14.360000000000014)"><rect x="-15" y="-15" rx="30" ry="30" width="30" height="30" fill-opacity="0"></rect><circle id="element_circle_25" stroke-width="1" r="5" stroke="black" fill="white"></circle></g><g transform="translate(818.01,14.360000000000014)"><g class="draggable" id="movable_element_text_25" transform="translate(-8,-12)"><text is="custom" id="element_text_25" data-testid="element_text_25" font-weight="14px" font-size="13px" class="label" transform="" fill="black">gov</text></g></g><g is="custom" class="draggable" id="movable_element_26" transform="translate(1005.75,14.360000000000014)"><rect x="-15" y="-15" rx="30" ry="30" width="30" height="30" fill-opacity="0"></rect><circle id="element_circle_26" stroke-width="1" r="5" stroke="black" fill="white"></circle></g><g transform="translate(1005.75,14.360000000000014)"><g class="draggable" id="movable_element_text_26" transform="translate(-19,-10)"><text is="custom" id="element_text_26" data-testid="element_text_26" font-weight="14px" font-size="13px" class="label" transform="" fill="black">Business</text></g></g><g is="custom" class="draggable" id="movable_element_28" transform="translate(710.73,50.25999999999996)"><rect x="-15" y="-15" rx="30" ry="30" width="30" height="30" fill-opacity="0"></rect><circle id="element_circle_28" stroke-width="1" r="5" stroke="black" fill="white"></circle><rect id="element_square_28" x="-5" y="-5" fill="white" stroke="black" width="10" height="10" stroke-width="2"></rect></g><g transform="translate(710.73,50.25999999999996)"><g class="draggable" id="movable_element_text_28" transform="translate(-78,-11)"><text is="custom" id="element_text_28" data-testid="element_text_28" font-weight="14px" font-size="13px" class="label" transform="" fill="black">SOVEREIGNTY</text></g></g><g is="custom" class="draggable" id="movable_element_29" transform="translate(576.63,64.61999999999998)"><rect x="-15" y="-15" rx="30" ry="30" width="30" height="30" fill-opacity="0"></rect><circle id="element_circle_29" stroke-width="1" r="5" stroke="black" fill="white"></circle></g><g transform="translate(576.63,64.61999999999998)"><g class="draggable" id="movable_element_text_29" transform="translate(-75,3)"><text is="custom" id="element_text_29" data-testid="element_text_29" font-weight="14px" font-size="13px" class="label" transform="" fill="black">economic</text></g></g><g is="custom" class="draggable" id="movable_element_30" transform="translate(683.91,64.61999999999998)"><rect x="-15" y="-15" rx="30" ry="30" width="30" height="30" fill-opacity="0"></rect><circle id="element_circle_30" stroke-width="1" r="5" stroke="black" fill="white"></circle></g><g transform="translate(683.91,64.61999999999998)"><g class="draggable" id="movable_element_text_30" transform="translate(-39,24)"><text is="custom" id="element_text_30" data-testid="element_text_30" font-weight="14px" font-size="13px" class="label" transform="" fill="black">political</text></g></g><g is="custom" class="draggable" id="movable_element_31" transform="translate(925.29,64.61999999999998)"><rect x="-15" y="-15" rx="30" ry="30" width="30" height="30" fill-opacity="0"></rect><circle id="element_circle_31" stroke-width="1" r="5" stroke="black" fill="white"></circle></g><g transform="translate(925.29,64.61999999999998)"><g class="draggable" id="movable_element_text_31" transform="translate(-87,2)"><text is="custom" id="element_text_31" data-testid="element_text_31" font-weight="14px" font-size="13px" class="label" transform="" fill="black">territorial</text></g></g><g is="custom" class="draggable" id="movable_element_33" transform="translate(911.8800000000001,100.52000000000001)"><rect x="-15" y="-15" rx="30" ry="30" width="30" height="30" fill-opacity="0"></rect><circle id="element_circle_33" stroke-width="1" r="5" stroke="black" fill="white"></circle></g><g transform="translate(911.8800000000001,100.52000000000001)"><g class="draggable" id="movable_element_text_33" transform="translate(-74,0)"><text is="custom" id="element_text_33" data-testid="element_text_33" font-weight="14px" font-size="13px" class="label" transform="" fill="black">exclusion</text></g></g><g is="custom" class="draggable" id="movable_element_37" transform="translate(965.52,122.06000000000003)"><rect x="-15" y="-15" rx="30" ry="30" width="30" height="30" fill-opacity="0"></rect><circle id="element_circle_37" stroke-width="1" r="5" stroke="black" fill="white"></circle><rect id="element_square_37" x="-5" y="-5" fill="white" stroke="black" width="10" height="10" stroke-width="2"></rect></g><g transform="translate(965.52,122.06000000000003)"><g class="draggable" id="movable_element_text_37" transform="translate(-29,-16)"><text is="custom" id="element_text_37" data-testid="element_text_37" font-weight="14px" font-size="13px" class="label" transform="" fill="black">CONTENT</text></g></g><g is="custom" class="draggable" id="movable_element_39" transform="translate(885.0600000000001,193.86)"><rect x="-15" y="-15" rx="30" ry="30" width="30" height="30" fill-opacity="0"></rect><circle id="element_circle_39" stroke-width="1" r="5" stroke="black" fill="white"></circle></g><g transform="translate(885.0600000000001,193.86)"><g class="draggable" id="movable_element_text_39" transform="translate(11,-8)"><text is="custom" id="element_text_39" data-testid="element_text_39" font-weight="14px" font-size="13px" class="label" transform="translate(30, 10)" fill="black"><tspan x="0" dy="0" text-anchor="middle">content</tspan><tspan x="0" dy="15" text-anchor="middle">providers</tspan></text></g></g><g is="custom" class="draggable" id="movable_element_41" transform="translate(804.6,258.48)"><rect x="-15" y="-15" rx="30" ry="30" width="30" height="30" fill-opacity="0"></rect><circle id="element_circle_41" stroke-width="1" r="5" stroke="black" fill="white"></circle></g><g transform="translate(804.6,258.48)"><g class="draggable" id="movable_element_text_41" transform="translate(6,2)"><text is="custom" id="element_text_41" data-testid="element_text_41" font-weight="14px" font-size="13px" class="label" transform="" fill="black">location</text></g></g><g is="custom" class="draggable" id="movable_element_42" transform="translate(965.52,258.48)"><rect x="-15" y="-15" rx="30" ry="30" width="30" height="30" fill-opacity="0"></rect><circle id="element_circle_42" stroke-width="1" r="5" stroke="black" fill="white"></circle></g><g transform="translate(965.52,258.48)"><g class="draggable" id="movable_element_text_42" transform="translate(17,3)"><text is="custom" id="element_text_42" data-testid="element_text_42" font-weight="14px" font-size="13px" class="label" transform="" fill="black">identity</text></g></g><g is="custom" class="draggable" id="movable_element_43" transform="translate(898.47,244.11999999999998)"><rect x="-15" y="-15" rx="30" ry="30" width="30" height="30" fill-opacity="0"></rect><circle id="element_circle_43" stroke-width="1" r="5" stroke="black" fill="white"></circle><rect id="element_square_43" x="-5" y="-5" fill="white" stroke="black" width="10" height="10" stroke-width="2"></rect></g><g transform="translate(898.47,244.11999999999998)"><g class="draggable" id="movable_element_text_43" transform="translate(8,-4)"><text is="custom" id="element_text_43" data-testid="element_text_43" font-weight="14px" font-size="13px" class="label" transform="" fill="black">USER DATA</text></g></g><g is="custom" class="draggable" id="movable_element_45" transform="translate(616.86,136.41999999999996)"><rect x="-15" y="-15" rx="30" ry="30" width="30" height="30" fill-opacity="0"></rect><circle id="element_circle_45" stroke-width="1" r="5" stroke="black" fill="white"></circle></g><g transform="translate(616.86,136.41999999999996)"><g class="draggable" id="movable_element_text_45" transform="translate(-27,12)"><text is="custom" id="element_text_45" data-testid="element_text_45" font-weight="14px" font-size="13px" class="label" transform="translate(30, 10)" fill="black"><tspan x="0" dy="0" text-anchor="middle">location</tspan><tspan x="0" dy="15" text-anchor="middle">based</tspan><tspan x="0" dy="15" text-anchor="middle">content</tspan></text></g></g><g is="custom" class="draggable" id="movable_element_46" transform="translate(1005.75,136.41999999999996)"><rect x="-15" y="-15" rx="30" ry="30" width="30" height="30" fill-opacity="0"></rect><circle id="element_circle_46" stroke-width="1" r="5" stroke="black" fill="white"></circle></g><g transform="translate(1005.75,136.41999999999996)"><g class="draggable" id="movable_element_text_46" transform="translate(7,-11)"><text is="custom" id="element_text_46" data-testid="element_text_46" font-weight="14px" font-size="13px" class="label" transform="translate(30, 10)" fill="black"><tspan x="0" dy="0" text-anchor="middle">cloud</tspan><tspan x="0" dy="15" text-anchor="middle">based</tspan><tspan x="0" dy="15" text-anchor="middle">apps</tspan></text></g></g><g is="custom" class="draggable" id="movable_element_47" transform="translate(871.65,136.41999999999996)"><rect x="-15" y="-15" rx="30" ry="30" width="30" height="30" fill-opacity="0"></rect><circle id="element_circle_47" stroke-width="1" r="5" stroke="black" fill="white"></circle></g><g transform="translate(871.65,136.41999999999996)"><g class="draggable" id="movable_element_text_47" transform="translate(-36,20)"><text is="custom" id="element_text_47" data-testid="element_text_47" font-weight="14px" font-size="13px" class="label" transform="" fill="black">local apps</text></g></g><g is="custom" class="draggable" id="movable_element_49" transform="translate(509.58,244.11999999999998)"><rect x="-15" y="-15" rx="30" ry="30" width="30" height="30" fill-opacity="0"></rect><circle id="element_circle_49" stroke-width="1" r="5" stroke="black" fill="white"></circle></g><g transform="translate(509.58,244.11999999999998)"><g class="draggable" id="movable_element_text_49" transform="translate(-90,4)"><text is="custom" id="element_text_49" data-testid="element_text_49" font-weight="14px" font-size="13px" class="label" transform="" fill="black">legislation</text></g></g><g is="custom" class="draggable" id="movable_element_50" transform="translate(429.12,574.4)"><rect x="-15" y="-15" rx="30" ry="30" width="30" height="30" fill-opacity="0"></rect><circle id="element_circle_50" stroke-width="1" r="5" stroke="black" fill="white"></circle></g><g transform="translate(429.12,574.4)"><g class="draggable" id="movable_element_text_50" transform="translate(-80,-10)"><text is="custom" id="element_text_50" data-testid="element_text_50" font-weight="14px" font-size="13px" class="label" transform="translate(30, 10)" fill="black"><tspan x="0" dy="0" text-anchor="middle">regulatory</tspan><tspan x="0" dy="15" text-anchor="middle">access</tspan></text></g></g><g is="custom" class="draggable" id="movable_element_52" transform="translate(670.5,258.48)"><rect x="-15" y="-15" rx="30" ry="30" width="30" height="30" fill-opacity="0"></rect><circle id="element_circle_52" stroke-width="1" r="5" stroke="black" fill="white"></circle><rect id="element_square_52" x="-5" y="-5" fill="white" stroke="black" width="10" height="10" stroke-width="2"></rect></g><g transform="translate(670.5,258.48)"><g class="draggable" id="movable_element_text_52" transform="translate(-82,-12)"><text is="custom" id="element_text_52" data-testid="element_text_52" font-weight="14px" font-size="13px" class="label" transform="" fill="black">ACCESS NETWORK</text></g></g><g is="custom" class="draggable" id="movable_element_55" transform="translate(603.45,272.84)"><rect x="-15" y="-15" rx="30" ry="30" width="30" height="30" fill-opacity="0"></rect><circle id="element_circle_55" stroke-width="1" r="5" stroke="black" fill="white"></circle></g><g transform="translate(603.45,272.84)"><g class="draggable" id="movable_element_text_55" transform="translate(-60,3)"><text is="custom" id="element_text_55" data-testid="element_text_55" font-weight="14px" font-size="13px" class="label" transform="" fill="black">Indoor</text></g></g><g is="custom" class="draggable" id="movable_element_59" transform="translate(804.6,337.46)"><rect x="-15" y="-15" rx="30" ry="30" width="30" height="30" fill-opacity="0"></rect><circle id="element_circle_59" stroke-width="1" r="5" stroke="black" fill="white"></circle><rect id="element_square_59" x="-5" y="-5" fill="white" stroke="black" width="10" height="10" stroke-width="2"></rect></g><g transform="translate(804.6,337.46)"><g class="draggable" id="movable_element_text_59" transform="translate(-14,-37)"><text is="custom" id="element_text_59" data-testid="element_text_59" font-weight="14px" font-size="13px" class="label" transform="translate(30, 10)" fill="black"><tspan x="0" dy="0" text-anchor="middle">POPULATION</tspan><tspan x="0" dy="15" text-anchor="middle">DENSITY</tspan></text></g></g><g is="custom" class="draggable" id="movable_element_60" transform="translate(643.68,351.82)"><rect x="-15" y="-15" rx="30" ry="30" width="30" height="30" fill-opacity="0"></rect><circle id="element_circle_60" stroke-width="1" r="5" stroke="black" fill="white"></circle></g><g transform="translate(643.68,351.82)"><g class="draggable" id="movable_element_text_60" transform="translate(13,0)"><text is="custom" id="element_text_60" data-testid="element_text_60" font-weight="14px" font-size="13px" class="label" transform="" fill="black">rural</text></g></g><g is="custom" class="draggable" id="movable_element_61" transform="translate(992.34,351.82)"><rect x="-15" y="-15" rx="30" ry="30" width="30" height="30" fill-opacity="0"></rect><circle id="element_circle_61" stroke-width="1" r="5" stroke="black" fill="white"></circle></g><g transform="translate(992.34,351.82)"><g class="draggable" id="movable_element_text_61" transform="translate(17,3)"><text is="custom" id="element_text_61" data-testid="element_text_61" font-weight="14px" font-size="13px" class="label" transform="" fill="black">urban</text></g></g><g is="custom" class="draggable" id="movable_element_64" transform="translate(885.0600000000001,430.8)"><rect x="-15" y="-15" rx="30" ry="30" width="30" height="30" fill-opacity="0"></rect><circle id="element_circle_64" stroke-width="1" r="5" stroke="black" fill="white"></circle><rect id="element_square_64" x="-5" y="-5" fill="white" stroke="black" width="10" height="10" stroke-width="2"></rect></g><g transform="translate(885.0600000000001,430.8)"><g class="draggable" id="movable_element_text_64" transform="translate(-79,-6)"><text is="custom" id="element_text_64" data-testid="element_text_64" font-weight="14px" font-size="13px" class="label" transform="" fill="black">DEPLOYMENT</text></g></g><g is="custom" class="draggable" id="movable_element_65" transform="translate(791.1899999999999,445.16)"><rect x="-15" y="-15" rx="30" ry="30" width="30" height="30" fill-opacity="0"></rect><circle id="element_circle_65" stroke-width="1" r="5" stroke="black" fill="white"></circle></g><g transform="translate(791.1899999999999,445.16)"><g class="draggable" id="movable_element_text_65" transform="translate(-53,1)"><text is="custom" id="element_text_65" data-testid="element_text_65" font-weight="14px" font-size="13px" class="label" transform="" fill="black">mobile</text></g></g><g is="custom" class="draggable" id="movable_element_66" transform="translate(522.99,445.16)"><rect x="-15" y="-15" rx="30" ry="30" width="30" height="30" fill-opacity="0"></rect><circle id="element_circle_66" stroke-width="1" r="5" stroke="black" fill="white"></circle></g><g transform="translate(522.99,445.16)"><g class="draggable" id="movable_element_text_66" transform="translate(-24,14)"><text is="custom" id="element_text_66" data-testid="element_text_66" font-weight="14px" font-size="13px" class="label" transform="translate(30, 10)" fill="black"><tspan x="0" dy="0" text-anchor="middle">Private</tspan><tspan x="0" dy="15" text-anchor="middle">networks</tspan></text></g></g><g is="custom" class="draggable" id="movable_element_67" transform="translate(643.68,445.16)"><rect x="-15" y="-15" rx="30" ry="30" width="30" height="30" fill-opacity="0"></rect><circle id="element_circle_67" stroke-width="1" r="5" stroke="black" fill="white"></circle></g><g transform="translate(643.68,445.16)"><g class="draggable" id="movable_element_text_67" transform="translate(-7,23)"><text is="custom" id="element_text_67" data-testid="element_text_67" font-weight="14px" font-size="13px" class="label" transform="" fill="black">FTTx</text></g></g><g is="custom" class="draggable" id="movable_element_68" transform="translate(992.34,445.16)"><rect x="-15" y="-15" rx="30" ry="30" width="30" height="30" fill-opacity="0"></rect><circle id="element_circle_68" stroke-width="1" r="5" stroke="black" fill="white"></circle></g><g transform="translate(992.34,445.16)"><g class="draggable" id="movable_element_text_68" transform="translate(19,7)"><text is="custom" id="element_text_68" data-testid="element_text_68" font-weight="14px" font-size="13px" class="label" transform="" fill="black">satellite</text></g></g><g is="custom" class="draggable" id="movable_element_70" transform="translate(871.65,524.14)"><rect x="-15" y="-15" rx="30" ry="30" width="30" height="30" fill-opacity="0"></rect><circle id="element_circle_70" stroke-width="1" r="5" stroke="black" fill="white"></circle><rect id="element_square_70" x="-5" y="-5" fill="white" stroke="black" width="10" height="10" stroke-width="2"></rect></g><g transform="translate(871.65,524.14)"><g class="draggable" id="movable_element_text_70" transform="translate(-67,-41)"><text is="custom" id="element_text_70" data-testid="element_text_70" font-weight="14px" font-size="13px" class="label" transform="translate(30, 10)" fill="black"><tspan x="0" dy="0" text-anchor="middle">NETWORK</tspan><tspan x="0" dy="15" text-anchor="middle">BUILDING</tspan><tspan x="0" dy="15" text-anchor="middle">BLOCKS</tspan></text></g></g><g is="custom" class="draggable" id="movable_element_71" transform="translate(697.32,538.5)"><rect x="-15" y="-15" rx="30" ry="30" width="30" height="30" fill-opacity="0"></rect><circle id="element_circle_71" stroke-width="1" r="5" stroke="black" fill="white"></circle></g><g transform="translate(697.32,538.5)"><g class="draggable" id="movable_element_text_71" transform="translate(-9,20)"><text is="custom" id="element_text_71" data-testid="element_text_71" font-weight="14px" font-size="13px" class="label" transform="" fill="black">macrocells</text></g></g><g is="custom" class="draggable" id="movable_element_72" transform="translate(885.0600000000001,538.5)"><rect x="-15" y="-15" rx="30" ry="30" width="30" height="30" fill-opacity="0"></rect><circle id="element_circle_72" stroke-width="1" r="5" stroke="black" fill="white"></circle></g><g transform="translate(885.0600000000001,538.5)"><g class="draggable" id="movable_element_text_72" transform="translate(-39,20)"><text is="custom" id="element_text_72" data-testid="element_text_72" font-weight="14px" font-size="13px" class="label" transform="" fill="black">Cloud VNFs</text></g></g><g is="custom" class="draggable" id="movable_element_73" transform="translate(1139.85,538.5)"><rect x="-15" y="-15" rx="30" ry="30" width="30" height="30" fill-opacity="0"></rect><circle id="element_circle_73" stroke-width="1" r="5" stroke="black" fill="white"></circle></g><g transform="translate(1139.85,538.5)"><g class="draggable" id="movable_element_text_73" transform="translate(15,1)"><text is="custom" id="element_text_73" data-testid="element_text_73" font-weight="14px" font-size="13px" class="label" transform="" fill="black">fibre</text></g></g><g is="custom" class="draggable" id="movable_element_74" transform="translate(1019.16,538.5)"><rect x="-15" y="-15" rx="30" ry="30" width="30" height="30" fill-opacity="0"></rect><circle id="element_circle_74" stroke-width="1" r="5" stroke="black" fill="white"></circle></g><g transform="translate(1019.16,538.5)"><g class="draggable" id="movable_element_text_74" transform="translate(0,13)"><text is="custom" id="element_text_74" data-testid="element_text_74" font-weight="14px" font-size="13px" class="label" transform="translate(30, 10)" fill="black"><tspan x="0" dy="0" text-anchor="middle">Satellite</tspan><tspan x="0" dy="15" text-anchor="middle">device</tspan></text></g></g><g is="custom" class="draggable" id="movable_element_77" transform="translate(724.1400000000001,617.48)"><rect x="-15" y="-15" rx="30" ry="30" width="30" height="30" fill-opacity="0"></rect><circle id="element_circle_77" stroke-width="1" r="5" stroke="black" fill="white"></circle><rect id="element_square_77" x="-5" y="-5" fill="white" stroke="black" width="10" height="10" stroke-width="2"></rect></g><g transform="translate(724.1400000000001,617.48)"><g class="draggable" id="movable_element_text_77" transform="translate(-70,-5)"><text is="custom" id="element_text_77" data-testid="element_text_77" font-weight="14px" font-size="13px" class="label" transform="" fill="black">TOPOLOGY</text></g></g><g is="custom" class="draggable" id="movable_element_78" transform="translate(938.6999999999999,631.84)"><rect x="-15" y="-15" rx="30" ry="30" width="30" height="30" fill-opacity="0"></rect><circle id="element_circle_78" stroke-width="1" r="5" stroke="black" fill="white"></circle></g><g transform="translate(938.6999999999999,631.84)"><g class="draggable" id="movable_element_text_78" transform="translate(20,4)"><text is="custom" id="element_text_78" data-testid="element_text_78" font-weight="14px" font-size="13px" class="label" transform="" fill="black">space</text></g></g><g is="custom" class="draggable" id="movable_element_79" transform="translate(509.58,631.84)"><rect x="-15" y="-15" rx="30" ry="30" width="30" height="30" fill-opacity="0"></rect><circle id="element_circle_79" stroke-width="1" r="5" stroke="black" fill="white"></circle></g><g transform="translate(509.58,631.84)"><g class="draggable" id="movable_element_text_79" transform="translate(-98,4)"><text is="custom" id="element_text_79" data-testid="element_text_79" font-weight="14px" font-size="13px" class="label" transform="" fill="black">real estate</text></g></g><g is="custom" class="draggable" id="movable_element_82" transform="translate(1019.16,610.3)"><rect x="-15" y="-15" rx="30" ry="30" width="30" height="30" fill-opacity="0"></rect><circle id="element_circle_82" stroke-width="1" r="5" stroke="black" fill="white"></circle></g><g transform="translate(1019.16,610.3)"><g class="draggable" id="movable_element_text_82" transform="translate(7,-14)"><text is="custom" id="element_text_82" data-testid="element_text_82" font-weight="14px" font-size="13px" class="label" transform="translate(30, 10)" fill="black"><tspan x="0" dy="0" text-anchor="middle">spectrum</tspan><tspan x="0" dy="15" text-anchor="middle">license</tspan></text></g></g><g is="custom" class="draggable" id="movable_element_83" transform="translate(563.22,682.1)"><rect x="-15" y="-15" rx="30" ry="30" width="30" height="30" fill-opacity="0"></rect><circle id="element_circle_83" stroke-width="1" r="5" stroke="black" fill="white"></circle></g><g transform="translate(563.22,682.1)"><g class="draggable" id="movable_element_text_83" transform="translate(-41,18)"><text is="custom" id="element_text_83" data-testid="element_text_83" font-weight="14px" font-size="13px" class="label" transform="" fill="black">territory</text></g></g><g is="custom" class="draggable" id="movable_element_162" transform="translate(791.1899999999999,201.04000000000002)"><rect x="-15" y="-15" rx="30" ry="30" width="30" height="30" fill-opacity="0"></rect><circle id="element_circle_162" stroke-width="1" r="5" stroke="black" fill="white"></circle></g><g transform="translate(791.1899999999999,201.04000000000002)"><g class="draggable" id="movable_element_text_162" transform="translate(-48,-6)"><text is="custom" id="element_text_162" data-testid="element_text_162" font-weight="14px" font-size="13px" class="label" transform="" fill="black">Network Access</text></g></g><g is="custom" class="draggable" id="movable_element_164" transform="translate(764.3699999999999,272.84)"><rect x="-15" y="-15" rx="30" ry="30" width="30" height="30" fill-opacity="0"></rect><circle id="element_circle_164" stroke-width="1" r="5" stroke="black" fill="white"></circle></g><g transform="translate(764.3699999999999,272.84)"><g class="draggable" id="movable_element_text_164" transform="translate(-61,5)"><text is="custom" id="element_text_164" data-testid="element_text_164" font-weight="14px" font-size="13px" class="label" transform="" fill="black">outdoor</text></g></g><g is="custom" class="draggable" id="movable_element_168" transform="translate(590.04,538.5)"><rect x="-15" y="-15" rx="30" ry="30" width="30" height="30" fill-opacity="0"></rect><circle id="element_circle_168" stroke-width="1" r="5" stroke="black" fill="white"></circle></g><g transform="translate(590.04,538.5)"><g class="draggable" id="movable_element_text_168" transform="translate(2,-17)"><text is="custom" id="element_text_168" data-testid="element_text_168" font-weight="14px" font-size="13px" class="label" transform="" fill="black">Small Cells</text></g></g></g><g id="notes"><g is="custom" class="draggable" id="movable_note_161" transform="translate(1005.75,402.08000000000004)"><rect x="-15" y="-15" rx="30" ry="30" width="30" height="30" fill-opacity="0"></rect><text is="custom" id="note_text_161" data-testid="note_text_161" font-weight="bold" font-size="12px" class="label" transform="">+physics</text></g></g><g id="annotations"></g></g></svg>