<?xml version="1.0" encoding="UTF-8"?><!DOCTYPE svg PUBLIC "-//W3C//DTD SVG 1.1//EN" "http://www.w3.org/Graphics/SVG/1.1/DTD/svg11.dtd"><svg font-family="Consolas, Lucida Console, monospace" font-size="13px" class="wardley" id="svgMap" width="1381" height="798" viewBox="-20 0 1361 738" version="1.1" xmlns="http://www.w3.org/2000/svg" xmlns:xlink="http://www.w3.org/1999/xlink"><defs><filter id="ctrlHighlight"><feDropShadow dx="0" dy="0" stdDeviation="3" flood-color="blue"></feDropShadow></filter><linearGradient gradientUnits="objectBoundingBox" id="wardleyGradient" spreadMethod="pad" x1="0%" x2="100%" y1="0%" y2="0%"><stop offset="0%" style="stop-color:rgb(196, 196, 196);stop-opacity:1"></stop><stop offset="0.3" style="stop-color:white;stop-opacity:1"></stop><stop offset="0.7" style="stop-color:white"></stop><stop offset="1" style="stop-color:rgb(196, 196, 196)"></stop></linearGradient><linearGradient spreadMethod="pad" id="accelGradient" x1="0%" y1="64%" x2="76%" y2="0%"><stop offset="0%" style="stop-color:white;stop-opacity:1"></stop><stop offset="100%" style="stop-color:#8c8995;stop-opacity:1"></stop></linearGradient><pattern id="diagonalHatch" patternUnits="userSpaceOnUse" width="4" height="4"><path d="M 3,-1 l 2,2 M 0,0 l 4,4 M -1,3 l 2,2 " stroke="grey" stroke-width="1" opacity=".5"></path></pattern><marker id="arrow" markerWidth="12" markerHeight="12" refX="15" refY="0" viewBox="0 -5 10 10" orient="0"><path d="M0,-5L10,0L0,5" fill="red"></path></marker><marker id="graphArrow" markerWidth="12" markerHeight="12" refX="9" refY="0" viewBox="0 -5 10 10" orient="0"><path d="M0,-5L10,0L0,5" fill="black"></path></marker><marker id="pipelineArrow" markerWidth="5" markerHeight="5" refX="9" refY="0" viewBox="0 -5 10 10" orient="0"><path d="M0,-5L10,0L0,5" fill="black"></path></marker></defs><g id="grid"><rect x="0" width="1341" y="0" height="718" id="fillArea" fill="url(#wardleyGradient)"></rect><g id="valueChain" transform="translate(0,718) rotate(270)" font-family="&quot;Helvetica Neue&quot;,Helvetica,Arial,sans-serif" font-size="13px"><line x1="0" y1="0" x2="718" y2="0" stroke="black" stroke-width="1" stroke-dasharray="2,2"></line><line x1="-2em" y1="234.67499999999998" x2="718" y2="234.67499999999998" stroke="#b8b8b8" stroke-dasharray="2,2"></line><line x1="-2em" y1="536.4" x2="718" y2="536.4" stroke="#b8b8b8" stroke-dasharray="2,2"></line><line x1="-2em" y1="938.6999999999999" x2="718" y2="938.6999999999999" stroke="#b8b8b8" stroke-dasharray="2,2"></line><text fill="black" x="716" y="-0.4em" text-anchor="end" font-weight="bold">Value Chain</text></g><g id="Evolution" font-family="&quot;Helvetica Neue&quot;,Helvetica,Arial,sans-serif" font-size="13px" font-style="italic" transform="translate(0,718)"><line x1="0" y1="0" x2="1339" y2="0" stroke="black" stroke-width="1" marker-end="url(#graphArrow)"></line><text fill="black" x="10" y="-703" text-anchor="start" font-style="normal" font-size="11px" font-weight="bold">Uncharted</text><text fill="black" x="1331" y="-703" text-anchor="end" font-style="normal" font-size="11px" font-weight="bold">Industrialised</text><text fill="black" x="0" y="1em" text-anchor="start">genesis / concept </text><text fill="black" x="0" y="2em" text-anchor="start"></text><text fill="black" x="241.67499999999998" y="1em" text-anchor="start"> custom / emerging </text><text fill="black" x="241.67499999999998" y="2em" text-anchor="start"></text><text fill="black" x="543.4" y="1em" text-anchor="start"> product / converging </text><text fill="black" x="543.4" y="2em" text-anchor="start"></text><text fill="black" x="945.6999999999999" y="1em" text-anchor="start"> commodity / accepted</text><text fill="black" x="945.6999999999999" y="2em" text-anchor="start"></text><text fill="black" x="1341" y="1.8em" text-anchor="end" font-weight="bold" font-style="normal">Evolution</text></g></g><g id="map"><g id="attitudes"></g><g id="methods"></g><g id="fluids"></g><g id="links"><g id="link_14_40"><line x1="227.97000000000003" y1="143.59999999999997" x2="268.2" y2="258.48" stroke="grey" stroke-width="1"></line></g><g id="link_9_11"><line x1="871.65" y1="14.360000000000014" x2="885.0600000000001" y2="71.79999999999998" stroke="grey" stroke-width="1"></line></g><g id="link_10_12"><line x1="978.93" y1="14.360000000000014" x2="992.34" y2="71.79999999999998" stroke="grey" stroke-width="1"></line></g><g id="link_10_11"><line x1="978.93" y1="14.360000000000014" x2="885.0600000000001" y2="71.79999999999998" stroke="grey" stroke-width="1"></line></g><g id="link_11_17"><line x1="885.0600000000001" y1="71.79999999999998" x2="710.73" y2="129.24000000000004" stroke="grey" stroke-width="1"></line></g><g id="link_12_17"><line x1="992.34" y1="71.79999999999998" x2="710.73" y2="129.24000000000004" stroke="grey" stroke-width="1"></line></g><g id="link_40_48"><line x1="268.2" y1="258.48" x2="348.66" y2="617.48" stroke="grey" stroke-width="1"></line></g><g id="link_40_42"><line x1="268.2" y1="258.48" x2="442.53000000000003" y2="481.05999999999995" stroke="grey" stroke-width="1"></line></g><g id="link_35_24"><line x1="670.5" y1="244.11999999999998" x2="697.32" y2="466.7" stroke="grey" stroke-width="1"></line></g><g id="link_27_35"><line x1="791.1899999999999" y1="366.18" x2="670.5" y2="244.11999999999998" stroke="grey" stroke-width="1"></line></g><g id="link_17_35"><line x1="710.73" y1="129.24000000000004" x2="670.5" y2="244.11999999999998" stroke="grey" stroke-width="1"></line></g><g id="link_40_21"><line x1="268.2" y1="258.48" x2="536.4" y2="143.59999999999997" stroke="grey" stroke-width="1"></line></g><g id="link_21_56"><line x1="536.4" y1="143.59999999999997" x2="536.4" y2="258.48" stroke="grey" stroke-width="1"></line></g><g id="link_56_19"><line x1="536.4" y1="258.48" x2="670.5" y2="143.59999999999997" stroke="grey" stroke-width="1"></line></g><g id="link_20_37"><line x1="831.42" y1="143.59999999999997" x2="777.78" y2="258.48" stroke="grey" stroke-width="1"></line></g><g id="link_33_37"><line x1="885.0600000000001" y1="380.54" x2="777.78" y2="258.48" stroke="grey" stroke-width="1"></line></g><g id="link_37_31"><line x1="777.78" y1="258.48" x2="925.29" y2="380.54" stroke="grey" stroke-width="1"></line></g><g id="link_32_54"><line x1="831.42" y1="380.54" x2="831.42" y2="258.48" stroke="grey" stroke-width="1"></line></g><g id="link_53_29"><line x1="885.0600000000001" y1="258.48" x2="563.22" y2="380.54" stroke="grey" stroke-width="1"></line></g><g id="link_33_52"><line x1="885.0600000000001" y1="380.54" x2="938.6999999999999" y2="258.48" stroke="grey" stroke-width="1"></line></g><g id="link_52_30"><line x1="938.6999999999999" y1="258.48" x2="670.5" y2="380.54" stroke="grey" stroke-width="1"></line></g></g><g id="evolvingEndLinks"></g><g id="bothEvolving"></g><g id="anchorLinks"></g><g id="anchorNonEvolvedLinks"></g><g id="evolvingToNoneEvolvingEndLinks"></g><g id="evolvedLinks"><g><line x1="938.6999999999999" y1="617.48" x2="683.91" y2="617.48" stroke-dasharray="5 5" stroke="red" stroke-width="1" marker-start="url(#arrow)"></line></g>;</g><g id="anchors"></g><g id="pipelines"><g id="pipeline_box_18" transform="translate(214.56,131.24000000000004)"><line x1="0" y1="0" x2="630.27" y2="0" stroke-width="1" stroke="black"></line><line x1="630.27" y1="0" x2="630.27" y2="22" stroke-width="1" stroke="black"></line><line x1="630.27" y1="22" x2="0" y2="22" stroke-width="1" stroke="black"></line><line x1="0" y1="22" x2="0" y2="0" stroke-width="1" stroke="black"></line></g><g is="custom" class="draggable" id="movable_pipeline_x1_18" transform="translate(214.56,131.24000000000004)"><rect x="-15" y="-15" rx="30" ry="30" width="30" height="30" fill-opacity="0"></rect><circle id="pipeline_circle_x1_18" cx="10" cy="12" stroke-width="1" r="5" stroke="black" fill="white"></circle></g><g is="custom" class="draggable" id="movable_pipeline_x2_18" transform="translate(844.83,131.24000000000004)"><rect x="-15" y="-15" rx="30" ry="30" width="30" height="30" fill-opacity="0"></rect><circle id="pipeline_circle_x2_18" cx="-10" cy="12" stroke-width="1" r="5" stroke="black" fill="white"></circle></g><g id="pipeline_box_25" transform="translate(429.12,468.7)"><line x1="0" y1="0" x2="549.81" y2="0" stroke-width="1" stroke="black"></line><line x1="549.81" y1="0" x2="549.81" y2="22" stroke-width="1" stroke="black"></line><line x1="549.81" y1="22" x2="0" y2="22" stroke-width="1" stroke="black"></line><line x1="0" y1="22" x2="0" y2="0" stroke-width="1" stroke="black"></line></g><g is="custom" class="draggable" id="movable_pipeline_x1_25" transform="translate(429.12,468.7)"><rect x="-15" y="-15" rx="30" ry="30" width="30" height="30" fill-opacity="0"></rect><circle id="pipeline_circle_x1_25" cx="10" cy="12" stroke-width="1" r="5" stroke="black" fill="white"></circle></g><g is="custom" class="draggable" id="movable_pipeline_x2_25" transform="translate(978.93,468.7)"><rect x="-15" y="-15" rx="30" ry="30" width="30" height="30" fill-opacity="0"></rect><circle id="pipeline_circle_x2_25" cx="-10" cy="12" stroke-width="1" r="5" stroke="black" fill="white"></circle></g><g id="pipeline_box_28" transform="translate(549.81,368.18)"><line x1="0" y1="0" x2="388.89" y2="0" stroke-width="1" stroke="black"></line><line x1="388.89" y1="0" x2="388.89" y2="22" stroke-width="1" stroke="black"></line><line x1="388.89" y1="22" x2="0" y2="22" stroke-width="1" stroke="black"></line><line x1="0" y1="22" x2="0" y2="0" stroke-width="1" stroke="black"></line></g><g is="custom" class="draggable" id="movable_pipeline_x1_28" transform="translate(549.81,368.18)"><rect x="-15" y="-15" rx="30" ry="30" width="30" height="30" fill-opacity="0"></rect><circle id="pipeline_circle_x1_28" cx="10" cy="12" stroke-width="1" r="5" stroke="black" fill="white"></circle></g><g is="custom" class="draggable" id="movable_pipeline_x2_28" transform="translate(938.6999999999999,368.18)"><rect x="-15" y="-15" rx="30" ry="30" width="30" height="30" fill-opacity="0"></rect><circle id="pipeline_circle_x2_28" cx="-10" cy="12" stroke-width="1" r="5" stroke="black" fill="white"></circle></g><g id="pipeline_box_36" transform="translate(254.79,246.11999999999998)"><line x1="0" y1="0" x2="697.3199999999999" y2="0" stroke-width="1" stroke="black"></line><line x1="697.3199999999999" y1="0" x2="697.3199999999999" y2="22" stroke-width="1" stroke="black"></line><line x1="697.3199999999999" y1="22" x2="0" y2="22" stroke-width="1" stroke="black"></line><line x1="0" y1="22" x2="0" y2="0" stroke-width="1" stroke="black"></line></g><g is="custom" class="draggable" id="movable_pipeline_x1_36" transform="translate(254.79,246.11999999999998)"><rect x="-15" y="-15" rx="30" ry="30" width="30" height="30" fill-opacity="0"></rect><circle id="pipeline_circle_x1_36" cx="10" cy="12" stroke-width="1" r="5" stroke="black" fill="white"></circle></g><g is="custom" class="draggable" id="movable_pipeline_x2_36" transform="translate(952.1099999999999,246.11999999999998)"><rect x="-15" y="-15" rx="30" ry="30" width="30" height="30" fill-opacity="0"></rect><circle id="pipeline_circle_x2_36" cx="-10" cy="12" stroke-width="1" r="5" stroke="black" fill="white"></circle></g><g id="pipeline_box_47" transform="translate(335.25,605.12)"><line x1="0" y1="0" x2="616.8599999999999" y2="0" stroke-width="1" stroke="black"></line><line x1="616.8599999999999" y1="0" x2="616.8599999999999" y2="22" stroke-width="1" stroke="black"></line><line x1="616.8599999999999" y1="22" x2="0" y2="22" stroke-width="1" stroke="black"></line><line x1="0" y1="22" x2="0" y2="0" stroke-width="1" stroke="black"></line></g><g is="custom" class="draggable" id="movable_pipeline_x1_47" transform="translate(335.25,605.12)"><rect x="-15" y="-15" rx="30" ry="30" width="30" height="30" fill-opacity="0"></rect><circle id="pipeline_circle_x1_47" cx="10" cy="12" stroke-width="1" r="5" stroke="black" fill="white"></circle></g><g is="custom" class="draggable" id="movable_pipeline_x2_47" transform="translate(952.1099999999999,605.12)"><rect x="-15" y="-15" rx="30" ry="30" width="30" height="30" fill-opacity="0"></rect><circle id="pipeline_circle_x2_47" cx="-10" cy="12" stroke-width="1" r="5" stroke="black" fill="white"></circle></g></g><g id="elements"><g is="custom" class="draggable" id="movable_element_9" transform="translate(871.65,14.360000000000014)"><rect x="-15" y="-15" rx="30" ry="30" width="30" height="30" fill-opacity="0"></rect><circle id="element_circle_9" stroke-width="1" r="5" stroke="black" fill="white"></circle></g><g transform="translate(871.65,14.360000000000014)"><g class="draggable" id="movable_element_text_9" transform="translate(-29,-13)"><text is="custom" id="element_text_9" data-testid="element_text_9" font-weight="14px" font-size="13px" class="label" transform="" fill="black">Bad Actor</text></g></g><g is="custom" class="draggable" id="movable_element_10" transform="translate(978.93,14.360000000000014)"><rect x="-15" y="-15" rx="30" ry="30" width="30" height="30" fill-opacity="0"></rect><circle id="element_circle_10" stroke-width="1" r="5" stroke="black" fill="white"></circle></g><g transform="translate(978.93,14.360000000000014)"><g class="draggable" id="movable_element_text_10" transform="translate(-10,-13)"><text is="custom" id="element_text_10" data-testid="element_text_10" font-weight="14px" font-size="13px" class="label" transform="" fill="black">Good Actor</text></g></g><g is="custom" class="draggable" id="movable_element_11" transform="translate(885.0600000000001,71.79999999999998)"><rect x="-15" y="-15" rx="30" ry="30" width="30" height="30" fill-opacity="0"></rect><circle id="element_circle_11" stroke-width="1" r="5" stroke="black" fill="white"></circle></g><g transform="translate(885.0600000000001,71.79999999999998)"><g class="draggable" id="movable_element_text_11" transform="translate(-65,2)"><text is="custom" id="element_text_11" data-testid="element_text_11" font-weight="14px" font-size="13px" class="label" transform="" fill="black">offence</text></g></g><g is="custom" class="draggable" id="movable_element_12" transform="translate(992.34,71.79999999999998)"><rect x="-15" y="-15" rx="30" ry="30" width="30" height="30" fill-opacity="0"></rect><circle id="element_circle_12" stroke-width="1" r="5" stroke="black" fill="white"></circle></g><g transform="translate(992.34,71.79999999999998)"><g class="draggable" id="movable_element_text_12" transform="translate(11,3)"><text is="custom" id="element_text_12" data-testid="element_text_12" font-weight="14px" font-size="13px" class="label" transform="" fill="black">defence</text></g></g><g is="custom" class="draggable" id="movable_element_14" transform="translate(227.97000000000003,143.59999999999997)"><rect x="-15" y="-15" rx="30" ry="30" width="30" height="30" fill-opacity="0"></rect><circle id="element_circle_14" stroke-width="1" r="5" stroke="black" fill="white"></circle></g><g transform="translate(227.97000000000003,143.59999999999997)"><g class="draggable" id="movable_element_text_14" transform="translate(-109,-2)"><text is="custom" id="element_text_14" data-testid="element_text_14" font-weight="14px" font-size="13px" class="label" transform="" fill="black">have an idea</text></g></g><g is="custom" class="draggable" id="movable_element_17" transform="translate(710.73,129.24000000000004)"><rect x="-15" y="-15" rx="30" ry="30" width="30" height="30" fill-opacity="0"></rect><circle id="element_circle_17" stroke-width="1" r="5" stroke="black" fill="white"></circle><rect id="element_square_17" x="-5" y="-5" fill="white" stroke="black" width="10" height="10" stroke-width="2"></rect></g><g transform="translate(710.73,129.24000000000004)"><g class="draggable" id="movable_element_text_17" transform="translate(-45,-14)"><text is="custom" id="element_text_17" data-testid="element_text_17" font-weight="14px" font-size="13px" class="label" transform="" fill="black">KNOWLEDGE</text></g></g><g is="custom" class="draggable" id="movable_element_19" transform="translate(670.5,143.59999999999997)"><rect x="-15" y="-15" rx="30" ry="30" width="30" height="30" fill-opacity="0"></rect><circle id="element_circle_19" stroke-width="1" r="5" stroke="black" fill="white"></circle></g><g transform="translate(670.5,143.59999999999997)"><g class="draggable" id="movable_element_text_19" transform="translate(-49,10)"><text is="custom" id="element_text_19" data-testid="element_text_19" font-weight="14px" font-size="13px" class="label" transform="translate(30, 10)" fill="black"><tspan x="0" dy="0" text-anchor="middle">target</tspan><tspan x="0" dy="15" text-anchor="middle">identification</tspan></text></g></g><g is="custom" class="draggable" id="movable_element_20" transform="translate(831.42,143.59999999999997)"><rect x="-15" y="-15" rx="30" ry="30" width="30" height="30" fill-opacity="0"></rect><circle id="element_circle_20" stroke-width="1" r="5" stroke="black" fill="white"></circle></g><g transform="translate(831.42,143.59999999999997)"><g class="draggable" id="movable_element_text_20" transform="translate(23,-8)"><text is="custom" id="element_text_20" data-testid="element_text_20" font-weight="14px" font-size="13px" class="label" transform="translate(30, 10)" fill="black"><tspan x="0" dy="0" text-anchor="middle">Identify</tspan><tspan x="0" dy="15" text-anchor="middle">vulnerabilities</tspan></text></g></g><g is="custom" class="draggable" id="movable_element_21" transform="translate(536.4,143.59999999999997)"><rect x="-15" y="-15" rx="30" ry="30" width="30" height="30" fill-opacity="0"></rect><circle id="element_circle_21" stroke-width="1" r="5" stroke="black" fill="white"></circle><rect id="element_square_21" x="-5" y="-5" fill="white" stroke="black" width="10" height="10" stroke-width="2"></rect></g><g transform="translate(536.4,143.59999999999997)"><g class="draggable" id="movable_element_text_21" transform="translate(-74,-42)"><text is="custom" id="element_text_21" data-testid="element_text_21" font-weight="14px" font-size="13px" class="label" transform="translate(30, 10)" fill="black"><tspan x="0" dy="0" text-anchor="middle">TARGET</tspan><tspan x="0" dy="15" text-anchor="middle">EXPLOITATION</tspan></text></g></g><g is="custom" class="draggable" id="movable_element_24" transform="translate(697.32,466.7)"><rect x="-15" y="-15" rx="30" ry="30" width="30" height="30" fill-opacity="0"></rect><circle id="element_circle_24" stroke-width="1" r="5" stroke="black" fill="white"></circle><rect id="element_square_24" x="-5" y="-5" fill="white" stroke="black" width="10" height="10" stroke-width="2"></rect></g><g transform="translate(697.32,466.7)"><g class="draggable" id="movable_element_text_24" transform="translate(7,-10)"><text is="custom" id="element_text_24" data-testid="element_text_24" font-weight="14px" font-size="13px" class="label" transform="" fill="black">EXPLOIT</text></g></g><g is="custom" class="draggable" id="movable_element_27" transform="translate(791.1899999999999,366.18)"><rect x="-15" y="-15" rx="30" ry="30" width="30" height="30" fill-opacity="0"></rect><circle id="element_circle_27" stroke-width="1" r="5" stroke="black" fill="white"></circle><rect id="element_square_27" x="-5" y="-5" fill="white" stroke="black" width="10" height="10" stroke-width="2"></rect></g><g transform="translate(791.1899999999999,366.18)"><g class="draggable" id="movable_element_text_27" transform="translate(-44,-17)"><text is="custom" id="element_text_27" data-testid="element_text_27" font-weight="14px" font-size="13px" class="label" transform="" fill="black">PRINCIPLES</text></g></g><g is="custom" class="draggable" id="movable_element_29" transform="translate(563.22,380.54)"><rect x="-15" y="-15" rx="30" ry="30" width="30" height="30" fill-opacity="0"></rect><circle id="element_circle_29" stroke-width="1" r="5" stroke="black" fill="white"></circle></g><g transform="translate(563.22,380.54)"><g class="draggable" id="movable_element_text_29" transform="translate(-100,-21)"><text is="custom" id="element_text_29" data-testid="element_text_29" font-weight="14px" font-size="13px" class="label" transform="translate(30, 10)" fill="black"><tspan x="0" dy="0" text-anchor="middle">Avoid</tspan><tspan x="0" dy="15" text-anchor="middle">responsibility</tspan></text></g></g><g is="custom" class="draggable" id="movable_element_30" transform="translate(670.5,380.54)"><rect x="-15" y="-15" rx="30" ry="30" width="30" height="30" fill-opacity="0"></rect><circle id="element_circle_30" stroke-width="1" r="5" stroke="black" fill="white"></circle></g><g transform="translate(670.5,380.54)"><g class="draggable" id="movable_element_text_30" transform="translate(-36,12)"><text is="custom" id="element_text_30" data-testid="element_text_30" font-weight="14px" font-size="13px" class="label" transform="translate(30, 10)" fill="black"><tspan x="0" dy="0" text-anchor="middle">Avoid</tspan><tspan x="0" dy="15" text-anchor="middle">detection</tspan></text></g></g><g is="custom" class="draggable" id="movable_element_31" transform="translate(925.29,380.54)"><rect x="-15" y="-15" rx="30" ry="30" width="30" height="30" fill-opacity="0"></rect><circle id="element_circle_31" stroke-width="1" r="5" stroke="black" fill="white"></circle></g><g transform="translate(925.29,380.54)"><g class="draggable" id="movable_element_text_31" transform="translate(18,2)"><text is="custom" id="element_text_31" data-testid="element_text_31" font-weight="14px" font-size="13px" class="label" transform="" fill="black">reporting</text></g></g><g is="custom" class="draggable" id="movable_element_32" transform="translate(831.42,380.54)"><rect x="-15" y="-15" rx="30" ry="30" width="30" height="30" fill-opacity="0"></rect><circle id="element_circle_32" stroke-width="1" r="5" stroke="black" fill="white"></circle></g><g transform="translate(831.42,380.54)"><g class="draggable" id="movable_element_text_32" transform="translate(-53,13)"><text is="custom" id="element_text_32" data-testid="element_text_32" font-weight="14px" font-size="13px" class="label" transform="translate(30, 10)" fill="black"><tspan x="0" dy="0" text-anchor="middle">security</tspan><tspan x="0" dy="15" text-anchor="middle">posture</tspan></text></g></g><g is="custom" class="draggable" id="movable_element_33" transform="translate(885.0600000000001,380.54)"><rect x="-15" y="-15" rx="30" ry="30" width="30" height="30" fill-opacity="0"></rect><circle id="element_circle_33" stroke-width="1" r="5" stroke="black" fill="white"></circle></g><g transform="translate(885.0600000000001,380.54)"><g class="draggable" id="movable_element_text_33" transform="translate(-22,12)"><text is="custom" id="element_text_33" data-testid="element_text_33" font-weight="14px" font-size="13px" class="label" transform="translate(30, 10)" fill="black"><tspan x="0" dy="0" text-anchor="middle">risk</tspan><tspan x="0" dy="15" text-anchor="middle">management</tspan></text></g></g><g is="custom" class="draggable" id="movable_element_35" transform="translate(670.5,244.11999999999998)"><rect x="-15" y="-15" rx="30" ry="30" width="30" height="30" fill-opacity="0"></rect><circle id="element_circle_35" stroke-width="1" r="5" stroke="black" fill="white"></circle><rect id="element_square_35" x="-5" y="-5" fill="white" stroke="black" width="10" height="10" stroke-width="2"></rect></g><g transform="translate(670.5,244.11999999999998)"><g class="draggable" id="movable_element_text_35" transform="translate(-58,-18)"><text is="custom" id="element_text_35" data-testid="element_text_35" font-weight="14px" font-size="13px" class="label" transform="" fill="black">CAPABILITY</text></g></g><g is="custom" class="draggable" id="movable_element_37" transform="translate(777.78,258.48)"><rect x="-15" y="-15" rx="30" ry="30" width="30" height="30" fill-opacity="0"></rect><circle id="element_circle_37" stroke-width="1" r="5" stroke="black" fill="white"></circle><rect id="element_square_37" x="-5" y="-5" fill="white" stroke="black" width="10" height="10" stroke-width="2"></rect></g><g transform="translate(777.78,258.48)"><g class="draggable" id="movable_element_text_37" transform="translate(-51,23)"><text is="custom" id="element_text_37" data-testid="element_text_37" font-weight="14px" font-size="13px" class="label" transform="" fill="black">MONITOR/SCAN</text></g></g><g is="custom" class="draggable" id="movable_element_40" transform="translate(268.2,258.48)"><rect x="-15" y="-15" rx="30" ry="30" width="30" height="30" fill-opacity="0"></rect><circle id="element_circle_40" stroke-width="1" r="5" stroke="black" fill="white"></circle></g><g transform="translate(268.2,258.48)"><g class="draggable" id="movable_element_text_40" transform="translate(-47,12)"><text is="custom" id="element_text_40" data-testid="element_text_40" font-weight="14px" font-size="13px" class="label" transform="" fill="black">R&amp;D</text></g></g><g is="custom" class="draggable" id="movable_element_42" transform="translate(442.53000000000003,481.05999999999995)"><rect x="-15" y="-15" rx="30" ry="30" width="30" height="30" fill-opacity="0"></rect><circle id="element_circle_42" stroke-width="1" r="5" stroke="black" fill="white"></circle></g><g transform="translate(442.53000000000003,481.05999999999995)"><g class="draggable" id="movable_element_text_42" transform="translate(-74,-13)"><text is="custom" id="element_text_42" data-testid="element_text_42" font-weight="14px" font-size="13px" class="label" transform="translate(30, 10)" fill="black"><tspan x="0" dy="0" text-anchor="middle">Fully</tspan><tspan x="0" dy="15" text-anchor="middle">custom</tspan><tspan x="0" dy="15" text-anchor="middle">exploit</tspan></text></g></g><g is="custom" class="draggable" id="movable_element_43" transform="translate(630.27,481.05999999999995)"><rect x="-15" y="-15" rx="30" ry="30" width="30" height="30" fill-opacity="0"></rect><circle id="element_circle_43" stroke-width="1" r="5" stroke="black" fill="white"></circle></g><g transform="translate(630.27,481.05999999999995)"><g class="draggable" id="movable_element_text_43" transform="translate(-36,14)"><text is="custom" id="element_text_43" data-testid="element_text_43" font-weight="14px" font-size="13px" class="label" transform="translate(30, 10)" fill="black"><tspan x="0" dy="0" text-anchor="middle">Exploit</tspan><tspan x="0" dy="15" text-anchor="middle">per</tspan><tspan x="0" dy="15" text-anchor="middle">public</tspan><tspan x="0" dy="15" text-anchor="middle">knowledge</tspan></text></g></g><g is="custom" class="draggable" id="movable_element_44" transform="translate(965.52,481.05999999999995)"><rect x="-15" y="-15" rx="30" ry="30" width="30" height="30" fill-opacity="0"></rect><circle id="element_circle_44" stroke-width="1" r="5" stroke="black" fill="white"></circle></g><g transform="translate(965.52,481.05999999999995)"><g class="draggable" id="movable_element_text_44" transform="translate(20,0)"><text is="custom" id="element_text_44" data-testid="element_text_44" font-weight="14px" font-size="13px" class="label" transform="" fill="black">Script kiddie</text></g></g><g is="custom" class="draggable" id="movable_element_46" transform="translate(563.22,603.12)"><rect x="-15" y="-15" rx="30" ry="30" width="30" height="30" fill-opacity="0"></rect><circle id="element_circle_46" stroke-width="1" r="5" stroke="black" fill="white"></circle><rect id="element_square_46" x="-5" y="-5" fill="white" stroke="black" width="10" height="10" stroke-width="2"></rect></g><g transform="translate(563.22,603.12)"><g class="draggable" id="movable_element_text_46" transform="translate(-46,-13)"><text is="custom" id="element_text_46" data-testid="element_text_46" font-weight="14px" font-size="13px" class="label" transform="" fill="black">TOOL</text></g></g><g is="custom" class="draggable" id="movable_element_48" transform="translate(348.66,617.48)"><rect x="-15" y="-15" rx="30" ry="30" width="30" height="30" fill-opacity="0"></rect><circle id="element_circle_48" stroke-width="1" r="5" stroke="black" fill="white"></circle></g><g transform="translate(348.66,617.48)"><g class="draggable" id="movable_element_text_48" transform="translate(-114,8)"><text is="custom" id="element_text_48" data-testid="element_text_48" font-weight="14px" font-size="13px" class="label" transform="" fill="black">be-spoke tool</text></g></g><g is="custom" class="draggable" id="movable_element_50" transform="translate(945.405,617.48)"><rect x="-15" y="-15" rx="30" ry="30" width="30" height="30" fill-opacity="0"></rect><circle id="element_circle_50" stroke-width="1" r="5" stroke="black" fill="white"></circle></g><g transform="translate(945.405,617.48)"><g class="draggable" id="movable_element_text_50" transform="translate(4,-33)"><text is="custom" id="element_text_50" data-testid="element_text_50" font-weight="14px" font-size="13px" class="label" transform="translate(30, 10)" fill="black"><tspan x="0" dy="0" text-anchor="middle">open-source</tspan><tspan x="0" dy="15" text-anchor="middle">tool</tspan></text></g></g><g is="custom" class="draggable" id="movable_element_52" transform="translate(938.6999999999999,258.48)"><rect x="-15" y="-15" rx="30" ry="30" width="30" height="30" fill-opacity="0"></rect><circle id="element_circle_52" stroke-width="1" r="5" stroke="black" fill="white"></circle></g><g transform="translate(938.6999999999999,258.48)"><g class="draggable" id="movable_element_text_52" transform="translate(19,3)"><text is="custom" id="element_text_52" data-testid="element_text_52" font-weight="14px" font-size="13px" class="label" transform="" fill="black">cryptography</text></g></g><g is="custom" class="draggable" id="movable_element_53" transform="translate(885.0600000000001,258.48)"><rect x="-15" y="-15" rx="30" ry="30" width="30" height="30" fill-opacity="0"></rect><circle id="element_circle_53" stroke-width="1" r="5" stroke="black" fill="white"></circle></g><g transform="translate(885.0600000000001,258.48)"><g class="draggable" id="movable_element_text_53" transform="translate(-28,12)"><text is="custom" id="element_text_53" data-testid="element_text_53" font-weight="14px" font-size="13px" class="label" transform="translate(30, 10)" fill="black"><tspan x="0" dy="0" text-anchor="middle">obfuscated</tspan><tspan x="0" dy="15" text-anchor="middle">Identity</tspan></text></g></g><g is="custom" class="draggable" id="movable_element_54" transform="translate(831.42,258.48)"><rect x="-15" y="-15" rx="30" ry="30" width="30" height="30" fill-opacity="0"></rect><circle id="element_circle_54" stroke-width="1" r="5" stroke="black" fill="white"></circle></g><g transform="translate(831.42,258.48)"><g class="draggable" id="movable_element_text_54" transform="translate(-27,-41)"><text is="custom" id="element_text_54" data-testid="element_text_54" font-weight="14px" font-size="13px" class="label" transform="translate(30, 10)" fill="black"><tspan x="0" dy="0" text-anchor="middle">security</tspan><tspan x="0" dy="15" text-anchor="middle">frameworks</tspan></text></g></g><g is="custom" class="draggable" id="movable_element_55" transform="translate(777.78,481.05999999999995)"><rect x="-15" y="-15" rx="30" ry="30" width="30" height="30" fill-opacity="0"></rect><circle id="element_circle_55" stroke-width="1" r="5" stroke="black" fill="white"></circle></g><g transform="translate(777.78,481.05999999999995)"><g class="draggable" id="movable_element_text_55" transform="translate(-12,20)"><text is="custom" id="element_text_55" data-testid="element_text_55" font-weight="14px" font-size="13px" class="label" transform="translate(30, 10)" fill="black"><tspan x="0" dy="0" text-anchor="middle">social-engineering</tspan></text></g></g><g is="custom" class="draggable" id="movable_element_56" transform="translate(536.4,258.48)"><rect x="-15" y="-15" rx="30" ry="30" width="30" height="30" fill-opacity="0"></rect><circle id="element_circle_56" stroke-width="1" r="5" stroke="black" fill="white"></circle></g><g transform="translate(536.4,258.48)"><g class="draggable" id="movable_element_text_56" transform="translate(-76,-59)"><text is="custom" id="element_text_56" data-testid="element_text_56" font-weight="14px" font-size="13px" class="label" transform="translate(30, 10)" fill="black"><tspan x="0" dy="0" text-anchor="middle">dark</tspan><tspan x="0" dy="15" text-anchor="middle">web</tspan><tspan x="0" dy="15" text-anchor="middle">marketplace</tspan></text></g></g><g is="custom" class="draggable" id="movable_element_49ev" transform="translate(938.6999999999999,617.48)"><rect x="-15" y="-15" rx="30" ry="30" width="30" height="30" fill-opacity="0"></rect><circle id="element_circle_49ev" stroke-width="1" r="5" stroke="red" fill="white"></circle></g><g transform="translate(938.6999999999999,617.48)"><g class="draggable" id="movable_element_text_49ev" transform="translate(-271,-3552)"><text is="custom" id="element_text_49ev" data-testid="element_text_49ev" font-weight="14px" font-size="13px" class="label" transform="translate(30, 10)" fill="red"><tspan x="0" dy="0" text-anchor="middle">commercial</tspan><tspan x="0" dy="15" text-anchor="middle">tool</tspan></text></g></g><g is="custom" class="draggable" id="movable_element_49" transform="translate(683.91,617.48)"><rect x="-15" y="-15" rx="30" ry="30" width="30" height="30" fill-opacity="0"></rect><circle id="element_circle_49" stroke-width="1" r="5" stroke="black" fill="white"></circle></g><g transform="translate(683.91,617.48)"><g class="draggable" id="movable_element_text_49" transform="translate(-19,-43)"><text is="custom" id="element_text_49" data-testid="element_text_49" font-weight="14px" font-size="13px" class="label" transform="translate(30, 10)" fill="black"><tspan x="0" dy="0" text-anchor="middle">commercial</tspan><tspan x="0" dy="15" text-anchor="middle">tool</tspan></text></g></g></g><g id="notes"><g is="custom" class="draggable" id="movable_note_59" transform="translate(750.96,639.02)"><rect x="-15" y="-15" rx="30" ry="30" width="30" height="30" fill-opacity="0"></rect><text is="custom" id="note_text_59" data-testid="note_text_59" font-weight="bold" font-size="12px" class="label" transform="">+open source</text></g></g><g id="annotations"></g></g></svg>