<?xml version="1.0" encoding="UTF-8"?><!DOCTYPE svg PUBLIC "-//W3C//DTD SVG 1.1//EN" "http://www.w3.org/Graphics/SVG/1.1/DTD/svg11.dtd"><svg font-family="Consolas, Lucida Console, monospace" font-size="13px" class="wardley" id="svgMap" width="1381" height="798" viewBox="-20 0 1361 738" version="1.1" xmlns="http://www.w3.org/2000/svg" xmlns:xlink="http://www.w3.org/1999/xlink"><defs><filter id="ctrlHighlight"><feDropShadow dx="0" dy="0" stdDeviation="3" flood-color="blue"></feDropShadow></filter><linearGradient gradientUnits="objectBoundingBox" id="wardleyGradient" spreadMethod="pad" x1="0%" x2="100%" y1="0%" y2="0%"><stop offset="0%" style="stop-color:rgb(196, 196, 196);stop-opacity:1"></stop><stop offset="0.3" style="stop-color:white;stop-opacity:1"></stop><stop offset="0.7" style="stop-color:white"></stop><stop offset="1" style="stop-color:rgb(196, 196, 196)"></stop></linearGradient><linearGradient spreadMethod="pad" id="accelGradient" x1="0%" y1="64%" x2="76%" y2="0%"><stop offset="0%" style="stop-color:white;stop-opacity:1"></stop><stop offset="100%" style="stop-color:#8c8995;stop-opacity:1"></stop></linearGradient><pattern id="diagonalHatch" patternUnits="userSpaceOnUse" width="4" height="4"><path d="M 3,-1 l 2,2 M 0,0 l 4,4 M -1,3 l 2,2 " stroke="grey" stroke-width="1" opacity=".5"></path></pattern><marker id="arrow" markerWidth="12" markerHeight="12" refX="15" refY="0" viewBox="0 -5 10 10" orient="0"><path d="M0,-5L10,0L0,5" fill="red"></path></marker><marker id="graphArrow" markerWidth="12" markerHeight="12" refX="9" refY="0" viewBox="0 -5 10 10" orient="0"><path d="M0,-5L10,0L0,5" fill="black"></path></marker><marker id="pipelineArrow" markerWidth="5" markerHeight="5" refX="9" refY="0" viewBox="0 -5 10 10" orient="0"><path d="M0,-5L10,0L0,5" fill="black"></path></marker></defs><g id="grid"><rect x="0" width="1341" y="0" height="718" id="fillArea" fill="url(#wardleyGradient)"></rect><g id="valueChain" transform="translate(0,718) rotate(270)" font-family="&quot;Helvetica Neue&quot;,Helvetica,Arial,sans-serif" font-size="13px"><line x1="0" y1="0" x2="718" y2="0" stroke="black" stroke-width="1" stroke-dasharray="2,2"></line><line x1="-2em" y1="234.67499999999998" x2="718" y2="234.67499999999998" stroke="#b8b8b8" stroke-dasharray="2,2"></line><line x1="-2em" y1="536.4" x2="718" y2="536.4" stroke="#b8b8b8" stroke-dasharray="2,2"></line><line x1="-2em" y1="938.6999999999999" x2="718" y2="938.6999999999999" stroke="#b8b8b8" stroke-dasharray="2,2"></line><text fill="black" x="716" y="-0.4em" text-anchor="end" font-weight="bold">Value Chain</text></g><g id="Evolution" font-family="&quot;Helvetica Neue&quot;,Helvetica,Arial,sans-serif" font-size="13px" font-style="italic" transform="translate(0,718)"><line x1="0" y1="0" x2="1339" y2="0" stroke="black" stroke-width="1" marker-end="url(#graphArrow)"></line><text fill="black" x="10" y="-703" text-anchor="start" font-style="normal" font-size="11px" font-weight="bold">Uncharted</text><text fill="black" x="1331" y="-703" text-anchor="end" font-style="normal" font-size="11px" font-weight="bold">Industrialised</text><text fill="black" x="0" y="1em" text-anchor="start">genesis / concept </text><text fill="black" x="0" y="2em" text-anchor="start"></text><text fill="black" x="241.67499999999998" y="1em" text-anchor="start"> custom / emerging </text><text fill="black" x="241.67499999999998" y="2em" text-anchor="start"></text><text fill="black" x="543.4" y="1em" text-anchor="start"> product / converging </text><text fill="black" x="543.4" y="2em" text-anchor="start"></text><text fill="black" x="945.6999999999999" y="1em" text-anchor="start"> commodity / accepted</text><text fill="black" x="945.6999999999999" y="2em" text-anchor="start"></text><text fill="black" x="1341" y="1.8em" text-anchor="end" font-weight="bold" font-style="normal">Evolution</text></g></g><g id="map"><g id="attitudes"></g><g id="methods"></g><g id="fluids"></g><g id="links"><g id="link_74_72"><line x1="415.71" y1="337.46" x2="254.79" y2="459.52" stroke="grey" stroke-width="1"></line></g><g id="link_74_57"><line x1="415.71" y1="337.46" x2="952.1099999999999" y2="473.87999999999994" stroke="grey" stroke-width="1"></line></g><g id="link_48_57"><line x1="938.6999999999999" y1="430.8" x2="952.1099999999999" y2="473.87999999999994" stroke="grey" stroke-width="1"></line></g><g id="link_48_51"><line x1="938.6999999999999" y1="430.8" x2="898.47" y2="524.14" stroke="grey" stroke-width="1"></line></g><g id="link_51_62"><line x1="898.47" y1="524.14" x2="858.24" y2="603.12" stroke="grey" stroke-width="1"></line></g><g id="link_57_62"><line x1="952.1099999999999" y1="473.87999999999994" x2="858.24" y2="603.12" stroke="grey" stroke-width="1"></line></g><g id="link_21_62"><line x1="536.4" y1="179.5" x2="858.24" y2="603.12" stroke="grey" stroke-width="1"></line></g><g id="link_51_65"><line x1="898.47" y1="524.14" x2="925.29" y2="674.92" stroke="grey" stroke-width="1"></line></g><g id="link_69_70"><line x1="415.71" y1="251.29999999999998" x2="522.99" y2="560.04" stroke="grey" stroke-width="1"></line></g><g id="link_69_32"><line x1="415.71" y1="251.29999999999998" x2="831.42" y2="323.09999999999997" stroke="grey" stroke-width="1"></line></g><g id="link_7_16"><line x1="750.96" y1="71.79999999999998" x2="885.0600000000001" y2="165.14" stroke="grey" stroke-width="1"></line></g><g id="link_16_23"><line x1="885.0600000000001" y1="165.14" x2="858.24" y2="236.93999999999997" stroke="grey" stroke-width="1"></line></g><g id="link_7_30"><line x1="750.96" y1="71.79999999999998" x2="911.8800000000001" y2="129.24000000000004" stroke="grey" stroke-width="1"></line></g><g id="link_30_51"><line x1="911.8800000000001" y1="129.24000000000004" x2="898.47" y2="524.14" stroke="grey" stroke-width="1"></line></g><g id="link_32_43"><line x1="831.42" y1="323.09999999999997" x2="804.6" y2="416.44000000000005" stroke="grey" stroke-width="1"></line></g><g id="link_23_32"><line x1="858.24" y1="236.93999999999997" x2="831.42" y2="323.09999999999997" stroke="grey" stroke-width="1"></line></g><g id="link_62_58"><line x1="858.24" y1="603.12" x2="496.17" y2="337.46" stroke="grey" stroke-width="1"></line></g></g><g id="evolvingEndLinks"><g id="link_58_60"><line x1="496.17" y1="337.46" x2="764.3699999999999" y2="639.02" stroke="grey" stroke-width="1"></line></g><g id="link_70_60"><line x1="522.99" y1="560.04" x2="764.3699999999999" y2="639.02" stroke="grey" stroke-width="1"></line></g></g><g id="bothEvolving"></g><g id="anchorLinks"></g><g id="anchorNonEvolvedLinks"></g><g id="evolvingToNoneEvolvingEndLinks"><g id="link_60_67"><line x1="764.3699999999999" y1="639.02" x2="925.29" y2="689.28" stroke="grey" stroke-width="1"></line></g></g><g id="evolvedLinks"><g><line x1="952.1099999999999" y1="639.02" x2="764.3699999999999" y2="639.02" stroke-dasharray="5 5" stroke="red" stroke-width="1" marker-start="url(#arrow)"></line></g>;</g><g id="anchors"></g><g id="pipelines"><g id="pipeline_box_8" transform="translate(482.76,73.79999999999998)"><line x1="0" y1="0" x2="375.48" y2="0" stroke-width="1" stroke="black"></line><line x1="375.48" y1="0" x2="375.48" y2="22" stroke-width="1" stroke="black"></line><line x1="375.48" y1="22" x2="0" y2="22" stroke-width="1" stroke="black"></line><line x1="0" y1="22" x2="0" y2="0" stroke-width="1" stroke="black"></line></g><g is="custom" class="draggable" id="movable_pipeline_x1_8" transform="translate(482.76,73.79999999999998)"><rect x="-15" y="-15" rx="30" ry="30" width="30" height="30" fill-opacity="0"></rect><circle id="pipeline_circle_x1_8" cx="10" cy="12" stroke-width="1" r="5" stroke="black" fill="white"></circle></g><g is="custom" class="draggable" id="movable_pipeline_x2_8" transform="translate(858.24,73.79999999999998)"><rect x="-15" y="-15" rx="30" ry="30" width="30" height="30" fill-opacity="0"></rect><circle id="pipeline_circle_x2_8" cx="-10" cy="12" stroke-width="1" r="5" stroke="black" fill="white"></circle></g><g id="pipeline_box_17" transform="translate(522.99,167.14)"><line x1="0" y1="0" x2="496.16999999999996" y2="0" stroke-width="1" stroke="black"></line><line x1="496.16999999999996" y1="0" x2="496.16999999999996" y2="22" stroke-width="1" stroke="black"></line><line x1="496.16999999999996" y1="22" x2="0" y2="22" stroke-width="1" stroke="black"></line><line x1="0" y1="22" x2="0" y2="0" stroke-width="1" stroke="black"></line></g><g is="custom" class="draggable" id="movable_pipeline_x1_17" transform="translate(522.99,167.14)"><rect x="-15" y="-15" rx="30" ry="30" width="30" height="30" fill-opacity="0"></rect><circle id="pipeline_circle_x1_17" cx="10" cy="12" stroke-width="1" r="5" stroke="black" fill="white"></circle></g><g is="custom" class="draggable" id="movable_pipeline_x2_17" transform="translate(1019.16,167.14)"><rect x="-15" y="-15" rx="30" ry="30" width="30" height="30" fill-opacity="0"></rect><circle id="pipeline_circle_x2_17" cx="-10" cy="12" stroke-width="1" r="5" stroke="black" fill="white"></circle></g><g id="pipeline_box_24" transform="translate(402.3,238.93999999999997)"><line x1="0" y1="0" x2="496.17" y2="0" stroke-width="1" stroke="black"></line><line x1="496.17" y1="0" x2="496.17" y2="22" stroke-width="1" stroke="black"></line><line x1="496.17" y1="22" x2="0" y2="22" stroke-width="1" stroke="black"></line><line x1="0" y1="22" x2="0" y2="0" stroke-width="1" stroke="black"></line></g><g is="custom" class="draggable" id="movable_pipeline_x1_24" transform="translate(402.3,238.93999999999997)"><rect x="-15" y="-15" rx="30" ry="30" width="30" height="30" fill-opacity="0"></rect><circle id="pipeline_circle_x1_24" cx="10" cy="12" stroke-width="1" r="5" stroke="black" fill="white"></circle></g><g is="custom" class="draggable" id="movable_pipeline_x2_24" transform="translate(898.47,238.93999999999997)"><rect x="-15" y="-15" rx="30" ry="30" width="30" height="30" fill-opacity="0"></rect><circle id="pipeline_circle_x2_24" cx="-10" cy="12" stroke-width="1" r="5" stroke="black" fill="white"></circle></g><g id="pipeline_box_33" transform="translate(402.3,325.09999999999997)"><line x1="0" y1="0" x2="576.6299999999999" y2="0" stroke-width="1" stroke="black"></line><line x1="576.6299999999999" y1="0" x2="576.6299999999999" y2="22" stroke-width="1" stroke="black"></line><line x1="576.6299999999999" y1="22" x2="0" y2="22" stroke-width="1" stroke="black"></line><line x1="0" y1="22" x2="0" y2="0" stroke-width="1" stroke="black"></line></g><g is="custom" class="draggable" id="movable_pipeline_x1_33" transform="translate(402.3,325.09999999999997)"><rect x="-15" y="-15" rx="30" ry="30" width="30" height="30" fill-opacity="0"></rect><circle id="pipeline_circle_x1_33" cx="10" cy="12" stroke-width="1" r="5" stroke="black" fill="white"></circle></g><g is="custom" class="draggable" id="movable_pipeline_x2_33" transform="translate(978.93,325.09999999999997)"><rect x="-15" y="-15" rx="30" ry="30" width="30" height="30" fill-opacity="0"></rect><circle id="pipeline_circle_x2_33" cx="-10" cy="12" stroke-width="1" r="5" stroke="black" fill="white"></circle></g><g id="pipeline_box_44" transform="translate(737.5500000000001,418.44000000000005)"><line x1="0" y1="0" x2="268.19999999999993" y2="0" stroke-width="1" stroke="black"></line><line x1="268.19999999999993" y1="0" x2="268.19999999999993" y2="22" stroke-width="1" stroke="black"></line><line x1="268.19999999999993" y1="22" x2="0" y2="22" stroke-width="1" stroke="black"></line><line x1="0" y1="22" x2="0" y2="0" stroke-width="1" stroke="black"></line></g><g is="custom" class="draggable" id="movable_pipeline_x1_44" transform="translate(737.5500000000001,418.44000000000005)"><rect x="-15" y="-15" rx="30" ry="30" width="30" height="30" fill-opacity="0"></rect><circle id="pipeline_circle_x1_44" cx="10" cy="12" stroke-width="1" r="5" stroke="black" fill="white"></circle></g><g is="custom" class="draggable" id="movable_pipeline_x2_44" transform="translate(1005.75,418.44000000000005)"><rect x="-15" y="-15" rx="30" ry="30" width="30" height="30" fill-opacity="0"></rect><circle id="pipeline_circle_x2_44" cx="-10" cy="12" stroke-width="1" r="5" stroke="black" fill="white"></circle></g><g id="pipeline_box_52" transform="translate(818.01,526.14)"><line x1="0" y1="0" x2="147.51" y2="0" stroke-width="1" stroke="black"></line><line x1="147.51" y1="0" x2="147.51" y2="22" stroke-width="1" stroke="black"></line><line x1="147.51" y1="22" x2="0" y2="22" stroke-width="1" stroke="black"></line><line x1="0" y1="22" x2="0" y2="0" stroke-width="1" stroke="black"></line></g><g is="custom" class="draggable" id="movable_pipeline_x1_52" transform="translate(818.01,526.14)"><rect x="-15" y="-15" rx="30" ry="30" width="30" height="30" fill-opacity="0"></rect><circle id="pipeline_circle_x1_52" cx="10" cy="12" stroke-width="1" r="5" stroke="black" fill="white"></circle></g><g is="custom" class="draggable" id="movable_pipeline_x2_52" transform="translate(965.52,526.14)"><rect x="-15" y="-15" rx="30" ry="30" width="30" height="30" fill-opacity="0"></rect><circle id="pipeline_circle_x2_52" cx="-10" cy="12" stroke-width="1" r="5" stroke="black" fill="white"></circle></g><g id="pipeline_box_66" transform="translate(871.65,676.92)"><line x1="0" y1="0" x2="67.04999999999995" y2="0" stroke-width="1" stroke="black"></line><line x1="67.04999999999995" y1="0" x2="67.04999999999995" y2="22" stroke-width="1" stroke="black"></line><line x1="67.04999999999995" y1="22" x2="0" y2="22" stroke-width="1" stroke="black"></line><line x1="0" y1="22" x2="0" y2="0" stroke-width="1" stroke="black"></line></g><g is="custom" class="draggable" id="movable_pipeline_x1_66" transform="translate(871.65,676.92)"><rect x="-15" y="-15" rx="30" ry="30" width="30" height="30" fill-opacity="0"></rect><circle id="pipeline_circle_x1_66" cx="10" cy="12" stroke-width="1" r="5" stroke="black" fill="white"></circle></g><g is="custom" class="draggable" id="movable_pipeline_x2_66" transform="translate(938.6999999999999,676.92)"><rect x="-15" y="-15" rx="30" ry="30" width="30" height="30" fill-opacity="0"></rect><circle id="pipeline_circle_x2_66" cx="-10" cy="12" stroke-width="1" r="5" stroke="black" fill="white"></circle></g></g><g id="elements"><g is="custom" class="draggable" id="movable_element_7" transform="translate(750.96,71.79999999999998)"><rect x="-15" y="-15" rx="30" ry="30" width="30" height="30" fill-opacity="0"></rect><circle id="element_circle_7" stroke-width="1" r="5" stroke="black" fill="white"></circle><rect id="element_square_7" x="-5" y="-5" fill="white" stroke="black" width="10" height="10" stroke-width="2"></rect></g><g transform="translate(750.96,71.79999999999998)"><g class="draggable" id="movable_element_text_7" transform="translate(-70,-14)"><text is="custom" id="element_text_7" data-testid="element_text_7" font-weight="14px" font-size="13px" class="label" transform="" fill="black">BAD ACTOR</text></g></g><g is="custom" class="draggable" id="movable_element_10" transform="translate(496.17,86.16)"><rect x="-15" y="-15" rx="30" ry="30" width="30" height="30" fill-opacity="0"></rect><circle id="element_circle_10" stroke-width="1" r="5" stroke="black" fill="white"></circle></g><g transform="translate(496.17,86.16)"><g class="draggable" id="movable_element_text_10" transform="translate(-79,-23)"><text is="custom" id="element_text_10" data-testid="element_text_10" font-weight="14px" font-size="13px" class="label" transform="translate(30, 10)" fill="black"><tspan x="0" dy="0" text-anchor="middle">local</tspan><tspan x="0" dy="15" text-anchor="middle">criminal</tspan><tspan x="0" dy="15" text-anchor="middle">gang</tspan></text></g></g><g is="custom" class="draggable" id="movable_element_11" transform="translate(576.63,86.16)"><rect x="-15" y="-15" rx="30" ry="30" width="30" height="30" fill-opacity="0"></rect><circle id="element_circle_11" stroke-width="1" r="5" stroke="black" fill="white"></circle></g><g transform="translate(576.63,86.16)"><g class="draggable" id="movable_element_text_11" transform="translate(-36,23)"><text is="custom" id="element_text_11" data-testid="element_text_11" font-weight="14px" font-size="13px" class="label" transform="" fill="black">lone wolf</text></g></g><g is="custom" class="draggable" id="movable_element_12" transform="translate(844.83,86.16)"><rect x="-15" y="-15" rx="30" ry="30" width="30" height="30" fill-opacity="0"></rect><circle id="element_circle_12" stroke-width="1" r="5" stroke="black" fill="white"></circle></g><g transform="translate(844.83,86.16)"><g class="draggable" id="movable_element_text_12" transform="translate(24,2)"><text is="custom" id="element_text_12" data-testid="element_text_12" font-weight="14px" font-size="13px" class="label" transform="" fill="black">script kiddy</text></g></g><g is="custom" class="draggable" id="movable_element_13" transform="translate(710.73,86.16)"><rect x="-15" y="-15" rx="30" ry="30" width="30" height="30" fill-opacity="0"></rect><circle id="element_circle_13" stroke-width="1" r="5" stroke="black" fill="white"></circle></g><g transform="translate(710.73,86.16)"><g class="draggable" id="movable_element_text_13" transform="translate(-21,13)"><text is="custom" id="element_text_13" data-testid="element_text_13" font-weight="14px" font-size="13px" class="label" transform="translate(30, 10)" fill="black"><tspan x="0" dy="0" text-anchor="middle">organised</tspan><tspan x="0" dy="15" text-anchor="middle">crime</tspan></text></g></g><g is="custom" class="draggable" id="movable_element_14" transform="translate(818.01,86.16)"><rect x="-15" y="-15" rx="30" ry="30" width="30" height="30" fill-opacity="0"></rect><circle id="element_circle_14" stroke-width="1" r="5" stroke="black" fill="white"></circle></g><g transform="translate(818.01,86.16)"><g class="draggable" id="movable_element_text_14" transform="translate(-12,-18)"><text is="custom" id="element_text_14" data-testid="element_text_14" font-weight="14px" font-size="13px" class="label" transform="" fill="black">nation state</text></g></g><g is="custom" class="draggable" id="movable_element_16" transform="translate(885.0600000000001,165.14)"><rect x="-15" y="-15" rx="30" ry="30" width="30" height="30" fill-opacity="0"></rect><circle id="element_circle_16" stroke-width="1" r="5" stroke="black" fill="white"></circle><rect id="element_square_16" x="-5" y="-5" fill="white" stroke="black" width="10" height="10" stroke-width="2"></rect></g><g transform="translate(885.0600000000001,165.14)"><g class="draggable" id="movable_element_text_16" transform="translate(-61,-4)"><text is="custom" id="element_text_16" data-testid="element_text_16" font-weight="14px" font-size="13px" class="label" transform="" fill="black">REWARDS</text></g></g><g is="custom" class="draggable" id="movable_element_18" transform="translate(1005.75,179.5)"><rect x="-15" y="-15" rx="30" ry="30" width="30" height="30" fill-opacity="0"></rect><circle id="element_circle_18" stroke-width="1" r="5" stroke="black" fill="white"></circle></g><g transform="translate(1005.75,179.5)"><g class="draggable" id="movable_element_text_18" transform="translate(24,1)"><text is="custom" id="element_text_18" data-testid="element_text_18" font-weight="14px" font-size="13px" class="label" transform="" fill="black">money</text></g></g><g is="custom" class="draggable" id="movable_element_19" transform="translate(938.6999999999999,179.5)"><rect x="-15" y="-15" rx="30" ry="30" width="30" height="30" fill-opacity="0"></rect><circle id="element_circle_19" stroke-width="1" r="5" stroke="black" fill="white"></circle><rect id="element_square_19" x="-5" y="-5" fill="white" stroke="black" width="10" height="10" stroke-width="2"></rect></g><g transform="translate(938.6999999999999,179.5)"><g class="draggable" id="movable_element_text_19" transform="translate(-19,28)"><text is="custom" id="element_text_19" data-testid="element_text_19" font-weight="14px" font-size="13px" class="label" transform="" fill="black">POWER</text></g></g><g is="custom" class="draggable" id="movable_element_21" transform="translate(536.4,179.5)"><rect x="-15" y="-15" rx="30" ry="30" width="30" height="30" fill-opacity="0"></rect><circle id="element_circle_21" stroke-width="1" r="5" stroke="black" fill="white"></circle></g><g transform="translate(536.4,179.5)"><g class="draggable" id="movable_element_text_21" transform="translate(-118,2)"><text is="custom" id="element_text_21" data-testid="element_text_21" font-weight="14px" font-size="13px" class="label" transform="" fill="black">disinformation</text></g></g><g is="custom" class="draggable" id="movable_element_23" transform="translate(858.24,236.93999999999997)"><rect x="-15" y="-15" rx="30" ry="30" width="30" height="30" fill-opacity="0"></rect><circle id="element_circle_23" stroke-width="1" r="5" stroke="black" fill="white"></circle><rect id="element_square_23" x="-5" y="-5" fill="white" stroke="black" width="10" height="10" stroke-width="2"></rect></g><g transform="translate(858.24,236.93999999999997)"><g class="draggable" id="movable_element_text_23" transform="translate(5,-10)"><text is="custom" id="element_text_23" data-testid="element_text_23" font-weight="14px" font-size="13px" class="label" transform="" fill="black">TARGET</text></g></g><g is="custom" class="draggable" id="movable_element_25" transform="translate(885.0600000000001,251.29999999999998)"><rect x="-15" y="-15" rx="30" ry="30" width="30" height="30" fill-opacity="0"></rect><circle id="element_circle_25" stroke-width="1" r="5" stroke="black" fill="white"></circle></g><g transform="translate(885.0600000000001,251.29999999999998)"><g class="draggable" id="movable_element_text_25" transform="translate(-17,24)"><text is="custom" id="element_text_25" data-testid="element_text_25" font-weight="14px" font-size="13px" class="label" transform="" fill="black">Ad Platform</text></g></g><g is="custom" class="draggable" id="movable_element_26" transform="translate(683.91,251.29999999999998)"><rect x="-15" y="-15" rx="30" ry="30" width="30" height="30" fill-opacity="0"></rect><circle id="element_circle_26" stroke-width="1" r="5" stroke="black" fill="white"></circle></g><g transform="translate(683.91,251.29999999999998)"><g class="draggable" id="movable_element_text_26" transform="translate(-24,-19)"><text is="custom" id="element_text_26" data-testid="element_text_26" font-weight="14px" font-size="13px" class="label" transform="" fill="black">Brand</text></g></g><g is="custom" class="draggable" id="movable_element_27" transform="translate(764.3699999999999,251.29999999999998)"><rect x="-15" y="-15" rx="30" ry="30" width="30" height="30" fill-opacity="0"></rect><circle id="element_circle_27" stroke-width="1" r="5" stroke="black" fill="white"></circle><rect id="element_square_27" x="-5" y="-5" fill="white" stroke="black" width="10" height="10" stroke-width="2"></rect></g><g transform="translate(764.3699999999999,251.29999999999998)"><g class="draggable" id="movable_element_text_27" transform="translate(-3,-18)"><text is="custom" id="element_text_27" data-testid="element_text_27" font-weight="14px" font-size="13px" class="label" transform="" fill="black">ENTITY</text></g></g><g is="custom" class="draggable" id="movable_element_30" transform="translate(911.8800000000001,129.24000000000004)"><rect x="-15" y="-15" rx="30" ry="30" width="30" height="30" fill-opacity="0"></rect><circle id="element_circle_30" stroke-width="1" r="5" stroke="black" fill="white"></circle></g><g transform="translate(911.8800000000001,129.24000000000004)"><g class="draggable" id="movable_element_text_30" transform="translate(12,-14)"><text is="custom" id="element_text_30" data-testid="element_text_30" font-weight="14px" font-size="13px" class="label" transform="translate(30, 10)" fill="black"><tspan x="0" dy="0" text-anchor="middle">obfuscated</tspan><tspan x="0" dy="15" text-anchor="middle">Identity</tspan></text></g></g><g is="custom" class="draggable" id="movable_element_32" transform="translate(831.42,323.09999999999997)"><rect x="-15" y="-15" rx="30" ry="30" width="30" height="30" fill-opacity="0"></rect><circle id="element_circle_32" stroke-width="1" r="5" stroke="black" fill="white"></circle><rect id="element_square_32" x="-5" y="-5" fill="white" stroke="black" width="10" height="10" stroke-width="2"></rect></g><g transform="translate(831.42,323.09999999999997)"><g class="draggable" id="movable_element_text_32" transform="translate(10,-7)"><text is="custom" id="element_text_32" data-testid="element_text_32" font-weight="14px" font-size="13px" class="label" transform="" fill="black">ATTACK VECTOR</text></g></g><g is="custom" class="draggable" id="movable_element_35" transform="translate(764.3699999999999,337.46)"><rect x="-15" y="-15" rx="30" ry="30" width="30" height="30" fill-opacity="0"></rect><circle id="element_circle_35" stroke-width="1" r="5" stroke="black" fill="white"></circle></g><g transform="translate(764.3699999999999,337.46)"><g class="draggable" id="movable_element_text_35" transform="translate(23,13)"><text is="custom" id="element_text_35" data-testid="element_text_35" font-weight="14px" font-size="13px" class="label" transform="translate(30, 10)" fill="black"><tspan x="0" dy="0" text-anchor="middle">social-engineering</tspan></text></g></g><g is="custom" class="draggable" id="movable_element_36" transform="translate(670.5,337.46)"><rect x="-15" y="-15" rx="30" ry="30" width="30" height="30" fill-opacity="0"></rect><circle id="element_circle_36" stroke-width="1" r="5" stroke="black" fill="white"></circle><rect id="element_square_36" x="-5" y="-5" fill="white" stroke="black" width="10" height="10" stroke-width="2"></rect></g><g transform="translate(670.5,337.46)"><g class="draggable" id="movable_element_text_36" transform="translate(-54,24)"><text is="custom" id="element_text_36" data-testid="element_text_36" font-weight="14px" font-size="13px" class="label" transform="" fill="black">HACKING TOOLS</text></g></g><g is="custom" class="draggable" id="movable_element_38" transform="translate(710.73,337.46)"><rect x="-15" y="-15" rx="30" ry="30" width="30" height="30" fill-opacity="0"></rect><circle id="element_circle_38" stroke-width="1" r="5" stroke="black" fill="white"></circle><rect id="element_square_38" x="-5" y="-5" fill="white" stroke="black" width="10" height="10" stroke-width="2"></rect></g><g transform="translate(710.73,337.46)"><g class="draggable" id="movable_element_text_38" transform="translate(-11,-18)"><text is="custom" id="element_text_38" data-testid="element_text_38" font-weight="14px" font-size="13px" class="label" transform="" fill="black">KNOWLEDGE</text></g></g><g is="custom" class="draggable" id="movable_element_40" transform="translate(965.52,337.46)"><rect x="-15" y="-15" rx="30" ry="30" width="30" height="30" fill-opacity="0"></rect><circle id="element_circle_40" stroke-width="1" r="5" stroke="black" fill="white"></circle><rect id="element_square_40" x="-5" y="-5" fill="white" stroke="black" width="10" height="10" stroke-width="2"></rect></g><g transform="translate(965.52,337.46)"><g class="draggable" id="movable_element_text_40" transform="translate(19,3)"><text is="custom" id="element_text_40" data-testid="element_text_40" font-weight="14px" font-size="13px" class="label" transform="" fill="black">ENABLERS</text></g></g><g is="custom" class="draggable" id="movable_element_43" transform="translate(804.6,416.44000000000005)"><rect x="-15" y="-15" rx="30" ry="30" width="30" height="30" fill-opacity="0"></rect><circle id="element_circle_43" stroke-width="1" r="5" stroke="black" fill="white"></circle><rect id="element_square_43" x="-5" y="-5" fill="white" stroke="black" width="10" height="10" stroke-width="2"></rect></g><g transform="translate(804.6,416.44000000000005)"><g class="draggable" id="movable_element_text_43" transform="translate(-60,-10)"><text is="custom" id="element_text_43" data-testid="element_text_43" font-weight="14px" font-size="13px" class="label" transform="" fill="black">SOURCES</text></g></g><g is="custom" class="draggable" id="movable_element_45" transform="translate(750.96,430.8)"><rect x="-15" y="-15" rx="30" ry="30" width="30" height="30" fill-opacity="0"></rect><circle id="element_circle_45" stroke-width="1" r="5" stroke="black" fill="white"></circle></g><g transform="translate(750.96,430.8)"><g class="draggable" id="movable_element_text_45" transform="translate(-25,8)"><text is="custom" id="element_text_45" data-testid="element_text_45" font-weight="14px" font-size="13px" class="label" transform="translate(30, 10)" fill="black"><tspan x="0" dy="0" text-anchor="middle">dark</tspan><tspan x="0" dy="15" text-anchor="middle">web</tspan><tspan x="0" dy="15" text-anchor="middle">marketplace</tspan></text></g></g><g is="custom" class="draggable" id="movable_element_46" transform="translate(992.34,430.8)"><rect x="-15" y="-15" rx="30" ry="30" width="30" height="30" fill-opacity="0"></rect><circle id="element_circle_46" stroke-width="1" r="5" stroke="black" fill="white"></circle></g><g transform="translate(992.34,430.8)"><g class="draggable" id="movable_element_text_46" transform="translate(21,6)"><text is="custom" id="element_text_46" data-testid="element_text_46" font-weight="14px" font-size="13px" class="label" transform="" fill="black">PII</text></g></g><g is="custom" class="draggable" id="movable_element_48" transform="translate(938.6999999999999,430.8)"><rect x="-15" y="-15" rx="30" ry="30" width="30" height="30" fill-opacity="0"></rect><circle id="element_circle_48" stroke-width="1" r="5" stroke="black" fill="white"></circle><rect id="element_square_48" x="-5" y="-5" fill="white" stroke="black" width="10" height="10" stroke-width="2"></rect></g><g transform="translate(938.6999999999999,430.8)"><g class="draggable" id="movable_element_text_48" transform="translate(-15,-45)"><text is="custom" id="element_text_48" data-testid="element_text_48" font-weight="14px" font-size="13px" class="label" transform="translate(30, 10)" fill="black"><tspan x="0" dy="0" text-anchor="middle">INTERNET</tspan><tspan x="0" dy="15" text-anchor="middle">DEVICES</tspan></text></g></g><g is="custom" class="draggable" id="movable_element_51" transform="translate(898.47,524.14)"><rect x="-15" y="-15" rx="30" ry="30" width="30" height="30" fill-opacity="0"></rect><circle id="element_circle_51" stroke-width="1" r="5" stroke="black" fill="white"></circle><rect id="element_square_51" x="-5" y="-5" fill="white" stroke="black" width="10" height="10" stroke-width="2"></rect></g><g transform="translate(898.47,524.14)"><g class="draggable" id="movable_element_text_51" transform="translate(-59,-11)"><text is="custom" id="element_text_51" data-testid="element_text_51" font-weight="14px" font-size="13px" class="label" transform="" fill="black">IDENTITY</text></g></g><g is="custom" class="draggable" id="movable_element_53" transform="translate(952.1099999999999,538.5)"><rect x="-15" y="-15" rx="30" ry="30" width="30" height="30" fill-opacity="0"></rect><circle id="element_circle_53" stroke-width="1" r="5" stroke="black" fill="white"></circle></g><g transform="translate(952.1099999999999,538.5)"><g class="draggable" id="movable_element_text_53" transform="translate(19,3)"><text is="custom" id="element_text_53" data-testid="element_text_53" font-weight="14px" font-size="13px" class="label" transform="" fill="black">passport</text></g></g><g is="custom" class="draggable" id="movable_element_54" transform="translate(871.65,538.5)"><rect x="-15" y="-15" rx="30" ry="30" width="30" height="30" fill-opacity="0"></rect><circle id="element_circle_54" stroke-width="1" r="5" stroke="black" fill="white"></circle></g><g transform="translate(871.65,538.5)"><g class="draggable" id="movable_element_text_54" transform="translate(-20,22)"><text is="custom" id="element_text_54" data-testid="element_text_54" font-weight="14px" font-size="13px" class="label" transform="" fill="black">Bank ID</text></g></g><g is="custom" class="draggable" id="movable_element_55" transform="translate(831.42,538.5)"><rect x="-15" y="-15" rx="30" ry="30" width="30" height="30" fill-opacity="0"></rect><circle id="element_circle_55" stroke-width="1" r="5" stroke="black" fill="white"></circle></g><g transform="translate(831.42,538.5)"><g class="draggable" id="movable_element_text_55" transform="translate(-74,-15)"><text is="custom" id="element_text_55" data-testid="element_text_55" font-weight="14px" font-size="13px" class="label" transform="translate(30, 10)" fill="black"><tspan x="0" dy="0" text-anchor="middle">Digital</tspan><tspan x="0" dy="15" text-anchor="middle">identity</tspan></text></g></g><g is="custom" class="draggable" id="movable_element_57" transform="translate(952.1099999999999,473.87999999999994)"><rect x="-15" y="-15" rx="30" ry="30" width="30" height="30" fill-opacity="0"></rect><circle id="element_circle_57" stroke-width="1" r="5" stroke="black" fill="white"></circle></g><g transform="translate(952.1099999999999,473.87999999999994)"><g class="draggable" id="movable_element_text_57" transform="translate(9,8)"><text is="custom" id="element_text_57" data-testid="element_text_57" font-weight="14px" font-size="13px" class="label" transform="" fill="black">cryptography</text></g></g><g is="custom" class="draggable" id="movable_element_58" transform="translate(496.17,337.46)"><rect x="-15" y="-15" rx="30" ry="30" width="30" height="30" fill-opacity="0"></rect><circle id="element_circle_58" stroke-width="1" r="5" stroke="black" fill="white"></circle><rect id="element_square_58" x="-5" y="-5" fill="white" stroke="black" width="10" height="10" stroke-width="2"></rect></g><g transform="translate(496.17,337.46)"><g class="draggable" id="movable_element_text_58" transform="translate(-29,-20)"><text is="custom" id="element_text_58" data-testid="element_text_58" font-weight="14px" font-size="13px" class="label" transform="" fill="black">DEEP FAKES</text></g></g><g is="custom" class="draggable" id="movable_element_62" transform="translate(858.24,603.12)"><rect x="-15" y="-15" rx="30" ry="30" width="30" height="30" fill-opacity="0"></rect><circle id="element_circle_62" stroke-width="1" r="5" stroke="black" fill="white"></circle><rect id="element_square_62" x="-5" y="-5" fill="white" stroke="black" width="10" height="10" stroke-width="2"></rect></g><g transform="translate(858.24,603.12)"><g class="draggable" id="movable_element_text_62" transform="translate(-74,-13)"><text is="custom" id="element_text_62" data-testid="element_text_62" font-weight="14px" font-size="13px" class="label" transform="translate(30, 10)" fill="black"><tspan x="0" dy="0" text-anchor="middle">TRUSTED</tspan><tspan x="0" dy="15" text-anchor="middle">AUHTORITY</tspan></text></g></g><g is="custom" class="draggable" id="movable_element_65" transform="translate(925.29,674.92)"><rect x="-15" y="-15" rx="30" ry="30" width="30" height="30" fill-opacity="0"></rect><circle id="element_circle_65" stroke-width="1" r="5" stroke="black" fill="white"></circle><rect id="element_square_65" x="-5" y="-5" fill="white" stroke="black" width="10" height="10" stroke-width="2"></rect></g><g transform="translate(925.29,674.92)"><g class="draggable" id="movable_element_text_65" transform="translate(9,-7)"><text is="custom" id="element_text_65" data-testid="element_text_65" font-weight="14px" font-size="13px" class="label" transform="" fill="black">IDENTIFIER</text></g></g><g is="custom" class="draggable" id="movable_element_67" transform="translate(925.29,689.28)"><rect x="-15" y="-15" rx="30" ry="30" width="30" height="30" fill-opacity="0"></rect><circle id="element_circle_67" stroke-width="1" r="5" stroke="black" fill="white"></circle></g><g transform="translate(925.29,689.28)"><g class="draggable" id="movable_element_text_67" transform="translate(21,4)"><text is="custom" id="element_text_67" data-testid="element_text_67" font-weight="14px" font-size="13px" class="label" transform="" fill="black">image</text></g></g><g is="custom" class="draggable" id="movable_element_69" transform="translate(415.71,251.29999999999998)"><rect x="-15" y="-15" rx="30" ry="30" width="30" height="30" fill-opacity="0"></rect><circle id="element_circle_69" stroke-width="1" r="5" stroke="black" fill="white"></circle></g><g transform="translate(415.71,251.29999999999998)"><g class="draggable" id="movable_element_text_69" transform="translate(-90,-27)"><text is="custom" id="element_text_69" data-testid="element_text_69" font-weight="14px" font-size="13px" class="label" transform="translate(30, 10)" fill="black"><tspan x="0" dy="0" text-anchor="middle">automated</tspan><tspan x="0" dy="15" text-anchor="middle">targetting</tspan><tspan x="0" dy="15" text-anchor="middle">and</tspan><tspan x="0" dy="15" text-anchor="middle">exploitation</tspan></text></g></g><g is="custom" class="draggable" id="movable_element_70" transform="translate(522.99,560.04)"><rect x="-15" y="-15" rx="30" ry="30" width="30" height="30" fill-opacity="0"></rect><circle id="element_circle_70" stroke-width="1" r="5" stroke="black" fill="white"></circle></g><g transform="translate(522.99,560.04)"><g class="draggable" id="movable_element_text_70" transform="translate(-38,14)"><text is="custom" id="element_text_70" data-testid="element_text_70" font-weight="14px" font-size="13px" class="label" transform="translate(30, 10)" fill="black"><tspan x="0" dy="0" text-anchor="middle">automated</tspan><tspan x="0" dy="15" text-anchor="middle">targetting</tspan></text></g></g><g is="custom" class="draggable" id="movable_element_72" transform="translate(254.79,459.52)"><rect x="-15" y="-15" rx="30" ry="30" width="30" height="30" fill-opacity="0"></rect><circle id="element_circle_72" stroke-width="1" r="5" stroke="black" fill="white"></circle></g><g transform="translate(254.79,459.52)"><g class="draggable" id="movable_element_text_72" transform="translate(-40,5)"><text is="custom" id="element_text_72" data-testid="element_text_72" font-weight="14px" font-size="13px" class="label" transform="translate(30, 10)" fill="black"><tspan x="0" dy="0" text-anchor="middle">quantum</tspan><tspan x="0" dy="15" text-anchor="middle">computing</tspan></text></g></g><g is="custom" class="draggable" id="movable_element_74" transform="translate(415.71,337.46)"><rect x="-15" y="-15" rx="30" ry="30" width="30" height="30" fill-opacity="0"></rect><circle id="element_circle_74" stroke-width="1" r="5" stroke="black" fill="white"></circle></g><g transform="translate(415.71,337.46)"><g class="draggable" id="movable_element_text_74" transform="translate(-84,-13)"><text is="custom" id="element_text_74" data-testid="element_text_74" font-weight="14px" font-size="13px" class="label" transform="translate(30, 10)" fill="black"><tspan x="0" dy="0" text-anchor="middle">quantum</tspan><tspan x="0" dy="15" text-anchor="middle">cracking</tspan></text></g></g><g is="custom" class="draggable" id="movable_element_60ev" transform="translate(952.1099999999999,639.02)"><rect x="-15" y="-15" rx="30" ry="30" width="30" height="30" fill-opacity="0"></rect><circle id="element_circle_60ev" stroke-width="1" r="5" stroke="red" fill="white"></circle></g><g transform="translate(952.1099999999999,639.02)"><g class="draggable" id="movable_element_text_60ev" transform="translate(25,-3222)"><text is="custom" id="element_text_60ev" data-testid="element_text_60ev" font-weight="14px" font-size="13px" class="label" transform="" fill="red">LLM</text></g></g><g is="custom" class="draggable" id="movable_element_60" transform="translate(764.3699999999999,639.02)"><rect x="-15" y="-15" rx="30" ry="30" width="30" height="30" fill-opacity="0"></rect><circle id="element_circle_60" stroke-width="1" r="5" stroke="black" fill="white"></circle></g><g transform="translate(764.3699999999999,639.02)"><g class="draggable" id="movable_element_text_60" transform="translate(-22,18)"><text is="custom" id="element_text_60" data-testid="element_text_60" font-weight="14px" font-size="13px" class="label" transform="" fill="black">LLM</text></g></g></g><g id="notes"></g><g id="annotations"></g></g></svg>