<?xml version="1.0" encoding="UTF-8"?><!DOCTYPE svg PUBLIC "-//W3C//DTD SVG 1.1//EN" "http://www.w3.org/Graphics/SVG/1.1/DTD/svg11.dtd"><svg font-family="Consolas, Lucida Console, monospace" font-size="13px" class="wardley" id="svgMap" width="1381" height="798" viewBox="-20 0 1361 738" version="1.1" xmlns="http://www.w3.org/2000/svg" xmlns:xlink="http://www.w3.org/1999/xlink"><defs><filter id="ctrlHighlight"><feDropShadow dx="0" dy="0" stdDeviation="3" flood-color="blue"></feDropShadow></filter><linearGradient gradientUnits="objectBoundingBox" id="wardleyGradient" spreadMethod="pad" x1="0%" x2="100%" y1="0%" y2="0%"><stop offset="0%" style="stop-color:rgb(196, 196, 196);stop-opacity:1"></stop><stop offset="0.3" style="stop-color:white;stop-opacity:1"></stop><stop offset="0.7" style="stop-color:white"></stop><stop offset="1" style="stop-color:rgb(196, 196, 196)"></stop></linearGradient><linearGradient spreadMethod="pad" id="accelGradient" x1="0%" y1="64%" x2="76%" y2="0%"><stop offset="0%" style="stop-color:white;stop-opacity:1"></stop><stop offset="100%" style="stop-color:#8c8995;stop-opacity:1"></stop></linearGradient><pattern id="diagonalHatch" patternUnits="userSpaceOnUse" width="4" height="4"><path d="M 3,-1 l 2,2 M 0,0 l 4,4 M -1,3 l 2,2 " stroke="grey" stroke-width="1" opacity=".5"></path></pattern><marker id="arrow" markerWidth="12" markerHeight="12" refX="15" refY="0" viewBox="0 -5 10 10" orient="0"><path d="M0,-5L10,0L0,5" fill="red"></path></marker><marker id="graphArrow" markerWidth="12" markerHeight="12" refX="9" refY="0" viewBox="0 -5 10 10" orient="0"><path d="M0,-5L10,0L0,5" fill="black"></path></marker><marker id="pipelineArrow" markerWidth="5" markerHeight="5" refX="9" refY="0" viewBox="0 -5 10 10" orient="0"><path d="M0,-5L10,0L0,5" fill="black"></path></marker></defs><g id="grid"><rect x="0" width="1341" y="0" height="718" id="fillArea" fill="url(#wardleyGradient)"></rect><g id="valueChain" transform="translate(0,718) rotate(270)" font-family="&quot;Helvetica Neue&quot;,Helvetica,Arial,sans-serif" font-size="13px"><line x1="0" y1="0" x2="718" y2="0" stroke="black" stroke-width="1" stroke-dasharray="2,2"></line><line x1="-2em" y1="234.67499999999998" x2="718" y2="234.67499999999998" stroke="#b8b8b8" stroke-dasharray="2,2"></line><line x1="-2em" y1="536.4" x2="718" y2="536.4" stroke="#b8b8b8" stroke-dasharray="2,2"></line><line x1="-2em" y1="938.6999999999999" x2="718" y2="938.6999999999999" stroke="#b8b8b8" stroke-dasharray="2,2"></line><text fill="black" x="716" y="-0.4em" text-anchor="end" font-weight="bold">Value Chain</text></g><g id="Evolution" font-family="&quot;Helvetica Neue&quot;,Helvetica,Arial,sans-serif" font-size="13px" font-style="italic" transform="translate(0,718)"><line x1="0" y1="0" x2="1339" y2="0" stroke="black" stroke-width="1" marker-end="url(#graphArrow)"></line><text fill="black" x="10" y="-703" text-anchor="start" font-style="normal" font-size="11px" font-weight="bold">Uncharted</text><text fill="black" x="1331" y="-703" text-anchor="end" font-style="normal" font-size="11px" font-weight="bold">Industrialised</text><text fill="black" x="0" y="1em" text-anchor="start">genesis / concept </text><text fill="black" x="0" y="2em" text-anchor="start"></text><text fill="black" x="241.67499999999998" y="1em" text-anchor="start"> custom / emerging </text><text fill="black" x="241.67499999999998" y="2em" text-anchor="start"></text><text fill="black" x="543.4" y="1em" text-anchor="start"> product / converging </text><text fill="black" x="543.4" y="2em" text-anchor="start"></text><text fill="black" x="945.6999999999999" y="1em" text-anchor="start"> commodity / accepted</text><text fill="black" x="945.6999999999999" y="2em" text-anchor="start"></text><text fill="black" x="1341" y="1.8em" text-anchor="end" font-weight="bold" font-style="normal">Evolution</text></g></g><g id="map"><g id="attitudes"></g><g id="methods"></g><g id="fluids"></g><g id="links"><g id="link_8_14"><line x1="603.45" y1="93.34" x2="362.07000000000005" y2="172.32" stroke="grey" stroke-width="1"></line></g><g id="link_8_16"><line x1="603.45" y1="93.34" x2="737.5500000000001" y2="215.40000000000003" stroke="grey" stroke-width="1"></line></g><g id="link_7_8"><line x1="898.47" y1="57.43999999999997" x2="603.45" y2="93.34" stroke="grey" stroke-width="1"></line></g><g id="link_7_16"><line x1="898.47" y1="57.43999999999997" x2="737.5500000000001" y2="215.40000000000003" stroke="grey" stroke-width="1"></line></g><g id="link_7_55"><line x1="898.47" y1="57.43999999999997" x2="482.76" y2="301.56" stroke="grey" stroke-width="1"></line></g><g id="link_7_28"><line x1="898.47" y1="57.43999999999997" x2="885.0600000000001" y2="380.54" stroke="grey" stroke-width="1"></line></g><g id="link_7_40"><line x1="898.47" y1="57.43999999999997" x2="683.91" y2="473.87999999999994" stroke="grey" stroke-width="1"></line></g><g id="link_28_52"><line x1="885.0600000000001" y1="380.54" x2="697.32" y2="595.9399999999999" stroke="grey" stroke-width="1"></line></g><g id="link_40_52"><line x1="683.91" y1="473.87999999999994" x2="697.32" y2="595.9399999999999" stroke="grey" stroke-width="1"></line></g><g id="link_16_28"><line x1="737.5500000000001" y1="215.40000000000003" x2="885.0600000000001" y2="380.54" stroke="grey" stroke-width="1"></line></g><g id="link_28_40"><line x1="885.0600000000001" y1="380.54" x2="683.91" y2="473.87999999999994" stroke="grey" stroke-width="1"></line></g><g id="link_52_65"><line x1="697.32" y1="595.9399999999999" x2="321.84" y2="674.92" stroke="grey" stroke-width="1"></line></g><g id="link_34_38"><line x1="1166.67" y1="394.90000000000003" x2="1233.72" y2="588.76" stroke="grey" stroke-width="1"></line></g><g id="link_36_38"><line x1="978.93" y1="394.90000000000003" x2="1233.72" y2="588.76" stroke="grey" stroke-width="1"></line></g><g id="link_35_38"><line x1="1032.57" y1="394.90000000000003" x2="1233.72" y2="588.76" stroke="grey" stroke-width="1"></line></g></g><g id="evolvingEndLinks"></g><g id="bothEvolving"><g id="link_46_68"><line x1="482.76" y1="488.23999999999995" x2="214.56" y2="689.28" stroke="grey" stroke-width="1"></line></g><g id="link_44_68"><line x1="375.48" y1="488.23999999999995" x2="214.56" y2="689.28" stroke="grey" stroke-width="1"></line></g></g><g id="anchorLinks"><g id="link_4_8"><line x1="670.5" y1="7.180000000000007" x2="603.45" y2="93.34" stroke="grey" stroke-width="1"></line></g><g id="link_5_8"><line x1="804.6" y1="0" x2="603.45" y2="93.34" stroke="grey" stroke-width="1"></line></g><g id="link_5_7"><line x1="804.6" y1="0" x2="898.47" y2="57.43999999999997" stroke="grey" stroke-width="1"></line></g></g><g id="anchorNonEvolvedLinks"></g><g id="evolvingToNoneEvolvingEndLinks"><g id="link_18_52"><line x1="496.17" y1="229.75999999999996" x2="697.32" y2="595.9399999999999" stroke="grey" stroke-width="1"></line></g></g><g id="evolvedLinks"><g><line x1="670.5" y1="229.75999999999996" x2="496.17" y2="229.75999999999996" stroke-dasharray="5 5" stroke="red" stroke-width="1" marker-start="url(#arrow)"></line></g><g><line x1="670.5" y1="689.28" x2="214.56" y2="689.28" stroke-dasharray="5 5" stroke="red" stroke-width="1" marker-start="url(#arrow)"></line></g><line x1="536.4" y1="679.28" x2="536.4" y2="699.28" stroke="black" stroke-width="6"></line><g><line x1="938.6999999999999" y1="488.23999999999995" x2="375.48" y2="488.23999999999995" stroke-dasharray="5 5" stroke="red" stroke-width="1" marker-start="url(#arrow)"></line></g><g><line x1="804.6" y1="488.23999999999995" x2="482.76" y2="488.23999999999995" stroke-dasharray="5 5" stroke="red" stroke-width="1" marker-start="url(#arrow)"></line></g><line x1="536.4" y1="478.23999999999995" x2="536.4" y2="498.23999999999995" stroke="black" stroke-width="6"></line>;</g><g id="anchors"><g is="custom" class="draggable" id="movable_anchor_4" transform="translate(670.5,7.180000000000007)"><rect x="-15" y="-15" rx="30" ry="30" width="30" height="30" fill-opacity="0"></rect><text is="custom" id="anchor_text_4" data-testid="anchor_text_4" font-weight="14px" font-size="14px" class="label" text-anchor="middle" x="0" y="-10" transform="" fill="black">Employee</text></g><g is="custom" class="draggable" id="movable_anchor_5" transform="translate(804.6,0)"><rect x="-15" y="-15" rx="30" ry="30" width="30" height="30" fill-opacity="0"></rect><text is="custom" id="anchor_text_5" data-testid="anchor_text_5" font-weight="14px" font-size="14px" class="label" text-anchor="middle" x="0" y="-10" transform="translate(30, 10)" fill="black"><tspan x="0" dy="0" text-anchor="middle">CISO/Legal</tspan><tspan x="0" dy="15" text-anchor="middle">Counsel</tspan></text></g></g><g id="pipelines"><g id="pipeline_box_9" transform="translate(281.61,95.34)"><line x1="0" y1="0" x2="710.73" y2="0" stroke-width="1" stroke="black"></line><line x1="710.73" y1="0" x2="710.73" y2="22" stroke-width="1" stroke="black"></line><line x1="710.73" y1="22" x2="0" y2="22" stroke-width="1" stroke="black"></line><line x1="0" y1="22" x2="0" y2="0" stroke-width="1" stroke="black"></line></g><g is="custom" class="draggable" id="movable_pipeline_x1_9" transform="translate(281.61,95.34)"><rect x="-15" y="-15" rx="30" ry="30" width="30" height="30" fill-opacity="0"></rect><circle id="pipeline_circle_x1_9" cx="10" cy="12" stroke-width="1" r="5" stroke="black" fill="white"></circle></g><g is="custom" class="draggable" id="movable_pipeline_x2_9" transform="translate(992.34,95.34)"><rect x="-15" y="-15" rx="30" ry="30" width="30" height="30" fill-opacity="0"></rect><circle id="pipeline_circle_x2_9" cx="-10" cy="12" stroke-width="1" r="5" stroke="black" fill="white"></circle></g><g id="pipeline_box_17" transform="translate(362.07000000000005,217.40000000000003)"><line x1="0" y1="0" x2="844.83" y2="0" stroke-width="1" stroke="black"></line><line x1="844.83" y1="0" x2="844.83" y2="22" stroke-width="1" stroke="black"></line><line x1="844.83" y1="22" x2="0" y2="22" stroke-width="1" stroke="black"></line><line x1="0" y1="22" x2="0" y2="0" stroke-width="1" stroke="black"></line></g><g is="custom" class="draggable" id="movable_pipeline_x1_17" transform="translate(362.07000000000005,217.40000000000003)"><rect x="-15" y="-15" rx="30" ry="30" width="30" height="30" fill-opacity="0"></rect><circle id="pipeline_circle_x1_17" cx="10" cy="12" stroke-width="1" r="5" stroke="black" fill="white"></circle></g><g is="custom" class="draggable" id="movable_pipeline_x2_17" transform="translate(1206.9,217.40000000000003)"><rect x="-15" y="-15" rx="30" ry="30" width="30" height="30" fill-opacity="0"></rect><circle id="pipeline_circle_x2_17" cx="-10" cy="12" stroke-width="1" r="5" stroke="black" fill="white"></circle></g><g id="pipeline_box_29" transform="translate(308.43,382.54)"><line x1="0" y1="0" x2="871.6499999999999" y2="0" stroke-width="1" stroke="black"></line><line x1="871.6499999999999" y1="0" x2="871.6499999999999" y2="22" stroke-width="1" stroke="black"></line><line x1="871.6499999999999" y1="22" x2="0" y2="22" stroke-width="1" stroke="black"></line><line x1="0" y1="22" x2="0" y2="0" stroke-width="1" stroke="black"></line></g><g is="custom" class="draggable" id="movable_pipeline_x1_29" transform="translate(308.43,382.54)"><rect x="-15" y="-15" rx="30" ry="30" width="30" height="30" fill-opacity="0"></rect><circle id="pipeline_circle_x1_29" cx="10" cy="12" stroke-width="1" r="5" stroke="black" fill="white"></circle></g><g is="custom" class="draggable" id="movable_pipeline_x2_29" transform="translate(1180.08,382.54)"><rect x="-15" y="-15" rx="30" ry="30" width="30" height="30" fill-opacity="0"></rect><circle id="pipeline_circle_x2_29" cx="-10" cy="12" stroke-width="1" r="5" stroke="black" fill="white"></circle></g><g id="pipeline_box_41" transform="translate(241.38,475.87999999999994)"><line x1="0" y1="0" x2="1032.5700000000002" y2="0" stroke-width="1" stroke="black"></line><line x1="1032.5700000000002" y1="0" x2="1032.5700000000002" y2="22" stroke-width="1" stroke="black"></line><line x1="1032.5700000000002" y1="22" x2="0" y2="22" stroke-width="1" stroke="black"></line><line x1="0" y1="22" x2="0" y2="0" stroke-width="1" stroke="black"></line></g><g is="custom" class="draggable" id="movable_pipeline_x1_41" transform="translate(241.38,475.87999999999994)"><rect x="-15" y="-15" rx="30" ry="30" width="30" height="30" fill-opacity="0"></rect><circle id="pipeline_circle_x1_41" cx="10" cy="12" stroke-width="1" r="5" stroke="black" fill="white"></circle></g><g is="custom" class="draggable" id="movable_pipeline_x2_41" transform="translate(1273.95,475.87999999999994)"><rect x="-15" y="-15" rx="30" ry="30" width="30" height="30" fill-opacity="0"></rect><circle id="pipeline_circle_x2_41" cx="-10" cy="12" stroke-width="1" r="5" stroke="black" fill="white"></circle></g><g id="pipeline_box_56" transform="translate(241.38,303.56)"><line x1="0" y1="0" x2="616.86" y2="0" stroke-width="1" stroke="black"></line><line x1="616.86" y1="0" x2="616.86" y2="22" stroke-width="1" stroke="black"></line><line x1="616.86" y1="22" x2="0" y2="22" stroke-width="1" stroke="black"></line><line x1="0" y1="22" x2="0" y2="0" stroke-width="1" stroke="black"></line></g><g is="custom" class="draggable" id="movable_pipeline_x1_56" transform="translate(241.38,303.56)"><rect x="-15" y="-15" rx="30" ry="30" width="30" height="30" fill-opacity="0"></rect><circle id="pipeline_circle_x1_56" cx="10" cy="12" stroke-width="1" r="5" stroke="black" fill="white"></circle></g><g is="custom" class="draggable" id="movable_pipeline_x2_56" transform="translate(858.24,303.56)"><rect x="-15" y="-15" rx="30" ry="30" width="30" height="30" fill-opacity="0"></rect><circle id="pipeline_circle_x2_56" cx="-10" cy="12" stroke-width="1" r="5" stroke="black" fill="white"></circle></g><g id="pipeline_box_66" transform="translate(201.15,676.92)"><line x1="0" y1="0" x2="335.25" y2="0" stroke-width="1" stroke="black"></line><line x1="335.25" y1="0" x2="335.25" y2="22" stroke-width="1" stroke="black"></line><line x1="335.25" y1="22" x2="0" y2="22" stroke-width="1" stroke="black"></line><line x1="0" y1="22" x2="0" y2="0" stroke-width="1" stroke="black"></line></g><g is="custom" class="draggable" id="movable_pipeline_x1_66" transform="translate(201.15,676.92)"><rect x="-15" y="-15" rx="30" ry="30" width="30" height="30" fill-opacity="0"></rect><circle id="pipeline_circle_x1_66" cx="10" cy="12" stroke-width="1" r="5" stroke="black" fill="white"></circle></g><g is="custom" class="draggable" id="movable_pipeline_x2_66" transform="translate(536.4,676.92)"><rect x="-15" y="-15" rx="30" ry="30" width="30" height="30" fill-opacity="0"></rect><circle id="pipeline_circle_x2_66" cx="-10" cy="12" stroke-width="1" r="5" stroke="black" fill="white"></circle></g></g><g id="elements"><g is="custom" class="draggable" id="movable_element_7" transform="translate(898.47,57.43999999999997)"><rect x="-15" y="-15" rx="30" ry="30" width="30" height="30" fill-opacity="0"></rect><circle id="element_circle_7" stroke-width="1" r="5" stroke="black" fill="white"></circle></g><g transform="translate(898.47,57.43999999999997)"><g class="draggable" id="movable_element_text_7" transform="translate(9,-41)"><text is="custom" id="element_text_7" data-testid="element_text_7" font-weight="14px" font-size="13px" class="label" transform="translate(30, 10)" fill="black"><tspan x="0" dy="0" text-anchor="middle">security</tspan><tspan x="0" dy="15" text-anchor="middle">awareness</tspan><tspan x="0" dy="15" text-anchor="middle">(metric)</tspan></text></g></g><g is="custom" class="draggable" id="movable_element_8" transform="translate(603.45,93.34)"><rect x="-15" y="-15" rx="30" ry="30" width="30" height="30" fill-opacity="0"></rect><circle id="element_circle_8" stroke-width="1" r="5" stroke="black" fill="white"></circle><rect id="element_square_8" x="-5" y="-5" fill="white" stroke="black" width="10" height="10" stroke-width="2"></rect></g><g transform="translate(603.45,93.34)"><g class="draggable" id="movable_element_text_8" transform="translate(-21,-14)"><text is="custom" id="element_text_8" data-testid="element_text_8" font-weight="14px" font-size="13px" class="label" transform="" fill="black">EXPECTATIONS</text></g></g><g is="custom" class="draggable" id="movable_element_10" transform="translate(295.02,107.70000000000002)"><rect x="-15" y="-15" rx="30" ry="30" width="30" height="30" fill-opacity="0"></rect><circle id="element_circle_10" stroke-width="1" r="5" stroke="black" fill="white"></circle></g><g transform="translate(295.02,107.70000000000002)"><g class="draggable" id="movable_element_text_10" transform="translate(-105.16,-16.74000000000001)"><text is="custom" id="element_text_10" data-testid="element_text_10" font-weight="14px" font-size="13px" class="label" transform="translate(30, 10)" fill="black"><tspan x="0" dy="0" text-anchor="middle">personal/family</tspan><tspan x="0" dy="15" text-anchor="middle">choice</tspan></text></g></g><g is="custom" class="draggable" id="movable_element_11" transform="translate(536.4,107.70000000000002)"><rect x="-15" y="-15" rx="30" ry="30" width="30" height="30" fill-opacity="0"></rect><circle id="element_circle_11" stroke-width="1" r="5" stroke="black" fill="white"></circle></g><g transform="translate(536.4,107.70000000000002)"><g class="draggable" id="movable_element_text_11" transform="translate(-31.15,-18.57)"><text is="custom" id="element_text_11" data-testid="element_text_11" font-weight="14px" font-size="13px" class="label" transform="" fill="black">society</text></g></g><g is="custom" class="draggable" id="movable_element_12" transform="translate(978.93,107.70000000000002)"><rect x="-15" y="-15" rx="30" ry="30" width="30" height="30" fill-opacity="0"></rect><circle id="element_circle_12" stroke-width="1" r="5" stroke="black" fill="white"></circle></g><g transform="translate(978.93,107.70000000000002)"><g class="draggable" id="movable_element_text_12" transform="translate(19,0)"><text is="custom" id="element_text_12" data-testid="element_text_12" font-weight="14px" font-size="13px" class="label" transform="" fill="black">coporporate</text></g></g><g is="custom" class="draggable" id="movable_element_14" transform="translate(362.07000000000005,172.32)"><rect x="-15" y="-15" rx="30" ry="30" width="30" height="30" fill-opacity="0"></rect><circle id="element_circle_14" stroke-width="1" r="5" stroke="black" fill="white"></circle></g><g transform="translate(362.07000000000005,172.32)"><g class="draggable" id="movable_element_text_14" transform="translate(-109,2)"><text is="custom" id="element_text_14" data-testid="element_text_14" font-weight="14px" font-size="13px" class="label" transform="" fill="black">cultural norms</text></g></g><g is="custom" class="draggable" id="movable_element_16" transform="translate(737.5500000000001,215.40000000000003)"><rect x="-15" y="-15" rx="30" ry="30" width="30" height="30" fill-opacity="0"></rect><circle id="element_circle_16" stroke-width="1" r="5" stroke="black" fill="white"></circle><rect id="element_square_16" x="-5" y="-5" fill="white" stroke="black" width="10" height="10" stroke-width="2"></rect></g><g transform="translate(737.5500000000001,215.40000000000003)"><g class="draggable" id="movable_element_text_16" transform="translate(-31,-36)"><text is="custom" id="element_text_16" data-testid="element_text_16" font-weight="14px" font-size="13px" class="label" transform="translate(30, 10)" fill="black"><tspan x="0" dy="0" text-anchor="middle">SECURITY</tspan><tspan x="0" dy="15" text-anchor="middle">PRACTICES</tspan></text></g></g><g is="custom" class="draggable" id="movable_element_19" transform="translate(1193.49,229.75999999999996)"><rect x="-15" y="-15" rx="30" ry="30" width="30" height="30" fill-opacity="0"></rect><circle id="element_circle_19" stroke-width="1" r="5" stroke="black" fill="white"></circle></g><g transform="translate(1193.49,229.75999999999996)"><g class="draggable" id="movable_element_text_19" transform="translate(31,-10)"><text is="custom" id="element_text_19" data-testid="element_text_19" font-weight="14px" font-size="13px" class="label" transform="translate(30, 10)" fill="black"><tspan x="0" dy="0" text-anchor="middle">best/standard</tspan><tspan x="0" dy="15" text-anchor="middle">practices</tspan></text></g></g><g is="custom" class="draggable" id="movable_element_20" transform="translate(375.48,229.75999999999996)"><rect x="-15" y="-15" rx="30" ry="30" width="30" height="30" fill-opacity="0"></rect><circle id="element_circle_20" stroke-width="1" r="5" stroke="black" fill="white"></circle></g><g transform="translate(375.48,229.75999999999996)"><g class="draggable" id="movable_element_text_20" transform="translate(-93,-18)"><text is="custom" id="element_text_20" data-testid="element_text_20" font-weight="14px" font-size="13px" class="label" transform="translate(30, 10)" fill="black"><tspan x="0" dy="0" text-anchor="middle">responsible</tspan><tspan x="0" dy="15" text-anchor="middle">disclosure</tspan></text></g></g><g is="custom" class="draggable" id="movable_element_21" transform="translate(455.94000000000005,229.75999999999996)"><rect x="-15" y="-15" rx="30" ry="30" width="30" height="30" fill-opacity="0"></rect><circle id="element_circle_21" stroke-width="1" r="5" stroke="black" fill="white"></circle></g><g transform="translate(455.94000000000005,229.75999999999996)"><g class="draggable" id="movable_element_text_21" transform="translate(-46,-42)"><text is="custom" id="element_text_21" data-testid="element_text_21" font-weight="14px" font-size="13px" class="label" transform="translate(30, 10)" fill="black"><tspan x="0" dy="0" text-anchor="middle">ethical</tspan><tspan x="0" dy="15" text-anchor="middle">hacking</tspan></text></g></g><g is="custom" class="draggable" id="movable_element_22" transform="translate(697.32,229.75999999999996)"><rect x="-15" y="-15" rx="30" ry="30" width="30" height="30" fill-opacity="0"></rect><circle id="element_circle_22" stroke-width="1" r="5" stroke="black" fill="white"></circle></g><g transform="translate(697.32,229.75999999999996)"><g class="draggable" id="movable_element_text_22" transform="translate(-11,25)"><text is="custom" id="element_text_22" data-testid="element_text_22" font-weight="14px" font-size="13px" class="label" transform="" fill="black">MFA</text></g></g><g is="custom" class="draggable" id="movable_element_23" transform="translate(871.65,229.75999999999996)"><rect x="-15" y="-15" rx="30" ry="30" width="30" height="30" fill-opacity="0"></rect><circle id="element_circle_23" stroke-width="1" r="5" stroke="black" fill="white"></circle></g><g transform="translate(871.65,229.75999999999996)"><g class="draggable" id="movable_element_text_23" transform="translate(-13,-20)"><text is="custom" id="element_text_23" data-testid="element_text_23" font-weight="14px" font-size="13px" class="label" transform="" fill="black">VPN</text></g></g><g is="custom" class="draggable" id="movable_element_24" transform="translate(925.29,229.75999999999996)"><rect x="-15" y="-15" rx="30" ry="30" width="30" height="30" fill-opacity="0"></rect><circle id="element_circle_24" stroke-width="1" r="5" stroke="black" fill="white"></circle></g><g transform="translate(925.29,229.75999999999996)"><g class="draggable" id="movable_element_text_24" transform="translate(-15,-54)"><text is="custom" id="element_text_24" data-testid="element_text_24" font-weight="14px" font-size="13px" class="label" transform="translate(30, 10)" fill="black"><tspan x="0" dy="0" text-anchor="middle">general</tspan><tspan x="0" dy="15" text-anchor="middle">security</tspan><tspan x="0" dy="15" text-anchor="middle">behaviors</tspan></text></g></g><g is="custom" class="draggable" id="movable_element_25" transform="translate(1099.62,229.75999999999996)"><rect x="-15" y="-15" rx="30" ry="30" width="30" height="30" fill-opacity="0"></rect><circle id="element_circle_25" stroke-width="1" r="5" stroke="black" fill="white"></circle></g><g transform="translate(1099.62,229.75999999999996)"><g class="draggable" id="movable_element_text_25" transform="translate(-18,14)"><text is="custom" id="element_text_25" data-testid="element_text_25" font-weight="14px" font-size="13px" class="label" transform="translate(30, 10)" fill="black"><tspan x="0" dy="0" text-anchor="middle">password</tspan><tspan x="0" dy="15" text-anchor="middle">hygiene</tspan></text></g></g><g is="custom" class="draggable" id="movable_element_26" transform="translate(1072.8,229.75999999999996)"><rect x="-15" y="-15" rx="30" ry="30" width="30" height="30" fill-opacity="0"></rect><circle id="element_circle_26" stroke-width="1" r="5" stroke="black" fill="white"></circle></g><g transform="translate(1072.8,229.75999999999996)"><g class="draggable" id="movable_element_text_26" transform="translate(-74,-20)"><text is="custom" id="element_text_26" data-testid="element_text_26" font-weight="14px" font-size="13px" class="label" transform="" fill="black">password rules</text></g></g><g is="custom" class="draggable" id="movable_element_28" transform="translate(885.0600000000001,380.54)"><rect x="-15" y="-15" rx="30" ry="30" width="30" height="30" fill-opacity="0"></rect><circle id="element_circle_28" stroke-width="1" r="5" stroke="black" fill="white"></circle><rect id="element_square_28" x="-5" y="-5" fill="white" stroke="black" width="10" height="10" stroke-width="2"></rect></g><g transform="translate(885.0600000000001,380.54)"><g class="draggable" id="movable_element_text_28" transform="translate(-31,-15)"><text is="custom" id="element_text_28" data-testid="element_text_28" font-weight="14px" font-size="13px" class="label" transform="" fill="black">TRAINING</text></g></g><g is="custom" class="draggable" id="movable_element_30" transform="translate(616.86,394.90000000000003)"><rect x="-15" y="-15" rx="30" ry="30" width="30" height="30" fill-opacity="0"></rect><circle id="element_circle_30" stroke-width="1" r="5" stroke="black" fill="white"></circle></g><g transform="translate(616.86,394.90000000000003)"><g class="draggable" id="movable_element_text_30" transform="translate(-19,-46)"><text is="custom" id="element_text_30" data-testid="element_text_30" font-weight="14px" font-size="13px" class="label" transform="translate(30, 10)" fill="black"><tspan x="0" dy="0" text-anchor="middle">social</tspan><tspan x="0" dy="15" text-anchor="middle">engineering</tspan></text></g></g><g is="custom" class="draggable" id="movable_element_31" transform="translate(469.34999999999997,394.90000000000003)"><rect x="-15" y="-15" rx="30" ry="30" width="30" height="30" fill-opacity="0"></rect><circle id="element_circle_31" stroke-width="1" r="5" stroke="black" fill="white"></circle></g><g transform="translate(469.34999999999997,394.90000000000003)"><g class="draggable" id="movable_element_text_31" transform="translate(-31,-20)"><text is="custom" id="element_text_31" data-testid="element_text_31" font-weight="14px" font-size="13px" class="label" transform="" fill="black">gamification</text></g></g><g is="custom" class="draggable" id="movable_element_32" transform="translate(750.96,394.90000000000003)"><rect x="-15" y="-15" rx="30" ry="30" width="30" height="30" fill-opacity="0"></rect><circle id="element_circle_32" stroke-width="1" r="5" stroke="black" fill="white"></circle></g><g transform="translate(750.96,394.90000000000003)"><g class="draggable" id="movable_element_text_32" transform="translate(-9,-73)"><text is="custom" id="element_text_32" data-testid="element_text_32" font-weight="14px" font-size="13px" class="label" transform="translate(30, 10)" fill="black"><tspan x="0" dy="0" text-anchor="middle">learning</tspan><tspan x="0" dy="15" text-anchor="middle">from</tspan><tspan x="0" dy="15" text-anchor="middle">past</tspan><tspan x="0" dy="15" text-anchor="middle">incidents</tspan></text></g></g><g is="custom" class="draggable" id="movable_element_33" transform="translate(321.84,394.90000000000003)"><rect x="-15" y="-15" rx="30" ry="30" width="30" height="30" fill-opacity="0"></rect><circle id="element_circle_33" stroke-width="1" r="5" stroke="black" fill="white"></circle></g><g transform="translate(321.84,394.90000000000003)"><g class="draggable" id="movable_element_text_33" transform="translate(-87,-12)"><text is="custom" id="element_text_33" data-testid="element_text_33" font-weight="14px" font-size="13px" class="label" transform="translate(30, 10)" fill="black"><tspan x="0" dy="0" text-anchor="middle">customized</tspan><tspan x="0" dy="15" text-anchor="middle">content</tspan></text></g></g><g is="custom" class="draggable" id="movable_element_34" transform="translate(1166.67,394.90000000000003)"><rect x="-15" y="-15" rx="30" ry="30" width="30" height="30" fill-opacity="0"></rect><circle id="element_circle_34" stroke-width="1" r="5" stroke="black" fill="white"></circle></g><g transform="translate(1166.67,394.90000000000003)"><g class="draggable" id="movable_element_text_34" transform="translate(17,-13)"><text is="custom" id="element_text_34" data-testid="element_text_34" font-weight="14px" font-size="13px" class="label" transform="translate(30, 10)" fill="black"><tspan x="0" dy="0" text-anchor="middle">standard</tspan><tspan x="0" dy="15" text-anchor="middle">content</tspan></text></g></g><g is="custom" class="draggable" id="movable_element_35" transform="translate(1032.57,394.90000000000003)"><rect x="-15" y="-15" rx="30" ry="30" width="30" height="30" fill-opacity="0"></rect><circle id="element_circle_35" stroke-width="1" r="5" stroke="black" fill="white"></circle></g><g transform="translate(1032.57,394.90000000000003)"><g class="draggable" id="movable_element_text_35" transform="translate(-29,-43)"><text is="custom" id="element_text_35" data-testid="element_text_35" font-weight="14px" font-size="13px" class="label" transform="translate(30, 10)" fill="black"><tspan x="0" dy="0" text-anchor="middle">written</tspan><tspan x="0" dy="15" text-anchor="middle">content</tspan></text></g></g><g is="custom" class="draggable" id="movable_element_36" transform="translate(978.93,394.90000000000003)"><rect x="-15" y="-15" rx="30" ry="30" width="30" height="30" fill-opacity="0"></rect><circle id="element_circle_36" stroke-width="1" r="5" stroke="black" fill="white"></circle></g><g transform="translate(978.93,394.90000000000003)"><g class="draggable" id="movable_element_text_36" transform="translate(-80,25)"><text is="custom" id="element_text_36" data-testid="element_text_36" font-weight="14px" font-size="13px" class="label" transform="" fill="black">video content</text></g></g><g is="custom" class="draggable" id="movable_element_38" transform="translate(1233.72,588.76)"><rect x="-15" y="-15" rx="30" ry="30" width="30" height="30" fill-opacity="0"></rect><circle id="element_circle_38" stroke-width="1" r="5" stroke="black" fill="white"></circle></g><g transform="translate(1233.72,588.76)"><g class="draggable" id="movable_element_text_38" transform="translate(-54,11)"><text is="custom" id="element_text_38" data-testid="element_text_38" font-weight="14px" font-size="13px" class="label" transform="translate(30, 10)" fill="black"><tspan x="0" dy="0" text-anchor="middle">CMS/Application</tspan></text></g></g><g is="custom" class="draggable" id="movable_element_40" transform="translate(683.91,473.87999999999994)"><rect x="-15" y="-15" rx="30" ry="30" width="30" height="30" fill-opacity="0"></rect><circle id="element_circle_40" stroke-width="1" r="5" stroke="black" fill="white"></circle><rect id="element_square_40" x="-5" y="-5" fill="white" stroke="black" width="10" height="10" stroke-width="2"></rect></g><g transform="translate(683.91,473.87999999999994)"><g class="draggable" id="movable_element_text_40" transform="translate(-40,-12)"><text is="custom" id="element_text_40" data-testid="element_text_40" font-weight="14px" font-size="13px" class="label" transform="" fill="black">TESTING</text></g></g><g is="custom" class="draggable" id="movable_element_43" transform="translate(254.79,488.23999999999995)"><rect x="-15" y="-15" rx="30" ry="30" width="30" height="30" fill-opacity="0"></rect><circle id="element_circle_43" stroke-width="1" r="5" stroke="black" fill="white"></circle></g><g transform="translate(254.79,488.23999999999995)"><g class="draggable" id="movable_element_text_43" transform="translate(-106,-26)"><text is="custom" id="element_text_43" data-testid="element_text_43" font-weight="14px" font-size="13px" class="label" transform="translate(30, 10)" fill="black"><tspan x="0" dy="0" text-anchor="middle">physical/</tspan><tspan x="0" dy="15" text-anchor="middle">anti-tailgating</tspan><tspan x="0" dy="15" text-anchor="middle">testing</tspan></text></g></g><g is="custom" class="draggable" id="movable_element_47" transform="translate(1180.08,488.23999999999995)"><rect x="-15" y="-15" rx="30" ry="30" width="30" height="30" fill-opacity="0"></rect><circle id="element_circle_47" stroke-width="1" r="5" stroke="black" fill="white"></circle></g><g transform="translate(1180.08,488.23999999999995)"><g class="draggable" id="movable_element_text_47" transform="translate(-27,16)"><text is="custom" id="element_text_47" data-testid="element_text_47" font-weight="14px" font-size="13px" class="label" transform="translate(30, 10)" fill="black"><tspan x="0" dy="0" text-anchor="middle">email/sms</tspan><tspan x="0" dy="15" text-anchor="middle">phishing</tspan></text></g></g><g is="custom" class="draggable" id="movable_element_48" transform="translate(1260.54,488.23999999999995)"><rect x="-15" y="-15" rx="30" ry="30" width="30" height="30" fill-opacity="0"></rect><circle id="element_circle_48" stroke-width="1" r="5" stroke="black" fill="white"></circle></g><g transform="translate(1260.54,488.23999999999995)"><g class="draggable" id="movable_element_text_48" transform="translate(19,4)"><text is="custom" id="element_text_48" data-testid="element_text_48" font-weight="14px" font-size="13px" class="label" transform="" fill="black">survey</text></g></g><g is="custom" class="draggable" id="movable_element_49" transform="translate(1220.31,488.23999999999995)"><rect x="-15" y="-15" rx="30" ry="30" width="30" height="30" fill-opacity="0"></rect><circle id="element_circle_49" stroke-width="1" r="5" stroke="black" fill="white"></circle></g><g transform="translate(1220.31,488.23999999999995)"><g class="draggable" id="movable_element_text_49" transform="translate(-40,-20)"><text is="custom" id="element_text_49" data-testid="element_text_49" font-weight="14px" font-size="13px" class="label" transform="" fill="black">impersonation</text></g></g><g is="custom" class="draggable" id="movable_element_50" transform="translate(1139.85,488.23999999999995)"><rect x="-15" y="-15" rx="30" ry="30" width="30" height="30" fill-opacity="0"></rect><circle id="element_circle_50" stroke-width="1" r="5" stroke="black" fill="white"></circle></g><g transform="translate(1139.85,488.23999999999995)"><g class="draggable" id="movable_element_text_50" transform="translate(-43,-19)"><text is="custom" id="element_text_50" data-testid="element_text_50" font-weight="14px" font-size="13px" class="label" transform="" fill="black">spoofing</text></g></g><g is="custom" class="draggable" id="movable_element_52" transform="translate(697.32,595.9399999999999)"><rect x="-15" y="-15" rx="30" ry="30" width="30" height="30" fill-opacity="0"></rect><circle id="element_circle_52" stroke-width="1" r="5" stroke="black" fill="white"></circle><rect id="element_square_52" x="-5" y="-5" fill="white" stroke="black" width="10" height="10" stroke-width="2"></rect></g><g transform="translate(697.32,595.9399999999999)"><g class="draggable" id="movable_element_text_52" transform="translate(-59,-5)"><text is="custom" id="element_text_52" data-testid="element_text_52" font-weight="14px" font-size="13px" class="label" transform="" fill="black">THREAT</text></g></g><g is="custom" class="draggable" id="movable_element_55" transform="translate(482.76,301.56)"><rect x="-15" y="-15" rx="30" ry="30" width="30" height="30" fill-opacity="0"></rect><circle id="element_circle_55" stroke-width="1" r="5" stroke="black" fill="white"></circle><rect id="element_square_55" x="-5" y="-5" fill="white" stroke="black" width="10" height="10" stroke-width="2"></rect></g><g transform="translate(482.76,301.56)"><g class="draggable" id="movable_element_text_55" transform="translate(-83,-57)"><text is="custom" id="element_text_55" data-testid="element_text_55" font-weight="14px" font-size="13px" class="label" transform="translate(30, 10)" fill="black"><tspan x="0" dy="0" text-anchor="middle">SECURITY</tspan><tspan x="0" dy="15" text-anchor="middle">CENTRE</tspan><tspan x="0" dy="15" text-anchor="middle">OF</tspan><tspan x="0" dy="15" text-anchor="middle">EXCELLENCE</tspan></text></g></g><g is="custom" class="draggable" id="movable_element_57" transform="translate(254.79,315.91999999999996)"><rect x="-15" y="-15" rx="30" ry="30" width="30" height="30" fill-opacity="0"></rect><circle id="element_circle_57" stroke-width="1" r="5" stroke="black" fill="white"></circle></g><g transform="translate(254.79,315.91999999999996)"><g class="draggable" id="movable_element_text_57" transform="translate(-81,1)"><text is="custom" id="element_text_57" data-testid="element_text_57" font-weight="14px" font-size="13px" class="label" transform="" fill="black">start-up</text></g></g><g is="custom" class="draggable" id="movable_element_58" transform="translate(576.63,315.91999999999996)"><rect x="-15" y="-15" rx="30" ry="30" width="30" height="30" fill-opacity="0"></rect><circle id="element_circle_58" stroke-width="1" r="5" stroke="black" fill="white"></circle></g><g transform="translate(576.63,315.91999999999996)"><g class="draggable" id="movable_element_text_58" transform="translate(-27,-19)"><text is="custom" id="element_text_58" data-testid="element_text_58" font-weight="14px" font-size="13px" class="label" transform="" fill="black">hyperscale</text></g></g><g is="custom" class="draggable" id="movable_element_59" transform="translate(844.83,315.91999999999996)"><rect x="-15" y="-15" rx="30" ry="30" width="30" height="30" fill-opacity="0"></rect><circle id="element_circle_59" stroke-width="1" r="5" stroke="black" fill="white"></circle></g><g transform="translate(844.83,315.91999999999996)"><g class="draggable" id="movable_element_text_59" transform="translate(-22,-18)"><text is="custom" id="element_text_59" data-testid="element_text_59" font-weight="14px" font-size="13px" class="label" transform="" fill="black">corporate</text></g></g><g is="custom" class="draggable" id="movable_element_65" transform="translate(321.84,674.92)"><rect x="-15" y="-15" rx="30" ry="30" width="30" height="30" fill-opacity="0"></rect><circle id="element_circle_65" stroke-width="1" r="5" stroke="black" fill="white"></circle><rect id="element_square_65" x="-5" y="-5" fill="white" stroke="black" width="10" height="10" stroke-width="2"></rect></g><g transform="translate(321.84,674.92)"><g class="draggable" id="movable_element_text_65" transform="translate(-33,-52)"><text is="custom" id="element_text_65" data-testid="element_text_65" font-weight="14px" font-size="13px" class="label" transform="translate(30, 10)" fill="black"><tspan x="0" dy="0" text-anchor="middle">AI</tspan><tspan x="0" dy="15" text-anchor="middle">(DEEP</tspan><tspan x="0" dy="15" text-anchor="middle">FAKES)</tspan></text></g></g><g is="custom" class="draggable" id="movable_element_69" transform="translate(469.34999999999997,689.28)"><rect x="-15" y="-15" rx="30" ry="30" width="30" height="30" fill-opacity="0"></rect><circle id="element_circle_69" stroke-width="1" r="5" stroke="black" fill="white"></circle></g><g transform="translate(469.34999999999997,689.28)"><g class="draggable" id="movable_element_text_69" transform="translate(-29,-42)"><text is="custom" id="element_text_69" data-testid="element_text_69" font-weight="14px" font-size="13px" class="label" transform="translate(30, 10)" fill="black"><tspan x="0" dy="0" text-anchor="middle">celebrity</tspan><tspan x="0" dy="15" text-anchor="middle">deep-fake</tspan></text></g></g><g is="custom" class="draggable" id="movable_element_18ev" transform="translate(670.5,229.75999999999996)"><rect x="-15" y="-15" rx="30" ry="30" width="30" height="30" fill-opacity="0"></rect><circle id="element_circle_18ev" stroke-width="1" r="5" stroke="red" fill="white"></circle></g><g transform="translate(670.5,229.75999999999996)"><g class="draggable" id="movable_element_text_18ev" transform="translate(19,-3222)"><text is="custom" id="element_text_18ev" data-testid="element_text_18ev" font-weight="14px" font-size="13px" class="label" transform="translate(30, 10)" fill="red"><tspan x="0" dy="0" text-anchor="middle">detecting</tspan><tspan x="0" dy="15" text-anchor="middle">org</tspan><tspan x="0" dy="15" text-anchor="middle">specific</tspan><tspan x="0" dy="15" text-anchor="middle">risks</tspan></text></g></g><g is="custom" class="draggable" id="movable_element_68ev" transform="translate(670.5,689.28)"><rect x="-15" y="-15" rx="30" ry="30" width="30" height="30" fill-opacity="0"></rect><circle id="element_circle_68ev" stroke-width="1" r="5" stroke="red" fill="white"></circle></g><g transform="translate(670.5,689.28)"><g class="draggable" id="movable_element_text_68ev" transform="translate(29,-3244)"><text is="custom" id="element_text_68ev" data-testid="element_text_68ev" font-weight="14px" font-size="13px" class="label" transform="translate(30, 10)" fill="red"><tspan x="0" dy="0" text-anchor="middle">non-celebrity</tspan><tspan x="0" dy="15" text-anchor="middle">deep</tspan><tspan x="0" dy="15" text-anchor="middle">fake</tspan></text></g></g><g is="custom" class="draggable" id="movable_element_44ev" transform="translate(938.6999999999999,488.23999999999995)"><rect x="-15" y="-15" rx="30" ry="30" width="30" height="30" fill-opacity="0"></rect><circle id="element_circle_44ev" stroke-width="1" r="5" stroke="red" fill="white"></circle></g><g transform="translate(938.6999999999999,488.23999999999995)"><g class="draggable" id="movable_element_text_44ev" transform="translate(2,-4341)"><text is="custom" id="element_text_44ev" data-testid="element_text_44ev" font-weight="14px" font-size="13px" class="label" transform="" fill="red">voice phishing</text></g></g><g is="custom" class="draggable" id="movable_element_46ev" transform="translate(804.6,488.23999999999995)"><rect x="-15" y="-15" rx="30" ry="30" width="30" height="30" fill-opacity="0"></rect><circle id="element_circle_46ev" stroke-width="1" r="5" stroke="red" fill="white"></circle></g><g transform="translate(804.6,488.23999999999995)"><g class="draggable" id="movable_element_text_46ev" transform="translate(13,-3253)"><text is="custom" id="element_text_46ev" data-testid="element_text_46ev" font-weight="14px" font-size="13px" class="label" transform="translate(30, 10)" fill="red"><tspan x="0" dy="0" text-anchor="middle">(multi-channel)</tspan><tspan x="0" dy="15" text-anchor="middle">Social</tspan><tspan x="0" dy="15" text-anchor="middle">engineering</tspan></text></g></g><g is="custom" class="draggable" id="movable_element_18" transform="translate(496.17,229.75999999999996)"><rect x="-15" y="-15" rx="30" ry="30" width="30" height="30" fill-opacity="0"></rect><circle id="element_circle_18" stroke-width="1" r="5" stroke="black" fill="white"></circle></g><g transform="translate(496.17,229.75999999999996)"><g class="draggable" id="movable_element_text_18" transform="translate(-21,-73)"><text is="custom" id="element_text_18" data-testid="element_text_18" font-weight="14px" font-size="13px" class="label" transform="translate(30, 10)" fill="black"><tspan x="0" dy="0" text-anchor="middle">detecting</tspan><tspan x="0" dy="15" text-anchor="middle">org</tspan><tspan x="0" dy="15" text-anchor="middle">specific</tspan><tspan x="0" dy="15" text-anchor="middle">risks</tspan></text></g></g><g is="custom" class="draggable" id="movable_element_68" transform="translate(214.56,689.28)"><rect x="-15" y="-15" rx="30" ry="30" width="30" height="30" fill-opacity="0"></rect><circle id="element_circle_68" stroke-width="1" r="5" stroke="black" fill="white"></circle></g><g transform="translate(214.56,689.28)"><g class="draggable" id="movable_element_text_68" transform="translate(-86,-27)"><text is="custom" id="element_text_68" data-testid="element_text_68" font-weight="14px" font-size="13px" class="label" transform="translate(30, 10)" fill="black"><tspan x="0" dy="0" text-anchor="middle">non-celebrity</tspan><tspan x="0" dy="15" text-anchor="middle">deep</tspan><tspan x="0" dy="15" text-anchor="middle">fake</tspan></text></g></g><g is="custom" class="draggable" id="movable_element_44" transform="translate(375.48,488.23999999999995)"><rect x="-15" y="-15" rx="30" ry="30" width="30" height="30" fill-opacity="0"></rect><circle id="element_circle_44" stroke-width="1" r="5" stroke="black" fill="white"></circle></g><g transform="translate(375.48,488.23999999999995)"><g class="draggable" id="movable_element_text_44" transform="translate(-48,-19)"><text is="custom" id="element_text_44" data-testid="element_text_44" font-weight="14px" font-size="13px" class="label" transform="" fill="black">voice phishing</text></g></g><g is="custom" class="draggable" id="movable_element_46" transform="translate(482.76,488.23999999999995)"><rect x="-15" y="-15" rx="30" ry="30" width="30" height="30" fill-opacity="0"></rect><circle id="element_circle_46" stroke-width="1" r="5" stroke="black" fill="white"></circle></g><g transform="translate(482.76,488.23999999999995)"><g class="draggable" id="movable_element_text_46" transform="translate(-28,-60)"><text is="custom" id="element_text_46" data-testid="element_text_46" font-weight="14px" font-size="13px" class="label" transform="translate(30, 10)" fill="black"><tspan x="0" dy="0" text-anchor="middle">(multi-channel)</tspan><tspan x="0" dy="15" text-anchor="middle">Social</tspan><tspan x="0" dy="15" text-anchor="middle">engineering</tspan></text></g></g></g><g id="notes"><g is="custom" class="draggable" id="movable_note_45" transform="translate(496.17,509.78)"><rect x="-15" y="-15" rx="30" ry="30" width="30" height="30" fill-opacity="0"></rect><text is="custom" id="note_text_45" data-testid="note_text_45" font-weight="bold" font-size="12px" class="label" transform="">skills shortage</text></g><g is="custom" class="draggable" id="movable_note_67" transform="translate(496.17,710.82)"><rect x="-15" y="-15" rx="30" ry="30" width="30" height="30" fill-opacity="0"></rect><text is="custom" id="note_text_67" data-testid="note_text_67" font-weight="bold" font-size="12px" class="label" transform="">uncanny valley</text></g></g><g id="annotations"><g is="custom" class="draggable" id="movable_annotation_element_1" transform="translate(643.68,251.29999999999998)"><rect x="-15" y="-15" rx="30" ry="30" width="30" height="30" fill-opacity="0"></rect><circle cx="-0" cy="0" class="draggable" r="15" fill="white" stroke="#595959" stroke-width="2"></circle><text x="-5" y="5" class="label draggable" text-anchor="start">1</text></g><g is="custom" class="draggable" id="movable_annotationsBox" transform="translate(26.82,43.08000000000004)"><rect x="-15" y="-15" rx="30" ry="30" width="30" height="30" fill-opacity="0"></rect><rect x="-17" id="annotationsBoxWrap" y="-17" class="draggable" width="304.9342041015625" height="40.257930755615234" stroke="#595959" stroke-width="1" fill="#FFFFFF"></rect><text id="annotationsBoxTextContainer"><tspan class="label draggable" text-anchor="start" dy="0" x="2" text-decoration="underline">Annotations:</tspan><tspan class="label" text-anchor="start" dy="18" x="0" fill="black"> 1. ISO 27001 adoption &amp; cyberinsurance </tspan></text></g></g></g></svg>