<?xml version="1.0" encoding="UTF-8"?><!DOCTYPE svg PUBLIC "-//W3C//DTD SVG 1.1//EN" "http://www.w3.org/Graphics/SVG/1.1/DTD/svg11.dtd"><svg font-family="Consolas, Lucida Console, monospace" font-size="13px" class="wardley" id="svgMap" width="1381" height="798" viewBox="-20 0 1361 738" version="1.1" xmlns="http://www.w3.org/2000/svg" xmlns:xlink="http://www.w3.org/1999/xlink"><defs><filter id="ctrlHighlight"><feDropShadow dx="0" dy="0" stdDeviation="3" flood-color="blue"></feDropShadow></filter><linearGradient gradientUnits="objectBoundingBox" id="wardleyGradient" spreadMethod="pad" x1="0%" x2="100%" y1="0%" y2="0%"><stop offset="0%" style="stop-color:rgb(196, 196, 196);stop-opacity:1"></stop><stop offset="0.3" style="stop-color:white;stop-opacity:1"></stop><stop offset="0.7" style="stop-color:white"></stop><stop offset="1" style="stop-color:rgb(196, 196, 196)"></stop></linearGradient><linearGradient spreadMethod="pad" id="accelGradient" x1="0%" y1="64%" x2="76%" y2="0%"><stop offset="0%" style="stop-color:white;stop-opacity:1"></stop><stop offset="100%" style="stop-color:#8c8995;stop-opacity:1"></stop></linearGradient><pattern id="diagonalHatch" patternUnits="userSpaceOnUse" width="4" height="4"><path d="M 3,-1 l 2,2 M 0,0 l 4,4 M -1,3 l 2,2 " stroke="grey" stroke-width="1" opacity=".5"></path></pattern><marker id="arrow" markerWidth="12" markerHeight="12" refX="15" refY="0" viewBox="0 -5 10 10" orient="0"><path d="M0,-5L10,0L0,5" fill="red"></path></marker><marker id="graphArrow" markerWidth="12" markerHeight="12" refX="9" refY="0" viewBox="0 -5 10 10" orient="0"><path d="M0,-5L10,0L0,5" fill="black"></path></marker><marker id="pipelineArrow" markerWidth="5" markerHeight="5" refX="9" refY="0" viewBox="0 -5 10 10" orient="0"><path d="M0,-5L10,0L0,5" fill="black"></path></marker></defs><g id="grid"><rect x="0" width="1341" y="0" height="718" id="fillArea" fill="url(#wardleyGradient)"></rect><g id="valueChain" transform="translate(0,718) rotate(270)" font-family="&quot;Helvetica Neue&quot;,Helvetica,Arial,sans-serif" font-size="13px"><line x1="0" y1="0" x2="718" y2="0" stroke="black" stroke-width="1" stroke-dasharray="2,2"></line><line x1="-2em" y1="234.67499999999998" x2="718" y2="234.67499999999998" stroke="#b8b8b8" stroke-dasharray="2,2"></line><line x1="-2em" y1="536.4" x2="718" y2="536.4" stroke="#b8b8b8" stroke-dasharray="2,2"></line><line x1="-2em" y1="938.6999999999999" x2="718" y2="938.6999999999999" stroke="#b8b8b8" stroke-dasharray="2,2"></line><text fill="black" x="716" y="-0.4em" text-anchor="end" font-weight="bold">Value Chain</text></g><g id="Evolution" font-family="&quot;Helvetica Neue&quot;,Helvetica,Arial,sans-serif" font-size="13px" font-style="italic" transform="translate(0,718)"><line x1="0" y1="0" x2="1339" y2="0" stroke="black" stroke-width="1" marker-end="url(#graphArrow)"></line><text fill="black" x="10" y="-703" text-anchor="start" font-style="normal" font-size="11px" font-weight="bold">Uncharted</text><text fill="black" x="1331" y="-703" text-anchor="end" font-style="normal" font-size="11px" font-weight="bold">Industrialised</text><text fill="black" x="0" y="1em" text-anchor="start">genesis / concept </text><text fill="black" x="0" y="2em" text-anchor="start"></text><text fill="black" x="241.67499999999998" y="1em" text-anchor="start"> custom / emerging </text><text fill="black" x="241.67499999999998" y="2em" text-anchor="start"></text><text fill="black" x="543.4" y="1em" text-anchor="start"> product/ converging </text><text fill="black" x="543.4" y="2em" text-anchor="start"></text><text fill="black" x="945.6999999999999" y="1em" text-anchor="start"> commodity / accepted</text><text fill="black" x="945.6999999999999" y="2em" text-anchor="start"></text><text fill="black" x="1341" y="1.8em" text-anchor="end" font-weight="bold" font-style="normal">Evolution</text></g></g><g id="map"><g id="attitudes"></g><g id="methods"></g><g id="fluids"></g><g id="links"><g id="link_39_34"><line x1="496.17" y1="143.59999999999997" x2="590.04" y2="64.61999999999998" stroke="grey" stroke-width="1"></line></g><g id="link_38_34"><line x1="590.04" y1="150.77999999999997" x2="590.04" y2="64.61999999999998" stroke="grey" stroke-width="1"></line></g><g id="link_37_34"><line x1="683.91" y1="186.68" x2="590.04" y2="64.61999999999998" stroke="grey" stroke-width="1"></line></g><g id="link_7_41"><line x1="1099.62" y1="71.79999999999998" x2="536.4" y2="208.22000000000003" stroke="grey" stroke-width="1"></line></g><g id="link_38_41"><line x1="590.04" y1="150.77999999999997" x2="536.4" y2="208.22000000000003" stroke="grey" stroke-width="1"></line></g><g id="link_41_16"><line x1="536.4" y1="208.22000000000003" x2="549.81" y2="272.84" stroke="grey" stroke-width="1"></line></g><g id="link_41_8"><line x1="536.4" y1="208.22000000000003" x2="710.73" y2="78.97999999999999" stroke="grey" stroke-width="1"></line></g><g id="link_7_34"><line x1="1099.62" y1="71.79999999999998" x2="590.04" y2="64.61999999999998" stroke="grey" stroke-width="1"></line></g><g id="link_8_23"><line x1="710.73" y1="78.97999999999999" x2="885.0600000000001" y2="201.04000000000002" stroke="grey" stroke-width="1"></line></g><g id="link_8_21"><line x1="710.73" y1="78.97999999999999" x2="737.5500000000001" y2="222.58000000000004" stroke="grey" stroke-width="1"></line></g><g id="link_34_9"><line x1="590.04" y1="64.61999999999998" x2="335.25" y2="201.04000000000002" stroke="grey" stroke-width="1"></line></g><g id="link_34_26"><line x1="590.04" y1="64.61999999999998" x2="844.83" y2="330.28" stroke="grey" stroke-width="1"></line></g><g id="link_34_16"><line x1="590.04" y1="64.61999999999998" x2="549.81" y2="272.84" stroke="grey" stroke-width="1"></line></g><g id="link_21_16"><line x1="737.5500000000001" y1="222.58000000000004" x2="549.81" y2="272.84" stroke="grey" stroke-width="1"></line></g><g id="link_9_28"><line x1="335.25" y1="201.04000000000002" x2="616.86" y2="545.68" stroke="grey" stroke-width="1"></line></g><g id="link_9_10"><line x1="335.25" y1="201.04000000000002" x2="335.25" y2="373.36" stroke="grey" stroke-width="1"></line></g><g id="link_9_12"><line x1="335.25" y1="201.04000000000002" x2="429.12" y2="287.2" stroke="grey" stroke-width="1"></line></g><g id="link_9_11"><line x1="335.25" y1="201.04000000000002" x2="388.89" y2="380.54" stroke="grey" stroke-width="1"></line></g><g id="link_13_12"><line x1="536.4" y1="315.91999999999996" x2="429.12" y2="287.2" stroke="grey" stroke-width="1"></line></g><g id="link_16_28"><line x1="549.81" y1="272.84" x2="616.86" y2="545.68" stroke="grey" stroke-width="1"></line></g><g id="link_16_13"><line x1="549.81" y1="272.84" x2="536.4" y2="315.91999999999996" stroke="grey" stroke-width="1"></line></g><g id="link_25_26"><line x1="563.22" y1="437.98" x2="844.83" y2="330.28" stroke="grey" stroke-width="1"></line></g><g id="link_8_26"><line x1="710.73" y1="78.97999999999999" x2="844.83" y2="330.28" stroke="grey" stroke-width="1"></line></g><g id="link_26_14"><line x1="844.83" y1="330.28" x2="965.52" y2="366.18" stroke="grey" stroke-width="1"></line></g><g id="link_26_17"><line x1="844.83" y1="330.28" x2="831.42" y2="488.23999999999995" stroke="grey" stroke-width="1"></line></g><g id="link_26_13"><line x1="844.83" y1="330.28" x2="536.4" y2="315.91999999999996" stroke="grey" stroke-width="1"></line></g><g id="link_18_19"><line x1="724.1400000000001" y1="394.90000000000003" x2="697.32" y2="445.16" stroke="grey" stroke-width="1"></line></g><g id="link_18_14"><line x1="724.1400000000001" y1="394.90000000000003" x2="965.52" y2="366.18" stroke="grey" stroke-width="1"></line></g><g id="link_9_44"><line x1="335.25" y1="201.04000000000002" x2="254.79" y2="603.12" stroke="grey" stroke-width="1"></line></g><g id="link_28_44"><line x1="616.86" y1="545.68" x2="254.79" y2="603.12" stroke="grey" stroke-width="1"></line></g><g id="link_21_44"><line x1="737.5500000000001" y1="222.58000000000004" x2="254.79" y2="603.12" stroke="grey" stroke-width="1"></line></g><g id="link_23_44"><line x1="885.0600000000001" y1="201.04000000000002" x2="254.79" y2="603.12" stroke="grey" stroke-width="1"></line></g><g id="link_26_44"><line x1="844.83" y1="330.28" x2="254.79" y2="603.12" stroke="grey" stroke-width="1"></line></g><g id="link_44_43"><line x1="254.79" y1="603.12" x2="871.65" y2="646.2" stroke="grey" stroke-width="1"></line></g><g id="link_44_10"><line x1="254.79" y1="603.12" x2="335.25" y2="373.36" stroke="grey" stroke-width="1"></line></g><g id="link_11_44"><line x1="388.89" y1="380.54" x2="254.79" y2="603.12" stroke="grey" stroke-width="1"></line></g><g id="link_19_44"><line x1="697.32" y1="445.16" x2="254.79" y2="603.12" stroke="grey" stroke-width="1"></line></g><g id="link_43_115"><line x1="871.65" y1="646.2" x2="1099.62" y2="667.74" stroke="grey" stroke-width="1"></line></g><g id="link_25_44"><line x1="563.22" y1="437.98" x2="254.79" y2="603.12" stroke="grey" stroke-width="1"></line></g><g id="link_116_18"><line x1="697.32" y1="351.82" x2="724.1400000000001" y2="394.90000000000003" stroke="grey" stroke-width="1"></line></g><g id="link_26_116"><line x1="844.83" y1="330.28" x2="697.32" y2="351.82" stroke="grey" stroke-width="1"></line></g><g id="link_13_116"><line x1="536.4" y1="315.91999999999996" x2="697.32" y2="351.82" stroke="grey" stroke-width="1"></line></g><g id="link_14_113"><line x1="965.52" y1="366.18" x2="1019.16" y2="423.62000000000006" stroke="grey" stroke-width="1"></line></g><g id="link_14_114"><line x1="965.52" y1="366.18" x2="952.1099999999999" y2="437.98" stroke="grey" stroke-width="1"></line></g></g><g id="evolvingEndLinks"></g><g id="bothEvolving"></g><g id="anchorLinks"><g id="link_5_8"><line x1="858.24" y1="14.360000000000014" x2="710.73" y2="78.97999999999999" stroke="grey" stroke-width="1"></line></g><g id="link_5_7"><line x1="858.24" y1="14.360000000000014" x2="1099.62" y2="71.79999999999998" stroke="grey" stroke-width="1"></line></g><g id="link_5_34"><line x1="858.24" y1="14.360000000000014" x2="590.04" y2="64.61999999999998" stroke="grey" stroke-width="1"></line></g></g><g id="anchorNonEvolvedLinks"></g><g id="evolvingToNoneEvolvingEndLinks"></g><g id="evolvedLinks">;</g><g id="anchors"><g is="custom" class="draggable" id="movable_anchor_5" transform="translate(858.24,14.360000000000014)"><rect x="-15" y="-15" rx="30" ry="30" width="30" height="30" fill-opacity="0"></rect><text is="custom" id="anchor_text_5" data-testid="anchor_text_5" font-weight="14px" font-size="14px" class="label" text-anchor="middle" x="0" y="-10" transform="" fill="black">Executives</text></g></g><g id="pipelines"><g id="pipeline_box_29" transform="translate(482.76,547.68)"><line x1="0" y1="0" x2="348.65999999999997" y2="0" stroke-width="1" stroke="black"></line><line x1="348.65999999999997" y1="0" x2="348.65999999999997" y2="22" stroke-width="1" stroke="black"></line><line x1="348.65999999999997" y1="22" x2="0" y2="22" stroke-width="1" stroke="black"></line><line x1="0" y1="22" x2="0" y2="0" stroke-width="1" stroke="black"></line></g><g is="custom" class="draggable" id="movable_pipeline_x1_29" transform="translate(482.76,547.68)"><rect x="-15" y="-15" rx="30" ry="30" width="30" height="30" fill-opacity="0"></rect><circle id="pipeline_circle_x1_29" cx="10" cy="12" stroke-width="1" r="5" stroke="black" fill="white"></circle></g><g is="custom" class="draggable" id="movable_pipeline_x2_29" transform="translate(831.42,547.68)"><rect x="-15" y="-15" rx="30" ry="30" width="30" height="30" fill-opacity="0"></rect><circle id="pipeline_circle_x2_29" cx="-10" cy="12" stroke-width="1" r="5" stroke="black" fill="white"></circle></g></g><g id="elements"><g is="custom" class="draggable" id="movable_element_7" transform="translate(1099.62,71.79999999999998)"><rect x="-15" y="-15" rx="30" ry="30" width="30" height="30" fill-opacity="0"></rect><circle id="element_circle_7" stroke-width="1" r="5" stroke="black" fill="white"></circle></g><g transform="translate(1099.62,71.79999999999998)"><g class="draggable" id="movable_element_text_7" transform="translate(5,-10)"><text is="custom" id="element_text_7" data-testid="element_text_7" font-weight="14px" font-size="13px" class="label" transform="" fill="black">P&amp;L</text></g></g><g is="custom" class="draggable" id="movable_element_8" transform="translate(710.73,78.97999999999999)"><rect x="-15" y="-15" rx="30" ry="30" width="30" height="30" fill-opacity="0"></rect><circle id="element_circle_8" stroke-width="1" r="5" stroke="black" fill="white"></circle></g><g transform="translate(710.73,78.97999999999999)"><g class="draggable" id="movable_element_text_8" transform="translate(20,6)"><text is="custom" id="element_text_8" data-testid="element_text_8" font-weight="14px" font-size="13px" class="label" transform="" fill="black">Compliance</text></g></g><g is="custom" class="draggable" id="movable_element_9" transform="translate(335.25,201.04000000000002)"><rect x="-15" y="-15" rx="30" ry="30" width="30" height="30" fill-opacity="0"></rect><circle id="element_circle_9" stroke-width="1" r="5" stroke="black" fill="white"></circle></g><g transform="translate(335.25,201.04000000000002)"><g class="draggable" id="movable_element_text_9" transform="translate(-51,-54)"><text is="custom" id="element_text_9" data-testid="element_text_9" font-weight="14px" font-size="13px" class="label" transform="translate(30, 10)" fill="black"><tspan x="0" dy="0" text-anchor="middle">Risk</tspan><tspan x="0" dy="15" text-anchor="middle">Identification</tspan><tspan x="0" dy="15" text-anchor="middle">Practice</tspan></text></g></g><g is="custom" class="draggable" id="movable_element_10" transform="translate(335.25,373.36)"><rect x="-15" y="-15" rx="30" ry="30" width="30" height="30" fill-opacity="0"></rect><circle id="element_circle_10" stroke-width="1" r="5" stroke="black" fill="white"></circle></g><g transform="translate(335.25,373.36)"><g class="draggable" id="movable_element_text_10" transform="translate(-76,-20)"><text is="custom" id="element_text_10" data-testid="element_text_10" font-weight="14px" font-size="13px" class="label" transform="translate(30, 10)" fill="black"><tspan x="0" dy="0" text-anchor="middle">Cybersecurity</tspan><tspan x="0" dy="15" text-anchor="middle">Expertise</tspan></text></g></g><g is="custom" class="draggable" id="movable_element_11" transform="translate(388.89,380.54)"><rect x="-15" y="-15" rx="30" ry="30" width="30" height="30" fill-opacity="0"></rect><circle id="element_circle_11" stroke-width="1" r="5" stroke="black" fill="white"></circle></g><g transform="translate(388.89,380.54)"><g class="draggable" id="movable_element_text_11" transform="translate(-4,13)"><text is="custom" id="element_text_11" data-testid="element_text_11" font-weight="14px" font-size="13px" class="label" transform="translate(30, 10)" fill="black"><tspan x="0" dy="0" text-anchor="middle">Business</tspan><tspan x="0" dy="15" text-anchor="middle">Expertise</tspan></text></g></g><g is="custom" class="draggable" id="movable_element_12" transform="translate(429.12,287.2)"><rect x="-15" y="-15" rx="30" ry="30" width="30" height="30" fill-opacity="0"></rect><circle id="element_circle_12" stroke-width="1" r="5" stroke="black" fill="white"></circle></g><g transform="translate(429.12,287.2)"><g class="draggable" id="movable_element_text_12" transform="translate(-28,10)"><text is="custom" id="element_text_12" data-testid="element_text_12" font-weight="14px" font-size="13px" class="label" transform="translate(30, 10)" fill="black"><tspan x="0" dy="0" text-anchor="middle">Asset</tspan><tspan x="0" dy="15" text-anchor="middle">inventory</tspan></text></g></g><g is="custom" class="draggable" id="movable_element_13" transform="translate(536.4,315.91999999999996)"><rect x="-15" y="-15" rx="30" ry="30" width="30" height="30" fill-opacity="0"></rect><circle id="element_circle_13" stroke-width="1" r="5" stroke="black" fill="white"></circle></g><g transform="translate(536.4,315.91999999999996)"><g class="draggable" id="movable_element_text_13" transform="translate(-44,17)"><text is="custom" id="element_text_13" data-testid="element_text_13" font-weight="14px" font-size="13px" class="label" transform="" fill="black">risk register</text></g></g><g is="custom" class="draggable" id="movable_element_14" transform="translate(965.52,366.18)"><rect x="-15" y="-15" rx="30" ry="30" width="30" height="30" fill-opacity="0"></rect><circle id="element_circle_14" stroke-width="1" r="5" stroke="black" fill="white"></circle></g><g transform="translate(965.52,366.18)"><g class="draggable" id="movable_element_text_14" transform="translate(3,-26)"><text is="custom" id="element_text_14" data-testid="element_text_14" font-weight="14px" font-size="13px" class="label" transform="translate(30, 10)" fill="black"><tspan x="0" dy="0" text-anchor="middle">Security</tspan><tspan x="0" dy="15" text-anchor="middle">Testing</tspan></text></g></g><g is="custom" class="draggable" id="movable_element_16" transform="translate(549.81,272.84)"><rect x="-15" y="-15" rx="30" ry="30" width="30" height="30" fill-opacity="0"></rect><circle id="element_circle_16" stroke-width="1" r="5" stroke="black" fill="white"></circle></g><g transform="translate(549.81,272.84)"><g class="draggable" id="movable_element_text_16" transform="translate(-79,-26)"><text is="custom" id="element_text_16" data-testid="element_text_16" font-weight="14px" font-size="13px" class="label" transform="translate(30, 10)" fill="black"><tspan x="0" dy="0" text-anchor="middle">Risk</tspan><tspan x="0" dy="15" text-anchor="middle">Assessment</tspan><tspan x="0" dy="15" text-anchor="middle">Methodology</tspan></text></g></g><g is="custom" class="draggable" id="movable_element_17" transform="translate(831.42,488.23999999999995)"><rect x="-15" y="-15" rx="30" ry="30" width="30" height="30" fill-opacity="0"></rect><circle id="element_circle_17" stroke-width="1" r="5" stroke="black" fill="white"></circle></g><g transform="translate(831.42,488.23999999999995)"><g class="draggable" id="movable_element_text_17" transform="translate(-26,19)"><text is="custom" id="element_text_17" data-testid="element_text_17" font-weight="14px" font-size="13px" class="label" transform="" fill="black">controls</text></g></g><g is="custom" class="draggable" id="movable_element_18" transform="translate(724.1400000000001,394.90000000000003)"><rect x="-15" y="-15" rx="30" ry="30" width="30" height="30" fill-opacity="0"></rect><circle id="element_circle_18" stroke-width="1" r="5" stroke="black" fill="white"></circle></g><g transform="translate(724.1400000000001,394.90000000000003)"><g class="draggable" id="movable_element_text_18" transform="translate(20,10)"><text is="custom" id="element_text_18" data-testid="element_text_18" font-weight="14px" font-size="13px" class="label" transform="" fill="black">Monitoring</text></g></g><g is="custom" class="draggable" id="movable_element_19" transform="translate(697.32,445.16)"><rect x="-15" y="-15" rx="30" ry="30" width="30" height="30" fill-opacity="0"></rect><circle id="element_circle_19" stroke-width="1" r="5" stroke="black" fill="white"></circle></g><g transform="translate(697.32,445.16)"><g class="draggable" id="movable_element_text_19" transform="translate(-7,19)"><text is="custom" id="element_text_19" data-testid="element_text_19" font-weight="14px" font-size="13px" class="label" transform="" fill="black">SOC Tools</text></g></g><g is="custom" class="draggable" id="movable_element_21" transform="translate(737.5500000000001,222.58000000000004)"><rect x="-15" y="-15" rx="30" ry="30" width="30" height="30" fill-opacity="0"></rect><circle id="element_circle_21" stroke-width="1" r="5" stroke="black" fill="white"></circle></g><g transform="translate(737.5500000000001,222.58000000000004)"><g class="draggable" id="movable_element_text_21" transform="translate(-24,15)"><text is="custom" id="element_text_21" data-testid="element_text_21" font-weight="14px" font-size="13px" class="label" transform="translate(30, 10)" fill="black"><tspan x="0" dy="0" text-anchor="middle">Risk</tspan><tspan x="0" dy="15" text-anchor="middle">Frameworks</tspan></text></g></g><g is="custom" class="draggable" id="movable_element_23" transform="translate(885.0600000000001,201.04000000000002)"><rect x="-15" y="-15" rx="30" ry="30" width="30" height="30" fill-opacity="0"></rect><circle id="element_circle_23" stroke-width="1" r="5" stroke="black" fill="white"></circle></g><g transform="translate(885.0600000000001,201.04000000000002)"><g class="draggable" id="movable_element_text_23" transform="translate(18,-14)"><text is="custom" id="element_text_23" data-testid="element_text_23" font-weight="14px" font-size="13px" class="label" transform="translate(30, 10)" fill="black"><tspan x="0" dy="0" text-anchor="middle">Compliance</tspan><tspan x="0" dy="15" text-anchor="middle">Frameworks</tspan></text></g></g><g is="custom" class="draggable" id="movable_element_25" transform="translate(563.22,437.98)"><rect x="-15" y="-15" rx="30" ry="30" width="30" height="30" fill-opacity="0"></rect><circle id="element_circle_25" stroke-width="1" r="5" stroke="black" fill="white"></circle></g><g transform="translate(563.22,437.98)"><g class="draggable" id="movable_element_text_25" transform="translate(-60,-16)"><text is="custom" id="element_text_25" data-testid="element_text_25" font-weight="14px" font-size="13px" class="label" transform="" fill="black">Risk Awareness</text></g></g><g is="custom" class="draggable" id="movable_element_26" transform="translate(844.83,330.28)"><rect x="-15" y="-15" rx="30" ry="30" width="30" height="30" fill-opacity="0"></rect><circle id="element_circle_26" stroke-width="1" r="5" stroke="black" fill="white"></circle></g><g transform="translate(844.83,330.28)"><g class="draggable" id="movable_element_text_26" transform="translate(5,-10)"><text is="custom" id="element_text_26" data-testid="element_text_26" font-weight="14px" font-size="13px" class="label" transform="" fill="black">reporting</text></g></g><g is="custom" class="draggable" id="movable_element_28" transform="translate(616.86,545.68)"><rect x="-15" y="-15" rx="30" ry="30" width="30" height="30" fill-opacity="0"></rect><circle id="element_circle_28" stroke-width="1" r="5" stroke="black" fill="white"></circle><rect id="element_square_28" x="-5" y="-5" fill="white" stroke="black" width="10" height="10" stroke-width="2"></rect></g><g transform="translate(616.86,545.68)"><g class="draggable" id="movable_element_text_28" transform="translate(10,-34)"><text is="custom" id="element_text_28" data-testid="element_text_28" font-weight="14px" font-size="13px" class="label" transform="translate(30, 10)" fill="black"><tspan x="0" dy="0" text-anchor="middle">RISK</tspan><tspan x="0" dy="15" text-anchor="middle">QUANTIFICATION</tspan></text></g></g><g is="custom" class="draggable" id="movable_element_30" transform="translate(590.04,560.04)"><rect x="-15" y="-15" rx="30" ry="30" width="30" height="30" fill-opacity="0"></rect><circle id="element_circle_30" stroke-width="1" r="5" stroke="black" fill="white"></circle></g><g transform="translate(590.04,560.04)"><g class="draggable" id="movable_element_text_30" transform="translate(-18,24)"><text is="custom" id="element_text_30" data-testid="element_text_30" font-weight="14px" font-size="13px" class="label" transform="" fill="black">risk matrices</text></g></g><g is="custom" class="draggable" id="movable_element_31" transform="translate(818.01,560.04)"><rect x="-15" y="-15" rx="30" ry="30" width="30" height="30" fill-opacity="0"></rect><circle id="element_circle_31" stroke-width="1" r="5" stroke="black" fill="white"></circle></g><g transform="translate(818.01,560.04)"><g class="draggable" id="movable_element_text_31" transform="translate(20,3)"><text is="custom" id="element_text_31" data-testid="element_text_31" font-weight="14px" font-size="13px" class="label" transform="" fill="black">impact</text></g></g><g is="custom" class="draggable" id="movable_element_32" transform="translate(496.17,560.04)"><rect x="-15" y="-15" rx="30" ry="30" width="30" height="30" fill-opacity="0"></rect><circle id="element_circle_32" stroke-width="1" r="5" stroke="black" fill="white"></circle></g><g transform="translate(496.17,560.04)"><g class="draggable" id="movable_element_text_32" transform="translate(-91,0)"><text is="custom" id="element_text_32" data-testid="element_text_32" font-weight="14px" font-size="13px" class="label" transform="" fill="black">likelihood</text></g></g><g is="custom" class="draggable" id="movable_element_33" transform="translate(710.73,560.04)"><rect x="-15" y="-15" rx="30" ry="30" width="30" height="30" fill-opacity="0"></rect><circle id="element_circle_33" stroke-width="1" r="5" stroke="black" fill="white"></circle></g><g transform="translate(710.73,560.04)"><g class="draggable" id="movable_element_text_33" transform="translate(-11,24)"><text is="custom" id="element_text_33" data-testid="element_text_33" font-weight="14px" font-size="13px" class="label" transform="" fill="black">FAIR Model</text></g></g><g is="custom" class="draggable" id="movable_element_34" transform="translate(590.04,64.61999999999998)"><rect x="-15" y="-15" rx="30" ry="30" width="30" height="30" fill-opacity="0"></rect><circle id="element_circle_34" stroke-width="1" r="5" stroke="black" fill="white"></circle></g><g transform="translate(590.04,64.61999999999998)"><g class="draggable" id="movable_element_text_34" transform="translate(-41,-13)"><text is="custom" id="element_text_34" data-testid="element_text_34" font-weight="14px" font-size="13px" class="label" transform="" fill="black">risk apetite</text></g></g><g is="custom" class="draggable" id="movable_element_37" transform="translate(683.91,186.68)"><rect x="-15" y="-15" rx="30" ry="30" width="30" height="30" fill-opacity="0"></rect><circle id="element_circle_37" stroke-width="1" r="5" stroke="black" fill="white"></circle></g><g transform="translate(683.91,186.68)"><g class="draggable" id="movable_element_text_37" transform="translate(-54,0)"><text is="custom" id="element_text_37" data-testid="element_text_37" font-weight="14px" font-size="13px" class="label" transform="translate(30, 10)" fill="black"><tspan x="0" dy="0" text-anchor="middle">risk</tspan><tspan x="0" dy="15" text-anchor="middle">mitigation</tspan></text></g></g><g is="custom" class="draggable" id="movable_element_38" transform="translate(590.04,150.77999999999997)"><rect x="-15" y="-15" rx="30" ry="30" width="30" height="30" fill-opacity="0"></rect><circle id="element_circle_38" stroke-width="1" r="5" stroke="black" fill="white"></circle></g><g transform="translate(590.04,150.77999999999997)"><g class="draggable" id="movable_element_text_38" transform="translate(-36,-10)"><text is="custom" id="element_text_38" data-testid="element_text_38" font-weight="14px" font-size="13px" class="label" transform="" fill="black">risk transfer</text></g></g><g is="custom" class="draggable" id="movable_element_39" transform="translate(496.17,143.59999999999997)"><rect x="-15" y="-15" rx="30" ry="30" width="30" height="30" fill-opacity="0"></rect><circle id="element_circle_39" stroke-width="1" r="5" stroke="black" fill="white"></circle></g><g transform="translate(496.17,143.59999999999997)"><g class="draggable" id="movable_element_text_39" transform="translate(-52,-6)"><text is="custom" id="element_text_39" data-testid="element_text_39" font-weight="14px" font-size="13px" class="label" transform="translate(30, 10)" fill="black"><tspan x="0" dy="0" text-anchor="middle">risk</tspan><tspan x="0" dy="15" text-anchor="middle">acceptance</tspan></text></g></g><g is="custom" class="draggable" id="movable_element_41" transform="translate(536.4,208.22000000000003)"><rect x="-15" y="-15" rx="30" ry="30" width="30" height="30" fill-opacity="0"></rect><circle id="element_circle_41" stroke-width="1" r="5" stroke="black" fill="white"></circle></g><g transform="translate(536.4,208.22000000000003)"><g class="draggable" id="movable_element_text_41" transform="translate(-68,-12)"><text is="custom" id="element_text_41" data-testid="element_text_41" font-weight="14px" font-size="13px" class="label" transform="translate(30, 10)" fill="black"><tspan x="0" dy="0" text-anchor="middle">cyber</tspan><tspan x="0" dy="15" text-anchor="middle">insurance</tspan></text></g></g><g is="custom" class="draggable" id="movable_element_43" transform="translate(871.65,646.2)"><rect x="-15" y="-15" rx="30" ry="30" width="30" height="30" fill-opacity="0"></rect><circle id="element_circle_43" stroke-width="1" r="5" stroke="black" fill="white"></circle></g><g transform="translate(871.65,646.2)"><g class="draggable" id="movable_element_text_43" transform="translate(-3,-16)"><text is="custom" id="element_text_43" data-testid="element_text_43" font-weight="14px" font-size="13px" class="label" transform="" fill="black">LLMs</text></g></g><g is="custom" class="draggable" id="movable_element_44" transform="translate(254.79,603.12)"><rect x="-15" y="-15" rx="30" ry="30" width="30" height="30" fill-opacity="0"></rect><circle id="element_circle_44" stroke-width="1" r="5" stroke="black" fill="white"></circle></g><g transform="translate(254.79,603.12)"><g class="draggable" id="movable_element_text_44" transform="translate(-46,25)"><text is="custom" id="element_text_44" data-testid="element_text_44" font-weight="14px" font-size="13px" class="label" transform="" fill="black">Security LLMs</text></g></g><g is="custom" class="draggable" id="movable_element_113" transform="translate(1019.16,423.62000000000006)"><rect x="-15" y="-15" rx="30" ry="30" width="30" height="30" fill-opacity="0"></rect><circle id="element_circle_113" stroke-width="1" r="5" stroke="black" fill="white"></circle></g><g transform="translate(1019.16,423.62000000000006)"><g class="draggable" id="movable_element_text_113" transform="translate(10,-17)"><text is="custom" id="element_text_113" data-testid="element_text_113" font-weight="14px" font-size="13px" class="label" transform="translate(30, 10)" fill="black"><tspan x="0" dy="0" text-anchor="middle">Penetration</tspan><tspan x="0" dy="15" text-anchor="middle">testing</tspan></text></g></g><g is="custom" class="draggable" id="movable_element_114" transform="translate(952.1099999999999,437.98)"><rect x="-15" y="-15" rx="30" ry="30" width="30" height="30" fill-opacity="0"></rect><circle id="element_circle_114" stroke-width="1" r="5" stroke="black" fill="white"></circle></g><g transform="translate(952.1099999999999,437.98)"><g class="draggable" id="movable_element_text_114" transform="translate(-29,22)"><text is="custom" id="element_text_114" data-testid="element_text_114" font-weight="14px" font-size="13px" class="label" transform="" fill="black">Bug bounty</text></g></g><g is="custom" class="draggable" id="movable_element_115" transform="translate(1099.62,667.74)"><rect x="-15" y="-15" rx="30" ry="30" width="30" height="30" fill-opacity="0"></rect><circle id="element_circle_115" stroke-width="1" r="5" stroke="black" fill="white"></circle></g><g transform="translate(1099.62,667.74)"><g class="draggable" id="movable_element_text_115" transform="translate(3,-2)"><text is="custom" id="element_text_115" data-testid="element_text_115" font-weight="14px" font-size="13px" class="label" transform="translate(30, 10)" fill="black"><tspan x="0" dy="0" text-anchor="middle">Cloud</tspan><tspan x="0" dy="15" text-anchor="middle">Infrastructure</tspan></text></g></g><g is="custom" class="draggable" id="movable_element_116" transform="translate(697.32,351.82)"><rect x="-15" y="-15" rx="30" ry="30" width="30" height="30" fill-opacity="0"></rect><circle id="element_circle_116" stroke-width="1" r="5" stroke="black" fill="white"></circle></g><g transform="translate(697.32,351.82)"><g class="draggable" id="movable_element_text_116" transform="translate(-56,7)"><text is="custom" id="element_text_116" data-testid="element_text_116" font-weight="14px" font-size="13px" class="label" transform="translate(30, 10)" fill="black"><tspan x="0" dy="0" text-anchor="middle">Incident</tspan><tspan x="0" dy="15" text-anchor="middle">Response</tspan></text></g></g></g><g id="notes"><g is="custom" class="draggable" id="movable_note_110" transform="translate(603.45,21.54000000000002)"><rect x="-15" y="-15" rx="30" ry="30" width="30" height="30" fill-opacity="0"></rect><text is="custom" id="note_text_110" data-testid="note_text_110" font-weight="bold" font-size="12px" class="label" transform="">+Controlled bets / opportunities</text></g><g is="custom" class="draggable" id="movable_note_111" transform="translate(791.1899999999999,50.25999999999996)"><rect x="-15" y="-15" rx="30" ry="30" width="30" height="30" fill-opacity="0"></rect><text is="custom" id="note_text_111" data-testid="note_text_111" font-weight="bold" font-size="12px" class="label" transform="">+Regulatory Obligations</text></g></g><g id="annotations"></g></g></svg>