<?xml version="1.0" encoding="UTF-8"?><!DOCTYPE svg PUBLIC "-//W3C//DTD SVG 1.1//EN" "http://www.w3.org/Graphics/SVG/1.1/DTD/svg11.dtd"><svg font-family="Consolas, Lucida Console, monospace" font-size="13px" class="wardley" id="svgMap" width="1381" height="798" viewBox="-20 0 1361 738" version="1.1" xmlns="http://www.w3.org/2000/svg" xmlns:xlink="http://www.w3.org/1999/xlink"><defs><filter id="ctrlHighlight"><feDropShadow dx="0" dy="0" stdDeviation="3" flood-color="blue"></feDropShadow></filter><linearGradient gradientUnits="objectBoundingBox" id="wardleyGradient" spreadMethod="pad" x1="0%" x2="100%" y1="0%" y2="0%"><stop offset="0%" style="stop-color:rgb(196, 196, 196);stop-opacity:1"></stop><stop offset="0.3" style="stop-color:white;stop-opacity:1"></stop><stop offset="0.7" style="stop-color:white"></stop><stop offset="1" style="stop-color:rgb(196, 196, 196)"></stop></linearGradient><linearGradient spreadMethod="pad" id="accelGradient" x1="0%" y1="64%" x2="76%" y2="0%"><stop offset="0%" style="stop-color:white;stop-opacity:1"></stop><stop offset="100%" style="stop-color:#8c8995;stop-opacity:1"></stop></linearGradient><pattern id="diagonalHatch" patternUnits="userSpaceOnUse" width="4" height="4"><path d="M 3,-1 l 2,2 M 0,0 l 4,4 M -1,3 l 2,2 " stroke="grey" stroke-width="1" opacity=".5"></path></pattern><marker id="arrow" markerWidth="12" markerHeight="12" refX="15" refY="0" viewBox="0 -5 10 10" orient="0"><path d="M0,-5L10,0L0,5" fill="red"></path></marker><marker id="graphArrow" markerWidth="12" markerHeight="12" refX="9" refY="0" viewBox="0 -5 10 10" orient="0"><path d="M0,-5L10,0L0,5" fill="black"></path></marker><marker id="pipelineArrow" markerWidth="5" markerHeight="5" refX="9" refY="0" viewBox="0 -5 10 10" orient="0"><path d="M0,-5L10,0L0,5" fill="black"></path></marker></defs><g id="grid"><rect x="0" width="1341" y="0" height="718" id="fillArea" fill="url(#wardleyGradient)"></rect><g id="valueChain" transform="translate(0,718) rotate(270)" font-family="&quot;Helvetica Neue&quot;,Helvetica,Arial,sans-serif" font-size="13px"><line x1="0" y1="0" x2="718" y2="0" stroke="black" stroke-width="1" stroke-dasharray="2,2"></line><line x1="-2em" y1="234.67499999999998" x2="718" y2="234.67499999999998" stroke="#b8b8b8" stroke-dasharray="2,2"></line><line x1="-2em" y1="536.4" x2="718" y2="536.4" stroke="#b8b8b8" stroke-dasharray="2,2"></line><line x1="-2em" y1="938.6999999999999" x2="718" y2="938.6999999999999" stroke="#b8b8b8" stroke-dasharray="2,2"></line><text fill="black" x="716" y="-0.4em" text-anchor="end" font-weight="bold">Value Chain</text></g><g id="Evolution" font-family="&quot;Helvetica Neue&quot;,Helvetica,Arial,sans-serif" font-size="13px" font-style="italic" transform="translate(0,718)"><line x1="0" y1="0" x2="1339" y2="0" stroke="black" stroke-width="1" marker-end="url(#graphArrow)"></line><text fill="black" x="10" y="-703" text-anchor="start" font-style="normal" font-size="11px" font-weight="bold">Uncharted</text><text fill="black" x="1331" y="-703" text-anchor="end" font-style="normal" font-size="11px" font-weight="bold">Industrialised</text><text fill="black" x="0" y="1em" text-anchor="start">genesis / concept </text><text fill="black" x="0" y="2em" text-anchor="start"></text><text fill="black" x="241.67499999999998" y="1em" text-anchor="start"> custom / emerging </text><text fill="black" x="241.67499999999998" y="2em" text-anchor="start"></text><text fill="black" x="543.4" y="1em" text-anchor="start"> product / converging </text><text fill="black" x="543.4" y="2em" text-anchor="start"></text><text fill="black" x="945.6999999999999" y="1em" text-anchor="start"> commodity / accepted</text><text fill="black" x="945.6999999999999" y="2em" text-anchor="start"></text><text fill="black" x="1341" y="1.8em" text-anchor="end" font-weight="bold" font-style="normal">Evolution</text></g></g><g id="map"><g id="attitudes"></g><g id="methods"></g><g id="fluids"></g><g id="links"><g id="link_6_14"><line x1="804.6" y1="28.720000000000027" x2="576.63" y2="100.52000000000001" stroke="grey" stroke-width="1"></line></g><g id="link_7_10"><line x1="455.94000000000005" y1="21.54000000000002" x2="348.66" y2="78.97999999999999" stroke="grey" stroke-width="1"></line></g><g id="link_10_114"><line x1="348.66" y1="78.97999999999999" x2="750.96" y2="538.5" stroke="grey" stroke-width="1"></line></g><g id="link_10_125"><line x1="348.66" y1="78.97999999999999" x2="603.45" y2="646.2" stroke="grey" stroke-width="1"></line></g><g id="link_14_82"><line x1="576.63" y1="100.52000000000001" x2="616.86" y2="330.28" stroke="grey" stroke-width="1"></line></g><g id="link_94_36"><line x1="697.32" y1="107.70000000000002" x2="777.78" y2="193.86" stroke="grey" stroke-width="1"></line></g><g id="link_94_92"><line x1="697.32" y1="107.70000000000002" x2="710.73" y2="193.86" stroke="grey" stroke-width="1"></line></g><g id="link_37_92"><line x1="885.0600000000001" y1="114.88000000000002" x2="710.73" y2="193.86" stroke="grey" stroke-width="1"></line></g><g id="link_37_95"><line x1="885.0600000000001" y1="114.88000000000002" x2="791.1899999999999" y2="251.29999999999998" stroke="grey" stroke-width="1"></line></g><g id="link_37_114"><line x1="885.0600000000001" y1="114.88000000000002" x2="750.96" y2="538.5" stroke="grey" stroke-width="1"></line></g><g id="link_37_112"><line x1="885.0600000000001" y1="114.88000000000002" x2="885.0600000000001" y2="466.7" stroke="grey" stroke-width="1"></line></g><g id="link_14_102"><line x1="576.63" y1="100.52000000000001" x2="603.45" y2="416.44000000000005" stroke="grey" stroke-width="1"></line></g><g id="link_94_102"><line x1="697.32" y1="107.70000000000002" x2="603.45" y2="416.44000000000005" stroke="grey" stroke-width="1"></line></g><g id="link_92_97"><line x1="710.73" y1="193.86" x2="724.1400000000001" y2="236.93999999999997" stroke="grey" stroke-width="1"></line></g><g id="link_97_98"><line x1="724.1400000000001" y1="236.93999999999997" x2="858.24" y2="301.56" stroke="grey" stroke-width="1"></line></g><g id="link_102_112"><line x1="603.45" y1="416.44000000000005" x2="885.0600000000001" y2="466.7" stroke="grey" stroke-width="1"></line></g><g id="link_112_114"><line x1="885.0600000000001" y1="466.7" x2="750.96" y2="538.5" stroke="grey" stroke-width="1"></line></g><g id="link_112_80"><line x1="885.0600000000001" y1="466.7" x2="978.93" y2="488.23999999999995" stroke="grey" stroke-width="1"></line></g><g id="link_12_73"><line x1="603.45" y1="114.88000000000002" x2="522.99" y2="251.29999999999998" stroke="grey" stroke-width="1"></line></g><g id="link_73_125"><line x1="522.99" y1="251.29999999999998" x2="603.45" y2="646.2" stroke="grey" stroke-width="1"></line></g><g id="link_95_114"><line x1="791.1899999999999" y1="251.29999999999998" x2="750.96" y2="538.5" stroke="grey" stroke-width="1"></line></g><g id="link_104_116"><line x1="469.34999999999997" y1="430.8" x2="549.81" y2="552.86" stroke="grey" stroke-width="1"></line></g><g id="link_114_125"><line x1="750.96" y1="538.5" x2="603.45" y2="646.2" stroke="grey" stroke-width="1"></line></g><g id="link_6_37"><line x1="804.6" y1="28.720000000000027" x2="885.0600000000001" y2="114.88000000000002" stroke="grey" stroke-width="1"></line></g><g id="link_5_37"><line x1="965.52" y1="14.360000000000014" x2="885.0600000000001" y2="114.88000000000002" stroke="grey" stroke-width="1"></line></g><g id="link_92_95"><line x1="710.73" y1="193.86" x2="791.1899999999999" y2="251.29999999999998" stroke="grey" stroke-width="1"></line></g><g id="link_95_98"><line x1="791.1899999999999" y1="251.29999999999998" x2="858.24" y2="301.56" stroke="grey" stroke-width="1"></line></g></g><g id="evolvingEndLinks"></g><g id="bothEvolving"></g><g id="anchorLinks"></g><g id="anchorNonEvolvedLinks"></g><g id="evolvingToNoneEvolvingEndLinks"></g><g id="evolvedLinks">;</g><g id="anchors"></g><g id="pipelines"><g id="pipeline_box_15" transform="translate(496.17,102.52000000000001)"><line x1="0" y1="0" x2="402.3" y2="0" stroke-width="1" stroke="black"></line><line x1="402.3" y1="0" x2="402.3" y2="22" stroke-width="1" stroke="black"></line><line x1="402.3" y1="22" x2="0" y2="22" stroke-width="1" stroke="black"></line><line x1="0" y1="22" x2="0" y2="0" stroke-width="1" stroke="black"></line></g><g is="custom" class="draggable" id="movable_pipeline_x1_15" transform="translate(496.17,102.52000000000001)"><rect x="-15" y="-15" rx="30" ry="30" width="30" height="30" fill-opacity="0"></rect><circle id="pipeline_circle_x1_15" cx="10" cy="12" stroke-width="1" r="5" stroke="black" fill="white"></circle></g><g is="custom" class="draggable" id="movable_pipeline_x2_15" transform="translate(898.47,102.52000000000001)"><rect x="-15" y="-15" rx="30" ry="30" width="30" height="30" fill-opacity="0"></rect><circle id="pipeline_circle_x2_15" cx="-10" cy="12" stroke-width="1" r="5" stroke="black" fill="white"></circle></g><g id="pipeline_box_83" transform="translate(201.15,332.28)"><line x1="0" y1="0" x2="818.01" y2="0" stroke-width="1" stroke="black"></line><line x1="818.01" y1="0" x2="818.01" y2="22" stroke-width="1" stroke="black"></line><line x1="818.01" y1="22" x2="0" y2="22" stroke-width="1" stroke="black"></line><line x1="0" y1="22" x2="0" y2="0" stroke-width="1" stroke="black"></line></g><g is="custom" class="draggable" id="movable_pipeline_x1_83" transform="translate(201.15,332.28)"><rect x="-15" y="-15" rx="30" ry="30" width="30" height="30" fill-opacity="0"></rect><circle id="pipeline_circle_x1_83" cx="10" cy="12" stroke-width="1" r="5" stroke="black" fill="white"></circle></g><g is="custom" class="draggable" id="movable_pipeline_x2_83" transform="translate(1019.16,332.28)"><rect x="-15" y="-15" rx="30" ry="30" width="30" height="30" fill-opacity="0"></rect><circle id="pipeline_circle_x2_83" cx="-10" cy="12" stroke-width="1" r="5" stroke="black" fill="white"></circle></g><g id="pipeline_box_103" transform="translate(455.94000000000005,418.44000000000005)"><line x1="0" y1="0" x2="590.04" y2="0" stroke-width="1" stroke="black"></line><line x1="590.04" y1="0" x2="590.04" y2="22" stroke-width="1" stroke="black"></line><line x1="590.04" y1="22" x2="0" y2="22" stroke-width="1" stroke="black"></line><line x1="0" y1="22" x2="0" y2="0" stroke-width="1" stroke="black"></line></g><g is="custom" class="draggable" id="movable_pipeline_x1_103" transform="translate(455.94000000000005,418.44000000000005)"><rect x="-15" y="-15" rx="30" ry="30" width="30" height="30" fill-opacity="0"></rect><circle id="pipeline_circle_x1_103" cx="10" cy="12" stroke-width="1" r="5" stroke="black" fill="white"></circle></g><g is="custom" class="draggable" id="movable_pipeline_x2_103" transform="translate(1045.98,418.44000000000005)"><rect x="-15" y="-15" rx="30" ry="30" width="30" height="30" fill-opacity="0"></rect><circle id="pipeline_circle_x2_103" cx="-10" cy="12" stroke-width="1" r="5" stroke="black" fill="white"></circle></g><g id="pipeline_box_115" transform="translate(536.4,540.5)"><line x1="0" y1="0" x2="482.76" y2="0" stroke-width="1" stroke="black"></line><line x1="482.76" y1="0" x2="482.76" y2="22" stroke-width="1" stroke="black"></line><line x1="482.76" y1="22" x2="0" y2="22" stroke-width="1" stroke="black"></line><line x1="0" y1="22" x2="0" y2="0" stroke-width="1" stroke="black"></line></g><g is="custom" class="draggable" id="movable_pipeline_x1_115" transform="translate(536.4,540.5)"><rect x="-15" y="-15" rx="30" ry="30" width="30" height="30" fill-opacity="0"></rect><circle id="pipeline_circle_x1_115" cx="10" cy="12" stroke-width="1" r="5" stroke="black" fill="white"></circle></g><g is="custom" class="draggable" id="movable_pipeline_x2_115" transform="translate(1019.16,540.5)"><rect x="-15" y="-15" rx="30" ry="30" width="30" height="30" fill-opacity="0"></rect><circle id="pipeline_circle_x2_115" cx="-10" cy="12" stroke-width="1" r="5" stroke="black" fill="white"></circle></g><g id="pipeline_box_126" transform="translate(335.25,648.2)"><line x1="0" y1="0" x2="630.27" y2="0" stroke-width="1" stroke="black"></line><line x1="630.27" y1="0" x2="630.27" y2="22" stroke-width="1" stroke="black"></line><line x1="630.27" y1="22" x2="0" y2="22" stroke-width="1" stroke="black"></line><line x1="0" y1="22" x2="0" y2="0" stroke-width="1" stroke="black"></line></g><g is="custom" class="draggable" id="movable_pipeline_x1_126" transform="translate(335.25,648.2)"><rect x="-15" y="-15" rx="30" ry="30" width="30" height="30" fill-opacity="0"></rect><circle id="pipeline_circle_x1_126" cx="10" cy="12" stroke-width="1" r="5" stroke="black" fill="white"></circle></g><g is="custom" class="draggable" id="movable_pipeline_x2_126" transform="translate(965.52,648.2)"><rect x="-15" y="-15" rx="30" ry="30" width="30" height="30" fill-opacity="0"></rect><circle id="pipeline_circle_x2_126" cx="-10" cy="12" stroke-width="1" r="5" stroke="black" fill="white"></circle></g></g><g id="elements"><g is="custom" class="draggable" id="movable_element_5" transform="translate(965.52,14.360000000000014)"><rect x="-15" y="-15" rx="30" ry="30" width="30" height="30" fill-opacity="0"></rect><circle id="element_circle_5" stroke-width="1" r="5" stroke="black" fill="white"></circle></g><g transform="translate(965.52,14.360000000000014)"><g class="draggable" id="movable_element_text_5" transform="translate(7,-20)"><text is="custom" id="element_text_5" data-testid="element_text_5" font-weight="14px" font-size="13px" class="label" transform="translate(30, 10)" fill="black"><tspan x="0" dy="0" text-anchor="middle">Government</tspan><tspan x="0" dy="15" text-anchor="middle">Entity</tspan></text></g></g><g is="custom" class="draggable" id="movable_element_6" transform="translate(804.6,28.720000000000027)"><rect x="-15" y="-15" rx="30" ry="30" width="30" height="30" fill-opacity="0"></rect><circle id="element_circle_6" stroke-width="1" r="5" stroke="black" fill="white"></circle></g><g transform="translate(804.6,28.720000000000027)"><g class="draggable" id="movable_element_text_6" transform="translate(0,-29)"><text is="custom" id="element_text_6" data-testid="element_text_6" font-weight="14px" font-size="13px" class="label" transform="translate(30, 10)" fill="black"><tspan x="0" dy="0" text-anchor="middle">Corporate/NGO</tspan><tspan x="0" dy="15" text-anchor="middle">Actor</tspan></text></g></g><g is="custom" class="draggable" id="movable_element_7" transform="translate(455.94000000000005,21.54000000000002)"><rect x="-15" y="-15" rx="30" ry="30" width="30" height="30" fill-opacity="0"></rect><circle id="element_circle_7" stroke-width="1" r="5" stroke="black" fill="white"></circle><rect id="element_square_7" x="-5" y="-5" fill="white" stroke="black" width="10" height="10" stroke-width="2"></rect></g><g transform="translate(455.94000000000005,21.54000000000002)"><g class="draggable" id="movable_element_text_7" transform="translate(-58,-20)"><text is="custom" id="element_text_7" data-testid="element_text_7" font-weight="14px" font-size="13px" class="label" transform="" fill="black">THREAT ACTOR</text></g></g><g is="custom" class="draggable" id="movable_element_10" transform="translate(348.66,78.97999999999999)"><rect x="-15" y="-15" rx="30" ry="30" width="30" height="30" fill-opacity="0"></rect><circle id="element_circle_10" stroke-width="1" r="5" stroke="black" fill="white"></circle><rect id="element_square_10" x="-5" y="-5" fill="white" stroke="black" width="10" height="10" stroke-width="2"></rect></g><g transform="translate(348.66,78.97999999999999)"><g class="draggable" id="movable_element_text_10" transform="translate(-123,0)"><text is="custom" id="element_text_10" data-testid="element_text_10" font-weight="14px" font-size="13px" class="label" transform="" fill="black">VULNERABILITY</text></g></g><g is="custom" class="draggable" id="movable_element_12" transform="translate(603.45,114.88000000000002)"><rect x="-15" y="-15" rx="30" ry="30" width="30" height="30" fill-opacity="0"></rect><circle id="element_circle_12" stroke-width="1" r="5" stroke="black" fill="white"></circle></g><g transform="translate(603.45,114.88000000000002)"><g class="draggable" id="movable_element_text_12" transform="translate(2,23)"><text is="custom" id="element_text_12" data-testid="element_text_12" font-weight="14px" font-size="13px" class="label" transform="" fill="black">Sharing</text></g></g><g is="custom" class="draggable" id="movable_element_14" transform="translate(576.63,100.52000000000001)"><rect x="-15" y="-15" rx="30" ry="30" width="30" height="30" fill-opacity="0"></rect><circle id="element_circle_14" stroke-width="1" r="5" stroke="black" fill="white"></circle><rect id="element_square_14" x="-5" y="-5" fill="white" stroke="black" width="10" height="10" stroke-width="2"></rect></g><g transform="translate(576.63,100.52000000000001)"><g class="draggable" id="movable_element_text_14" transform="translate(-69,-15)"><text is="custom" id="element_text_14" data-testid="element_text_14" font-weight="14px" font-size="13px" class="label" transform="" fill="black">DATA POLICY</text></g></g><g is="custom" class="draggable" id="movable_element_17" transform="translate(764.3699999999999,114.88000000000002)"><rect x="-15" y="-15" rx="30" ry="30" width="30" height="30" fill-opacity="0"></rect><circle id="element_circle_17" stroke-width="1" r="5" stroke="black" fill="white"></circle></g><g transform="translate(764.3699999999999,114.88000000000002)"><g class="draggable" id="movable_element_text_17" transform="translate(-19,22)"><text is="custom" id="element_text_17" data-testid="element_text_17" font-weight="14px" font-size="13px" class="label" transform="" fill="black">Retention</text></g></g><g is="custom" class="draggable" id="movable_element_36" transform="translate(777.78,193.86)"><rect x="-15" y="-15" rx="30" ry="30" width="30" height="30" fill-opacity="0"></rect><circle id="element_circle_36" stroke-width="1" r="5" stroke="black" fill="white"></circle></g><g transform="translate(777.78,193.86)"><g class="draggable" id="movable_element_text_36" transform="translate(-26,18)"><text is="custom" id="element_text_36" data-testid="element_text_36" font-weight="14px" font-size="13px" class="label" transform="" fill="black">Data Location</text></g></g><g is="custom" class="draggable" id="movable_element_37" transform="translate(885.0600000000001,114.88000000000002)"><rect x="-15" y="-15" rx="30" ry="30" width="30" height="30" fill-opacity="0"></rect><circle id="element_circle_37" stroke-width="1" r="5" stroke="black" fill="white"></circle></g><g transform="translate(885.0600000000001,114.88000000000002)"><g class="draggable" id="movable_element_text_37" transform="translate(19,2)"><text is="custom" id="element_text_37" data-testid="element_text_37" font-weight="14px" font-size="13px" class="label" transform="" fill="black">Analytics</text></g></g><g is="custom" class="draggable" id="movable_element_73" transform="translate(522.99,251.29999999999998)"><rect x="-15" y="-15" rx="30" ry="30" width="30" height="30" fill-opacity="0"></rect><circle id="element_circle_73" stroke-width="1" r="5" stroke="black" fill="white"></circle><rect id="element_square_73" x="-5" y="-5" fill="white" stroke="black" width="10" height="10" stroke-width="2"></rect></g><g transform="translate(522.99,251.29999999999998)"><g class="draggable" id="movable_element_text_73" transform="translate(-32,-60)"><text is="custom" id="element_text_73" data-testid="element_text_73" font-weight="14px" font-size="13px" class="label" transform="translate(30, 10)" fill="black"><tspan x="0" dy="0" text-anchor="middle">OPEN</tspan><tspan x="0" dy="15" text-anchor="middle">DATA</tspan><tspan x="0" dy="15" text-anchor="middle">STANDARDS</tspan></text></g></g><g is="custom" class="draggable" id="movable_element_80" transform="translate(978.93,488.23999999999995)"><rect x="-15" y="-15" rx="30" ry="30" width="30" height="30" fill-opacity="0"></rect><circle id="element_circle_80" stroke-width="1" r="5" stroke="black" fill="white"></circle></g><g transform="translate(978.93,488.23999999999995)"><g class="draggable" id="movable_element_text_80" transform="translate(11,-26)"><text is="custom" id="element_text_80" data-testid="element_text_80" font-weight="14px" font-size="13px" class="label" transform="translate(30, 10)" fill="black"><tspan x="0" dy="0" text-anchor="middle">Data</tspan><tspan x="0" dy="15" text-anchor="middle">sharing</tspan><tspan x="0" dy="15" text-anchor="middle">protocols</tspan></text></g></g><g is="custom" class="draggable" id="movable_element_82" transform="translate(616.86,330.28)"><rect x="-15" y="-15" rx="30" ry="30" width="30" height="30" fill-opacity="0"></rect><circle id="element_circle_82" stroke-width="1" r="5" stroke="black" fill="white"></circle><rect id="element_square_82" x="-5" y="-5" fill="white" stroke="black" width="10" height="10" stroke-width="2"></rect></g><g transform="translate(616.86,330.28)"><g class="draggable" id="movable_element_text_82" transform="translate(-38,-14)"><text is="custom" id="element_text_82" data-testid="element_text_82" font-weight="14px" font-size="13px" class="label" transform="" fill="black">REGULATIONS</text></g></g><g is="custom" class="draggable" id="movable_element_84" transform="translate(214.56,344.64)"><rect x="-15" y="-15" rx="30" ry="30" width="30" height="30" fill-opacity="0"></rect><circle id="element_circle_84" stroke-width="1" r="5" stroke="black" fill="white"></circle></g><g transform="translate(214.56,344.64)"><g class="draggable" id="movable_element_text_84" transform="translate(-81,-19)"><text is="custom" id="element_text_84" data-testid="element_text_84" font-weight="14px" font-size="13px" class="label" transform="translate(30, 10)" fill="black"><tspan x="0" dy="0" text-anchor="middle">ChatGPT</tspan><tspan x="0" dy="15" text-anchor="middle">interface</tspan><tspan x="0" dy="15" text-anchor="middle">ban</tspan></text></g></g><g is="custom" class="draggable" id="movable_element_85" transform="translate(522.99,337.46)"><rect x="-15" y="-15" rx="30" ry="30" width="30" height="30" fill-opacity="0"></rect><circle id="element_circle_85" stroke-width="1" r="5" stroke="black" fill="white"></circle></g><g transform="translate(522.99,337.46)"><g class="draggable" id="movable_element_text_85" transform="translate(-37,18)"><text is="custom" id="element_text_85" data-testid="element_text_85" font-weight="14px" font-size="13px" class="label" transform="translate(30, 10)" fill="black"><tspan x="0" dy="0" text-anchor="middle">central</tspan><tspan x="0" dy="15" text-anchor="middle">govt</tspan><tspan x="0" dy="15" text-anchor="middle">crypto</tspan></text></g></g><g is="custom" class="draggable" id="movable_element_86" transform="translate(858.24,344.64)"><rect x="-15" y="-15" rx="30" ry="30" width="30" height="30" fill-opacity="0"></rect><circle id="element_circle_86" stroke-width="1" r="5" stroke="black" fill="white"></circle></g><g transform="translate(858.24,344.64)"><g class="draggable" id="movable_element_text_86" transform="translate(-21,28)"><text is="custom" id="element_text_86" data-testid="element_text_86" font-weight="14px" font-size="13px" class="label" transform="" fill="black">GDPR</text></g></g><g is="custom" class="draggable" id="movable_element_87" transform="translate(952.1099999999999,344.64)"><rect x="-15" y="-15" rx="30" ry="30" width="30" height="30" fill-opacity="0"></rect><circle id="element_circle_87" stroke-width="1" r="5" stroke="black" fill="white"></circle></g><g transform="translate(952.1099999999999,344.64)"><g class="draggable" id="movable_element_text_87" transform="translate(-17,-18)"><text is="custom" id="element_text_87" data-testid="element_text_87" font-weight="14px" font-size="13px" class="label" transform="" fill="black">SOC</text></g></g><g is="custom" class="draggable" id="movable_element_88" transform="translate(1005.75,344.64)"><rect x="-15" y="-15" rx="30" ry="30" width="30" height="30" fill-opacity="0"></rect><circle id="element_circle_88" stroke-width="1" r="5" stroke="black" fill="white"></circle></g><g transform="translate(1005.75,344.64)"><g class="draggable" id="movable_element_text_88" transform="translate(22,5)"><text is="custom" id="element_text_88" data-testid="element_text_88" font-weight="14px" font-size="13px" class="label" transform="" fill="black">HIPPA</text></g></g><g is="custom" class="draggable" id="movable_element_90" transform="translate(509.58,114.88000000000002)"><rect x="-15" y="-15" rx="30" ry="30" width="30" height="30" fill-opacity="0"></rect><circle id="element_circle_90" stroke-width="1" r="5" stroke="black" fill="white"></circle></g><g transform="translate(509.58,114.88000000000002)"><g class="draggable" id="movable_element_text_90" transform="translate(-85,4)"><text is="custom" id="element_text_90" data-testid="element_text_90" font-weight="14px" font-size="13px" class="label" transform="" fill="black">Personnel</text></g></g><g is="custom" class="draggable" id="movable_element_91" transform="translate(818.01,107.70000000000002)"><rect x="-15" y="-15" rx="30" ry="30" width="30" height="30" fill-opacity="0"></rect><circle id="element_circle_91" stroke-width="1" r="5" stroke="black" fill="white"></circle></g><g transform="translate(818.01,107.70000000000002)"><g class="draggable" id="movable_element_text_91" transform="translate(-37,-15)"><text is="custom" id="element_text_91" data-testid="element_text_91" font-weight="14px" font-size="13px" class="label" transform="" fill="black">Enforcement</text></g></g><g is="custom" class="draggable" id="movable_element_92" transform="translate(710.73,193.86)"><rect x="-15" y="-15" rx="30" ry="30" width="30" height="30" fill-opacity="0"></rect><circle id="element_circle_92" stroke-width="1" r="5" stroke="black" fill="white"></circle></g><g transform="translate(710.73,193.86)"><g class="draggable" id="movable_element_text_92" transform="translate(-66,-10)"><text is="custom" id="element_text_92" data-testid="element_text_92" font-weight="14px" font-size="13px" class="label" transform="translate(30, 10)" fill="black"><tspan x="0" dy="0" text-anchor="middle">Incident</tspan><tspan x="0" dy="15" text-anchor="middle">Response</tspan></text></g></g><g is="custom" class="draggable" id="movable_element_94" transform="translate(697.32,107.70000000000002)"><rect x="-15" y="-15" rx="30" ry="30" width="30" height="30" fill-opacity="0"></rect><circle id="element_circle_94" stroke-width="1" r="5" stroke="black" fill="white"></circle></g><g transform="translate(697.32,107.70000000000002)"><g class="draggable" id="movable_element_text_94" transform="translate(-45,-12)"><text is="custom" id="element_text_94" data-testid="element_text_94" font-weight="14px" font-size="13px" class="label" transform="" fill="black">Data Security</text></g></g><g is="custom" class="draggable" id="movable_element_95" transform="translate(791.1899999999999,251.29999999999998)"><rect x="-15" y="-15" rx="30" ry="30" width="30" height="30" fill-opacity="0"></rect><circle id="element_circle_95" stroke-width="1" r="5" stroke="black" fill="white"></circle><rect id="element_square_95" x="-5" y="-5" fill="white" stroke="black" width="10" height="10" stroke-width="2"></rect></g><g transform="translate(791.1899999999999,251.29999999999998)"><g class="draggable" id="movable_element_text_95" transform="translate(-15,-17)"><text is="custom" id="element_text_95" data-testid="element_text_95" font-weight="14px" font-size="13px" class="label" transform="" fill="black">FORENSICS</text></g></g><g is="custom" class="draggable" id="movable_element_97" transform="translate(724.1400000000001,236.93999999999997)"><rect x="-15" y="-15" rx="30" ry="30" width="30" height="30" fill-opacity="0"></rect><circle id="element_circle_97" stroke-width="1" r="5" stroke="black" fill="white"></circle></g><g transform="translate(724.1400000000001,236.93999999999997)"><g class="draggable" id="movable_element_text_97" transform="translate(-48,8)"><text is="custom" id="element_text_97" data-testid="element_text_97" font-weight="14px" font-size="13px" class="label" transform="translate(30, 10)" fill="black"><tspan x="0" dy="0" text-anchor="middle">Threat</tspan><tspan x="0" dy="15" text-anchor="middle">detection</tspan></text></g></g><g is="custom" class="draggable" id="movable_element_98" transform="translate(858.24,301.56)"><rect x="-15" y="-15" rx="30" ry="30" width="30" height="30" fill-opacity="0"></rect><circle id="element_circle_98" stroke-width="1" r="5" stroke="black" fill="white"></circle></g><g transform="translate(858.24,301.56)"><g class="draggable" id="movable_element_text_98" transform="translate(12,5)"><text is="custom" id="element_text_98" data-testid="element_text_98" font-weight="14px" font-size="13px" class="label" transform="" fill="black">Monitoring</text></g></g><g is="custom" class="draggable" id="movable_element_102" transform="translate(603.45,416.44000000000005)"><rect x="-15" y="-15" rx="30" ry="30" width="30" height="30" fill-opacity="0"></rect><circle id="element_circle_102" stroke-width="1" r="5" stroke="black" fill="white"></circle><rect id="element_square_102" x="-5" y="-5" fill="white" stroke="black" width="10" height="10" stroke-width="2"></rect></g><g transform="translate(603.45,416.44000000000005)"><g class="draggable" id="movable_element_text_102" transform="translate(-9,-16)"><text is="custom" id="element_text_102" data-testid="element_text_102" font-weight="14px" font-size="13px" class="label" transform="" fill="black">CRYPTOGRAPHY</text></g></g><g is="custom" class="draggable" id="movable_element_104" transform="translate(469.34999999999997,430.8)"><rect x="-15" y="-15" rx="30" ry="30" width="30" height="30" fill-opacity="0"></rect><circle id="element_circle_104" stroke-width="1" r="5" stroke="black" fill="white"></circle></g><g transform="translate(469.34999999999997,430.8)"><g class="draggable" id="movable_element_text_104" transform="translate(-107,-17)"><text is="custom" id="element_text_104" data-testid="element_text_104" font-weight="14px" font-size="13px" class="label" transform="translate(30, 10)" fill="black"><tspan x="0" dy="0" text-anchor="middle">zero-knowledge</tspan><tspan x="0" dy="15" text-anchor="middle">proofs</tspan></text></g></g><g is="custom" class="draggable" id="movable_element_105" transform="translate(952.1099999999999,430.8)"><rect x="-15" y="-15" rx="30" ry="30" width="30" height="30" fill-opacity="0"></rect><circle id="element_circle_105" stroke-width="1" r="5" stroke="black" fill="white"></circle></g><g transform="translate(952.1099999999999,430.8)"><g class="draggable" id="movable_element_text_105" transform="translate(-1,-46)"><text is="custom" id="element_text_105" data-testid="element_text_105" font-weight="14px" font-size="13px" class="label" transform="translate(30, 10)" fill="black"><tspan x="0" dy="0" text-anchor="middle">end-to-end</tspan><tspan x="0" dy="15" text-anchor="middle">cryptography</tspan></text></g></g><g is="custom" class="draggable" id="movable_element_106" transform="translate(1032.57,430.8)"><rect x="-15" y="-15" rx="30" ry="30" width="30" height="30" fill-opacity="0"></rect><circle id="element_circle_106" stroke-width="1" r="5" stroke="black" fill="white"></circle></g><g transform="translate(1032.57,430.8)"><g class="draggable" id="movable_element_text_106" transform="translate(59,-9)"><text is="custom" id="element_text_106" data-testid="element_text_106" font-weight="14px" font-size="13px" class="label" transform="translate(30, 10)" fill="black"><tspan x="0" dy="0" text-anchor="middle">symmetric/asymmetric</tspan><tspan x="0" dy="15" text-anchor="middle">cryptography</tspan></text></g></g><g is="custom" class="draggable" id="movable_element_107" transform="translate(536.4,430.8)"><rect x="-15" y="-15" rx="30" ry="30" width="30" height="30" fill-opacity="0"></rect><circle id="element_circle_107" stroke-width="1" r="5" stroke="black" fill="white"></circle></g><g transform="translate(536.4,430.8)"><g class="draggable" id="movable_element_text_107" transform="translate(-17,15)"><text is="custom" id="element_text_107" data-testid="element_text_107" font-weight="14px" font-size="13px" class="label" transform="translate(30, 10)" fill="black"><tspan x="0" dy="0" text-anchor="middle">Quantum</tspan><tspan x="0" dy="15" text-anchor="middle">Resistant</tspan><tspan x="0" dy="15" text-anchor="middle">Cryptography</tspan></text></g></g><g is="custom" class="draggable" id="movable_element_112" transform="translate(885.0600000000001,466.7)"><rect x="-15" y="-15" rx="30" ry="30" width="30" height="30" fill-opacity="0"></rect><circle id="element_circle_112" stroke-width="1" r="5" stroke="black" fill="white"></circle></g><g transform="translate(885.0600000000001,466.7)"><g class="draggable" id="movable_element_text_112" transform="translate(9,-2)"><text is="custom" id="element_text_112" data-testid="element_text_112" font-weight="14px" font-size="13px" class="label" transform="" fill="black">Transmission</text></g></g><g is="custom" class="draggable" id="movable_element_114" transform="translate(750.96,538.5)"><rect x="-15" y="-15" rx="30" ry="30" width="30" height="30" fill-opacity="0"></rect><circle id="element_circle_114" stroke-width="1" r="5" stroke="black" fill="white"></circle><rect id="element_square_114" x="-5" y="-5" fill="white" stroke="black" width="10" height="10" stroke-width="2"></rect></g><g transform="translate(750.96,538.5)"><g class="draggable" id="movable_element_text_114" transform="translate(-49,-12)"><text is="custom" id="element_text_114" data-testid="element_text_114" font-weight="14px" font-size="13px" class="label" transform="" fill="black">DATA STORE</text></g></g><g is="custom" class="draggable" id="movable_element_116" transform="translate(549.81,552.86)"><rect x="-15" y="-15" rx="30" ry="30" width="30" height="30" fill-opacity="0"></rect><circle id="element_circle_116" stroke-width="1" r="5" stroke="black" fill="white"></circle></g><g transform="translate(549.81,552.86)"><g class="draggable" id="movable_element_text_116" transform="translate(-117,2)"><text is="custom" id="element_text_116" data-testid="element_text_116" font-weight="14px" font-size="13px" class="label" transform="" fill="black">Digital Wallet</text></g></g><g is="custom" class="draggable" id="movable_element_117" transform="translate(643.68,552.86)"><rect x="-15" y="-15" rx="30" ry="30" width="30" height="30" fill-opacity="0"></rect><circle id="element_circle_117" stroke-width="1" r="5" stroke="black" fill="white"></circle></g><g transform="translate(643.68,552.86)"><g class="draggable" id="movable_element_text_117" transform="translate(-23,13)"><text is="custom" id="element_text_117" data-testid="element_text_117" font-weight="14px" font-size="13px" class="label" transform="translate(30, 10)" fill="black"><tspan x="0" dy="0" text-anchor="middle">Distributed</tspan><tspan x="0" dy="15" text-anchor="middle">Ledger</tspan></text></g></g><g is="custom" class="draggable" id="movable_element_118" transform="translate(952.1099999999999,552.86)"><rect x="-15" y="-15" rx="30" ry="30" width="30" height="30" fill-opacity="0"></rect><circle id="element_circle_118" stroke-width="1" r="5" stroke="black" fill="white"></circle></g><g transform="translate(952.1099999999999,552.86)"><g class="draggable" id="movable_element_text_118" transform="translate(-1,-22)"><text is="custom" id="element_text_118" data-testid="element_text_118" font-weight="14px" font-size="13px" class="label" transform="" fill="black">CMDB</text></g></g><g is="custom" class="draggable" id="movable_element_119" transform="translate(1005.75,552.86)"><rect x="-15" y="-15" rx="30" ry="30" width="30" height="30" fill-opacity="0"></rect><circle id="element_circle_119" stroke-width="1" r="5" stroke="black" fill="white"></circle></g><g transform="translate(1005.75,552.86)"><g class="draggable" id="movable_element_text_119" transform="translate(24,6)"><text is="custom" id="element_text_119" data-testid="element_text_119" font-weight="14px" font-size="13px" class="label" transform="" fill="black">SIEM</text></g></g><g is="custom" class="draggable" id="movable_element_125" transform="translate(603.45,646.2)"><rect x="-15" y="-15" rx="30" ry="30" width="30" height="30" fill-opacity="0"></rect><circle id="element_circle_125" stroke-width="1" r="5" stroke="black" fill="white"></circle><rect id="element_square_125" x="-5" y="-5" fill="white" stroke="black" width="10" height="10" stroke-width="2"></rect></g><g transform="translate(603.45,646.2)"><g class="draggable" id="movable_element_text_125" transform="translate(7,-7)"><text is="custom" id="element_text_125" data-testid="element_text_125" font-weight="14px" font-size="13px" class="label" transform="" fill="black">DATA SOURCE</text></g></g><g is="custom" class="draggable" id="movable_element_127" transform="translate(348.66,660.5600000000001)"><rect x="-15" y="-15" rx="30" ry="30" width="30" height="30" fill-opacity="0"></rect><circle id="element_circle_127" stroke-width="1" r="5" stroke="black" fill="white"></circle></g><g transform="translate(348.66,660.5600000000001)"><g class="draggable" id="movable_element_text_127" transform="translate(-103,0)"><text is="custom" id="element_text_127" data-testid="element_text_127" font-weight="14px" font-size="13px" class="label" transform="" fill="black">completeness</text></g></g><g is="custom" class="draggable" id="movable_element_129" transform="translate(509.58,660.5600000000001)"><rect x="-15" y="-15" rx="30" ry="30" width="30" height="30" fill-opacity="0"></rect><circle id="element_circle_129" stroke-width="1" r="5" stroke="black" fill="white"></circle></g><g transform="translate(509.58,660.5600000000001)"><g class="draggable" id="movable_element_text_129" transform="translate(-27,-21)"><text is="custom" id="element_text_129" data-testid="element_text_129" font-weight="14px" font-size="13px" class="label" transform="" fill="black">validated</text></g></g><g is="custom" class="draggable" id="movable_element_130" transform="translate(818.01,660.5600000000001)"><rect x="-15" y="-15" rx="30" ry="30" width="30" height="30" fill-opacity="0"></rect><circle id="element_circle_130" stroke-width="1" r="5" stroke="black" fill="white"></circle></g><g transform="translate(818.01,660.5600000000001)"><g class="draggable" id="movable_element_text_130" transform="translate(-53,-21)"><text is="custom" id="element_text_130" data-testid="element_text_130" font-weight="14px" font-size="13px" class="label" transform="" fill="black">Open data</text></g></g><g is="custom" class="draggable" id="movable_element_131" transform="translate(911.8800000000001,660.5600000000001)"><rect x="-15" y="-15" rx="30" ry="30" width="30" height="30" fill-opacity="0"></rect><circle id="element_circle_131" stroke-width="1" r="5" stroke="black" fill="white"></circle></g><g transform="translate(911.8800000000001,660.5600000000001)"><g class="draggable" id="movable_element_text_131" transform="translate(-33,24)"><text is="custom" id="element_text_131" data-testid="element_text_131" font-weight="14px" font-size="13px" class="label" transform="" fill="black">automated</text></g></g><g is="custom" class="draggable" id="movable_element_132" transform="translate(952.1099999999999,660.5600000000001)"><rect x="-15" y="-15" rx="30" ry="30" width="30" height="30" fill-opacity="0"></rect><circle id="element_circle_132" stroke-width="1" r="5" stroke="black" fill="white"></circle></g><g transform="translate(952.1099999999999,660.5600000000001)"><g class="draggable" id="movable_element_text_132" transform="translate(21,3)"><text is="custom" id="element_text_132" data-testid="element_text_132" font-weight="14px" font-size="13px" class="label" transform="" fill="black">manual entry</text></g></g></g><g id="notes"></g><g id="annotations"></g></g></svg>